<?xml version="1.0" standalone="no"?>
<!DOCTYPE svg PUBLIC "-//W3C//DTD SVG 20010904//EN"
 "http://www.w3.org/TR/2001/REC-SVG-20010904/DTD/svg10.dtd">
<svg version="1.0" xmlns="http://www.w3.org/2000/svg"
 width="70.000000pt" height="70.000000pt" viewBox="0 0 70.000000 70.000000"
 preserveAspectRatio="xMidYMid meet">
<metadata>
Created by potrace 1.16, written by Peter Selinger 2001-2019
</metadata>
<g transform="translate(0.000000,70.000000) scale(0.100000,-0.100000)"
fill="#000000" stroke="none">
<path d="M122 438 c-7 -7 -12 -43 -12 -90 0 -92 6 -98 100 -98 53 0 63 3 67
20 3 11 9 17 14 14 5 -3 9 2 9 11 0 11 -6 14 -24 9 -41 -10 -74 44 -44 74 14
14 58 16 58 3 0 -5 11 -4 24 2 13 7 22 15 20 19 -3 5 -1 8 3 8 5 0 9 9 10 20
2 19 -4 20 -106 20 -70 0 -111 -4 -119 -12z"/>
</g>
</svg>
