<?xml version="1.0" standalone="no"?>
<!DOCTYPE svg PUBLIC "-//W3C//DTD SVG 20010904//EN"
 "http://www.w3.org/TR/2001/REC-SVG-20010904/DTD/svg10.dtd">
<svg version="1.0" xmlns="http://www.w3.org/2000/svg"
 width="219.000000pt" height="230.000000pt" viewBox="0 0 219.000000 230.000000"
 preserveAspectRatio="xMidYMid meet">

<g transform="translate(0.000000,230.000000) scale(0.100000,-0.100000)"
fill="#469ff7" stroke="none">
<path d="M890 2170 c-114 -24 -169 -44 -270 -96 -282 -146 -486 -417 -544
-723 -22 -115 -21 -302 3 -417 42 -202 132 -366 285 -520 157 -156 314 -242
526 -286 138 -29 357 -21 484 16 182 54 326 139 454 268 419 418 409 1088 -22
1494 -146 139 -309 224 -503 263 -129 27 -294 27 -413 1z m410 -89 c601 -134
920 -794 650 -1347 -135 -278 -376 -462 -685 -525 -33 -7 -114 -12 -180 -11
-429 2 -801 295 -911 717 -37 143 -37 326 0 470 92 355 379 628 736 700 100
20 289 18 390 -4z"/>
<path d="M1043 1769 c-22 -14 -33 -29 -33 -45 0 -20 336 -616 358 -635 4 -3
35 11 69 31 l61 36 -182 315 c-170 293 -184 314 -211 317 -17 1 -44 -7 -62
-19z"/>
<path d="M921 1543 c-16 -26 -28 -50 -25 -54 6 -11 110 -69 122 -69 17 0 53
71 50 99 -3 29 -58 71 -94 71 -18 0 -32 -13 -53 -47z"/>
<path d="M725 1208 c-82 -143 -151 -265 -153 -271 -3 -16 118 -82 128 -70 5 4
76 123 159 263 168 288 162 257 64 311 l-48 27 -150 -260z"/>
<path d="M430 1150 l0 -70 98 0 97 0 35 62 c19 35 36 66 38 70 2 5 -57 8 -132
8 l-136 0 0 -70z"/>
<path d="M896 1155 c-20 -36 -36 -68 -36 -70 0 -3 106 -5 235 -5 129 0 235 2
235 5 0 3 -17 35 -37 70 l-37 65 -162 0 -162 0 -36 -65z"/>
<path d="M1500 1213 c0 -3 16 -35 35 -70 l36 -63 94 0 95 0 0 70 0 70 -130 0
c-71 0 -130 -3 -130 -7z"/>
<path d="M1452 1094 c-34 -19 -62 -38 -62 -41 0 -6 58 -113 65 -121 2 -2 33
13 69 33 l65 36 -28 47 c-16 26 -32 55 -37 64 -8 15 -15 14 -72 -18z"/>
<path d="M1537 942 c-26 -15 -50 -36 -53 -48 -8 -33 20 -89 62 -120 59 -45 94
-84 94 -106 0 -30 23 -16 37 23 16 45 16 122 1 172 -12 38 -66 107 -84 107 -5
0 -31 -13 -57 -28z"/>
<path d="M545 887 c-3 -6 -18 -63 -34 -124 -20 -78 -26 -113 -17 -113 11 0
176 160 176 172 0 3 -27 22 -60 42 -42 24 -62 32 -65 23z"/>
</g>
</svg>
