<?xml version="1.0" standalone="no"?>
<!DOCTYPE svg PUBLIC "-//W3C//DTD SVG 20010904//EN"
 "http://www.w3.org/TR/2001/REC-SVG-20010904/DTD/svg10.dtd">
<svg version="1.0" xmlns="http://www.w3.org/2000/svg"
 width="158.000000pt" height="167.000000pt" viewBox="0 0 158.000000 167.000000"
 preserveAspectRatio="xMidYMid meet">

<g transform="translate(0.000000,167.000000) scale(0.100000,-0.100000)"
fill="#ffffff" stroke="none">
<path d="M422 1658 c-9 -9 -12 -94 -12 -320 0 -294 1 -308 19 -318 11 -5 79
-10 152 -10 l132 0 -7 -32 c-9 -46 -42 -107 -78 -145 l-31 -32 -29 22 c-29 22
-30 22 -44 3 -17 -24 -20 -167 -4 -197 10 -17 22 -19 110 -19 138 0 154 9 105
60 l-25 27 35 46 c20 26 39 47 43 47 4 0 25 -21 46 -46 l38 -46 -26 -27 c-50
-52 -34 -61 103 -61 62 0 101 4 109 12 8 8 12 46 12 104 0 110 -13 131 -59 96
l-28 -21 -31 32 c-32 34 -82 130 -82 160 0 15 13 17 131 17 72 0 139 5 150 10
18 10 19 24 19 318 0 226 -3 311 -12 320 -17 17 -719 17 -736 0z m698 -313 l0
-275 -139 0 c-158 0 -175 -6 -165 -63 12 -67 37 -130 71 -175 45 -59 72 -81
101 -82 19 0 22 -5 22 -45 l0 -45 -45 0 c-42 0 -45 1 -35 20 9 16 3 27 -33 68
-24 26 -53 65 -66 85 -12 20 -29 37 -37 37 -8 0 -43 -37 -79 -82 -50 -64 -64
-88 -60 -105 5 -21 2 -23 -40 -23 l-45 0 0 45 c0 42 2 45 27 45 47 0 139 120
157 207 12 53 10 94 -5 104 -8 5 -76 9 -151 9 l-138 0 0 275 0 275 330 0 330
0 0 -275z"/>
<path d="M8 288 c-2 -150 -3 -276 -1 -280 3 -5 128 -8 279 -8 l274 0 0 280 0
280 -274 0 -274 0 -4 -272z m502 -3 l0 -225 -225 0 -225 0 0 225 0 225 225 0
225 0 0 -225z"/>
<path d="M1020 280 l0 -280 275 0 275 0 0 280 0 280 -275 0 -275 0 0 -280z
m500 5 l0 -225 -225 0 -225 0 0 225 0 225 225 0 225 0 0 -225z"/>
</g>
</svg>
