<?xml version="1.0" standalone="no"?>
<!DOCTYPE svg PUBLIC "-//W3C//DTD SVG 20010904//EN"
 "http://www.w3.org/TR/2001/REC-SVG-20010904/DTD/svg10.dtd">
<svg version="1.0" xmlns="http://www.w3.org/2000/svg"
 width="154.000000pt" height="146.000000pt" viewBox="0 0 154.000000 146.000000"
 preserveAspectRatio="xMidYMid meet">

<g transform="translate(0.000000,146.000000) scale(0.100000,-0.100000)"
fill="#ffffff" stroke="none">
<path d="M117 1446 c-51 -19 -85 -52 -98 -95 -6 -23 -9 -202 -7 -508 3 -458 4
-472 24 -500 11 -15 40 -38 64 -51 43 -21 52 -22 369 -22 l324 0 43 -35 c73
-60 128 -80 220 -80 78 0 82 -1 97 -27 23 -40 61 -52 100 -33 30 15 30 15 82
-35 63 -59 94 -69 142 -46 39 19 68 75 58 114 -3 13 -29 48 -57 78 -41 44 -48
56 -39 68 7 8 11 32 9 53 -2 29 -10 42 -33 57 -29 19 -30 22 -30 100 -1 92
-21 148 -79 219 l-35 43 -3 306 c-3 294 -4 308 -24 335 -12 15 -36 37 -55 48
-33 19 -54 20 -534 22 -406 2 -507 0 -538 -11z m1037 -50 c65 -27 66 -30 66
-338 0 -153 -3 -278 -7 -278 -28 1 -32 22 -35 209 -3 189 -3 193 -27 212 -22
18 -44 19 -375 19 -193 0 -357 -4 -365 -9 -8 -5 -11 -16 -8 -25 6 -14 48 -16
364 -18 l358 -3 3 -175 2 -175 -77 0 c-63 0 -89 -5 -134 -27 -120 -55 -193
-167 -194 -295 l0 -73 -288 0 -287 0 2 373 3 372 95 3 c101 3 128 14 96 38
-14 10 -47 14 -108 14 -81 0 -91 -2 -114 -25 l-25 -25 3 -386 c3 -368 4 -386
22 -400 16 -11 76 -14 318 -14 284 0 298 -1 308 -19 5 -11 10 -22 10 -26 0 -3
-144 -4 -321 -3 l-321 3 -29 33 -29 32 0 473 c0 522 -2 504 64 533 46 20 982
20 1030 0z m21 -651 c119 -58 186 -196 156 -322 -10 -42 -24 -62 -89 -126 -63
-62 -86 -78 -125 -88 -122 -30 -249 27 -311 141 -85 155 -10 343 161 406 51
19 157 13 208 -11z m223 -420 c2 -14 -25 -48 -87 -109 -77 -77 -92 -88 -105
-76 -9 7 -16 17 -16 24 0 18 174 187 190 184 8 -2 16 -12 18 -23z m86 -232
c-5 -16 -21 -32 -37 -37 -25 -9 -32 -5 -77 39 l-50 49 37 38 37 38 50 -49 c46
-46 49 -53 40 -78z"/>
<path d="M152 1364 c-24 -16 -30 -61 -12 -94 13 -24 55 -33 83 -19 30 16 37
28 37 66 0 35 -29 63 -65 63 -11 0 -31 -7 -43 -16z m58 -54 c0 -11 -7 -20 -15
-20 -8 0 -15 9 -15 20 0 11 7 20 15 20 8 0 15 -9 15 -20z"/>
<path d="M290 1360 c-29 -29 -26 -74 6 -99 33 -26 55 -26 85 -3 15 13 22 30
22 52 0 61 -71 92 -113 50z m65 -50 c0 -22 -29 -18 -33 3 -3 14 1 18 15 15 10
-2 18 -10 18 -18z"/>
<path d="M256 1095 c-3 -9 -6 -52 -6 -96 l0 -79 -29 0 c-39 0 -47 -14 -21 -40
25 -25 51 -26 79 -2 20 16 22 25 19 122 -3 87 -6 105 -19 108 -9 2 -19 -4 -23
-13z"/>
<path d="M375 1078 c-30 -27 -38 -43 -42 -78 -11 -116 126 -183 208 -101 76
77 30 198 -80 209 -45 4 -52 1 -86 -30z m134 -44 c12 -15 21 -38 21 -51 0 -32
-42 -73 -75 -73 -36 0 -75 42 -75 80 0 67 88 97 129 44z"/>
<path d="M606 1094 c-11 -30 -7 -209 6 -222 16 -16 86 -15 118 1 14 7 31 25
38 40 11 23 11 32 -3 59 -9 19 -13 43 -10 58 4 18 -1 35 -15 53 -19 23 -29 27
-75 27 -39 0 -54 -4 -59 -16z m99 -54 c0 -9 -11 -16 -27 -18 -23 -3 -28 1 -28
18 0 17 5 21 28 18 16 -2 27 -9 27 -18z m15 -85 c18 -21 -4 -45 -41 -45 -26 0
-29 4 -29 30 0 26 3 30 29 30 16 0 34 -7 41 -15z"/>
<path d="M213 745 c-11 -31 13 -36 173 -33 151 3 159 4 159 23 0 19 -8 20
-163 23 -141 2 -163 0 -169 -13z"/>
<path d="M223 663 c-7 -2 -13 -13 -13 -24 0 -18 9 -19 170 -19 160 0 170 1
170 19 0 10 -7 22 -16 25 -19 7 -293 7 -311 -1z"/>
<path d="M213 555 c-11 -31 13 -36 173 -33 151 3 159 4 159 23 0 19 -8 20
-163 23 -141 2 -163 0 -169 -13z"/>
<path d="M965 691 c-151 -70 -181 -261 -57 -373 89 -80 215 -77 299 7 43 43
57 85 28 85 -9 0 -30 -16 -48 -36 -109 -125 -307 -53 -307 111 0 135 139 216
260 152 50 -26 90 -90 90 -143 0 -32 14 -45 38 -37 16 6 15 51 -3 104 -31 87
-118 149 -210 149 -28 0 -68 -9 -90 -19z"/>
</g>
</svg>
