<?xml version="1.0" standalone="no"?>
<!DOCTYPE svg PUBLIC "-//W3C//DTD SVG 20010904//EN"
 "http://www.w3.org/TR/2001/REC-SVG-20010904/DTD/svg10.dtd">
<svg version="1.0" xmlns="http://www.w3.org/2000/svg"
 width="200.000000pt" height="200.000000pt" viewBox="0 0 200.000000 200.000000"
 preserveAspectRatio="xMidYMid meet">

<g transform="translate(0.000000,200.000000) scale(0.100000,-0.100000)"
fill="#ffffff" stroke="none">
<path d="M1452 1929 c-78 -15 -151 -56 -213 -119 l-59 -60 -424 0 c-346 0
-426 -2 -435 -14 -8 -9 -11 -100 -9 -312 l3 -299 30 0 30 0 3 143 c2 127 4
142 20 142 9 0 44 13 77 29 80 37 139 104 164 185 l19 61 247 3 247 2 -7 -27
c-55 -212 31 -410 215 -497 55 -26 79 -32 155 -34 104 -4 172 14 249 67 l46
32 0 -68 0 -68 -59 -17 c-67 -20 -150 -88 -181 -149 -11 -21 -20 -41 -20 -44
0 -3 23 -5 51 -5 77 0 89 -10 89 -76 l0 -55 88 3 87 3 5 280 c5 276 6 281 32
340 66 147 36 313 -78 435 -94 100 -237 146 -372 119z m233 -91 c60 -32 125
-97 156 -158 34 -67 38 -195 9 -272 -28 -74 -93 -146 -167 -183 -52 -27 -67
-30 -153 -30 -84 0 -101 3 -147 28 -75 39 -115 78 -154 149 -32 59 -34 69 -34
158 0 84 3 102 28 152 34 70 109 140 180 168 76 30 212 24 282 -12z"/>
<path d="M1507 1804 c-4 -4 -7 -19 -7 -33 0 -19 -8 -30 -28 -38 -57 -26 -80
-114 -45 -174 19 -32 68 -59 105 -59 50 0 77 -69 42 -104 -32 -33 -104 -8
-104 36 0 21 -26 42 -45 34 -25 -9 -19 -70 10 -105 14 -16 35 -33 45 -36 14
-4 20 -15 20 -35 0 -20 6 -31 20 -35 28 -9 40 2 40 33 0 21 7 30 31 41 21 9
38 28 51 58 17 40 18 49 6 86 -15 48 -65 87 -109 87 -36 0 -69 32 -69 65 0 29
32 65 58 65 29 0 59 -27 65 -58 7 -35 31 -47 52 -26 27 28 -5 103 -56 129 -18
10 -29 24 -31 42 -3 27 -34 44 -51 27z"/>
<path d="M158 1350 c-40 -22 -69 -58 -86 -109 -16 -46 -17 -989 -1 -1046 14
-51 73 -110 124 -124 27 -7 223 -11 603 -11 l562 0 10 26 c6 14 10 70 10 125
l0 99 115 0 c115 0 116 0 125 26 6 14 10 126 10 250 l0 224 -125 0 -125 0 0
106 c0 58 -5 114 -10 125 -10 18 -27 19 -571 19 -607 0 -604 0 -647 55 -16 20
-22 42 -22 77 0 41 5 54 29 79 16 16 43 32 60 35 26 6 31 11 31 35 0 25 -4 29
-27 29 -16 -1 -45 -10 -65 -20z m1402 -785 l0 -185 -361 0 -361 0 -33 33 c-59
59 -71 177 -26 265 37 72 33 71 429 72 l352 0 0 -185z m-1130 -390 c7 -8 10
-22 6 -30 -5 -13 -25 -15 -123 -13 -106 3 -118 5 -121 22 -6 29 16 36 124 36
78 0 104 -3 114 -15z m188 -17 c3 -28 3 -28 -53 -28 -40 0 -57 4 -61 15 -11
28 16 46 65 43 42 -3 46 -5 49 -30z"/>
<path d="M943 670 c-18 -10 -39 -31 -49 -45 -19 -28 -21 -94 -4 -125 16 -30
70 -60 108 -60 133 0 171 174 52 235 -39 20 -69 19 -107 -5z m102 -66 c25 -25
16 -75 -17 -94 -25 -13 -31 -13 -55 0 -56 31 -36 110 27 110 16 0 36 -7 45
-16z"/>
</g>
</svg>
