<?xml version="1.0" standalone="no"?>
<!DOCTYPE svg PUBLIC "-//W3C//DTD SVG 20010904//EN"
 "http://www.w3.org/TR/2001/REC-SVG-20010904/DTD/svg10.dtd">
<svg version="1.0" xmlns="http://www.w3.org/2000/svg"
 width="225.000000pt" height="225.000000pt" viewBox="0 0 225.000000 225.000000"
 preserveAspectRatio="xMidYMid meet">

<g transform="translate(0.000000,225.000000) scale(0.100000,-0.100000)"
fill="#469ff7" stroke="none">
<path d="M754 1772 c208 -207 428 -424 488 -481 l109 -104 150 149 c82 82 149
151 149 154 0 3 -44 31 -97 62 -270 154 -628 362 -798 461 -224 131 -239 137
-313 137 l-67 0 379 -378z"/>
<path d="M264 2072 c-14 -15 -34 -45 -45 -67 -18 -38 -19 -80 -19 -881 l0
-840 25 -50 c14 -28 35 -60 48 -72 l23 -21 488 488 488 488 -491 491 -491 491
-26 -27z"/>
<path d="M1572 1277 l-162 -162 132 -130 c73 -72 147 -143 164 -158 l31 -28
104 60 c164 94 199 138 199 253 0 76 -34 155 -84 192 -29 23 -212 136 -218
136 -2 0 -76 -73 -166 -163z"/>
<path d="M868 563 c-447 -446 -468 -468 -439 -471 62 -6 144 31 427 194 159
91 400 230 536 307 136 78 248 145 248 148 0 12 -279 289 -291 289 -6 0 -223
-210 -481 -467z"/>
</g>
</svg>
