<?xml version="1.0" standalone="no"?>
<!DOCTYPE svg PUBLIC "-//W3C//DTD SVG 20010904//EN"
 "http://www.w3.org/TR/2001/REC-SVG-20010904/DTD/svg10.dtd">
<svg version="1.0" xmlns="http://www.w3.org/2000/svg"
 width="225.000000pt" height="225.000000pt" viewBox="0 0 225.000000 225.000000"
 preserveAspectRatio="xMidYMid meet">

<g transform="translate(0.000000,225.000000) scale(0.100000,-0.100000)"
fill="#ffffff" stroke="none">
<path d="M1480 1910 c0 -29 -2 -30 -45 -30 l-45 0 0 -47 c0 -122 33 -175 114
-187 54 -8 69 -25 70 -79 1 -39 -1 -42 -28 -45 -44 -5 -71 5 -86 33 -9 17 -22
25 -41 25 -23 0 -26 -3 -22 -22 9 -34 41 -76 63 -83 15 -5 20 -15 20 -41 0
-31 2 -34 30 -34 27 0 30 3 30 30 0 29 2 30 45 30 l45 0 0 83 c0 91 -11 117
-60 142 -16 8 -40 15 -53 15 -35 0 -67 39 -67 84 l0 37 52 -3 c46 -3 54 -6 66
-30 17 -37 62 -40 62 -4 0 29 -35 74 -66 86 -18 7 -24 17 -24 40 0 27 -3 30
-30 30 -27 0 -30 -3 -30 -30z"/>
<path d="M572 1679 c-61 -24 -140 -96 -173 -160 -20 -38 -24 -58 -24 -144 0
-76 4 -108 18 -134 9 -19 16 -35 15 -36 -2 -2 -19 -10 -38 -20 -60 -30 -104
-71 -137 -127 -102 -170 -35 -384 146 -470 25 -11 47 -22 49 -24 2 -1 -4 -19
-12 -39 -22 -52 -21 -143 2 -178 11 -15 44 -54 74 -86 41 -43 65 -59 91 -64
99 -16 254 67 348 185 l39 50 0 -65 c0 -74 23 -118 80 -151 34 -20 49 -21 465
-21 413 0 431 1 465 20 21 12 44 39 58 65 l22 44 0 556 c0 344 -4 569 -10 592
-13 46 -64 96 -108 104 -36 7 -46 1 -57 -33 -6 -20 -3 -23 24 -23 17 0 42 -10
58 -24 l28 -24 0 -581 0 -581 -28 -27 -27 -28 -398 -3 c-218 -2 -412 0 -431 3
-18 4 -44 18 -57 32 l-24 26 0 574 0 575 29 29 c20 19 40 29 60 29 35 0 35 0
19 35 -18 39 -71 32 -125 -18 -13 -11 -23 -16 -23 -10 0 23 -95 115 -144 140
-71 37 -197 42 -274 12z m210 -49 c89 -25 173 -129 185 -227 12 -109 -58 -233
-157 -278 -39 -17 -41 -17 -60 0 -13 12 -20 31 -20 57 0 36 2 38 31 38 l31 0
-4 65 c-5 75 -24 103 -79 114 -27 5 -35 12 -37 34 -3 23 0 27 21 27 14 0 27
-7 31 -15 3 -9 18 -15 36 -15 28 0 31 3 25 23 -4 12 -18 32 -31 44 -15 14 -24
33 -24 53 0 27 -3 30 -30 30 -27 0 -30 -3 -30 -30 0 -27 -3 -30 -30 -30 l-30
0 0 -64 c0 -59 2 -66 31 -90 17 -14 41 -26 54 -26 22 0 35 -17 35 -46 0 -19
-49 -18 -56 1 -4 9 -19 15 -35 15 -39 0 -39 -30 1 -63 17 -14 30 -33 30 -41 0
-19 -4 -20 -55 -1 -22 8 -64 14 -93 15 -52 0 -53 0 -72 43 -13 27 -20 64 -20
107 0 185 169 310 352 260z m188 -681 l0 -221 -41 36 c-22 20 -50 42 -63 47
-20 10 -22 17 -19 57 4 41 -4 79 -32 167 -5 16 3 24 38 43 25 13 59 39 78 58
18 19 34 34 36 34 2 0 3 -100 3 -221z m-335 183 c23 -11 60 -41 82 -65 129
-139 70 -367 -110 -434 -55 -20 -146 -16 -202 11 -56 26 -119 90 -142 145 -55
129 25 305 161 355 56 21 159 15 211 -12z m233 -402 c63 -119 -158 -380 -322
-380 -66 0 -86 19 -86 79 0 25 9 64 19 87 18 40 20 41 78 46 34 3 80 16 109
31 52 26 126 99 146 142 14 31 38 29 56 -5z m102 -121 c0 -34 -13 -44 -30 -24
-8 10 -10 28 -5 52 6 35 8 37 21 18 8 -10 14 -31 14 -46z m-52 -91 c18 -18 15
-31 -19 -78 -31 -42 -31 -42 -51 -23 -20 20 -20 20 13 67 36 50 39 52 57 34z
m-110 -140 c19 -19 15 -25 -34 -59 -45 -31 -46 -31 -65 -12 -19 19 -19 19 23
50 48 35 59 38 76 21z m-163 -98 c18 -20 17 -20 -27 -20 -58 0 -87 26 -36 33
18 2 36 5 39 5 3 1 14 -7 24 -18z"/>
<path d="M494 1385 c-8 -21 2 -45 19 -45 21 0 38 25 31 44 -8 20 -43 21 -50 1z"/>
<path d="M857 1393 c-13 -12 -7 -41 10 -47 21 -8 48 17 40 38 -6 16 -38 22
-50 9z"/>
<path d="M490 1070 c0 -27 -3 -30 -30 -30 l-30 0 0 -65 c0 -57 3 -69 25 -90
13 -14 35 -25 48 -25 28 0 47 -17 47 -42 0 -23 -48 -25 -56 -3 -4 9 -19 15
-35 15 -39 0 -39 -33 1 -70 18 -17 30 -38 30 -54 0 -22 4 -26 30 -26 27 0 30
3 30 30 0 27 3 30 30 30 29 0 30 1 30 50 0 82 -19 107 -102 134 -25 8 -24 56
1 56 10 0 24 -7 31 -15 12 -14 70 -22 70 -10 0 16 -31 63 -45 68 -9 4 -15 19
-15 42 0 32 -2 35 -30 35 -27 0 -30 -3 -30 -30z"/>
<path d="M311 902 c-7 -13 -6 -23 1 -30 26 -26 64 -2 47 30 -5 10 -16 18 -24
18 -8 0 -19 -8 -24 -18z"/>
<path d="M674 905 c-9 -23 3 -45 26 -45 25 0 37 25 20 45 -16 19 -39 19 -46 0z"/>
<path d="M1246 1685 c-3 -8 2 -22 11 -30 14 -15 18 -15 31 -1 8 8 12 22 9 30
-8 20 -43 21 -51 1z"/>
<path d="M1737 1694 c-12 -12 -8 -42 6 -47 21 -8 39 8 35 29 -3 19 -29 30 -41
18z"/>
<path d="M1090 1250 l0 -210 425 0 425 0 0 210 0 210 -47 -1 c-41 0 -52 -5
-71 -30 l-24 -29 41 0 41 0 0 -150 0 -150 -365 0 -365 0 0 150 0 150 41 0 41
0 -24 29 c-19 25 -30 30 -70 30 l-48 1 0 -210z"/>
</g>
</svg>
