<?xml version="1.0" standalone="no"?>
<!DOCTYPE svg PUBLIC "-//W3C//DTD SVG 20010904//EN"
 "http://www.w3.org/TR/2001/REC-SVG-20010904/DTD/svg10.dtd">
<svg version="1.0" xmlns="http://www.w3.org/2000/svg"
 width="200.000000pt" height="200.000000pt" viewBox="0 0 200.000000 200.000000"
 preserveAspectRatio="xMidYMid meet">

<g transform="translate(0.000000,200.000000) scale(0.100000,-0.100000)"
fill="#ffffff" stroke="none">
<path d="M90 1898 c-29 -15 -53 -37 -68 -63 -21 -38 -22 -48 -20 -237 3 -218
6 -226 78 -275 29 -20 46 -23 136 -23 l104 0 0 -437 c0 -490 0 -491 70 -525
32 -16 76 -18 480 -18 274 0 459 4 482 10 20 6 46 22 58 37 20 25 20 36 20
624 l0 599 55 0 55 0 0 -685 0 -685 -485 0 -485 0 0 -35 c0 -24 9 -45 29 -67
l29 -33 477 -3 c410 -2 480 0 508 13 64 30 62 3 65 633 l3 572 103 0 c90 0
107 3 136 23 72 49 75 57 78 275 2 189 1 199 -20 237 -15 26 -39 48 -68 63
l-44 22 -866 0 -866 0 -44 -22z m1210 -873 l0 -565 -420 0 -420 0 0 565 0 565
420 0 420 0 0 -565z"/>
<path d="M830 1370 c0 -35 -4 -42 -27 -50 -82 -29 -123 -78 -123 -147 0 -82
34 -120 149 -167 76 -31 101 -51 101 -82 0 -51 -79 -68 -176 -39 -64 19 -61
20 -68 -21 -4 -19 -9 -41 -12 -48 -6 -16 33 -33 96 -44 44 -7 45 -8 48 -50 l3
-42 45 0 44 0 0 43 c0 42 1 42 59 69 68 32 93 64 99 130 9 90 -29 137 -147
183 -39 15 -80 38 -92 51 -21 22 -21 24 -5 49 14 22 24 25 70 25 29 0 68 -5
85 -11 39 -14 48 -7 57 47 6 40 5 42 -26 53 -18 6 -46 11 -61 11 -27 0 -29 3
-29 40 l0 40 -45 0 -45 0 0 -40z"/>
</g>
</svg>
