<svg xmlns="http://www.w3.org/2000/svg" xmlns:xlink="http://www.w3.org/1999/xlink" width="862.457" height="944.953"><g opacity=".74"><defs><path id="a" opacity=".74" d="M-144.25 1045.692l1145.558-6.519V-122.029l-1145.558 6.518z"/></defs><clipPath id="b"><use xlink:href="#a" overflow="visible"/></clipPath><path opacity=".23" clip-path="url(#b)" fill-rule="evenodd" clip-rule="evenodd" fill="#D9B7B3" d="M792.787 293.97S774.323 125.081 636.768 55.008C469.951-29.969 427.744 218.454 250.443 186.294c-177.3-32.161-360.576 350.489-61.801 571.875C487.419 979.56 862.399 786.982 792.787 293.97z"/></g><path d="M681.799 396.062c.509-2.271 2.262-3.922 4.377-4.447-1.691-1.374-2.576-3.616-2.069-5.888a5.939 5.939 0 017.089-4.498l.939.211 14.022 3.461s-.178-13.19 2.425-19.678c2.601-6.488 12.346-7.432 10.825.118-1.525 7.551-1.147 10.265 3.179 18.136 2.826 5.146 4.121 8.966 4.682 10.994a6.418 6.418 0 01.059 3.098l-6.359 28.453a2.886 2.886 0 01-3.447 2.187l-34.134-7.628s-.616-.139-.938-.21c-3.199-.715-5.54-3.698-4.572-6.83.793-2.563 4.211-2.84 4.211-2.84s-3.814-1.319-2.968-5.103c.787-3.522 3.173-3.895 4.749-3.651-1.694-1.373-2.579-3.614-2.07-5.885zm53.925 1.202l12.316 2.754a3.744 3.744 0 012.837 4.469l-7.196 32.201a3.745 3.745 0 01-4.47 2.838l-12.317-2.753a3.743 3.743 0 01-2.836-4.469l7.197-32.202a3.744 3.744 0 014.469-2.838z" fill="#7557E4"/><defs><path id="c" d="M611.925 752.637c11.429-34.077 42.144-57.862 73.398-75.614 31.253-17.748 65.192-32.02 91.336-56.684 21.344-20.141 36.516-46.732 42.991-75.354 5.538-24.474 2.673-54.382-18.164-68.368-12.71-8.53-29.609-8.972-44.147-4.192-14.543 4.776-27.096 14.2-38.522 24.383-68.569 61.103-103.227 150.637-135.509 236.62-2.585 6.89-5.216 14.123-4.284 21.425.93 7.302 6.706 14.552 14.067 14.446 7.358-.109 12.762-10.746 7.114-15.466"/></defs><clipPath id="d"><use xlink:href="#c" overflow="visible"/></clipPath><g clip-path="url(#d)"><path fill="#788FEC" d="M611.925 752.637c11.429-34.077 42.144-57.862 73.398-75.614 31.253-17.748 65.192-32.02 91.336-56.684 21.344-20.141 36.516-46.732 42.991-75.354 5.538-24.474 2.673-54.382-18.164-68.368-12.71-8.53-29.609-8.972-44.147-4.192-14.543 4.776-27.096 14.2-38.522 24.383-68.569 61.103-103.227 150.637-135.509 236.62-2.585 6.89-5.216 14.123-4.284 21.425.93 7.302 6.706 14.552 14.067 14.446 7.358-.109 12.762-10.746 7.114-15.466"/></g><path clip-path="url(#d)" fill="none" stroke="#FFF" stroke-width=".5" stroke-miterlimit="10" d="M829.264 463.311s-130.265 82.407-254.213 332.322m182.134-269.612s-3.887-57.196 4.427-85.618m-20.59 105.144s76.896 24.423 117.177 7.337m-87.181-39.07s76.955 8.556 101.604-12.31m-147.469 58.921s-24.871-50.105-25.506-84.691m6.207 109.623s102.119 39.072 137.869 4.899M691.61 604.073s-44.69-61.616-41.43-98.757m31.085 114.912s69.628 36.104 93.286 31.049m-107.356-15.122s-54.458-39.823-62.01-68.304m49.395 90.855s63.875 38.542 111.886 32.212m-128.162-10.826s-64.456-44.182-72.183-69.873"/><path fill="#7557E4" d="M657.674 766.125c5.863-22.598 25.577-39.367 47.021-48.596 21.441-9.231 44.923-12.3 67.788-17.014 22.864-4.719 46.163-11.571 63.898-26.755 7.757-6.639 14.459-15.203 16.221-25.262 1.757-10.058-2.614-21.624-11.913-25.844-14.718-6.677-30.109 6.85-41.276 18.534a420.804 420.804 0 01-92.92 73.148"/><defs><path id="e" d="M363.981 852.868c-19.597-37.476-59.696-59.415-99.303-74.245-39.606-14.83-81.688-25.12-116.638-48.932-28.535-19.442-51.094-47.528-63.925-79.583-10.974-27.413-13.189-62.692 8.429-82.808 13.186-12.268 32.739-15.915 50.521-13.059 17.782 2.855 34.114 11.475 49.281 21.188 91.003 58.283 147.874 155.892 201.327 249.814 4.283 7.524 8.682 15.442 8.952 24.101.271 8.654-5.095 18.152-13.666 19.391-8.571 1.24-16.821-10.117-11.136-16.649"/></defs><clipPath id="f"><use xlink:href="#e" overflow="visible"/></clipPath><g clip-path="url(#f)"><path fill="#7557E4" d="M363.981 852.868c-19.597-37.476-59.696-59.415-99.303-74.245-39.606-14.83-81.688-25.12-116.638-48.932-28.535-19.442-51.094-47.528-63.925-79.583-10.974-27.413-13.189-62.692 8.429-82.808 13.186-12.268 32.739-15.915 50.521-13.059 17.782 2.855 34.114 11.475 49.281 21.188 91.003 58.283 147.874 155.892 201.327 249.814 4.283 7.524 8.682 15.442 8.952 24.101.271 8.654-5.095 18.152-13.666 19.391-8.571 1.24-16.821-10.117-11.136-16.649"/></g><path clip-path="url(#f)" fill="none" stroke="#FFF" stroke-width=".5" stroke-miterlimit="10" d="M57.799 556.989s166.641 71.595 357.002 339.006M153.18 616.487s-6.087-67.176-21.019-98.66m43.418 118.353S90.76 678.813 40.787 666.433m94.055-61.562s-87.832 24.208-120.338 4.536m182.273 41.119s19.608-62.832 13.934-103.135m13.115 128.526s-111.412 64.334-159.288 31.255m179.306-12.15s40.502-79.882 29.83-122.434m-14.81 139.287s-74.209 54.86-102.635 53.374m121.935-37.477s55.893-56.368 59.387-90.86m-40.547 114.724s-67.072 56.628-124.031 58.175m146.908-36.345s66.7-63.287 70.917-94.572"/><path fill="#FF597D" d="M503.548 788.482c12.788-15.255 36.135-14.241 55.9-11.906-7.539.503-14.224-7.104-13.586-14.632.639-7.529 7.624-13.695 15.153-14.321 7.529-.627 14.999 3.719 19.07 10.08-6.754-8.334-13.707-17.056-16.142-27.504-2.438-10.446 1.108-23.124 10.797-27.727 8.038-3.817 17.97-1.004 24.88 4.605 6.908 5.605 11.444 13.547 15.819 21.295-.036-13.43-7.129-25.697-13.998-37.238-6.867-11.541-13.939-23.826-13.928-37.256.013-13.434 10.146-27.825 23.565-27.29 13.332.531 21.848 14.271 26.504 26.775 8.76 23.516 12.648 48.833 11.353 73.894 3.23-26.401 11.858-52.133 25.199-75.143 1.616-2.785 3.427-5.656 6.255-7.195 4.817-2.622 11.17-.333 14.674 3.889 3.503 4.218 4.744 9.851 5.421 15.293 2.696 21.75-2.09 44.356-13.368 63.145 7.863-5.821 11.528-15.621 14.509-24.939 2.982-9.319 5.958-19.188 13.067-25.909 7.11-6.725 19.886-8.555 26.163-1.05 4.314 5.16 4.148 12.692 2.815 19.284-3.105 15.355-11.451 29.603-23.325 39.823a119.65 119.65 0 0138.46-28.183c5.545-2.552 11.972-4.682 17.623-2.376 10.691 4.369 9.81 20.568 2.914 29.834-6.893 9.267-17.564 15.555-23 25.746 13.791-14.868 37.462-19.498 55.837-10.918 18.373 8.578 30.022 29.696 27.479 49.813-81.268.879-162.536 1.756-243.805 2.636-32.746.353-65.522.706-98.217-1.161m-219.34 64.737c-6.348-24.47-27.695-42.631-50.917-52.625-23.223-9.994-48.651-13.318-73.411-18.426-24.76-5.106-49.992-12.527-69.197-28.968-8.4-7.193-15.661-16.468-17.566-27.362-1.904-10.89 2.831-23.416 12.9-27.982 15.939-7.231 32.607 7.414 44.699 20.067a455.783 455.783 0 00100.625 79.217"/><path fill="#3A5DEC" d="M139.407 851.526c12.967-15.467 36.635-14.439 56.679-12.071-7.643.509-14.423-7.201-13.776-14.836.647-7.634 7.73-13.883 15.366-14.522 7.633-.634 15.205 3.772 19.334 10.225-6.849-8.45-13.897-17.294-16.367-27.889-2.47-10.591 1.124-23.446 10.949-28.112 8.149-3.87 18.218-1.018 25.225 4.668 7.006 5.686 11.605 13.738 16.041 21.594-.037-13.617-7.228-26.057-14.192-37.758-6.964-11.703-14.134-24.159-14.122-37.776.012-13.617 10.285-28.211 23.891-27.669 13.519.539 22.154 14.472 26.876 27.148 8.881 23.844 12.824 49.512 11.509 74.922 3.275-26.769 12.023-52.856 25.551-76.188 1.637-2.825 3.473-5.738 6.341-7.298 4.885-2.658 11.325-.336 14.877 3.944 3.552 4.277 4.811 9.987 5.496 15.505 2.736 22.053-2.116 44.976-13.554 64.028 7.973-5.907 11.689-15.842 14.711-25.29 3.023-9.451 6.042-19.456 13.25-26.271 7.21-6.815 20.162-8.672 26.527-1.061 4.375 5.228 4.206 12.866 2.854 19.55-3.149 15.57-11.61 30.015-23.65 40.378a121.3 121.3 0 0138.996-28.575c5.622-2.588 12.138-4.747 17.868-2.406 10.841 4.43 9.946 20.853 2.956 30.248-6.989 9.396-17.812 15.77-23.322 26.102 13.983-15.075 37.983-19.767 56.614-11.066 18.631 8.697 30.442 30.108 27.863 50.506-82.401.893-164.801 1.781-247.202 2.671-33.202.357-66.436.716-99.585-1.175"/><ellipse transform="rotate(-9.032 522.335 887.583)" fill="#7557E4" cx="522.336" cy="887.781" rx="225.258" ry="32.068"/><path fill="#292929" d="M585.201 189.079l106.301 622.253c.606 3.567.843 7.128.737 10.607a51.828 51.828 0 01-.432 5.148c-.134.865-.267 1.73-.403 2.571-.914 5.043-2.593 9.867-4.891 14.352a53.095 53.095 0 01-3.924 6.472 55.506 55.506 0 01-4.78 5.82 67.652 67.652 0 01-3.635 3.498l-.024.005a51.688 51.688 0 01-3.954 3.129l-.022.004a51.582 51.582 0 01-6.549 3.972l-.021.006a51.41 51.41 0 01-4.714 2.111 53.42 53.42 0 01-10.273 2.831l-255.241 43.604a52.26 52.26 0 01-11.201.697c-.613-.036-1.201-.053-1.819-.112a56.271 56.271 0 01-2.021-.192 53.432 53.432 0 01-8.234-1.655 53.394 53.394 0 01-3.942-1.316c-.6-.224-1.2-.449-1.781-.7a47.31 47.31 0 01-3.683-1.71 52.89 52.89 0 01-10.412-7.014 52.99 52.99 0 01-3.656-3.466 52.872 52.872 0 01-4.835-5.864 49.805 49.805 0 01-5.097-8.882l-.003-.021a52.154 52.154 0 01-3.84-12.628l-106.3-622.251c-4.872-28.518 14.324-55.649 42.887-60.528l255.24-43.603c28.562-4.88 55.651 14.346 60.522 42.862z"/><path fill="#EDF1FF" d="M573.841 191.02l106.298 622.251c.47 2.75.667 5.546.58 8.32-.021 1.242-.133 2.502-.317 3.89l-.374 2.333c-.645 3.618-1.92 7.368-3.766 10.955a39.386 39.386 0 01-3.085 5.064c-1.05 1.513-2.33 3.063-3.774 4.598a53 53 0 01-2.452 2.36l-.384.345a37.385 37.385 0 01-2.486 2.017l-.605.406a37.17 37.17 0 01-4.55 2.811l-.536.28a51.448 51.448 0 01-3.646 1.651 43.84 43.84 0 01-8.066 2.196L391.434 904.1a40.551 40.551 0 01-8.721.556 36.512 36.512 0 01-2.938-.225 41.484 41.484 0 01-6.539-1.316c-1.035-.312-2.075-.65-2.979-1.008-.524-.192-.922-.335-1.274-.486l-.278-.115c-.778-.311-1.665-.721-2.767-1.28a42.948 42.948 0 01-8.144-5.508 41.508 41.508 0 01-2.815-2.653 41.654 41.654 0 01-3.777-4.593 39.575 39.575 0 01-3.729-6.354l-.264-.587a41.402 41.402 0 01-2.996-9.872L237.914 248.406c-3.796-22.223 11.22-43.426 33.465-47.227l255.24-43.601c16.974-2.9 33.344 5.178 41.817 19.047a40.535 40.535 0 015.405 14.395z"/><path opacity=".2" fill="#292929" d="M660.925 639.022a244.6 244.6 0 01-.284-8.369l8.381 49.057c-3.961-7.296-6.729-12.694-7.403-14.731-1.67-4.978-1.382-16.158-.694-25.957z"/><path fill="#292929" d="M612.125 346.649l-12.549-73.469c5.727-.979 11.162 2.87 12.14 8.598l9.009 52.729c.977 5.727-2.871 11.163-8.6 12.142zm-364.709 24.497l4.969-.85-6.274-36.734-4.97.85a5.478 5.478 0 00-4.478 6.322l4.43 25.935a5.482 5.482 0 006.323 4.477zm7.568 44.308l4.97-.849-6.276-36.736-4.97.85a5.48 5.48 0 00-4.478 6.321l4.431 25.936a5.48 5.48 0 006.323 4.478zm184.672-227.011l-75.896 12.964c-12.767 2.182-24.886-6.4-27.067-19.168l122.134-20.865c2.181 12.769-6.404 24.887-19.171 27.069z"/><path fill="#788FEC" d="M759.356 860.417c.253 1.209.586 2.39.973 3.533l6.443-.085 3.185 5.541-3.313 5.528a32.12 32.12 0 005.509 4.982l5.164-3.867 5.836 2.605.571 6.43c2.323.521 4.728.797 7.17.782l1.936-6.159 6.268-1.275 4.213 4.896a31.984 31.984 0 006.461-3.675l-2.054-6.119 4.315-4.721 6.278 1.469a31.881 31.881 0 003.059-6.766l-5.247-3.737.706-6.35 5.94-2.507a32.363 32.363 0 00-.563-3.838 35.343 35.343 0 00-.935-3.43l-6.451.066-3.165-5.55 3.342-5.521a32.43 32.43 0 00-5.511-5.011l-5.178 3.852-5.829-2.622-.546-6.437a32.32 32.32 0 00-7.389-.811l-1.919 6.17-6.26 1.301-4.223-4.886a32.396 32.396 0 00-6.45 3.702l2.073 6.112-4.296 4.741-6.28-1.454a31.86 31.86 0 00-3.045 6.775l5.27 3.718-.68 6.364-5.944 2.516a32.42 32.42 0 00.566 3.738zm20.165-15.633c4.947-6.21 13.999-7.266 20.237-2.296 6.207 4.972 7.238 14.018 2.274 20.227-4.936 6.232-13.996 7.264-20.212 2.311-6.246-4.96-7.257-14.028-2.299-20.242z"/><path fill="#7557E4" d="M543.06 85.323a34.166 34.166 0 00.209 4.077l7.03 1.456 2.131 6.792-4.934 5.218a35.783 35.783 0 004.795 6.744l6.545-2.964 5.725 4.235-.924 7.131a35.283 35.283 0 007.607 2.575l3.59-6.233 7.122.117 3.406 6.338a35.46 35.46 0 007.91-2.444l-.761-7.148 5.826-4.099 6.475 3.108a35.594 35.594 0 004.956-6.623l-4.809-5.328 2.294-6.738 7.063-1.297c.183-1.405.295-2.845.31-4.313a39.391 39.391 0 00-.192-3.954l-7.034-1.477-2.108-6.799 4.964-5.203a36.342 36.342 0 00-4.789-6.774l-6.56 2.943-5.711-4.253.952-7.131a35.814 35.814 0 00-7.841-2.657l-3.568 6.25-7.125-.088-3.418-6.329a35.94 35.94 0 00-7.905 2.476l.783 7.146-5.811 4.124-6.481-3.092a35.647 35.647 0 00-4.942 6.641l4.841 5.309-2.27 6.759-7.071 1.308a35.752 35.752 0 00-.28 4.197zm25.692-12.16c6.871-5.565 16.971-4.538 22.565 2.369 5.557 6.899 4.505 16.985-2.389 22.546-6.866 5.594-16.97 4.538-22.543-2.344-5.601-6.897-4.522-17.002 2.367-22.571zM135.901 167.88a25.347 25.347 0 00.153 3.007l5.186 1.074 1.571 5.008-3.638 3.848a26.427 26.427 0 003.536 4.974l4.828-2.188 4.219 3.125-.679 5.258a26.01 26.01 0 005.609 1.899l2.647-4.598 5.252.087 2.513 4.675a26.225 26.225 0 005.834-1.803l-.563-5.271 4.298-3.024 4.774 2.293a26.26 26.26 0 003.656-4.885l-3.547-3.93 1.69-4.969 5.211-.957c.134-1.038.217-2.099.227-3.181a28.648 28.648 0 00-.143-2.917l-5.187-1.089-1.556-5.015 3.661-3.837a26.7 26.7 0 00-3.533-4.997l-4.836 2.17-4.211-3.135.702-5.26a26.395 26.395 0 00-5.783-1.959l-2.633 4.609-5.252-.065-2.523-4.667a26.54 26.54 0 00-5.83 1.826l.579 5.271-4.286 3.042-4.781-2.279a26.286 26.286 0 00-3.644 4.896l3.568 3.916-1.674 4.984-5.215.965a28.691 28.691 0 00-.2 3.099zm18.949-8.967c5.068-4.105 12.517-3.348 16.64 1.747 4.099 5.087 3.323 12.527-1.76 16.627-5.064 4.127-12.517 3.348-16.625-1.728-4.131-5.086-3.336-12.54 1.745-16.646z"/><path fill="#3A5DEC" d="M614.918 106.132c-.008.694.03 1.383.104 2.057l3.547.735 1.076 3.429-2.488 2.633a17.936 17.936 0 002.421 3.403l3.302-1.496 2.888 2.139-.466 3.599a17.906 17.906 0 003.84 1.299l1.812-3.147 3.595.061 1.721 3.198a17.87 17.87 0 003.989-1.233l-.383-3.608 2.94-2.069 3.267 1.568a17.792 17.792 0 002.502-3.343l-2.427-2.688 1.157-3.401 3.565-.654c.094-.709.15-1.436.156-2.177.001-.676-.032-1.34-.097-1.996l-3.551-.745-1.063-3.432 2.502-2.626a18.2 18.2 0 00-2.416-3.419l-3.31 1.486-2.883-2.146.481-3.6a18.196 18.196 0 00-3.957-1.341l-1.802 3.155-3.595-.044-1.726-3.194a18.098 18.098 0 00-3.989 1.249l.395 3.606-2.931 2.081-3.272-1.56a17.813 17.813 0 00-2.492 3.352l2.44 2.68-1.144 3.411-3.569.66a18.328 18.328 0 00-.139 2.118zm12.967-6.136a8.09 8.09 0 1110.183 12.573c-3.465 2.823-8.565 2.291-11.378-1.182a8.087 8.087 0 011.195-11.391z"/><path fill="#FF597D" d="M244.71 904.913c-.008.692.03 1.38.105 2.056l3.548.736 1.076 3.429-2.49 2.63a18.032 18.032 0 002.418 3.404l3.305-1.496 2.888 2.139-.466 3.6a17.852 17.852 0 003.84 1.3l1.811-3.148 3.595.062 1.718 3.197a17.98 17.98 0 003.994-1.233l-.386-3.609 2.941-2.067 3.268 1.569a17.952 17.952 0 002.5-3.344l-2.426-2.689 1.156-3.4 3.566-.653c.092-.709.149-1.437.156-2.177a19.645 19.645 0 00-.099-1.996l-3.549-.745-1.064-3.432 2.504-2.625a18.218 18.218 0 00-2.417-3.419l-3.309 1.486-2.883-2.146.48-3.6a18.17 18.17 0 00-3.956-1.341l-1.802 3.156-3.595-.046-1.726-3.195a18.168 18.168 0 00-3.989 1.249l.395 3.606-2.932 2.082-3.272-1.562a18.071 18.071 0 00-2.494 3.353l2.442 2.679-1.146 3.41-3.568.661a19.267 19.267 0 00-.137 2.119zm12.965-6.138a8.093 8.093 0 0111.388 1.195c2.805 3.482 2.274 8.573-1.205 11.379a8.075 8.075 0 01-11.376-1.183 8.089 8.089 0 011.193-11.391zM55.336 252.524c.022 2.387.206 4.75.51 7.065l12.25 2.266 3.946 11.703-8.365 9.233a62.073 62.073 0 008.565 11.521l11.246-5.383 10.083 7.137-1.339 12.404a61.473 61.473 0 0013.293 4.187l5.996-10.947 12.358-.057 6.143 10.868a61.85 61.85 0 0013.636-4.531l-1.589-12.374 9.959-7.327 11.346 5.154a61.666 61.666 0 008.351-11.673l-8.538-9.064 3.728-11.771 12.211-2.511c.264-2.444.405-4.946.374-7.492a66.83 66.83 0 00-.481-6.854l-12.254-2.302-3.907-11.716 8.418-9.209c-2.415-4.182-5.283-8.082-8.561-11.576l-11.267 5.348-10.063-7.165 1.389-12.406c-4.336-1.933-8.92-3.411-13.698-4.32l-5.963 10.973-12.359.111-6.164-10.855a62.48 62.48 0 00-13.623 4.585l1.624 12.368-9.926 7.368-11.361-5.123a61.823 61.823 0 00-8.327 11.701l8.59 9.03-3.687 11.808-12.219 2.531c-.235 2.402-.364 4.839-.325 7.295zm44.119-22.04c11.717-9.909 29.275-8.5 39.228 3.277 9.898 11.763 8.445 29.299-3.306 39.199-11.706 9.958-29.272 8.498-39.191-3.236-9.973-11.757-8.474-29.327 3.269-39.24zm446.963 8.77v39.126c0 13.252 10.745 23.996 23.997 23.996h19.043v32.217l35.213-32.217h61.038c24.056 0 43.559-19.502 43.559-43.559s-19.503-43.56-43.559-43.56H570.415c-13.252.001-23.997 10.745-23.997 23.997z"/><circle fill="#FFF" cx="600.626" cy="257.597" r="7.378"/><circle fill="#FFF" cx="637.406" cy="257.597" r="7.378"/><circle fill="#FFF" cx="674.186" cy="257.597" r="7.378"/><g fill-rule="evenodd" clip-rule="evenodd"><path fill="#FFF" d="M295.285 272.792l236.083-37.383 26.606 168.025-236.083 37.383z"/><path fill="#7557E4" d="M446.003 347.379l-34.281-14.135 6.044 38.169z"/></g><path fill="#FFF" d="M361.921 646.087l-27.468-162.471 230.641-38.994 27.469 162.471z"/><path fill="#FF597D" d="M340.453 519.157l-6.014-35.553 230.642-39.017 6.014 35.553z"/><path fill="#788FEC" d="M438.574 534.652l111.691-18.884 1.226 7.251-111.69 18.884zm2.516 14.865l111.693-18.884 1.226 7.252-111.694 18.884zm2.5 14.88l87.823-14.848 1.215 7.183-87.824 14.848zm2.517 14.865l59.67-10.089 1.228 7.26-59.67 10.088z"/><path fill="#7557E4" d="M364.026 546.97l61.523-10.402 8.991 53.182-61.523 10.401z"/><g fill="#FFF"><circle cx="358.004" cy="498.654" r="3.525"/><circle cx="371.213" cy="496.421" r="3.525"/><circle cx="384.421" cy="494.188" r="3.525"/></g><linearGradient id="g" gradientUnits="userSpaceOnUse" x1="436.619" y1="781.456" x2="140.498" y2="1119.22" gradientTransform="rotate(-9.633 435.338 535.381)"><stop offset="0" stop-color="#fff"/><stop offset="1" stop-color="#d9b7b3"/></linearGradient><path fill="url(#g)" d="M596.363 649.041l27.473 161.855c0 .012-.006.021-.018.024L394.01 849.925l-27.476-161.876c-.002-.014.006-.024.019-.025l229.787-39.003a.02.02 0 01.023.02z"/><path fill="#3A5DEC" d="M372.557 723.463l-6.015-35.428 229.83-39.024 6.015 35.428z"/><circle fill="#FF597D" cx="428.727" cy="774.139" r="30.789"/><path fill="#7557E4" d="M470.291 738.845l111.3-18.886 1.227 7.226-111.3 18.887zm2.582 14.775l111.3-18.898 1.228 7.227-111.3 18.898zm2.453 14.85l111.303-18.887 1.226 7.227-111.302 18.887zm2.519 14.813l111.299-18.887 1.226 7.228-111.299 18.886z"/><path fill="#FFF" d="M430.398 767.482c1.016-1.188 1.571-2.75 1.29-4.413a5.455 5.455 0 00-6.293-4.465 5.453 5.453 0 00-4.468 6.29c.3 1.764 1.458 3.104 2.936 3.86-2.754 1.843-4.333 5.174-3.743 8.649l1.236 7.277 17.088-2.9-1.234-7.278c-.616-3.627-3.41-6.324-6.812-7.02z"/><g fill="#FFF"><circle cx="389.92" cy="702.917" r="3.091"/><circle cx="401.5" cy="700.951" r="3.091"/><circle cx="413.081" cy="698.987" r="3.091"/></g><path fill="#3A5DEC" d="M299.996 308.398l-5.685-35.482 236.898-37.956 5.685 35.483z"/><g fill="#FFF"><circle cx="317.731" cy="288.917" r="3.091"/><circle cx="329.312" cy="286.954" r="3.091"/><circle cx="340.893" cy="284.991" r="3.091"/></g><circle fill="#FF597D" cx="208.667" cy="443.693" r="28.33"/><path d="M252.275 510.427c1.895 3.155.868 7.303-2.295 9.198l-3 1.808c-3.157 1.897-7.297.87-9.199-2.287L151.46 375.655c-1.896-3.157-.869-7.3 2.289-9.202l3.003-1.803c3.157-1.9 7.304-.869 9.201 2.289l86.322 143.488zm-141.064 35.656L62.905 575.14c-3.792 2.281-8.765 1.044-11.043-2.749L18.111 516.29c-2.281-3.794-1.045-8.762 2.749-11.041l41.413-24.914c3.792-2.28 8.76-1.047 11.042 2.747l37.896 63.001z" fill="#292929"/><path fill="#3A5DEC" d="M18.96 517.703c-9.171 9.142-11.409 23.692-4.455 35.247l3.978 6.609c6.949 11.558 20.855 16.403 33.225 12.581L18.96 517.703zm54.356-34.613l34.249 56.932c57.37-28.762 110.428-26.079 128.337-24.006L153.417 378.9c-6.519 17.661-28.539 67.124-80.101 104.19zm-12.573 93.35c.174.222.306.484.529.679l10.251 8.733c1.659 1.41 4.157 1.222 5.604-.404l30.115 51.868 1.123 1.869 2.008 3.333a4.033 4.033 0 005.514 1.374l23.784-14.311c1.889-1.138 2.512-3.623 1.375-5.515l-3.132-5.199c-1.136-1.895-3.714-2.455-5.517-1.377 0 0-9.933-13.409-13.709-19.692-4.757-7.903-17.38-28.884-21.542-35.809l5.689-6.679c1.099-1.288 1.225-3.07.485-4.481L60.743 576.44z"/><path fill="#AFAFAF" d="M97.145 561.99l12.605 10.755-3.303 4.668z"/><path d="M236.914 353.374l-15.194 37.537a3.428 3.428 0 01-4.466 1.891 3.426 3.426 0 01-1.892-4.463l15.196-37.539a3.43 3.43 0 014.465-1.892 3.43 3.43 0 011.891 4.466zm34.657 29.05l-28.558 28.713a3.428 3.428 0 11-4.863-4.836l28.557-28.714a3.43 3.43 0 014.85-.014l.001.001a3.43 3.43 0 01.013 4.85zm21.147 38.348l-38.337 13.049a3.43 3.43 0 01-2.21-6.492l38.338-13.049a3.429 3.429 0 012.209 6.492zm8.944 36.54l-40.318 3.822a3.425 3.425 0 01-3.736-3.089v-.002a3.429 3.429 0 013.089-3.736l40.318-3.821a3.428 3.428 0 013.736 3.09 3.43 3.43 0 01-3.089 3.736z" fill="#FF597D"/><path fill="#3A5DEC" d="M394.599 91.619l-60.136 13.072a6.914 6.914 0 01-8.222-5.286L313.17 39.27a6.912 6.912 0 015.285-8.223l60.137-13.072a6.912 6.912 0 018.221 5.286l13.071 60.135a6.913 6.913 0 01-5.285 8.223z"/><path fill="#FFF" d="M371.989 42.926c-6.176-3.713-14.246-1.429-18.143 4.632l-.235.365-.364-.235c-6.063-3.896-14.352-2.625-18.429 3.318-4.22 6.149-2.498 14.523 3.73 18.525l19.393 11.852a4.164 4.164 0 005.622-1.222l12.723-18.833c4.005-6.227 2.094-14.559-4.297-18.402z"/><path fill="#3A5DEC" d="M380.672 91.792l-13.776 19.744-19.745-13.777"/></svg>