<svg xmlns="http://www.w3.org/2000/svg" width="794" height="523"><path opacity=".02" d="M658.745 307.284L424.647 179.637c-22.185-12.807-22.222-44.813-.068-57.675l80.262-49.097a33.317 33.317 0 0133.392-.043L772.324 200.47c22.188 12.81 22.228 44.814.077 57.679l-80.262 49.093a33.318 33.318 0 01-33.394.042z"/><path opacity=".045" d="M660.231 304.06L428.364 177.7c-21.621-12.482-21.658-43.676-.068-56.211l75.366-46.272a32.472 32.472 0 0132.546-.043l231.862 126.36c21.624 12.484 21.664 43.676.076 56.214l-75.366 46.27a32.473 32.473 0 01-32.549.042z"/><path opacity=".071" d="M661.719 300.835L432.081 175.762c-21.058-12.157-21.095-42.537-.067-54.748l70.47-43.447a31.626 31.626 0 0131.7-.042l229.633 125.073c21.061 12.159 21.1 42.539.074 54.751l-70.469 43.445a31.631 31.631 0 01-31.703.041z"/><path opacity=".096" d="M663.205 297.61L435.798 173.824c-20.495-11.831-20.531-41.398-.066-53.284l65.573-40.623a30.782 30.782 0 0130.854-.042l227.403 123.787c20.498 11.833 20.536 41.399.073 53.286l-65.573 40.622a30.787 30.787 0 01-30.857.04z"/><path opacity=".122" d="M664.691 294.386L439.515 171.888c-19.932-11.506-19.968-40.261-.066-51.821l60.678-37.798a29.935 29.935 0 0130.009-.041L755.31 204.726c19.934 11.508 19.972 40.262.071 51.822l-60.676 37.797a29.946 29.946 0 01-30.014.041z"/><path opacity=".147" d="M666.178 291.161l-222.945-121.21c-19.369-11.181-19.404-39.123-.066-50.358l55.781-34.973a29.09 29.09 0 0129.164-.041L751.057 205.79c19.369 11.183 19.408 39.124.069 50.358l-55.78 34.974a29.1 29.1 0 01-29.168.039z"/><path opacity=".173" d="M667.665 287.936L446.948 168.013c-18.805-10.856-18.84-37.985-.064-48.895l50.885-32.149a28.241 28.241 0 0128.317-.04l220.717 119.924c18.807 10.857 18.844 37.985.068 48.894l-50.884 32.149a28.253 28.253 0 01-28.322.04z"/><path opacity=".198" d="M669.151 284.712L450.666 166.076c-18.242-10.531-18.277-36.847-.065-47.432l45.989-29.323a27.399 27.399 0 0127.473-.041l218.486 118.638c18.243 10.531 18.279 36.847.066 47.43l-45.986 29.325a27.417 27.417 0 01-27.478.039z"/><path opacity=".224" d="M670.638 281.487L454.383 164.139c-17.68-10.206-17.715-35.709-.064-45.968l41.093-26.499a26.554 26.554 0 0126.627-.04l216.257 117.35c17.68 10.207 17.717 35.709.065 45.966l-41.091 26.501a26.573 26.573 0 01-26.632.038z"/><path opacity=".249" d="M672.125 278.262L458.1 162.202c-17.115-9.881-17.15-34.571-.063-44.505l36.196-23.674a25.71 25.71 0 0125.781-.04l214.027 116.063c17.116 9.881 17.152 34.571.063 44.502l-36.194 23.677a25.725 25.725 0 01-25.785.037z"/><path opacity=".275" d="M673.611 275.038L461.816 160.265c-16.553-9.556-16.587-33.433-.063-43.042l31.301-20.849a24.863 24.863 0 0124.936-.039L729.789 211.11c16.553 9.555 16.588 33.433.062 43.038L698.552 275a24.884 24.884 0 01-24.941.038z"/><path opacity=".3" d="M675.098 271.813L465.533 158.327c-15.989-9.23-16.023-32.295-.063-41.578l26.404-18.025a24.016 24.016 0 0124.09-.039l209.569 113.488c15.989 9.23 16.024 32.295.061 41.574l-26.401 18.029a24.038 24.038 0 01-24.095.037z"/><linearGradient id="a" gradientUnits="userSpaceOnUse" x1="417.848" y1="-95.121" x2="860.492" y2="557.438"><stop offset="0" stop-color="#2d085d"/><stop offset="1" stop-color="#410f82"/></linearGradient><path fill="url(#a)" d="M676.362 278.308L430.18 136.356c-29.348-16.944-25.666-46.537 8.218-66.101l.864-.25c33.883-19.565 85.141-21.687 114.485-4.745l193.054 111.272c29.342 16.943 25.663 46.538-8.221 66.1l-62.218 35.676z"/><path fill="#231F20" d="M738.58 238.668l-62.218 35.676L430.18 132.392c-12.434-7.175-18.873-16.63-19.665-26.621-.795 11.434 5.601 22.466 19.665 30.585l246.183 141.951 62.218-35.676c19.533-11.278 28.967-25.882 27.886-39.48-.873 12.426-10.238 25.33-27.887 35.517z"/><path fill="#EBDEF3" d="M537.764 111.868l6.722-8.621-14.931 3.884-11.971-6.39 1.679 9.402-13.956 4.578 15.801 2.022 3.507 9.125 7.929-8.059 16.281.97-11.061-6.911zm36.717 21.196l6.72-8.618-14.926 3.883-11.968-6.39 1.673 9.403-13.955 4.575 15.801 2.025 3.507 9.125 7.926-8.061 16.29.97-11.068-6.912zm36.716 21.201l6.722-8.62-14.928 3.882-11.971-6.389 1.679 9.4-13.958 4.578 15.804 2.023 3.504 9.126 7.923-8.059 16.286.968-11.061-6.909zm36.719 21.198l6.719-8.618-14.928 3.881-11.969-6.392 1.68 9.404-13.959 4.578 15.804 2.024 3.507 9.125 7.926-8.059 16.281.968-11.061-6.911zm36.713 21.199l6.725-8.62-14.926 3.881-11.974-6.387 1.677 9.4-13.956 4.58 15.804 2.021 3.504 9.126 7.926-8.059 16.29.97-11.07-6.912z" opacity=".5"/><path opacity=".02" d="M514.068 366.453L186.789 177.427c-27.542-15.905-27.597-55.646-.086-71.616l93.674-55.139a41.385 41.385 0 0141.47-.05l327.279 189.027c27.542 15.905 27.594 55.645.089 71.617l-93.678 55.137a41.378 41.378 0 01-41.469.05z"/><path opacity=".045" d="M515.915 362.449L191.404 175.021c-26.843-15.501-26.896-54.232-.085-69.799l87.594-51.632a40.337 40.337 0 0140.42-.05l324.511 187.428c26.842 15.501 26.895 54.232.088 69.801l-87.599 51.629a40.324 40.324 0 01-40.418.051z"/><path opacity=".071" d="M517.762 358.445L196.021 172.616c-26.145-15.098-26.197-52.819-.085-67.982L277.45 56.51a39.285 39.285 0 0139.369-.05L638.56 242.29c26.144 15.097 26.195 52.818.087 67.983l-81.518 48.121a39.271 39.271 0 01-39.367.051z"/><path opacity=".096" d="M519.608 354.441L200.637 170.21c-25.446-14.694-25.498-51.406-.084-66.164l75.434-44.617a38.236 38.236 0 0138.32-.049l318.971 184.231c25.445 14.694 25.496 51.405.087 66.166l-75.438 44.614a38.23 38.23 0 01-38.319.05z"/><path opacity=".122" d="M521.455 350.437L205.252 167.804c-24.747-14.29-24.797-49.993-.083-64.346l69.354-41.109a37.189 37.189 0 0137.27-.05l316.203 182.634c24.744 14.29 24.795 49.991.085 64.348l-69.359 41.107a37.178 37.178 0 01-37.267.049z"/><path opacity=".147" d="M523.303 346.433L209.869 165.399c-24.049-13.886-24.099-48.58-.084-62.53l63.275-37.602a36.139 36.139 0 0136.219-.049l313.434 181.035c24.047 13.886 24.097 48.579.085 62.53l-63.279 37.602a36.128 36.128 0 01-36.216.048z"/><path opacity=".173" d="M525.149 342.429L214.484 162.993c-23.35-13.482-23.398-47.167-.083-60.712l57.194-34.095a35.09 35.09 0 0135.17-.049L617.43 247.573c23.347 13.483 23.396 47.167.084 60.713l-57.2 34.094a35.079 35.079 0 01-35.165.049z"/><path opacity=".198" d="M526.996 338.424L219.1 160.587c-22.65-13.079-22.697-45.753-.082-58.895l51.115-30.587a34.038 34.038 0 0134.119-.048l307.896 177.837c22.647 13.08 22.698 45.754.084 58.896l-51.12 30.587a34.03 34.03 0 01-34.116.047z"/><path opacity=".224" d="M528.843 334.42L223.716 158.182c-21.952-12.675-21.998-44.34-.081-57.077l45.035-27.08a32.984 32.984 0 0133.068-.048l305.127 176.239c21.948 12.676 21.998 44.34.082 57.078l-45.04 27.079a32.974 32.974 0 01-33.064.047z"/><path opacity=".249" d="M530.689 330.416L228.332 155.775c-21.254-12.27-21.299-42.927-.082-55.259l38.956-23.572a31.94 31.94 0 0132.02-.047l302.357 174.64c21.249 12.272 21.298 42.927.081 55.26l-38.961 23.573a31.928 31.928 0 01-32.014.046z"/><path opacity=".275" d="M532.536 326.411L232.947 153.37c-20.555-11.867-20.599-41.514-.08-53.442l32.875-20.064a30.89 30.89 0 0130.97-.048L596.3 252.858c20.55 11.868 20.6 41.514.081 53.443L563.5 326.366a30.876 30.876 0 01-30.964.045z"/><path opacity=".3" d="M534.383 322.407l-296.82-171.443c-19.856-11.463-19.899-40.101-.08-51.625l26.796-16.557a29.84 29.84 0 0129.919-.047l296.819 171.444c19.851 11.464 19.899 40.101.08 51.626l-26.802 16.559a29.831 29.831 0 01-29.912.043z"/><linearGradient id="b" gradientUnits="userSpaceOnUse" x1="168.801" y1="-193.325" x2="784.464" y2="714.301"><stop offset=".035" stop-color="#9f19ab"/><stop offset=".244" stop-color="#ae25b1"/><stop offset=".645" stop-color="#d744bf"/><stop offset="1" stop-color="#ff63ce"/></linearGradient><path fill="url(#b)" d="M535.801 320.779L174.848 112.388c-29.342-16.945-25.66-46.538 8.223-66.102l32.06-18.509c33.884-19.562 85.144-21.687 114.488-4.745l307.814 177.717c29.347 16.945 25.666 46.535-8.218 66.102l-93.414 53.928z"/><path fill="#231F20" d="M629.215 262.887l-93.414 53.929-360.953-208.392c-12.423-7.175-18.867-16.63-19.662-26.622-.79 11.435 5.604 22.464 19.662 30.586l360.953 208.391 93.414-53.929c19.533-11.28 28.958-25.884 27.877-39.48-.862 12.424-10.232 25.326-27.877 35.517z"/><path fill="#EBDEF3" d="M331.783 109.243c-28.435 16.416-74.681 16.334-103.29-.187-28.615-16.52-28.761-43.216-.323-59.634 28.432-16.418 74.678-16.334 103.293.185 28.615 16.519 28.758 43.219.32 59.636z"/><linearGradient id="c" gradientUnits="userSpaceOnUse" x1="179.5" y1="-115.342" x2="381.853" y2="277.284"><stop offset=".035" stop-color="#9f19ab"/><stop offset=".244" stop-color="#ae25b1"/><stop offset=".645" stop-color="#d744bf"/><stop offset="1" stop-color="#ff63ce"/></linearGradient><path fill="url(#c)" d="M292.051 90.867c-2.24-2.1-3.459-4.462-3.567-6.828-.06-1.43 2.005-2.571 4.487-2.574 3.204-.003 6.6-.337 9.686-1.055 1.699.573 4.637.809 6.238-.116 1.631-.942 2.157-2.209 1.385-3.05 6.499-4.13 9.545-9.073.258-14.434-9.282-5.36-17.838-3.598-24.994.152-1.456-.445-3.65-.143-5.286.802-1.602.924-1.195 2.62-.194 3.6-1.247 1.779-1.828 3.742-1.83 5.589-.006 1.436-1.982 2.625-4.466 2.591-4.093-.06-8.181-.765-11.821-2.057-4.826-1.716-11.207-1.377-15.36 1.024l-7.211 4.161c-1.394.808-1.39 2.12.021 2.932l38.598 22.285c1.406.813 3.678.814 5.076.009l7.205-4.159c4.157-2.401 4.746-6.088 1.775-8.872z"/><path fill="#EBDEF3" d="M549.336 199.664l-37.982-21.933-8.87 5.12 37.991 21.934 8.861-5.121zm-17.262 13.663l-45.305-26.158-8.873 5.122 45.316 26.158 8.862-5.122zm55.711 8.531l-31.123-17.969-8.867 5.12 31.123 17.97 8.867-5.121zm-158.809-91.69l-45.548-26.009-8.867 5.121 45.545 26.009 8.87-5.121zm-5.822 20.273l-60.19-34.466-8.87 5.122 60.193 34.464 8.867-5.12zm116.248 67.114l-8.873 5.121 11.902 6.871 8.864-5.12-11.893-6.872zm-53.674-54.62l-49.433-28.536-8.867 5.117 49.428 28.54 8.872-5.121zm18.303 10.567l-10.986-6.343-8.867 5.122 10.986 6.343 8.867-5.122zm-24.582 9.438l-23.801-13.741-8.867 5.122 23.798 13.74 8.87-5.121zm-48.974-28.272l-8.867 5.119 17.849 10.308 8.87-5.12-17.852-10.307zm119.279 79.105l32.494 18.761 8.872-5.122-32.499-18.759-8.867 5.12zm-176.896-62.218l49.424 28.536 8.87-5.12-49.427-28.538-8.867 5.122zm1.542-9.349l-46.004-26.274-8.864 5.122 46.001 26.272 8.867-5.12zm55.202 42.113l10.987 6.343 8.87-5.122-10.99-6.343-8.867 5.122z"/><path opacity=".02" d="M373.633 500.85L46.354 311.824c-27.546-15.904-27.597-55.649-.089-71.62l93.677-55.135a41.391 41.391 0 0141.472-.054L508.69 374.043c27.543 15.904 27.595 55.648.089 71.618l-93.68 55.14a41.382 41.382 0 01-41.466.049z"/><path opacity=".045" d="M375.479 496.846L50.97 309.418c-26.847-15.5-26.896-54.235-.088-69.802l87.597-51.627a40.341 40.341 0 0140.421-.054l324.508 187.43c26.844 15.5 26.896 54.235.089 69.801l-87.601 51.632a40.339 40.339 0 01-40.417.048z"/><path opacity=".071" d="M377.326 492.842L55.585 307.012c-26.147-15.096-26.196-52.821-.087-67.983l81.518-48.121a39.293 39.293 0 0139.371-.053l321.738 185.831c26.145 15.096 26.195 52.822.088 67.982l-81.521 48.124a39.284 39.284 0 01-39.366.05z"/><path opacity=".096" d="M379.172 488.838L60.2 304.606c-25.448-14.692-25.496-51.409-.086-66.167l75.438-44.613a38.24 38.24 0 0138.319-.053l318.971 184.232c25.445 14.692 25.495 51.409.085 66.166l-75.439 44.616a38.229 38.229 0 01-38.316.051z"/><path opacity=".122" d="M381.019 484.834L64.816 302.201c-24.749-14.288-24.797-49.996-.086-64.35l69.359-41.105a37.19 37.19 0 0137.269-.053L487.56 379.328c24.746 14.288 24.796 49.995.085 64.348l-69.359 41.108a37.185 37.185 0 01-37.267.05z"/><path opacity=".147" d="M382.865 480.83L69.432 299.795c-24.05-13.884-24.097-48.582-.084-62.531l63.279-37.599a36.142 36.142 0 0136.218-.052L482.278 380.65c24.047 13.884 24.097 48.582.084 62.53l-63.28 37.601a36.14 36.14 0 01-36.217.049z"/><path opacity=".173" d="M384.712 476.826L74.047 297.39c-23.351-13.48-23.397-47.17-.084-60.714l57.199-34.091a35.094 35.094 0 0135.168-.052l310.665 179.439c23.348 13.48 23.396 47.168.083 60.713l-57.201 34.093a35.088 35.088 0 01-35.165.048z"/><path opacity=".198" d="M386.559 472.822L78.662 294.984c-22.651-13.077-22.697-45.757-.082-58.897l51.119-30.584a34.044 34.044 0 0134.117-.052l307.896 177.84c22.648 13.077 22.696 45.756.082 58.896l-51.12 30.585a34.036 34.036 0 01-34.115.05z"/><path opacity=".224" d="M388.404 468.818L83.277 292.578c-21.952-12.673-21.997-44.343-.081-57.079l45.04-27.077a32.992 32.992 0 0133.066-.051L466.43 384.612c21.949 12.673 21.997 44.343.081 57.079l-45.041 27.076a32.985 32.985 0 01-33.066.051z"/><path opacity=".249" d="M390.251 464.814L87.893 290.173c-21.252-12.269-21.297-42.931-.08-55.262l38.961-23.57a31.944 31.944 0 0132.016-.051l302.358 174.644c21.25 12.27 21.297 42.929.08 55.262l-38.962 23.569a31.937 31.937 0 01-32.015.049z"/><path opacity=".275" d="M392.098 460.811L92.508 287.767c-20.553-11.865-20.597-41.517-.079-53.444l32.881-20.063a30.892 30.892 0 0130.965-.05l299.59 173.045c20.551 11.865 20.598 41.515.08 53.443l-32.882 20.062a30.89 30.89 0 01-30.965.051z"/><path opacity=".3" d="M393.944 456.807L97.123 285.361c-19.854-11.461-19.896-40.104-.078-51.627l26.802-16.556a29.842 29.842 0 0129.914-.05l296.821 171.447c19.852 11.461 19.897 40.102.078 51.626l-26.802 16.554a29.837 29.837 0 01-29.914.052z"/><linearGradient id="d" gradientUnits="userSpaceOnUse" x1="28.366" y1="-58.931" x2="644.028" y2="848.696"><stop offset="0" stop-color="#2d085d"/><stop offset="1" stop-color="#410f82"/></linearGradient><path fill="url(#d)" d="M395.366 455.176L34.415 246.782c-29.345-16.942-25.663-46.535 8.218-66.1l32.064-18.508c33.884-19.563 85.139-21.69 114.486-4.746L497 335.145c29.342 16.943 25.66 46.536-8.221 66.1l-93.413 53.931z"/><path fill="#231F20" d="M488.779 397.281l-93.413 53.934L34.415 242.819c-12.429-7.176-18.87-16.628-19.665-26.62-.792 11.433 5.598 22.464 19.665 30.583l360.951 208.394 93.413-53.932c19.528-11.277 28.959-25.881 27.877-39.48-.86 12.425-10.236 25.33-27.877 35.517z"/><linearGradient id="e" gradientUnits="userSpaceOnUse" x1="44.636" y1="111.594" x2="282.472" y2="367.55"><stop offset=".035" stop-color="#6b24d6"/><stop offset=".316" stop-color="#7a1cd0"/><stop offset=".857" stop-color="#a306c1"/><stop offset=".985" stop-color="#ad00bd"/></linearGradient><path fill="url(#e)" d="M191.349 243.639c-28.435 16.418-74.681 16.333-103.293-.186-28.615-16.521-28.761-43.219-.323-59.637 28.435-16.417 74.675-16.333 103.29.189 28.615 16.518 28.763 43.22.326 59.634z"/><linearGradient id="f" gradientUnits="userSpaceOnUse" x1="39.065" y1="19.057" x2="241.415" y2="411.674"><stop offset="0" stop-color="#2d085d"/><stop offset="1" stop-color="#410f82"/></linearGradient><path fill="url(#f)" d="M151.615 225.261c-2.239-2.1-3.458-4.457-3.564-6.822-.063-1.433 2.003-2.576 4.485-2.579 3.204-.003 6.603-.339 9.686-1.057 1.696.575 4.637.813 6.235-.113 1.633-.944 2.16-2.212 1.391-3.054 6.492-4.129 9.542-9.071.254-14.432-9.279-5.357-17.84-3.6-24.993.15-1.456-.443-3.65-.139-5.289.804-1.599.924-1.192 2.62-.191 3.602-1.25 1.777-1.828 3.738-1.831 5.587-.003 1.435-1.985 2.627-4.468 2.592-4.091-.06-8.175-.763-11.816-2.057-4.828-1.713-11.21-1.376-15.368 1.025l-7.205 4.162c-1.394.805-1.391 2.115.014 2.928l38.601 22.287c1.41.812 3.679.815 5.077.008l7.208-4.16c4.151-2.4 4.743-6.082 1.774-8.871z"/><path opacity=".5" fill="#EBDEF3" d="M408.904 334.057l-37.985-21.932-8.87 5.121 37.988 21.933 8.867-5.122zm-17.265 13.666l-45.305-26.159-8.87 5.121 45.309 26.159 8.866-5.121zm55.709 8.529l-31.118-17.966-8.872 5.118 31.126 17.969 8.864-5.121zm-158.81-91.689l-45.546-26.008-8.867 5.119 45.543 26.011 8.87-5.122zm-5.821 20.272l-60.188-34.463-8.87 5.12 60.193 34.464 8.865-5.121zm116.251 67.116l-8.87 5.119 11.898 6.872 8.867-5.122-11.895-6.869zm-53.678-54.622l-49.427-28.537-8.867 5.12 49.427 28.538 8.867-5.121zm18.304 10.569l-10.984-6.344-8.869 5.121 10.986 6.342 8.867-5.119zm-24.585 9.438l-23.798-13.737-8.867 5.116 23.801 13.742 8.864-5.121zm-48.972-28.272l-8.865 5.119 17.85 10.307 8.866-5.122-17.851-10.304zm119.282 79.103l32.496 18.763 8.87-5.121-32.502-18.76-8.864 5.118zM232.42 305.949l49.428 28.537 8.869-5.121-49.43-28.538-8.867 5.122zm1.542-9.347l-46-26.276-8.87 5.122 46.006 26.273 8.864-5.119zm55.202 42.113l10.986 6.34 8.873-5.118-10.986-6.343-8.873 5.121z"/></svg>