<svg xmlns="http://www.w3.org/2000/svg" viewBox="0 0 177 116"><path fill="#7817C4" d="M2.3 1.2v100s2.4 13.1 14.9 13.1h142.9s15.7.2 15.7-15.7V1.2H2.3z"/><text transform="translate(14.982 64.761)" fill="#FFF" font-family="'Montserrat-Medium'" font-size="12.662">Brand of Car</text><text transform="translate(14.982 76.382)" fill="#FFF" font-family="'Montserrat-Regular'" font-size="9.457">AN787891</text><path d="M19.9 36.3l1.2 3.5h3.7l-3 2.2 1.1 3.6-3-2.2-3 2.2L18 42l-3-2.2h3.7zm16.7 0l1.1 3.5h3.8L38.4 42l1.2 3.6-3-2.2-3.1 2.2 1.2-3.6-3.1-2.2h3.8zm16.6 0l1.2 3.5h3.7l-3 2.2 1.2 3.6-3.1-2.2-3 2.2 1.1-3.6-3-2.2h3.8zm16.7 0l1.1 3.5h3.8L71.7 42l1.2 3.6-3-2.2-3.1 2.2L68 42l-3.1-2.2h3.8zm16.6 0l1.2 3.5h3.7l-3 2.2 1.2 3.6-3.1-2.2-3 2.2 1.1-3.6-3-2.2h3.8z" fill="#FFE48D"/><text transform="translate(109.64 94.933)" fill="#FFE48D" font-family="'Montserrat-MediumItalic'" font-size="7.016">Sample Name</text><circle transform="rotate(-80.706 135.669 54.705)" fill="#511BC4" cx="135.7" cy="54.7" r="26"/><path fill="#241B38" d="M154.3 48.8l-1.3-3.4-9.6-2.3-6.9-3.1-6.8 3.1-9.6 2.3-1.4 3.4-2.9 3.9 5.8 4.2h29.9l5.7-4.2z"/><path fill="#FFD96E" d="M119.934 45.53l.228-.194 8.782 10.253-.228.195zm24.22 10.101l8.78-10.254.228.195-8.78 10.254z"/><path fill="#19132B" d="M121.5 63.7s1.3 5.6 15 5.6 15-6.5 15-6.5-24-3.5-30 .9z"/><path fill="#19132B" d="M121.5 55.8s14.9-3.9 30 0v7.9s-13.3-3.1-30 0v-7.9z"/><path fill="#FFF" d="M121.5 56.7s14.9-3.1 30 0v5.9s-13.3-2.3-30 0v-5.9z"/><path fill="#19132B" d="M121.5 64.7c-.6 0-1.1-.5-1.1-1.1v-1.4c0-.6.5-1.1 1.1-1.1.6 0 1.1.5 1.1 1.1v1.4c.1.6-.4 1.1-1.1 1.1zm30 0c-.6 0-1.1-.5-1.1-1.1v-1.4c0-.6.5-1.1 1.1-1.1.6 0 1.1.5 1.1 1.1v1.4c.1.6-.4 1.1-1.1 1.1z"/><path fill="#333" d="M128 56.7h1.7v1.7H128zm3.4 0h1.7v1.7h-1.7zm3.4 0h1.7v1.7h-1.7zm3.3 0h1.7v1.7h-1.7zm3.4 0h1.7v1.7h-1.7zm-11.8 1.7h1.7v1.7h-1.7zm3.4 0h1.7v1.7h-1.7z"/><path fill="#333" d="M136.4 58.4h1.7v1.7h-1.7zm3.4 0h1.7v1.7h-1.7z"/><path fill="#F8F8F8" d="M129.1 62.7l-1.3 5.6s.5.2 1.1.3c.7.2 1.4.3 1.6.3l.3-6.3-1.7.1z"/><path fill="#FFE48D" d="M136.4 44.2l1.1 3.3h3.4l-2.8 2 1.1 3.2-2.8-2-2.7 2 1-3.2-2.7-2h3.4z"/></svg>