<svg version="1.1" id="Capa_1" xmlns="http://www.w3.org/2000/svg" x="0" y="0" viewBox="0 0 512 512" xml:space="preserve"><style>.st2{fill:#7a17c5}.st4{fill:#1f50c9}.st5{fill:#fff}.st6{fill:#9fb0fe}.st7{fill:#511bc5}.st8{fill:#b7c5ff}.st10{opacity:.7;fill:#511bc5}</style><linearGradient id="SVGID_1_" gradientUnits="userSpaceOnUse" x1="23.82" y1="177.669" x2="459.531" y2="429.226" gradientTransform="matrix(1 0 0 -1 0 514)"><stop offset="0" stop-color="#dcfdee" stop-opacity="0"/><stop offset=".629" stop-color="#7a17c5" stop-opacity=".4"/></linearGradient><path d="M16.1 295.9c18.7 64 72.7 194.6 163.9 182.8 91.5-11.8 55.8-129.7 139.5-145.9 36.9-7.1 61.9 56.7 98.8 54.7 47.6-2.6 71.8-49.7 85.1-89.3 28.2-84-14-226.4-112.9-251-86.2-21.5-96.3 83.9-171.3 53.2-42.1-17-37.9-68.4-89.2-78.8C-25.3-9.7-8.8 210.8 16.1 295.9z" fill="url(#SVGID_1_)"/><path d="M350.2 493.4H161.8c-16.6 0-30-13.4-30-30V82.7c0-16.6 13.4-30 30-30h188.5c16.6 0 30 13.4 30 30v380.7c-.1 16.6-13.5 30-30.1 30z" opacity=".1" fill="#2626bc"/><path class="st2" d="M350.2 469.4H161.8c-16.6 0-30-13.4-30-30V58.7c0-16.6 13.4-30 30-30h188.5c16.6 0 30 13.4 30 30v380.7c-.1 16.6-13.5 30-30.1 30z"/><path d="M131.8 71.6h248.5v354.9H131.8V71.6z" fill="#2d58e0"/><path class="st4" d="M239.2 201.9h-50.9c-5.5 0-10-4.5-10-10v-47c0-5.5 4.5-10 10-10h50.9c5.5 0 10 4.5 10 10v47c0 5.5-4.5 10-10 10zm84.9-.3h-50.9c-5.5 0-10-4.5-10-10v-47c0-5.5 4.5-10 10-10h50.9c5.5 0 10 4.5 10 10v47c0 5.6-4.4 10-10 10zm55.8-67v67h-21.5c-5.5 0-10-4.5-10-10v-47c0-5.5 4.5-10 10-10h21.5z"/><path class="st5" d="M309.8 93.1H202.2c-2.8 0-5 2.2-5 5s2.2 5 5 5h107.7c2.8 0 5-2.2 5-5s-2.3-5-5.1-5z"/><path class="st6" d="M239.2 191.4h-50.9c-5.5 0-10-4.5-10-10v-47c0-5.5 4.5-10 10-10h50.9c5.5 0 10 4.5 10 10v47c0 5.5-4.5 10-10 10z"/><path class="st5" d="M228.6 170.5h-20.7c-2.8 0-5 2.2-5 5s2.2 5 5 5h20.7c2.8 0 5-2.2 5-5s-2.2-5-5-5zm0-16.3h-5.7c-2.8 0-5 2.2-5 5s2.2 5 5 5h5.7c2.8 0 5-2.2 5-5s-2.2-5-5-5z"/><path class="st7" d="M324.1 191.1h-50.9c-5.5 0-10-4.5-10-10v-47c0-5.5 4.5-10 10-10h50.9c5.5 0 10 4.5 10 10v47c0 5.5-4.4 10-10 10z"/><path class="st5" d="M313.5 170.2h-20.7c-2.8 0-5 2.2-5 5s2.2 5 5 5h20.7c2.8 0 5-2.2 5-5s-2.2-5-5-5zm0-16.3h-5.7c-2.8 0-5 2.2-5 5s2.2 5 5 5h5.7c2.8 0 5-2.2 5-5s-2.2-5-5-5z"/><path class="st6" d="M379.9 124.1v67h-21.5c-5.5 0-10-4.5-10-10v-47c0-5.5 4.5-10 10-10h21.5z"/><path class="st5" d="M131.8 426.5V241.8c0-13.8 11.2-25 25-25h198.5c13.8 0 25 11.2 25 25v184.7H131.8z"/><path class="st7" d="M350.2 474.4H161.8c-19.3 0-35-15.7-35-35V58.7c0-19.3 15.7-35 35-35h188.5c19.3 0 35 15.7 35 35v380.7c-.1 19.3-15.8 35-35.1 35zM161.8 33.7c-13.8 0-25 11.2-25 25v380.7c0 13.8 11.2 25 25 25h188.5c13.8 0 25-11.2 25-25V58.7c0-13.8-11.2-25-25-25H161.8z"/><path class="st8" d="M273.5 56.1h-35c-2.8 0-5-2.2-5-5s2.2-5 5-5h35c2.8 0 5 2.2 5 5s-2.3 5-5 5z"/><circle class="st8" cx="296.8" cy="51.1" r="5"/><path class="st2" d="M234.6 249.1h-20.7c-2.8 0-5 2.2-5 5s2.2 5 5 5h20.7c2.8 0 5-2.2 5-5s-2.2-5-5-5zm102 20.2H213.9c-2.8 0-5 2.2-5 5s2.2 5 5 5h122.7c2.8 0 5-2.2 5-5s-2.2-5-5-5zm-151.7 10h-20.3c-2.8 0-5-2.2-5-5V254c0-2.8 2.2-5 5-5h20.3c2.8 0 5 2.2 5 5v20.3c0 2.8-2.2 5-5 5z"/><path class="st7" d="M234.6 311h-20.7c-2.8 0-5 2.2-5 5s2.2 5 5 5h20.7c2.8 0 5-2.2 5-5s-2.2-5-5-5zm102 20.3H213.9c-2.8 0-5 2.2-5 5s2.2 5 5 5h122.7c2.8 0 5-2.2 5-5s-2.2-5-5-5zm-151.7 10h-20.3c-2.8 0-5-2.2-5-5V316c0-2.8 2.2-5 5-5h20.3c2.8 0 5 2.2 5 5v20.3c0 2.7-2.2 5-5 5z"/><path d="M234.6 372.9h-20.7c-2.8 0-5 2.2-5 5s2.2 5 5 5h20.7c2.8 0 5-2.2 5-5s-2.2-5-5-5z" fill="#6583fe"/><path class="st6" d="M336.6 393.2H213.9c-2.8 0-5 2.2-5 5s2.2 5 5 5h122.7c2.8 0 5-2.2 5-5s-2.2-5-5-5zm-151.7 10h-20.3c-2.8 0-5-2.2-5-5v-20.3c0-2.8 2.2-5 5-5h20.3c2.8 0 5 2.2 5 5v20.3c0 2.8-2.2 5-5 5z"/><path class="st10" d="M418.3 397.2c-7.9 0-14.3-6.4-14.3-14.3s6.4-14.3 14.3-14.3 14.3 6.4 14.3 14.3-6.4 14.3-14.3 14.3zm0-18.5c-2.4 0-4.3 1.9-4.3 4.3s1.9 4.3 4.3 4.3 4.3-1.9 4.3-4.3-1.9-4.3-4.3-4.3z"/><path d="M432.7 442.5c-2.8 0-5-2.2-5-5 0-3.3-2.7-6-6-6-2.8 0-5-2.2-5-5s2.2-5 5-5c3.3 0 6-2.7 6-6 0-2.8 2.2-5 5-5s5 2.2 5 5c0 3.3 2.7 6 6 6 2.8 0 5 2.2 5 5s-2.2 5-5 5c-3.3 0-6 2.7-6 6 0 2.8-2.3 5-5 5z" opacity=".7" fill="#7a17c5"/><path class="st10" d="M443.7 150.6c-2.8 0-5-2.2-5-5 0-3.3-2.7-6-6-6-2.8 0-5-2.2-5-5s2.2-5 5-5c3.3 0 6-2.7 6-6 0-2.8 2.2-5 5-5s5 2.2 5 5c0 3.3 2.7 6 6 6 2.8 0 5 2.2 5 5s-2.2 5-5 5c-3.3 0-6 2.7-6 6 0 2.8-2.3 5-5 5zM61.1 300.8c-2.8 0-5-2.2-5-5 0-3.3-2.7-6-6-6-2.8 0-5-2.2-5-5s2.2-5 5-5c3.3 0 6-2.7 6-6 0-2.8 2.2-5 5-5s5 2.2 5 5c0 3.3 2.7 6 6 6 2.8 0 5 2.2 5 5s-2.2 5-5 5c-3.3 0-6 2.7-6 6 0 2.7-2.3 5-5 5z"/><path class="st4" d="M152.2 201.9h-50.9c-5.5 0-10-4.5-10-10v-47c0-5.5 4.5-10 10-10h50.9c5.5 0 10 4.5 10 10v47c0 5.5-4.4 10-10 10z"/><path class="st2" d="M152.2 191.4h-50.9c-5.5 0-10-4.5-10-10v-47c0-5.5 4.5-10 10-10h50.9c5.5 0 10 4.5 10 10v47c0 5.5-4.4 10-10 10z"/><path class="st5" d="M142.1 170.5h-20.7c-2.8 0-5 2.2-5 5s2.2 5 5 5h20.7c2.8 0 5-2.2 5-5s-2.2-5-5-5zm0-16.3h-5.7c-2.8 0-5 2.2-5 5s2.2 5 5 5h5.7c2.8 0 5-2.2 5-5s-2.2-5-5-5z"/></svg>