<svg height="512" width="512" xmlns="http://www.w3.org/2000/svg"><linearGradient id="a" gradientUnits="userSpaceOnUse" x1="-21.409" x2="490.399" y1="373.272" y2="77.779"><stop offset="0" stop-color="#dcfdee" stop-opacity="0"/><stop offset=".629" stop-color="#d2f3e4"/></linearGradient><path d="M451.798 43.963c-160.556-97.869-410.51-8.611-439.594 61.949-38.908 94.394 26.578 110.528 38.743 187.874 9.761 62.061-51.182 121.495-16.394 176.282 37.883 59.663 163.465 44.681 211.198 16.447 87.376-51.683 43.309-112.012 84.684-187.299 39.407-71.707 116.244-42.625 160.961-99.99 42.5-54.521 14.31-122.402-39.598-155.263z" fill="url(#a)"/><path d="M350.232 500.339H161.768c-16.569 0-30-13.431-30-30V89.661c0-16.569 13.431-30 30-30h188.464c16.569 0 30 13.431 30 30v380.678c0 16.569-13.431 30-30 30z" fill="#2626bc" opacity=".1"/><path d="M350.232 476.339H161.768c-16.569 0-30-13.431-30-30V65.661c0-16.569 13.431-30 30-30h188.464c16.569 0 30 13.431 30 30v380.678c0 16.569-13.431 30-30 30z" fill="#6583fe"/><path d="M131.77 78.57h248.46v354.86H131.77z" fill="#4369fd"/><path d="M131.77 78.57h248.46v200.001H131.77z" fill="#8399fe"/><path d="M131.77 78.57h248.46v127.164H131.77z" fill="#ff5ba8"/><path d="M350.232 481.339H161.768c-19.299 0-35-15.701-35-35V65.661c0-19.299 15.701-35 35-35h188.465c19.299 0 35 15.701 35 35v380.678c-.001 19.299-15.702 35-35.001 35zM161.768 40.661c-13.785 0-25 11.215-25 25v380.678c0 13.785 11.215 25 25 25h188.465c13.785 0 25-11.215 25-25V65.661c0-13.785-11.215-25-25-25z" fill="#2626bc"/><path d="M273.483 63.031h-34.966a5 5 0 010-10h34.966a5 5 0 010 10z" fill="#b7c5ff"/><circle cx="296.813" cy="58.03" fill="#b7c5ff" r="5.002"/><path d="M231.298 117.508v42.493c0 3.785 4.042 6.197 7.373 4.401l39.404-21.247c3.503-1.889 3.503-6.913 0-8.802l-39.404-21.247c-3.331-1.795-7.373.618-7.373 4.402z" fill="#fff"/><path d="M348.483 231.472H163.517a5 5 0 010-10h184.966a5 5 0 010 10z" fill="#b7c5ff"/><path d="M198.483 258.418h-34.966a5 5 0 010-10h34.966a5 5 0 010 10z" fill="#d2deff"/><path d="M252.488 221.472h-88.971a5 5 0 000 10h88.971z" fill="#ff5ba8"/><path d="M274.202 262.804h-5.771a5 5 0 01-5-5v-8.771a5 5 0 015-5h5.771a5 5 0 015 5v8.771a5 5 0 01-5 5zm25.153 0h-5.771a5 5 0 01-5-5v-8.771a5 5 0 015-5h5.771a5 5 0 015 5v8.771a5 5 0 01-5 5zm25.152 0h-5.771a5 5 0 01-5-5v-8.771a5 5 0 015-5h5.771a5 5 0 015 5v8.771a5 5 0 01-5 5zm25.153 0h-5.771a5 5 0 01-5-5v-8.771a5 5 0 015-5h5.771a5 5 0 015 5v8.771a5 5 0 01-5 5z" fill="#4369fd"/><path d="M340.231 316.232h-125.68a5 5 0 000 10h125.681a5 5 0 00-.001-10zm-114-18.345H214.55a5 5 0 000 10h11.681a5 5 0 000-10z" fill="#fff"/><circle cx="179.908" cy="311.026" fill="#02ffb3" r="13.139"/><path d="M340.231 362.783h-125.68a5 5 0 000 10h125.681a5 5 0 00-.001-10zm-114-18.345H214.55a5 5 0 000 10h11.681a5 5 0 000-10z" fill="#fff"/><circle cx="179.908" cy="357.577" fill="#02ffb3" r="13.139"/><path d="M340.231 409.334h-125.68a5 5 0 000 10h125.681a5 5 0 00-.001-10zm-114-18.345H214.55a5 5 0 000 10h11.681a5 5 0 000-10z" fill="#fff"/><circle cx="179.908" cy="404.128" fill="#ff7eb8" r="13.139"/><path d="M74.824 382.075c-7.881 0-14.292-6.411-14.292-14.292s6.411-14.292 14.292-14.292c7.88 0 14.291 6.411 14.291 14.292s-6.411 14.292-14.291 14.292zm0-18.583c-2.366 0-4.292 1.925-4.292 4.292s1.926 4.292 4.292 4.292 4.291-1.925 4.291-4.292-1.925-4.292-4.291-4.292z" fill="#01eca5"/><path d="M424.123 251.764c-7.88 0-14.291-6.411-14.291-14.292s6.411-14.292 14.291-14.292c7.881 0 14.292 6.411 14.292 14.292s-6.411 14.292-14.292 14.292zm0-18.583c-2.366 0-4.291 1.925-4.291 4.292s1.925 4.292 4.291 4.292 4.292-1.925 4.292-4.292-1.926-4.292-4.292-4.292z" fill="#6583fe"/><path d="M421.123 297.296a5 5 0 01-5-5c0-3.309-2.691-6-6-6a5 5 0 110-10c3.309 0 6-2.691 6-6a5 5 0 1110 0c0 3.309 2.691 6 6 6a5 5 0 110 10c-3.309 0-6 2.691-6 6a5 5 0 01-5 5zM84.115 332.232a5 5 0 01-5-5c0-3.309-2.691-6-6-6a5 5 0 110-10c3.309 0 6-2.691 6-6a5 5 0 1110 0c0 3.309 2.691 6 6 6a5 5 0 110 10c-3.309 0-6 2.691-6 6a5 5 0 01-5 5z" fill="#ff5ba8"/><path d="M95.115 58.028a5 5 0 01-5-5c0-3.309-2.691-6-6-6a5 5 0 110-10c3.309 0 6-2.691 6-6a5 5 0 1110 0c0 3.309 2.691 6 6 6a5 5 0 110 10c-3.309 0-6 2.691-6 6a5 5 0 01-5 5z" fill="#01eca5"/></svg>