<svg version="1.1" id="Capa_1" xmlns="http://www.w3.org/2000/svg" x="0" y="0" viewBox="0 0 512 512" xml:space="preserve"><style>.st3{fill:#7a17c5}.st4{fill:#fff}.st5{fill:#511bc5}.st6{fill:#b7c5ff}</style><g opacity=".4"><linearGradient id="SVGID_1_" gradientUnits="userSpaceOnUse" x1="27.58" y1="134.071" x2="504.533" y2="409.44" gradientTransform="matrix(1 0 0 -1 0 514)"><stop offset="0" stop-color="#dcfdee" stop-opacity="0"/><stop offset=".629" stop-color="#7a17c5"/></linearGradient><path d="M4.9 314.8C22.3 487.6 297.3 481.9 425.7 451c82.5-19.8 87.6-59.5 86.1-144-1-54.5 3.4-198.7-32-244.1-54.4-69.7-103.2-26-170.7-3.2-86.4 29.2-120.1-23-202.4-21.4C-14 40.6-4.1 225.5 4.9 314.8z" fill="url(#SVGID_1_)"/></g><path d="M350.2 490.8H161.8c-16.6 0-30-13.4-30-30V80.2c0-16.6 13.4-30 30-30h188.5c16.6 0 30 13.4 30 30v380.7c-.1 16.5-13.5 29.9-30.1 29.9z" opacity=".1" fill="#2626bc"/><path class="st3" d="M350.2 466.8H161.8c-16.6 0-30-13.4-30-30V56.2c0-16.6 13.4-30 30-30h188.5c16.6 0 30 13.4 30 30v380.7c-.1 16.5-13.5 29.9-30.1 29.9z"/><path class="st4" d="M131.8 69.1h248.5V424H131.8V69.1z"/><path class="st5" d="M380.2 228.8v195.1H131.8V228.8c0-16.6 13.4-30 30-30h188.5c16.5 0 29.9 13.5 29.9 30z"/><path class="st5" d="M350.2 471.8H161.8c-19.3 0-35-15.7-35-35V56.2c0-19.3 15.7-35 35-35h188.5c19.3 0 35 15.7 35 35v380.7c-.1 19.2-15.8 34.9-35.1 34.9zM161.8 31.2c-13.8 0-25 11.2-25 25v380.7c0 13.8 11.2 25 25 25h188.5c13.8 0 25-11.2 25-25V56.2c0-13.8-11.2-25-25-25H161.8z"/><path class="st6" d="M273.5 53.5h-35c-2.8 0-5-2.2-5-5s2.2-5 5-5h35c2.8 0 5 2.2 5 5s-2.3 5-5 5z"/><circle class="st6" cx="296.8" cy="48.5" r="5"/><path class="st5" d="M189.8 97.2h-23.7c-2.8 0-5 2.2-5 5s2.2 5 5 5h23.7c2.8 0 5-2.2 5-5s-2.2-5-5-5zm90.8 123.4H178.9c-2.8 0-5 2.2-5 5s2.2 5 5 5h101.7c2.8 0 5-2.2 5-5s-2.2-5-5-5z"/><path class="st3" d="M255.8 117.4h-89.7c-2.8 0-5 2.2-5 5s2.2 5 5 5h89.7c2.8 0 5-2.2 5-5s-2.2-5-5-5z"/><circle class="st3" cx="240.9" cy="163.9" r="5"/><circle class="st3" cx="224.6" cy="163.9" r="5"/><path class="st5" d="M422 156.7c-7.9 0-14.3-6.4-14.3-14.3s6.4-14.3 14.3-14.3 14.3 6.4 14.3 14.3-6.4 14.3-14.3 14.3zm0-18.6c-2.4 0-4.3 1.9-4.3 4.3s1.9 4.3 4.3 4.3 4.3-1.9 4.3-4.3-1.9-4.3-4.3-4.3z"/><path d="M85.3 133.1c-2.8 0-5-2.2-5-5 0-3.3-2.7-6-6-6-2.8 0-5-2.2-5-5s2.2-5 5-5c3.3 0 6-2.7 6-6 0-2.8 2.2-5 5-5s5 2.2 5 5c0 3.3 2.7 6 6 6 2.8 0 5 2.2 5 5s-2.2 5-5 5c-3.3 0-6 2.7-6 6 0 2.8-2.2 5-5 5z" opacity=".7" fill="#7a17c5"/><path d="M437.8 309.4c-2.8 0-5-2.2-5-5 0-3.3-2.7-6-6-6-2.8 0-5-2.2-5-5s2.2-5 5-5c3.3 0 6-2.7 6-6 0-2.8 2.2-5 5-5s5 2.2 5 5c0 3.3 2.7 6 6 6 2.8 0 5 2.2 5 5s-2.2 5-5 5c-3.3 0-6 2.7-6 6 0 2.7-2.3 5-5 5z" opacity=".7" fill="#511bc5"/><path class="st3" d="M470.2 251.4H304.9c-5.5 0-10-4.5-10-10v-85.1c0-5.5 4.5-10 10-10h165.4v105.1z"/><circle class="st5" cx="324" cy="161.1" r="33.7"/><path class="st4" d="M340.6 162.2c0-9.2-7.5-16.6-16.6-16.6s-16.6 7.4-16.6 16.6c0 4.5 1.8 8.6 4.8 11.6-2.9 3-4.8 7.1-4.8 11.6v4.9c3.1 1.7 6.4 3 10 3.7v-8.6c0-3.6 3-6.6 6.6-6.6 3.6 0 6.6 3 6.6 6.6v8.6c3.6-.7 6.9-2 10-3.7v-4.9c0-4.5-1.8-8.6-4.8-11.6 3-2.9 4.8-7 4.8-11.6zm-16.6 6.7c-3.6 0-6.6-3-6.6-6.6 0-3.6 3-6.6 6.6-6.6 3.6 0 6.6 3 6.6 6.6 0 3.6-3 6.6-6.6 6.6z"/><path class="st3" d="M242 325.5H59.8v-46.2H242c5.5 0 10 4.5 10 10v26.2c0 5.6-4.5 10-10 10z"/><path class="st6" d="M132.8 288.4H91.1c-2.8 0-5 2.2-5 5s2.2 5 5 5h41.7c2.8 0 5-2.2 5-5s-2.2-5-5-5zm30 18H91.1c-2.8 0-5 2.2-5 5s2.2 5 5 5h71.7c2.8 0 5-2.2 5-5s-2.2-5-5-5z"/><path class="st3" d="M242 385.5H59.8v-46.2H242c5.5 0 10 4.5 10 10v26.2c0 5.6-4.5 10-10 10z"/><path class="st6" d="M132.8 348.4H91.1c-2.8 0-5 2.2-5 5s2.2 5 5 5h41.7c2.8 0 5-2.2 5-5s-2.2-5-5-5zm30 18H91.1c-2.8 0-5 2.2-5 5s2.2 5 5 5h71.7c2.8 0 5-2.2 5-5s-2.2-5-5-5z"/><circle class="st6" cx="228.2" cy="311.4" r="5"/><circle class="st6" cx="211.8" cy="311.4" r="5"/><circle class="st6" cx="228.2" cy="371.4" r="5"/><circle class="st6" cx="211.8" cy="371.4" r="5"/></svg>