<svg height="512" width="512" xmlns="http://www.w3.org/2000/svg"><linearGradient id="a" gradientUnits="userSpaceOnUse" x1="96.524" x2="444.685" y1="444.199" y2="29.276"><stop offset="0" stop-color="#d2deff" stop-opacity="0"/><stop offset=".685" stop-color="#d2deff"/></linearGradient><path d="M4.896 314.759C22.344 487.63 297.313 481.901 425.7 451.024c82.47-19.834 87.596-59.472 86.106-144.001-.96-54.486 3.443-198.725-32.004-244.123-54.448-69.733-103.228-25.998-170.656-3.235-86.488 29.197-120.189-22.932-202.476-21.38C-13.971 40.563-4.109 225.537 4.896 314.759z" fill="url(#a)"/><path d="M350.232 490.839H161.768c-16.569 0-30-13.431-30-30V80.161c0-16.569 13.431-30 30-30h188.464c16.569 0 30 13.431 30 30v380.678c0 16.569-13.431 30-30 30z" fill="#2626bc" opacity=".1"/><path d="M350.232 466.839H161.768c-16.569 0-30-13.431-30-30V56.161c0-16.569 13.431-30 30-30h188.464c16.569 0 30 13.431 30 30v380.678c0 16.569-13.431 30-30 30z" fill="#6583fe"/><path d="M131.77 69.07h248.46v354.86H131.77z" fill="#fff"/><path d="M380.23 363.62v60.31H131.77v-93.72z" fill="#ffc4df"/><path d="M380.23 69.07V93.8l-248.46 48.02V69.07z" fill="#97ffd2"/><path d="M350.232 471.839H161.768c-19.299 0-35-15.701-35-35V56.161c0-19.299 15.701-35 35-35h188.465c19.299 0 35 15.701 35 35v380.678c-.001 19.299-15.702 35-35.001 35zM161.768 31.161c-13.785 0-25 11.215-25 25v380.678c0 13.785 11.215 25 25 25h188.465c13.785 0 25-11.215 25-25V56.161c0-13.785-11.215-25-25-25z" fill="#2626bc"/><path d="M273.483 53.531h-34.966a5 5 0 010-10h34.966a5 5 0 010 10z" fill="#b7c5ff"/><circle cx="296.813" cy="48.529" fill="#b7c5ff" r="5.002"/><path d="M319.052 265.804H192.948c-10.662 0-19.305-8.643-19.305-19.305 0-10.662 8.643-19.305 19.305-19.305h126.103c10.662 0 19.305 8.643 19.305 19.305 0 10.663-8.643 19.305-19.304 19.305z" fill="#97ffd2"/><path d="M319.052 319.152H192.948c-10.662 0-19.305-8.643-19.305-19.305 0-10.662 8.643-19.305 19.305-19.305h126.103c10.662 0 19.305 8.643 19.305 19.305 0 10.662-8.643 19.305-19.304 19.305z" fill="#01eca5"/><path d="M238.33 400.199h-59.687a5 5 0 01-5-5v-14.431a5 5 0 015-5h59.687a5 5 0 015 5v14.431a5 5 0 01-5 5z" fill="#ff7eb8"/><path d="M246.857 189.578h-65.681a5 5 0 000 10h65.681a5 5 0 000-10z" fill="#8399fe"/><path d="M271.486 197.836l10.54-21.535c1.626-3.322-.793-7.198-4.491-7.198a5 5 0 00-4.491 2.802l-10.54 21.535c-1.626 3.322.793 7.198 4.491 7.198a5 5 0 004.491-2.802z" fill="#01eca5"/><path d="M246.857 170.15h-65.681a5 5 0 000 10h65.681a5 5 0 000-10z" fill="#8399fe"/><path d="M192.857 146.805h-11.681a5 5 0 000 10h11.681a5 5 0 000-10z" fill="#ff7eb8"/><path d="M268.308 125.794h-81.957c-5.619 0-10.175-4.555-10.175-10.175 0-5.619 4.555-10.175 10.175-10.175h81.957c5.619 0 10.175 4.555 10.175 10.175 0 5.62-4.555 10.175-10.175 10.175z" fill="#00d890"/><path d="M438.17 344.501c-7.881 0-14.292-6.411-14.292-14.292s6.411-14.292 14.292-14.292c7.88 0 14.291 6.411 14.291 14.292s-6.411 14.292-14.291 14.292zm0-18.583c-2.366 0-4.292 1.925-4.292 4.292s1.926 4.292 4.292 4.292 4.291-1.925 4.291-4.292-1.925-4.292-4.291-4.292zM72.913 379.269c-7.881 0-14.292-6.411-14.292-14.292s6.411-14.292 14.292-14.292c7.88 0 14.291 6.411 14.291 14.292s-6.411 14.292-14.291 14.292zm0-18.583c-2.366 0-4.292 1.925-4.292 4.292s1.926 4.292 4.292 4.292 4.291-1.925 4.291-4.292-1.925-4.292-4.291-4.292z" fill="#ff5ba8"/><path d="M88.288 338.21c-7.88 0-14.291-6.411-14.291-14.292s6.411-14.292 14.291-14.292c7.881 0 14.292 6.411 14.292 14.292s-6.411 14.292-14.292 14.292zm0-18.583c-2.366 0-4.291 1.925-4.291 4.292s1.925 4.292 4.291 4.292 4.292-1.925 4.292-4.292-1.926-4.292-4.292-4.292z" fill="#01eca5"/><path d="M427.17 393.07a5 5 0 01-5-5c0-3.309-2.691-6-6-6a5 5 0 110-10c3.309 0 6-2.691 6-6a5 5 0 1110 0c0 3.309 2.691 6 6 6a5 5 0 110 10c-3.309 0-6 2.691-6 6a5 5 0 01-5 5z" fill="#6583fe"/><path d="M80.288 162.805a5 5 0 01-5-5c0-3.309-2.691-6-6-6a5 5 0 110-10c3.309 0 6-2.691 6-6a5 5 0 1110 0c0 3.309 2.691 6 6 6a5 5 0 110 10c-3.309 0-6 2.691-6 6a5 5 0 01-5 5z" fill="#01eca5"/></svg>