<svg height="512" width="512" xmlns="http://www.w3.org/2000/svg"><linearGradient id="a" gradientUnits="userSpaceOnUse" x1="8.753" x2="524.202" y1="401.161" y2="103.566"><stop offset="0" stop-color="#dcfdee" stop-opacity="0"/><stop offset=".629" stop-color="#d2f3e4"/></linearGradient><path d="M418.32 2.5c-55.666-9.521-178.298 12.183-200.004 105.017-14.431 61.722-14.007 112.075-50.427 113.02-21.67.562-32.97-44.31-62.889-48.001-39.047-4.817-66.145 27.695-83.057 57.138-37.205 64.772-25.571 174.918 23.354 228.632 118.488 130.086 259.197-5.952 319.358-112.309 38.585-68.213 125.637-123.352 143.767-200.248C523.599 81.373 489.919 14.746 418.32 2.5z" fill="url(#a)"/><path d="M350.232 500.339H161.768c-16.569 0-30-13.431-30-30V89.661c0-16.569 13.431-30 30-30h188.464c16.569 0 30 13.431 30 30v380.678c0 16.569-13.431 30-30 30z" fill="#2626bc" opacity=".1"/><path d="M350.232 476.339H161.768c-16.569 0-30-13.431-30-30V65.661c0-16.569 13.431-30 30-30h188.464c16.569 0 30 13.431 30 30v380.678c0 16.569-13.431 30-30 30z" fill="#6583fe"/><path d="M131.77 78.57h248.46v354.86H131.77z" fill="#8399fe"/><path d="M332.84 130.54c0 92.12-74.68 166.81-166.8 166.81-11.75 0-23.21-1.21-34.27-3.53V78.57h192.81c5.36 16.35 8.26 33.82 8.26 51.97z" fill="#9fb0fe"/><path d="M350.232 481.339H161.768c-19.299 0-35-15.701-35-35V65.661c0-19.299 15.701-35 35-35h188.464c19.299 0 35 15.701 35 35v380.678c0 19.299-15.701 35-35 35zM161.768 40.661c-13.785 0-25 11.215-25 25v380.678c0 13.785 11.215 25 25 25h188.464c13.785 0 25-11.215 25-25V65.661c0-13.785-11.215-25-25-25z" fill="#2626bc"/><path d="M273.483 63.031h-34.966a5 5 0 010-10h34.966a5 5 0 010 10z" fill="#b7c5ff"/><circle cx="296.813" cy="58.03" fill="#b7c5ff" r="5.002"/><path d="M314.343 399.084H197.657a5 5 0 01-5-5v-14.431a5 5 0 015-5h116.687a5 5 0 015 5v14.431a5.001 5.001 0 01-5.001 5z" fill="#ff5ba8"/><path d="M350.47 78.57c-14.65 37.86-51.42 64.72-94.47 64.72s-79.82-26.86-94.47-64.72z" fill="#b7c5ff"/><circle cx="324.783" cy="264.543" fill="#6583fe" r="28.297"/><circle cx="187.217" cy="177.188" fill="#8399fe" r="28.297"/><path d="M321.39 173.652v71.34c0 2.76-2.24 5-5 5H195.61c-2.76 0-5-2.24-5-5v-71.34c0-2.76 2.24-5 5-5h120.78c2.76 0 5 2.24 5 5z" fill="#d2deff"/><path d="M215.51 177.192c0 14.47-10.87 26.42-24.9 28.08v-31.62c0-2.76 2.24-5 5-5h18.59c.85 2.69 1.31 5.56 1.31 8.54z" fill="#b7c5ff"/><path d="M219.504 228.756h-11.681a5 5 0 000 10h11.681a5 5 0 000-10z" fill="#6583fe"/><path d="M258.504 211.581h-50.681a5 5 0 000 10h50.681a5 5 0 000-10z" fill="#9fb0fe"/><path d="M251.824 228.756h-11.681a5 5 0 000 10h11.681a5 5 0 000-10zm32.32 0h-11.681a5 5 0 000 10h11.681a5 5 0 000-10z" fill="#6583fe"/><circle cx="300.822" cy="189.612" fill="#ff7eb8" r="9.01"/><circle cx="288.996" cy="189.612" fill="#02ffb3" r="9.01"/><circle cx="324.783" cy="252.999" fill="#ff7eb8" r="28.297"/><path d="M319.765 268.041a5 5 0 01-3.053-8.962l7.897-6.08-7.897-6.08a5.002 5.002 0 01-.912-7.013 5.003 5.003 0 017.012-.911l13.042 10.042a5 5 0 010 7.924l-13.042 10.042a4.977 4.977 0 01-3.047 1.038z" fill="#fff"/><circle cx="187.217" cy="165.645" fill="#ff7eb8" r="28.297"/><path d="M192.235 180.686a5 5 0 003.053-8.962l-7.897-6.08 7.897-6.08a5.002 5.002 0 00.912-7.013 5.003 5.003 0 00-7.012-.911l-13.042 10.042a5 5 0 000 7.924l13.042 10.042a4.977 4.977 0 003.047 1.038zm160.409-65.878h-23.681a5 5 0 000 10h23.681a5 5 0 000-10zm0-17.756h-23.681a5 5 0 000 10h23.681a5 5 0 000-10zm-51.804 241.32h-89.68a5 5 0 000 10h89.681a5 5 0 00-.001-10zm-10.5-19.428h-68.68a5 5 0 000 10h68.681a5 5 0 00-.001-10z" fill="#fff"/><path d="M261.84 295.599h-11.68a5 5 0 000 10h11.681a5 5 0 00-.001-10z" fill="#ffa8cf"/><path d="M72.801 319.891c-7.88 0-14.291-6.411-14.291-14.292s6.411-14.292 14.291-14.292 14.292 6.411 14.292 14.292-6.412 14.292-14.292 14.292zm0-18.583c-2.366 0-4.291 1.925-4.291 4.292s1.925 4.292 4.291 4.292 4.292-1.925 4.292-4.292-1.926-4.292-4.292-4.292z" fill="#ff5ba8"/><path d="M428.167 367.305c-7.88 0-14.291-6.411-14.291-14.292s6.411-14.292 14.291-14.292c7.881 0 14.292 6.411 14.292 14.292s-6.411 14.292-14.292 14.292zm0-18.583c-2.366 0-4.291 1.925-4.291 4.292s1.925 4.292 4.291 4.292 4.292-1.925 4.292-4.292-1.926-4.292-4.292-4.292zM94.801 142.366a5 5 0 01-5-5c0-3.309-2.692-6-6-6a5 5 0 010-10c3.309 0 6-2.691 6-6a5 5 0 0110 0c0 3.309 2.691 6 6 6a5 5 0 010 10c-3.308 0-6 2.691-6 6a5 5 0 01-5 5z" fill="#01eca5"/><path d="M426.459 113.052a5 5 0 01-5-5c0-3.309-2.691-6-6-6a5 5 0 110-10c3.309 0 6-2.691 6-6a5 5 0 1110 0c0 3.309 2.691 6 6 6a5 5 0 110 10c-3.309 0-6 2.691-6 6a5 5 0 01-5 5zM94.801 374.013a5 5 0 01-5-5c0-3.309-2.692-6-6-6a5 5 0 010-10c3.309 0 6-2.691 6-6a5 5 0 0110 0c0 3.309 2.691 6 6 6a5 5 0 010 10c-3.308 0-6 2.691-6 6a5 5 0 01-5 5z" fill="#6583fe"/></svg>