<svg height="512" width="512" xmlns="http://www.w3.org/2000/svg"><linearGradient id="a" gradientUnits="userSpaceOnUse" x1="23.821" x2="459.531" y1="336.331" y2="84.774"><stop offset="0" stop-color="#dcfdee" stop-opacity="0"/><stop offset=".629" stop-color="#d2f3e4"/></linearGradient><path d="M16.074 295.943c18.727 64.003 72.707 194.564 163.922 182.845 91.486-11.755 55.759-129.725 139.508-145.894 36.867-7.118 61.857 56.689 98.806 54.704 47.588-2.557 71.81-49.663 85.108-89.264 28.197-83.968-14.029-226.352-112.859-251.012-86.244-21.519-96.332 83.855-171.322 53.248-42.149-17.203-37.938-68.576-89.272-78.942C-25.333-9.731-8.845 210.778 16.074 295.943z" fill="url(#a)"/><path d="M350.232 493.402H161.768c-16.569 0-30-13.431-30-30V82.723c0-16.569 13.431-30 30-30h188.464c16.569 0 30 13.431 30 30v380.678c0 16.569-13.431 30.001-30 30.001z" fill="#2626bc" opacity=".1"/><path d="M350.232 469.402H161.768c-16.569 0-30-13.431-30-30V58.723c0-16.569 13.431-30 30-30h188.464c16.569 0 30 13.431 30 30v380.678c0 16.569-13.431 30.001-30 30.001z" fill="#6583fe"/><path d="M131.77 71.632h248.46v354.86H131.77z" fill="#ff7eb8"/><path d="M322.51 71.632c-10.4 14.4-30.29 28.38-67.35 36.08-88.71 18.44-49.08 147.39-123.39 160.2V71.632z" fill="#ff5ba8"/><path d="M165.77 144.872c-6.59 29.83-21.17 46.01-34 54.98v-44.74c24.65-20.31 43.71-54.2 34-10.24z" fill="#ff7eb8"/><path d="M380.23 226.722v199.77H131.77v-53.22c33.6-2.2 79.93-14.07 96.71-60.5 22.33-61.78 81.16-121.46 151.75-86.05z" fill="#ff5ba8"/><path d="M360.89 385.552c-.97-.08-1.93-.13-2.89-.13-1.41 0-2.82.1-4.21.28 3.28-3.59 6.83-6.77 10.67-9.52a4.987 4.987 0 001.16-6.97 4.988 4.988 0 00-6.97-1.16 75.337 75.337 0 00-7.3 5.96c-.24-2.09-.66-4.18-1.31-6.22a32.724 32.724 0 00-17.91-20.03 4.992 4.992 0 00-6.31 1.99 32.668 32.668 0 00-3.17 26.69 32.706 32.706 0 0012.89 17.24c-5.59 9.39-10.02 20.35-13.22 32.81-.02.05-.03.09-.04.14h10.35c.01-.05.03-.09.04-.14 2-7.29 4.48-13.95 7.38-20.02 5.1 4.35 11.47 7.08 18.27 7.69a32.706 32.706 0 0021.91-5.96v-14a32.707 32.707 0 00-19.34-8.65zm-20.52-.68a22.72 22.72 0 01-8.19-11.44 22.74 22.74 0 01.14-14.06c3.84 2.83 6.73 6.82 8.19 11.43 1.45 4.62 1.38 9.54-.14 14.07zm18.84 19.33c-4.82-.43-9.34-2.4-12.92-5.54a22.75 22.75 0 0113.7-3.15c2.41.21 4.75.81 6.93 1.75s4.2 2.22 6 3.79a22.693 22.693 0 01-13.71 3.15z" fill="#d2deff"/><path d="M352.235 235.478c-23.718-87.182-75.813-60.383-82.003-21.545-8.729 54.771 27.296 138.791 12.73 212.7h22.932c35.606-56.793 59.25-143.706 46.341-191.155z" fill="#8399fe"/><path d="M330.027 331.265H181.973a5 5 0 01-5-5v-26.809a5 5 0 015-5h148.053a5 5 0 015 5v26.809a4.998 4.998 0 01-4.999 5z" fill="#fff"/><path d="M308.64 344.761a5.002 5.002 0 00-4.69-4.68c-11.44-.69-22.62 3.54-30.7 11.62-1.4 1.39-2.67 2.88-3.82 4.44-.72-5.22-1.61-10.25-2.67-15.09 8.04-1.57 15.44-5.84 20.91-12.2 6.78-7.88 9.96-18.25 8.71-28.43-.31-2.57-2.56-4.45-5.11-4.39-3.22.09-6.4.62-9.45 1.55a37.049 37.049 0 00-17.35 11.31 37.09 37.09 0 00-5.19 7.87c-2.13-5.16-4.53-10-7.19-14.48a32.641 32.641 0 0012.95-17.27 32.706 32.706 0 00-3.17-26.69 4.99 4.99 0 00-6.32-1.99c-8.56 3.81-15.09 11.11-17.9 20.03-.65 2.04-1.08 4.12-1.31 6.22a73.885 73.885 0 00-7.3-5.96c-2.24-1.61-5.36-1.09-6.97 1.15a5.006 5.006 0 001.15 6.98c3.94 2.81 7.48 6.01 10.67 9.51-2.33-.3-4.71-.36-7.09-.14-9.31.83-17.85 5.64-23.41 13.19-1.5 2.03-1.24 4.86.59 6.6a32.72 32.72 0 0025.39 8.82c6.79-.61 13.16-3.34 18.26-7.69 2.98 6.26 5.36 12.88 7.25 19.66a32.9 32.9 0 00-14.32-1.94c-4.66.42-9.12 1.83-13.12 4.08a32.845 32.845 0 00-10.29 9.12 4.98 4.98 0 00.59 6.59c.25.23.5.46.75.68 6 5.35 13.75 8.28 21.72 8.28.97 0 1.94-.05 2.92-.13 5.84-.53 11.37-2.61 16.05-5.95 1.13 7.76 1.77 15.45 2.07 22.78a32.604 32.604 0 00-16.65-2.91c-4.66.42-9.12 1.83-13.11 4.08s-7.52 5.34-10.3 9.11c-1.5 2.03-1.24 4.86.59 6.6a32.72 32.72 0 0025.39 8.82c5.07-.45 9.89-2.09 14.14-4.69-.46 13.1-1.7 23.19-2.28 27.41h10.1c.91-6.68 2.56-21.42 2.42-39.57 9.56-.66 18.63-4.73 25.48-11.58a39.959 39.959 0 0011.61-30.72zm-80.16-31.99c-4.82.43-9.62-.7-13.71-3.15 3.59-3.15 8.11-5.11 12.92-5.54 4.82-.44 9.62.69 13.71 3.15-3.59 3.14-8.1 5.1-12.92 5.54zm18.84-19.34c-1.52-4.52-1.6-9.45-.14-14.06s4.35-8.6 8.19-11.43c1.52 4.52 1.59 9.44.13 14.06a22.66 22.66 0 01-8.18 11.43zm-1.05 100.52c-4.82.43-9.61-.69-13.7-3.15 3.59-3.14 8.11-5.11 12.92-5.54 4.82-.43 9.62.7 13.71 3.15-3.59 3.14-8.1 5.11-12.93 5.54zm-4.04-42.53c-3.4.3-6.79-.17-9.93-1.34-1.31-.48-2.57-1.09-3.77-1.81 3.59-3.15 8.1-5.11 12.92-5.55 2.36-.21 4.71-.05 6.98.47 2.36.52 4.64 1.43 6.73 2.69-3.59 3.14-8.11 5.1-12.93 5.54zm23.51-22.07c.7-5.08 2.87-9.94 6.31-13.94 1.67-1.95 3.6-3.63 5.7-5.01 2.7-1.77 5.69-3.04 8.83-3.75-.4 5.7-2.66 11.23-6.49 15.68-3.84 4.46-8.96 7.51-14.54 8.76.04-.58.1-1.16.19-1.74zm5.96 47.68c.67-6.86 3.69-13.34 8.62-18.26 4.92-4.93 11.4-7.95 18.26-8.62a29.966 29.966 0 01-8.62 18.26 29.992 29.992 0 01-18.26 8.62z" fill="#ffa8cf"/><path d="M350.232 474.401H161.768c-19.299 0-35-15.701-35-35V58.724c0-19.299 15.701-35 35-35h188.465c19.299 0 35 15.701 35 35v380.678c-.001 19.298-15.702 34.999-35.001 34.999zM161.768 33.724c-13.785 0-25 11.215-25 25v380.678c0 13.785 11.215 25 25 25h188.465c13.785 0 25-11.215 25-25V58.724c0-13.785-11.215-25-25-25z" fill="#2626bc"/><path d="M273.483 56.094h-34.966a5 5 0 010-10h34.966a5 5 0 010 10z" fill="#b7c5ff"/><circle cx="296.813" cy="51.092" fill="#b7c5ff" r="5.002"/><g fill="#fff"><circle cx="303.318" cy="192.718" r="5.002"/><circle cx="326.406" cy="192.718" r="5.002"/><circle cx="349.494" cy="192.718" r="5.002"/><circle cx="314.862" cy="174.135" r="5.002"/><circle cx="337.95" cy="174.135" r="5.002"/><circle cx="314.862" cy="211.301" r="5.002"/><circle cx="337.95" cy="211.301" r="5.002"/></g><path d="M272.613 140.583c0-9.16-7.453-16.613-16.613-16.613s-16.613 7.453-16.613 16.613c0 4.518 1.818 8.615 4.755 11.613-2.936 2.998-4.755 7.095-4.755 11.613a5 5 0 0010 0c0-3.646 2.967-6.613 6.613-6.613s6.613 2.967 6.613 6.613a5 5 0 0010 0c0-4.518-1.818-8.615-4.755-11.613 2.937-2.997 4.755-7.095 4.755-11.613zM256 133.971c3.646 0 6.613 2.966 6.613 6.613s-2.967 6.613-6.613 6.613-6.613-2.967-6.613-6.613 2.967-6.613 6.613-6.613zm74.027 133.496H181.973a5 5 0 01-5-5v-26.809a5 5 0 015-5h148.053a5 5 0 015 5v26.809a4.998 4.998 0 01-4.999 5z" fill="#fff"/><path d="M93.1 318.031a5 5 0 01-5-5c0-3.309-2.691-6-6-6a5 5 0 110-10c3.309 0 6-2.691 6-6a5 5 0 1110 0c0 3.309 2.691 6 6 6a5 5 0 110 10c-3.309 0-6 2.691-6 6a5 5 0 01-5 5z" fill="#ff5ba8"/><path d="M441.415 431.493a5 5 0 01-5-5c0-3.309-2.691-6-6-6a5 5 0 110-10c3.309 0 6-2.691 6-6a5 5 0 1110 0c0 3.309 2.691 6 6 6a5 5 0 110 10c-3.309 0-6 2.691-6 6a5 5 0 01-5 5zM74.723 149.971a5 5 0 01-5-5c0-3.309-2.691-6-6-6a5 5 0 110-10c3.309 0 6-2.691 6-6a5 5 0 1110 0c0 3.309 2.691 6 6 6a5 5 0 110 10c-3.309 0-6 2.691-6 6a5 5 0 01-5 5z" fill="#01eca5"/><path d="M421.123 389.619c-7.88 0-14.291-6.411-14.291-14.292 0-7.88 6.411-14.291 14.291-14.291 7.881 0 14.292 6.411 14.292 14.291 0 7.881-6.411 14.292-14.292 14.292zm0-18.582c-2.366 0-4.291 1.925-4.291 4.291s1.925 4.292 4.291 4.292 4.292-1.925 4.292-4.292-1.926-4.291-4.292-4.291zM93.1 193.428c-7.881 0-14.292-6.411-14.292-14.292s6.411-14.292 14.292-14.292c7.88 0 14.291 6.411 14.291 14.292s-6.412 14.292-14.291 14.292zm0-18.583c-2.366 0-4.292 1.925-4.292 4.292s1.926 4.292 4.292 4.292 4.291-1.925 4.291-4.292-1.925-4.292-4.291-4.292z" fill="#6583fe"/></svg>