<svg height="512" width="512" xmlns="http://www.w3.org/2000/svg"><linearGradient id="a" gradientUnits="userSpaceOnUse" x1="4.722" x2="389.966" y1="449.152" y2="-9.964"><stop offset="0" stop-color="#d2deff" stop-opacity="0"/><stop offset=".685" stop-color="#d2deff"/></linearGradient><path d="M451.798 43.963c-160.556-97.869-410.51-8.611-439.594 61.949-38.908 94.394 26.578 110.528 38.743 187.874 9.761 62.061-51.182 121.495-16.394 176.282 37.883 59.663 163.465 44.681 211.198 16.447 87.376-51.683 43.309-112.012 84.684-187.299 39.407-71.707 116.244-42.625 160.961-99.99 42.5-54.521 14.31-122.402-39.598-155.263z" fill="url(#a)"/><path d="M350.232 500.339H161.768c-16.569 0-30-13.431-30-30V89.661c0-16.569 13.431-30 30-30h188.464c16.569 0 30 13.431 30 30v380.678c0 16.569-13.431 30-30 30z" fill="#2626bc" opacity=".1"/><path d="M350.232 476.339H161.768c-16.569 0-30-13.431-30-30V65.661c0-16.569 13.431-30 30-30h188.464c16.569 0 30 13.431 30 30v380.678c0 16.569-13.431 30-30 30z" fill="#6583fe"/><path d="M131.77 78.57h248.46v354.86H131.77z" fill="#fff"/><path d="M131.77 317.94h248.46v115.49H131.77z" fill="#97ffd2"/><path d="M351.45 317.94v35.95c0 5.52-4.48 10-10 10h-170.9c-5.52 0-10-4.48-10-10v-35.95z" fill="#02ffb3"/><path d="M350.232 481.339H161.768c-19.299 0-35-15.701-35-35V65.661c0-19.299 15.701-35 35-35h188.465c19.299 0 35 15.701 35 35v380.678c-.001 19.299-15.702 35-35.001 35zM161.768 40.661c-13.785 0-25 11.215-25 25v380.678c0 13.785 11.215 25 25 25h188.465c13.785 0 25-11.215 25-25V65.661c0-13.785-11.215-25-25-25z" fill="#2626bc"/><path d="M273.483 63.031h-34.966a5 5 0 010-10h34.966a5 5 0 010 10z" fill="#b7c5ff"/><circle cx="296.813" cy="58.03" fill="#b7c5ff" r="5.002"/><circle cx="256" cy="386.318" fill="#ff7eb8" r="22.218"/><path d="M264.84 381.318H261v-3.84a5 5 0 00-10 0v3.84h-3.84a5 5 0 000 10H251v3.84a5 5 0 0010 0v-3.84h3.84a5 5 0 000-10z" fill="#fff"/><path d="M341.449 260.589H170.551c-5.523 0-10-4.477-10-10v-51.892c0-5.523 4.477-10 10-10h170.897c5.523 0 10 4.477 10 10v51.892c.001 5.523-4.476 10-9.999 10z" fill="#9fb0fe"/><path d="M341.449 346.901H170.551c-5.523 0-10-4.477-10-10v-51.892c0-5.523 4.477-10 10-10h170.897c5.523 0 10 4.477 10 10v51.892c.001 5.523-4.476 10-9.999 10z" fill="#8399fe"/><path d="M193.699 201.897h-14.681a5 5 0 000 10h14.681a5 5 0 000-10zm0 86.439h-14.681a5 5 0 000 10h14.681a5 5 0 000-10z" fill="#fff"/><circle cx="330.112" cy="142.945" fill="#d2deff" r="28.297"/><path d="M351.45 142.383v21.89c0 5.53-4.48 10-10 10h-170.9c-5.52 0-10-4.47-10-10v-21.89c0-5.52 4.48-10 10-10h170.9c5.52 0 10 4.48 10 10z" fill="#b7c5ff"/><path d="M351.45 142.383v19.14c-5.19 5.96-12.82 9.72-21.34 9.72-15.63 0-28.29-12.67-28.29-28.3 0-3.74.72-7.3 2.04-10.56h37.59c5.52 0 10 4.48 10 10z" fill="#9fb0fe"/><circle cx="330.112" cy="127.904" fill="#02ffb3" r="28.297"/><path d="M325.094 112.862a5 5 0 00-3.053 8.962l7.897 6.08-7.897 6.08a5.002 5.002 0 00-.912 7.013 5.003 5.003 0 007.012.911l13.042-10.042a5 5 0 000-7.924L328.141 113.9a4.983 4.983 0 00-3.047-1.038z" fill="#00b574"/><path d="M186.861 403.537h-8.681a5 5 0 000 10h8.681a5 5 0 000-10zm32.083 0h-8.681a5 5 0 000 10h8.681a5 5 0 000-10zm82.793 0h-8.681a5 5 0 000 10h8.681a5 5 0 000-10zm32.083 0h-8.681a5 5 0 000 10h8.681a5 5 0 000-10z" fill="#ff7eb8"/><path d="M437.277 295.564c-7.88 0-14.291-6.411-14.291-14.292s6.411-14.292 14.291-14.292c7.881 0 14.292 6.411 14.292 14.292s-6.411 14.292-14.292 14.292zm0-18.583c-2.366 0-4.291 1.925-4.291 4.292s1.925 4.292 4.291 4.292 4.292-1.925 4.292-4.292-1.925-4.292-4.292-4.292z" fill="#6583fe"/><path d="M68.572 400.61c-7.88 0-14.291-6.411-14.291-14.292s6.411-14.292 14.291-14.292c7.881 0 14.292 6.411 14.292 14.292s-6.411 14.292-14.292 14.292zm0-18.583c-2.366 0-4.291 1.925-4.291 4.292s1.925 4.292 4.291 4.292 4.292-1.925 4.292-4.292-1.926-4.292-4.292-4.292z" fill="#ff5ba8"/><path d="M422.771 338.878a5 5 0 01-5-5c0-3.309-2.691-6-6-6a5 5 0 110-10c3.309 0 6-2.691 6-6a5 5 0 1110 0c0 3.309 2.691 6 6 6a5 5 0 110 10c-3.309 0-6 2.691-6 6a5 5 0 01-5 5zm-338.732-3.08a5 5 0 01-5-5c0-3.309-2.691-6-6-6a5 5 0 110-10c3.309 0 6-2.691 6-6a5 5 0 1110 0c0 3.309 2.691 6 6 6a5 5 0 110 10c-3.309 0-6 2.691-6 6a5 5 0 01-5 5z" fill="#01eca5"/><path d="M428.185 132.517a5 5 0 01-5-5c0-3.309-2.691-6-6-6a5 5 0 110-10c3.309 0 6-2.691 6-6a5 5 0 1110 0c0 3.309 2.691 6 6 6a5 5 0 110 10c-3.309 0-6 2.691-6 6a5 5 0 01-5 5z" fill="#6583fe"/></svg>