<svg height="512pt" viewBox="0 0 512 512" width="512pt" xmlns="http://www.w3.org/2000/svg"><path d="M491.52 229.121a52.205 52.205 0 013.414 18.344c-.024 28.27-22.934 51.18-51.2 51.203a50.017 50.017 0 01-18.636-3.586 51.205 51.205 0 01-78.555 4.352 51.068 51.068 0 01-36.477 32.074 51.072 51.072 0 01-46.812-12.957c-4.766 20.957-22.11 36.71-43.43 39.437-21.32 2.727-42.074-8.152-51.96-27.234a53.052 53.052 0 01-14.262 2.047c-21.754-.012-41.125-13.77-48.301-34.305-.938.086-1.875.172-2.903.172a51.155 51.155 0 01-44.37-25.625c-23.844-.793-43.977-17.95-48.548-41.36-4.57-23.413 7.637-46.878 29.43-56.578a50.581 50.581 0 01-4.777-21.503c.023-28.27 22.933-51.18 51.199-51.204 2.86.016 5.711.25 8.535.704v-.704c.024-28.265 22.934-51.175 51.2-51.199a50.514 50.514 0 0121.503 4.781 51.197 51.197 0 0138.332-29.675 51.197 51.197 0 0145.899 15.593c7.48-20.222 26.851-33.574 48.414-33.363 21.558.211 40.668 13.938 47.75 34.3a51.148 51.148 0 0176.8 25.513c.86-.055 1.88-.082 2.903-.082 28.266.023 51.176 22.933 51.2 51.199a56.3 56.3 0 01-.259 5.379 51.097 51.097 0 018.79 28.758c0 1.425-.086 2.847-.254 4.265 20.812 18.363 23.199 49.973 5.375 71.254zm0 0" fill="#ff5364"/><path d="M302.691 102.398a8.505 8.505 0 01-6.359-2.84 42.65 42.65 0 00-63.598 0 8.534 8.534 0 11-12.714-11.382 59.72 59.72 0 0189.03 0 8.531 8.531 0 01-6.359 14.222zM384 324.266c-32.973-.04-59.695-26.758-59.734-59.73a8.534 8.534 0 1117.066 0c-.023 22.194 16.977 40.702 39.094 42.562 22.117 1.859 41.969-13.551 45.648-35.438a8.536 8.536 0 0113.844-5.18 8.531 8.531 0 012.988 7.997c-4.77 28.796-29.719 49.882-58.906 49.789zm0 0" fill="#df4d60"/><path d="M441.879 298.633a50.219 50.219 0 01-16.781-3.551 51.205 51.205 0 01-78.555 4.352c-7.223 19.5-25.535 32.68-46.32 33.343 10.566 61.016 77.964 68.29 109.379 68.29 51.355 0 71.113-50.317 32.277-102.434zm0 0" fill="#df4d60"/><path d="M361.738 489.633a778.773 778.773 0 0011.035-92.059c-30.914-6.191-65.257-22.695-72.546-64.793-.364.008-.883.02-1.559.02a51.196 51.196 0 01-35.414-14.25 51.11 51.11 0 01-15.14 26.187c18.648 18.676 45.878 79.75 50.019 142.735.55 8.976 7.984 15.98 16.98 15.992h29.867a17.01 17.01 0 0016.758-13.832zm0 0" fill="#802f34"/><path d="M273.066 247.465a8.53 8.53 0 01-7.925-5.363l-26.207-65.528-26.207 65.528c-1.75 4.375-6.715 6.503-11.094 4.757a8.537 8.537 0 01-4.758-11.093l34.133-85.332a8.538 8.538 0 017.926-5.371 8.538 8.538 0 017.925 5.37l34.133 85.333a8.54 8.54 0 01-.86 7.953 8.52 8.52 0 01-7.066 3.746zm0 0" fill="#fdd7ad"/><path d="M262.828 221.867H215.04a8.533 8.533 0 01-8.531-8.535c0-4.71 3.82-8.531 8.531-8.531h47.79c4.71 0 8.53 3.82 8.53 8.531a8.533 8.533 0 01-8.53 8.535zm44.372 25.598a8.532 8.532 0 01-8.532-8.531v-85.332a8.533 8.533 0 1117.066 0v85.332c0 4.71-3.82 8.53-8.535 8.53zm0 0" fill="#fdd7ad"/><path d="M162.133 426.668c0 42.414-34.383 76.797-76.801 76.797-42.414 0-76.797-34.383-76.797-76.797 0-42.418 34.383-76.8 76.797-76.8 42.418 0 76.8 34.382 76.8 76.8zm0 0" fill="#f0c419"/><path d="M162.14 435.2a8.533 8.533 0 01-3.824-16.165l41.766-20.887a8.474 8.474 0 004.719-7.632v-66.25a8.533 8.533 0 018.531-8.532 8.533 8.533 0 018.535 8.532v66.25a25.477 25.477 0 01-14.152 22.902l-41.766 20.883a8.519 8.519 0 01-3.808.898zM46.648 368.875a8.553 8.553 0 01-7.382-4.234L23.59 337.766a25.763 25.763 0 01.816-27.098l52.89-79.336a8.533 8.533 0 1114.2 9.469L38.61 320.133a8.615 8.615 0 00-.277 9.035l15.684 26.875a8.535 8.535 0 01.03 8.547 8.538 8.538 0 01-7.398 4.285zm89.887-351.809h-128A8.533 8.533 0 118.535 0h128a8.533 8.533 0 018.531 8.535 8.531 8.531 0 01-8.53 8.531zM25.602 51.2H8.535a8.533 8.533 0 110-17.067h17.067c4.71 0 8.53 3.82 8.53 8.535 0 4.71-3.82 8.531-8.53 8.531zM51.2 85.332H8.534a8.533 8.533 0 110-17.066H51.2a8.534 8.534 0 110 17.066zm452.265 358.402h-93.863a8.534 8.534 0 110-17.066h93.863a8.533 8.533 0 110 17.066zm0 34.133h-51.2a8.533 8.533 0 01-8.53-8.535c0-4.71 3.82-8.531 8.53-8.531h51.2a8.533 8.533 0 110 17.066zm0 34.133h-110.93a8.534 8.534 0 110-17.066h110.93a8.533 8.533 0 110 17.066zM85.332 51.2H59.734a8.533 8.533 0 110-17.067h25.598a8.534 8.534 0 110 17.066zm418.133 349.866a8.532 8.532 0 01-8.531-8.53v-95.337a8.593 8.593 0 00-2.5-6.031l-51.2-51.203a8.53 8.53 0 01.075-11.988 8.535 8.535 0 0111.992-.079l51.199 51.204a25.436 25.436 0 017.5 18.097v95.336a8.52 8.52 0 01-2.5 6.031 8.53 8.53 0 01-6.035 2.5zm0 0" fill="#464f5d"/><path d="M85.332 349.867v76.801H8.535c0-42.414 34.383-76.797 76.797-76.8zm0 0" fill="#2980ba"/><path d="M162.133 426.668a74.97 74.97 0 01-2.73 20.223 17.81 17.81 0 01-.77 2.644 97.009 97.009 0 01-2.559 7c-.96 2.3-2.043 4.55-3.242 6.738a53.9 53.9 0 01-3.84 6.317 58.61 58.61 0 01-4.437 5.887 74.623 74.623 0 01-4.95 5.46l-54.273-54.269v-76.8c42.414.003 76.797 34.386 76.8 76.8zm0 0" fill="#ff5364"/><path d="M230.398 307.2c0 9.425-7.64 17.066-17.066 17.066s-17.066-7.641-17.066-17.067 7.64-17.066 17.066-17.066 17.066 7.64 17.066 17.066zm221.868-85.333c0 9.426-7.641 17.067-17.067 17.067s-17.066-7.641-17.066-17.067 7.64-17.066 17.066-17.066 17.067 7.64 17.067 17.066zm-341.332 0c0 9.426-7.641 17.067-17.067 17.067s-17.066-7.641-17.066-17.067 7.64-17.066 17.066-17.066c9.426 0 17.067 7.64 17.067 17.066zm0 0" fill="#f0c419"/></svg>