<svg xmlns="http://www.w3.org/2000/svg" viewBox="0 0 513.067 513.067"><path d="M156.303 411.733v-38.4h-13.867v38.4c-3.2 1.067-6.4 2.133-8.533 5.333-4.267 4.267-7.467 9.6-7.467 16s2.133 11.733 6.4 17.067c4.267 4.267 9.6 7.467 16 7.467h2.133c5.333 0 10.667-2.133 14.933-6.4 4.267-4.267 7.467-9.6 7.467-16 1.067-10.667-6.399-20.267-17.066-23.467zm1.067 29.867c-2.133 1.067-4.267 2.133-6.4 2.133-3.2 0-5.333-1.067-7.467-3.2-2.133-2.133-3.2-4.267-3.2-7.467 0-2.133 1.067-4.267 2.133-6.4 1.067-1.067 3.2-2.133 5.333-2.133h1.067c5.333 0 10.667 5.333 10.667 10.667 1.067 2.133 0 4.267-2.133 6.4z" fill="#344a5e"/><path fill="#f3f3f3" d="M286.436 372.267L13.37 354.133 11.236 23.467 284.303 41.6z"/><g fill="#adb3ba"><path d="M46.436 334.933l-5.333-5.333L67.77 304l28.8 19.2 51.2-17.067 19.2 10.667 29.866-9.6 2.134 6.4-32 10.667-19.2-10.667-52.267 17.067-25.6-19.2z"/><path d="M198.97 323.2l13.866-17.067-22.4-5.333z"/></g><path fill="#f3705a" d="M188.303 265.6l-24.533-2.133V182.4l24.533 1.067z"/><path d="M297.103 30.933c0 6.4-5.333 10.667-11.733 10.667h-1.067L11.236 23.467c-6.4 0-10.667-6.4-10.667-12.8S5.903 0 12.303 0h1.067l273.067 18.133c6.399 0 10.666 6.4 10.666 12.8zm0 354.134c0 6.4-5.333 10.667-11.733 10.667h-1.067L11.236 378.667c-6.4 0-11.733-6.4-10.667-12.8 0-6.4 5.333-10.667 11.733-10.667h1.067l273.067 18.133c6.4 0 10.667 5.334 10.667 11.734zM62.436 80c3.2-3.2 6.4-4.267 11.733-4.267V51.2c-10.667-1.067-21.333 3.2-28.8 9.6 5.334 6.4 11.734 12.8 17.067 19.2z" fill="#415a6b"/><path d="M90.17 92.8c8.533 1.067 17.067 1.067 24.533 2.133 0-22.4-18.133-41.6-40.533-43.733v24.533c8.533 1.067 16 8.534 16 17.067z" fill="#ffd15c"/><path d="M113.636 94.933c0 22.4-18.133 39.467-40.533 37.333-10.667-1.067-21.333-6.4-28.8-13.867-7.467-7.467-11.733-18.133-11.733-29.867S36.836 67.2 44.303 60.8c5.333 5.333 11.733 12.8 17.067 18.133-3.2 3.2-4.267 6.4-4.267 10.667 0 8.533 7.467 17.067 16 17.067s16-6.4 16-14.933l24.533 3.199z" fill="#f3705a"/><path fill="#66c6b9" d="M40.036 227.2V256l23.467 1.067v-27.734z"/><path fill="#ffd15c" d="M105.103 260.267l-23.467-2.134v-81.066l23.467 1.066z"/><path fill="#55c0eb" d="M122.17 214.4v46.933l24.533 1.067v-46.933z"/><path fill="#66c6b9" d="M230.97 448h99.2v64h-99.2z"/><path d="M172.303 402.133s-19.2-2.133-22.4-3.2c-4.267-1.067-4.267-5.333-4.267-5.333s5.333-26.667 22.4-32c0 0 1.067 17.067 1.067 23.467s3.2 17.066 3.2 17.066z" fill="#ced6e0"/><path d="M139.236 320s-4.267 4.267 1.067 9.6c3.2 3.2 3.2 3.2 4.267 3.2 0 0 1.067 3.2 2.133 4.267 0 0-6.4-6.4-11.733-7.467l-2.133 1.067 1.067 23.467-5.333 1.067s0 3.2 2.133 6.4c2.133 4.267 10.667 10.667 17.067 13.867 6.4 3.2 13.867 10.667 13.867 10.667l11.733-20.267s-8.533-5.333-9.6-7.467c-1.067-2.133-1.067-4.267-2.133-9.6-2.133-4.267-3.2-10.667-3.2-10.667l-10.667-10.667s-2.133-2.133-4.267-2.133L139.236 320z" fill="#ffd15c"/><path d="M133.903 333.867zm13.867 16l1.067-1.067v-6.4l-1.067-1.067h-2.134l-1.067-1.067c-2.133-1.067-3.2-2.133-5.333-3.2-1.067-1.067-2.133-1.067-2.133-2.133l-2.133-1.067h-1.067v1.067l2.133 2.133c1.067 1.067 2.133 1.067 2.133 2.133 2.133 1.067 3.2 2.133 5.333 3.2l1.067 1.067h2.134l1.067 1.067v4.268c-1.067-1.068-1.067-.001 0 1.066-1.067-1.067-2.133 0-2.133 0h-1.067v3.2h-1.067v1.067l1.067 1.067h-1.067c-1.067 0-3.2-1.067-4.267-1.067s-3.2-1.067-4.267-1.067h-2.133 2.133c1.067 0 2.133 1.067 4.267 1.067 1.067 0 2.133 1.067 4.267 1.067h3.201s1.067 0 1.067-1.067v-4.267h-.001c-1.067 1.066-1.067 1.066 0 0-1.067 0-1.067 0 0 0-1.067 0-1.067 0 0 0z" fill="#f7b64c"/><path d="M143.503 356.267l-3.2 1.067c-1.067 0-2.133 0-2.133-1.067l-16-64c0-1.067 0-2.133 1.067-2.133l3.2-1.067c1.067 0 2.133 0 2.133 1.067l16 64c1.066 1.066 0 2.133-1.067 2.133z" fill="#f3705a"/><path d="M235.236 295.467s-8.533 0-9.6 10.667c-2.133 10.667 0 46.933-1.067 54.4-1.067 7.467-2.133 17.067-2.133 20.267s-1.067 10.667-1.067 10.667-1.067 1.067-3.2-1.067c-2.133-2.133-3.2-3.2-8.533-3.2-5.333-1.067-11.733-4.267-16-7.467-5.333-3.2-24.533-17.067-24.533-17.067 1.067 6.4-9.6 30.933-16 34.133-6.4 4.267-7.467-3.2-7.467-3.2s-2.133 5.333 3.2 8.533 52.267 24.533 58.667 26.667c6.4 2.133 29.867 8.533 29.867 8.533l-2.134-141.866z" fill="#66c6b9"/><path d="M261.903 253.867l10.667 23.467-9.6 30.933 38.4 2.133-2.133-36.267s7.467 1.067 10.667-7.467c3.2-8.533 5.333-25.6 4.267-36.267l-3.2-16s4.267-20.267-9.6-27.733c-13.867-7.467-54.4 8.533-56.533 20.267-.002 11.734 17.065 46.934 17.065 46.934z" fill="#ffd15c"/><path d="M299.236 274.133s-19.2 1.067-32-12.8c0 0 8.533 16 33.067 23.467l-1.067-10.667z" fill="#f7b64c"/><path d="M294.97 279.467s-12.8 7.467-16 13.867l-3.2 6.4s-2.133-4.267-6.4-8.533-11.733 1.067-11.733 1.067l-13.867 153.6 57.6-4.267 27.733-151.467-34.133-10.667z" fill="#ced6e0"/><path d="M229.903 416c0 10.667-5.333 64-8.533 96h26.667l4.267-54.4v-21.333c-2.133-23.467 11.733-156.8 11.733-156.8s-36.267 11.733-37.333 22.4c-1.067 10.667 4.267 61.867 4.267 67.2 1.065 5.333-.001 30.933-1.068 46.933z" fill="#4abaa5"/><path d="M268.303 277.333S253.37 289.066 244.836 304l3.2 5.333-8.533 4.267s1.067 69.333 8.533 100.267c7.467 30.933 6.4 42.667 6.4 42.667s2.133-69.333 2.133-93.867c3.201-43.734 11.734-85.334 11.734-85.334z" fill="#66c6b9"/><path d="M260.836 242.133l3.2-2.133s-7.467-8.533-4.267-16c3.2-7.467 5.333-7.467 4.267-13.867-1.067-6.4-3.2-12.8 4.267-12.8s18.133 1.067 27.733-3.2c8.533-4.267 12.8 3.2 13.867 7.467s2.133 12.8 2.133 12.8 3.2-5.333 1.067-18.133c-2.133-12.8-16-22.4-24.533-23.467-8.533-2.133-32 3.2-41.6 18.133-9.6 14.933-3.2 33.067-1.067 37.333 2.133 3.2 17.067 26.667 17.067 26.667l-6.4-17.067 4.266 4.267z" fill="#415a6b"/><ellipse transform="rotate(-125.331 253.32 239.895)" cx="253.319" cy="239.891" rx="11.733" ry="6.4" fill="#ffd15c"/><path d="M321.637 267.733l-12.8 41.6-8.533-18.133-5.333-10.667 4.267-5.333s7.467 1.067 10.667-7.467c1.067-3.2 2.133-6.4 3.2-10.667l8.532 10.667zM272.57 278.4s-2.133 13.867 3.2 22.4c0 0-6.4-8.533-9.6-5.333-3.2 3.2-6.4 9.6-6.4 9.6 2.133-12.8 5.333-24.533 9.6-33.067l3.2 6.4z" fill="#e8eae9"/><path d="M283.236 512h84.267c-3.2-37.333-12.8-145.067-12.8-172.8 0-33.067 18.133-54.4 18.133-54.4l-44.8-11.733-53.333 161.067s2.133 33.067 3.2 51.2c1.067 8.533 2.133 18.133 5.333 26.666z" fill="#4abaa5"/><path d="M317.37 261.333s1.067 4.267-1.067 8.533-16 36.267-24.533 75.733-17.067 89.6-17.067 89.6 17.067-32 23.467-48c6.4-14.933 33.067-71.467 33.067-71.467l-9.6-6.4 9.6-6.4s-2.133-18.133-1.067-27.733c0 0 0-2.133-2.133-4.267-3.201-3.199-9.601-10.665-10.667-9.599zM344.036 512h29.867c4.267-58.667 11.733-171.733 13.867-195.2 2.133-30.933-14.933-32-14.933-32s-18.133 20.267-18.133 54.4c0 10.667 1.067 33.067 3.2 58.667C355.77 435.2 348.303 483.2 344.036 512z" fill="#66c6b9"/><path d="M130.703 358.4h2.133s6.4 2.133 8.533 2.133 5.333-1.067 3.2-4.267c0 0 3.2-1.067 1.067-6.4 0 0 3.2-2.133 2.133-5.333 0-1.067-1.067-2.133-2.133-2.133-2.133-1.067-12.8-8.533-12.8-8.533s1.067 0 0-1.067c0 0 4.267 0 4.267-3.2s-2.133-3.2-4.267-4.267c-1.067 0-3.2 0-4.267 1.067-1.067 1.067-2.133 4.267-1.067 6.4l1.067 2.133s-2.133 4.267 1.067 7.467c0 0-4.267 4.267 0 8.533 1.067-1.066-3.2 4.267 1.067 7.467zm200.533-160l-3.2 9.6s-3.2 13.867-1.067 19.2c2.133 5.333 1.067 5.333 1.067 7.467s-5.333 12.8-5.333 12.8-1.067 4.267 2.133 5.333c3.2 1.067 6.4 1.067 6.4 2.133 1.067 1.067 0 5.333 3.2 6.4 0 0-2.133 1.067 0 4.267s3.2 4.267 2.133 9.6c-1.067 4.267 7.467 12.8 23.467 8.533 16-4.267-17.067 46.933-17.067 46.933l78.933 8.533-7.467-70.4s-3.2-4.267-5.333-11.733c-2.133-7.467-24.533-67.2-45.867-72.533-21.332-5.333-31.999 13.867-31.999 13.867z" fill="#ffd15c"/><path d="M386.703 257.067c-5.333 14.933-22.4 23.467-28.8 27.733 1.067 0 2.133 0 3.2-1.067 5.333-1.067 5.333 4.267 2.133 12.8 19.2-14.933 23.467-39.466 23.467-39.466z" fill="#f7b64c"/><path d="M422.97 512H319.503l26.667-195.2 16-10.667c1.067 5.333 3.2 9.6 6.4 13.867l1.067 2.133C378.17 315.733 384.57 304 384.57 304l26.667 8.533C412.303 311.467 459.236 473.6 422.97 512z" fill="#ced6e0"/><path d="M243.77 493.867s-3.2 1.067-5.333 1.067-4.267-3.2-4.267-4.267c0-2.133-5.333-10.667 0-40.533 0 0 6.4-1.067 14.933 3.2 9.6 4.266 2.133 34.133-5.333 40.533z" fill="#344a5e"/><path d="M241.636 483.2h-3.2s-6.4 1.067-4.267-33.067L248.036 464l-6.4 19.2z" fill="#ced6e0"/><path d="M255.503 476.8h-23.467c-2.133 2.133-12.8 5.333-17.067 5.333s-9.6-1.067-13.867-1.067-9.6-1.067-12.8 0c-3.2 0-4.267 3.2-8.533 2.133s-16-5.333-16-5.333l-5.333-2.133c-1.067-3.2 2.133-3.2 4.267-4.267l22.4-8.533c3.2-1.067 13.867-7.467 16-8.533l4.267-4.267s-1.067 0-2.133-1.067c-2.133-1.067-8.533-1.067-12.8-2.133-4.267-1.067-10.667-5.333-7.467-7.467 3.2-3.2 5.333-3.2 10.667-2.133s12.8 2.133 16 2.133 4.267 1.067 6.4 3.2 6.4 2.133 10.667 4.267c4.267 2.133 5.333 4.267 8.533 4.267 3.2 0 8.533-1.067 8.533-1.067 8.533 0 11.733 26.667 11.733 26.667z" fill="#ffd15c"/><path d="M234.17 451.2s8.533 20.267 4.267 33.067l23.467-1.067-8.534-35.2-19.2 3.2z" fill="#f3f3f3"/><path d="M331.236 315.733s-9.6 4.267-12.8 11.733-3.2 33.067-3.2 41.6c0 8.533-3.2 16-3.2 18.133s-2.133 20.267-2.133 24.533c-1.067 5.333-1.067 7.467-1.067 10.667 0 2.133 2.133 3.2-1.067 5.333s-14.933 9.6-18.133 10.667-7.467 5.333-21.333 6.4c-13.867 1.067-33.067 5.333-33.067 5.333s11.733 1.067 13.867 16c2.133 13.867 0 21.333-5.333 26.667s-8.533-2.133-8.533-2.133 0 6.4 8.533 5.333c7.467-2.133 20.267-5.333 27.733-7.467 7.467-2.133 16-4.267 23.467-6.4 6.4-2.133 22.4-6.4 22.4-6.4l13.866-159.999z" fill="#415a6b"/><path d="M312.036 512h7.467l10.667-100.267 22.4-94.933-3.2-10.667S325.903 316.8 322.703 323.2c-3.2 6.4-3.2 13.867-3.2 13.867s1.067 38.4 0 55.467c-1.067 11.733-5.333 82.133-7.467 119.466z" fill="#344a5e"/><path d="M320.57 512c11.733-83.2 24.533-162.133 39.467-214.4l-21.333 13.867 8.533 5.333-11.733 8.533s-6.4 60.8-9.6 94.933c-2.133 21.333-5.333 65.067-6.4 92.8h1.067V512z" fill="#415a6b"/><path d="M401.636 512h83.2c-2.133-18.133-5.333-42.667-5.333-56.533 0-22.4-18.133-60.8-22.4-71.467-4.267-10.667-4.267-38.4 1.067-56.533 5.333-18.133 18.133-25.6 18.133-25.6l-41.6-10.667s-35.2 35.2-46.933 77.867c-11.733 42.667 0 68.267 0 68.267L401.636 512z" fill="#344a5e"/><path d="M422.97 198.4c4.267 18.133-5.333 30.933-8.533 41.6-3.2 11.733-3.2 18.133-3.2 18.133-18.133-2.133-18.133-13.867-22.4-22.4-4.267-8.533-8.533-11.733-16-9.6-8.533 3.2-10.667 11.733-10.667 11.733l-7.467-1.067c1.067-4.267-2.133-13.867-5.333-17.067-3.2-3.2 0-7.467 2.133-12.8 1.067-3.2 0-6.4-2.133-8.533-1.067-2.133-4.267-3.2-6.4-2.133-4.267 2.133-11.733 5.333-14.933 11.733 0 0-6.4-8.533 0-19.2s18.133-21.333 51.2-20.267C412.303 169.6 422.97 198.4 422.97 198.4z" fill="#415a6b"/><path d="M415.503 269.867s-1.067 10.667-11.733 19.2A868.591 868.591 0 01384.57 304l18.133 16 22.4-37.333-9.6-12.8z" fill="#f3f3f3"/><path d="M419.77 275.2l-5.333 10.667c-4.267 8.533-12.8 22.4-23.467 50.133-9.6 27.733-11.733 50.133-11.733 68.267s7.467 35.2 7.467 35.2-6.4-20.267-2.133-39.467 51.2-93.867 51.2-93.867L428.303 304l8.533-5.333s1.067-5.333-2.133-8.533L419.77 275.2zm44.8 236.8h44.8c6.4-10.667 2.133-138.667-2.133-146.133-4.267-7.467-3.2-22.4-8.533-43.733-5.333-22.4-22.4-19.2-22.4-19.2s-12.8 7.467-18.133 25.6c-5.333 18.133-5.333 45.867-1.067 56.533C459.236 390.4 464.57 512 464.57 512z" fill="#415a6b"/><path d="M365.37 288s3.2 12.8 3.2 17.067v13.867s-2.133-1.067-5.333-3.2-5.333-3.2-5.333-3.2l-3.2 7.467 1.067-11.733c0-5.333 2.133-10.667 5.333-14.933 1.066-2.135 2.132-4.268 4.266-5.335z" fill="#ebeae8"/></svg>