<svg xmlns="http://www.w3.org/2000/svg" xmlns:xlink="http://www.w3.org/1999/xlink" width="2924.848" height="1457.18"><defs><path id="a" d="M-300.423-21h3547.577v1478.181H-300.423z"/></defs><clipPath id="b"><use xlink:href="#a" overflow="visible"/></clipPath><path clip-path="url(#b)" fill="#EDEDED" d="M-144.077 1855.839V-12.563h3054.925v1868.402"/><path clip-path="url(#b)" fill="#050B45" d="M1047.354-12.563c163.101 216.317 265.033 523.725 265.033 864.82 0 341.114-101.933 648.522-265.033 864.839h1877.494V-12.563H1047.354z"/><path clip-path="url(#b)" fill="#FFF" d="M1070.408-2.422h-37.054c163.1 216.118 265.033 523.243 265.033 864.022 0 340.801-101.933 647.926-265.033 864.043h37.054c163.102-216.117 265.033-576.574 265.033-864.043 0-351.446-101.931-647.904-265.033-864.022z"/><g clip-path="url(#b)"><path fill="#FFF" d="M1817.974 1424.364c11.847 0 17.566 7.42 22.165 13.387 4.557 5.907 7.022 8.489 11.57 8.489 4.537 0 7.014-2.582 11.562-8.489 4.599-5.967 10.318-13.387 22.166-13.387 11.837 0 17.558 7.435 22.154 13.387 4.548 5.907 7.015 8.489 11.555 8.489 4.537 0 7.005-2.582 11.553-8.489 4.598-5.967 10.319-13.387 22.156-13.387 11.846 0 17.558 7.435 22.156 13.387 4.546 5.907 7.015 8.489 11.554 8.489 4.538 0 6.997-2.582 11.544-8.489 4.589-5.952 10.31-13.387 22.147-13.387s17.559 7.435 22.148 13.387c4.546 5.907 7.014 8.489 11.552 8.489 3.513 0 6.359 2.45 6.359 5.478 0 3.014-2.847 5.463-6.359 5.463-11.846 0-17.557-7.422-22.146-13.389-4.548-5.893-7.016-8.489-11.554-8.489-4.53 0-6.997 2.597-11.545 8.489-4.59 5.967-10.311 13.389-22.146 13.389-11.847 0-17.56-7.422-22.157-13.389-4.546-5.893-7.015-8.489-11.553-8.489s-7.006 2.597-11.554 8.489c-4.598 5.967-10.318 13.389-22.155 13.389-11.847 0-17.567-7.422-22.156-13.389-4.548-5.893-7.016-8.489-11.553-8.489-4.548 0-7.016 2.597-11.571 8.505-4.59 5.951-10.319 13.373-22.156 13.373-11.846 0-17.566-7.422-22.165-13.373-4.556-5.908-7.023-8.505-11.57-8.505-3.513 0-6.359-2.449-6.359-5.463-.002-3.028 2.845-5.476 6.358-5.476z"/></g><g clip-path="url(#b)"><path fill="#FFF" d="M2489.649 471.063c9.033 0 13.396 7.006 16.902 12.64 3.467 5.577 5.349 8.016 8.816 8.016 3.467 0 5.349-2.438 8.815-8.016 3.507-5.634 7.869-12.64 16.902-12.64s13.389 7.021 16.896 12.64c3.467 5.577 5.349 8.016 8.809 8.016 3.461 0 5.343-2.438 8.817-8.016 3.5-5.634 7.861-12.64 16.895-12.64 9.027 0 13.39 7.021 16.896 12.64 3.467 5.577 5.342 8.016 8.803 8.016 3.46 0 5.342-2.438 8.81-8.016 3.5-5.619 7.862-12.64 16.889-12.64s13.382 7.021 16.889 12.64c3.468 5.577 5.35 8.016 8.804 8.016 2.677 0 4.849 2.312 4.849 5.17 0 2.845-2.172 5.157-4.849 5.157-9.027 0-13.39-7.006-16.89-12.64-3.467-5.563-5.349-8.015-8.803-8.015-3.46 0-5.343 2.452-8.81 8.015-3.501 5.633-7.862 12.64-16.889 12.64s-13.389-7.006-16.889-12.64c-3.468-5.563-5.35-8.015-8.811-8.015s-5.342 2.452-8.815 8.015c-3.501 5.633-7.863 12.64-16.896 12.64s-13.388-7.006-16.896-12.64c-3.467-5.563-5.349-8.015-8.81-8.015-3.46 0-5.349 2.452-8.816 8.029-3.507 5.619-7.868 12.625-16.901 12.625-9.034 0-13.396-7.006-16.902-12.625-3.468-5.577-5.356-8.029-8.816-8.029-2.678 0-4.849-2.313-4.849-5.157.002-2.844 2.173-5.171 4.85-5.171z"/></g><g clip-path="url(#b)"><path fill="#FFF" d="M881.557 231.653c6.747 0 10.004 5.233 12.624 9.44 2.589 4.166 3.995 5.987 6.585 5.987 2.589 0 3.995-1.821 6.584-5.987 2.619-4.208 5.877-9.44 12.624-9.44s10 5.244 12.62 9.44c2.589 4.166 3.995 5.987 6.579 5.987 2.585 0 3.991-1.821 6.585-5.987 2.614-4.208 5.872-9.44 12.618-9.44 6.742 0 10 5.244 12.62 9.44 2.589 4.166 3.989 5.987 6.574 5.987 2.584 0 3.99-1.821 6.58-5.987 2.614-4.196 5.872-9.44 12.614-9.44s9.995 5.244 12.614 9.44c2.59 4.166 3.995 5.987 6.575 5.987 1.999 0 3.621 1.727 3.621 3.861 0 2.125-1.622 3.852-3.621 3.852-6.742 0-10-5.232-12.614-9.44-2.589-4.155-3.995-5.986-6.575-5.986-2.584 0-3.99 1.832-6.58 5.986-2.615 4.208-5.872 9.44-12.614 9.44-6.742 0-10-5.232-12.613-9.44-2.59-4.155-3.996-5.986-6.581-5.986s-3.99 1.832-6.584 5.986c-2.615 4.208-5.873 9.44-12.62 9.44-6.747 0-9.999-5.232-12.619-9.44-2.589-4.155-3.995-5.986-6.58-5.986-2.584 0-3.995 1.832-6.584 5.997-2.619 4.197-5.876 9.429-12.623 9.429-6.748 0-10.005-5.232-12.624-9.429-2.59-4.166-4-5.997-6.584-5.997-2 0-3.622-1.727-3.622-3.852s1.621-3.862 3.621-3.862z"/></g><g clip-path="url(#b)"><path fill="#FFF" d="M505.363 1441.913c6.031 0 8.937 3.453 11.28 6.222 2.313 2.749 3.568 3.957 5.881 3.957 2.309 0 3.564-1.208 5.882-3.957 2.34-2.769 5.25-6.222 11.277-6.222 6.026 0 8.931 3.453 11.271 6.229 2.313 2.742 3.568 3.95 5.877 3.95 2.309 0 3.564-1.208 5.882-3.957 2.335-2.769 5.245-6.222 11.271-6.222 6.022 0 8.928 3.453 11.272 6.229 2.309 2.742 3.563 3.95 5.873 3.95 2.309 0 3.564-1.208 5.873-3.95 2.335-2.775 5.25-6.229 11.272-6.229s8.928 3.453 11.263 6.229c2.317 2.742 3.573 3.95 5.877 3.95 1.786 0 3.235 1.14 3.235 2.541 0 1.409-1.449 2.548-3.235 2.548-6.027 0-8.933-3.459-11.268-6.228-2.313-2.749-3.568-3.95-5.872-3.95-2.309 0-3.565 1.201-5.877 3.95-2.335 2.769-5.246 6.228-11.268 6.228s-8.932-3.459-11.271-6.228c-2.309-2.749-3.564-3.95-5.874-3.95-2.308 0-3.563 1.201-5.881 3.95-2.334 2.769-5.25 6.228-11.271 6.228s-8.937-3.459-11.271-6.229c-2.313-2.748-3.568-3.949-5.877-3.949-2.313 0-3.569 1.201-5.887 3.949-2.335 2.776-5.25 6.229-11.272 6.229-6.026 0-8.936-3.452-11.276-6.229-2.313-2.748-3.568-3.949-5.886-3.949-1.782 0-3.231-1.14-3.231-2.549 0-1.402 1.449-2.541 3.231-2.541z"/></g><g clip-path="url(#b)"><text transform="scale(.968 1.031) rotate(-45 2406.582 -2085.502)" fill="#050B45" font-family="'LeagueSpartan-Bold'" font-size="105.52">$</text></g><path clip-path="url(#b)" fill="#FFF" d="M2623.897 1097.339v-80.312c0-6.42 3.13-12.135 8.37-15.3 5.245-3.165 11.463-3.086 16.635.212l62.965 40.151c5.031 3.209 8.034 8.858 8.034 15.098 0 6.241-3.003 11.878-8.034 15.087l-62.965 40.162c-5.172 3.299-11.39 3.377-16.629.212-5.246-3.164-8.376-8.89-8.376-15.31zm84.966-49.902l-62.964-40.15c-3.34-2.136-7.356-2.192-10.743-.146-3.393 2.047-5.415 5.748-5.415 9.887v80.312c0 4.149 2.027 7.852 5.415 9.887 3.387 2.046 7.403 2.002 10.743-.135l62.964-40.149c3.245-2.081 5.189-5.727 5.189-9.753.001-4.038-1.944-7.684-5.189-9.753zM1515.274 381.923l-62.964-40.149c-3.34-2.136-7.357-2.193-10.743-.146-3.393 2.047-5.415 5.748-5.415 9.887v80.312c0 4.149 2.027 7.851 5.415 9.886 3.386 2.047 7.403 2.002 10.743-.134l62.964-40.15c3.245-2.081 5.188-5.727 5.188-9.752.001-4.039-1.942-7.685-5.188-9.754z"/><g clip-path="url(#b)"><path fill="#FFC400" d="M1431.945 1064.596h63.768c5.092 0 9.639 2.815 12.152 7.538a15.54 15.54 0 01-.172 14.98l-31.883 56.696c-2.547 4.526-7.027 7.231-11.98 7.231-4.962 0-9.436-2.705-11.981-7.231l-31.884-56.696a15.54 15.54 0 01-.17-14.98c2.512-4.722 7.053-7.538 12.15-7.538zm39.629 76.51l31.875-56.696a9.998 9.998 0 00.112-9.668c-1.625-3.055-4.56-4.878-7.849-4.878h-63.768c-3.295 0-6.229 1.823-7.849 4.878a10.021 10.021 0 00.106 9.668l31.883 56.696c1.645 2.929 4.539 4.668 7.744 4.668 3.206 0 6.094-1.739 7.746-4.668z"/></g><g clip-path="url(#b)" fill="#FFF"><path d="M2692.784 1531.017c0-4.751-3.625-8.604-8.093-8.604-4.467 0-8.086 3.853-8.086 8.604 0 4.764 3.619 8.618 8.086 8.618 4.468 0 8.093-3.854 8.093-8.618zm0-54.426c0-4.752-3.625-8.605-8.093-8.605-4.467 0-8.086 3.854-8.086 8.605 0 4.764 3.619 8.617 8.086 8.617 4.468 0 8.093-3.853 8.093-8.617zm0-54.427c0-4.749-3.625-8.604-8.093-8.604-4.467 0-8.086 3.854-8.086 8.604 0 4.766 3.619 8.619 8.086 8.619 4.468 0 8.093-3.854 8.093-8.619zm0-54.426c0-4.75-3.625-8.604-8.093-8.604-4.467 0-8.086 3.854-8.086 8.604 0 4.765 3.619 8.618 8.086 8.618 4.468 0 8.093-3.854 8.093-8.618zm0-54.426c0-4.752-3.625-8.604-8.093-8.604-4.467 0-8.086 3.852-8.086 8.604 0 4.765 3.619 8.617 8.086 8.617 4.468 0 8.093-3.852 8.093-8.617zm51.108 217.705c0-4.751-3.624-8.604-8.092-8.604-4.467 0-8.086 3.853-8.086 8.604 0 4.764 3.619 8.618 8.086 8.618 4.468 0 8.092-3.854 8.092-8.618zm0-54.426c0-4.752-3.624-8.605-8.092-8.605-4.467 0-8.086 3.854-8.086 8.605 0 4.764 3.619 8.617 8.086 8.617 4.468 0 8.092-3.853 8.092-8.617zm0-54.427c0-4.749-3.624-8.604-8.092-8.604-4.467 0-8.086 3.854-8.086 8.604 0 4.766 3.619 8.619 8.086 8.619 4.468 0 8.092-3.854 8.092-8.619zm0-54.426c0-4.75-3.624-8.604-8.092-8.604-4.467 0-8.086 3.854-8.086 8.604 0 4.765 3.619 8.618 8.086 8.618 4.468 0 8.092-3.854 8.092-8.618zm0-54.426c0-4.752-3.624-8.604-8.092-8.604-4.467 0-8.086 3.852-8.086 8.604 0 4.765 3.619 8.617 8.086 8.617 4.468 0 8.092-3.852 8.092-8.617zM2795 1531.017c0-4.751-3.626-8.604-8.093-8.604s-8.086 3.853-8.086 8.604c0 4.764 3.619 8.618 8.086 8.618s8.093-3.854 8.093-8.618zm0-54.426c0-4.752-3.626-8.605-8.093-8.605s-8.086 3.854-8.086 8.605c0 4.764 3.619 8.617 8.086 8.617s8.093-3.853 8.093-8.617zm0-54.427c0-4.749-3.626-8.604-8.093-8.604s-8.086 3.854-8.086 8.604c0 4.766 3.619 8.619 8.086 8.619s8.093-3.854 8.093-8.619zm0-54.426c0-4.75-3.626-8.604-8.093-8.604s-8.086 3.854-8.086 8.604c0 4.765 3.619 8.618 8.086 8.618s8.093-3.854 8.093-8.618zm0-54.426c0-4.752-3.626-8.604-8.093-8.604s-8.086 3.852-8.086 8.604c0 4.765 3.619 8.617 8.086 8.617s8.093-3.852 8.093-8.617zm51.108 217.705c0-4.751-3.626-8.604-8.094-8.604-4.467 0-8.086 3.853-8.086 8.604 0 4.764 3.619 8.618 8.086 8.618 4.468 0 8.094-3.854 8.094-8.618zm0-54.426c0-4.752-3.626-8.605-8.094-8.605-4.467 0-8.086 3.854-8.086 8.605 0 4.764 3.619 8.617 8.086 8.617 4.468 0 8.094-3.853 8.094-8.617zm0-54.427c0-4.749-3.626-8.604-8.094-8.604-4.467 0-8.086 3.854-8.086 8.604 0 4.766 3.619 8.619 8.086 8.619 4.468 0 8.094-3.854 8.094-8.619zm0-54.426c0-4.75-3.626-8.604-8.094-8.604-4.467 0-8.086 3.854-8.086 8.604 0 4.765 3.619 8.618 8.086 8.618 4.468 0 8.094-3.854 8.094-8.618zm0-54.426c0-4.752-3.626-8.604-8.094-8.604-4.467 0-8.086 3.852-8.086 8.604 0 4.765 3.619 8.617 8.086 8.617 4.468 0 8.094-3.852 8.094-8.617zm-153.324 544.263c0-4.751-3.625-8.617-8.093-8.617-4.467 0-8.086 3.866-8.086 8.617 0 4.765 3.619 8.618 8.086 8.618 4.468 0 8.093-3.854 8.093-8.618zm0-54.426c0-4.751-3.625-8.618-8.093-8.618-4.467 0-8.086 3.867-8.086 8.618 0 4.764 3.619 8.617 8.086 8.617 4.468 0 8.093-3.853 8.093-8.617zm0-54.427c0-4.75-3.625-8.617-8.093-8.617-4.467 0-8.086 3.867-8.086 8.617 0 4.765 3.619 8.618 8.086 8.618 4.468 0 8.093-3.853 8.093-8.618zm0-54.427c0-4.75-3.625-8.618-8.093-8.618-4.467 0-8.086 3.868-8.086 8.618 0 4.765 3.619 8.618 8.086 8.618 4.468.001 8.093-3.853 8.093-8.618zm0-54.425c0-4.75-3.625-8.618-8.093-8.618-4.467 0-8.086 3.868-8.086 8.618 0 4.765 3.619 8.617 8.086 8.617 4.468 0 8.093-3.853 8.093-8.617zm0-54.427c0-4.75-3.625-8.604-8.093-8.604-4.467 0-8.086 3.854-8.086 8.604 0 4.766 3.619 8.618 8.086 8.618 4.468 0 8.093-3.853 8.093-8.618zm51.108 272.132c0-4.751-3.624-8.617-8.092-8.617-4.467 0-8.086 3.866-8.086 8.617 0 4.765 3.619 8.618 8.086 8.618 4.468 0 8.092-3.854 8.092-8.618zm0-54.426c0-4.751-3.624-8.618-8.092-8.618-4.467 0-8.086 3.867-8.086 8.618 0 4.764 3.619 8.617 8.086 8.617 4.468 0 8.092-3.853 8.092-8.617zm0-54.427c0-4.75-3.624-8.617-8.092-8.617-4.467 0-8.086 3.867-8.086 8.617 0 4.765 3.619 8.618 8.086 8.618 4.468 0 8.092-3.853 8.092-8.618zm0-54.427c0-4.75-3.624-8.618-8.092-8.618-4.467 0-8.086 3.868-8.086 8.618 0 4.765 3.619 8.618 8.086 8.618 4.468.001 8.092-3.853 8.092-8.618zm0-54.425c0-4.75-3.624-8.618-8.092-8.618-4.467 0-8.086 3.868-8.086 8.618 0 4.765 3.619 8.617 8.086 8.617 4.468 0 8.092-3.853 8.092-8.617zm0-54.427c0-4.75-3.624-8.604-8.092-8.604-4.467 0-8.086 3.854-8.086 8.604 0 4.766 3.619 8.618 8.086 8.618 4.468 0 8.092-3.853 8.092-8.618zM2795 1857.575c0-4.751-3.626-8.617-8.093-8.617s-8.086 3.866-8.086 8.617c0 4.765 3.619 8.618 8.086 8.618s8.093-3.854 8.093-8.618zm0-54.426c0-4.751-3.626-8.618-8.093-8.618s-8.086 3.867-8.086 8.618c0 4.764 3.619 8.617 8.086 8.617s8.093-3.853 8.093-8.617zm0-54.427c0-4.75-3.626-8.617-8.093-8.617s-8.086 3.867-8.086 8.617c0 4.765 3.619 8.618 8.086 8.618s8.093-3.853 8.093-8.618zm0-54.427c0-4.75-3.626-8.618-8.093-8.618s-8.086 3.868-8.086 8.618c0 4.765 3.619 8.618 8.086 8.618s8.093-3.853 8.093-8.618zm0-54.425c0-4.75-3.626-8.618-8.093-8.618s-8.086 3.868-8.086 8.618c0 4.765 3.619 8.617 8.086 8.617s8.093-3.853 8.093-8.617zm0-54.427c0-4.75-3.626-8.604-8.093-8.604s-8.086 3.854-8.086 8.604c0 4.766 3.619 8.618 8.086 8.618s8.093-3.853 8.093-8.618zm34.929 272.132c0 4.765 3.619 8.618 8.086 8.618 4.468 0 8.094-3.854 8.094-8.618 0-4.751-3.626-8.617-8.094-8.617-4.467 0-8.086 3.866-8.086 8.617zm16.179-54.426c0-4.751-3.626-8.618-8.094-8.618-4.467 0-8.086 3.867-8.086 8.618 0 4.764 3.619 8.617 8.086 8.617 4.468 0 8.094-3.853 8.094-8.617zm0-54.427c0-4.75-3.626-8.617-8.094-8.617-4.467 0-8.086 3.867-8.086 8.617 0 4.765 3.619 8.618 8.086 8.618 4.468 0 8.094-3.853 8.094-8.618zm0-54.427c0-4.75-3.626-8.618-8.094-8.618-4.467 0-8.086 3.868-8.086 8.618 0 4.765 3.619 8.618 8.086 8.618 4.468.001 8.094-3.853 8.094-8.618zm0-54.425c0-4.75-3.626-8.618-8.094-8.618-4.467 0-8.086 3.868-8.086 8.618 0 4.765 3.619 8.617 8.086 8.617 4.468 0 8.094-3.853 8.094-8.617zm0-54.427c0-4.75-3.626-8.604-8.094-8.604-4.467 0-8.086 3.854-8.086 8.604 0 4.766 3.619 8.618 8.086 8.618 4.468 0 8.094-3.853 8.094-8.618z"/></g><g clip-path="url(#b)" fill="#FFF"><path d="M2690.281-63.712c0-4.751-3.625-8.618-8.092-8.618s-8.093 3.867-8.093 8.618c0 4.764 3.626 8.618 8.093 8.618s8.092-3.854 8.092-8.618zm0-54.426c0-4.75-3.625-8.618-8.092-8.618s-8.093 3.868-8.093 8.618c0 4.764 3.626 8.617 8.093 8.617s8.092-3.853 8.092-8.617zm0-54.427c0-4.75-3.625-8.618-8.092-8.618s-8.093 3.868-8.093 8.618c0 4.765 3.626 8.618 8.093 8.618s8.092-3.853 8.092-8.618zm0-54.426c0-4.75-3.625-8.618-8.092-8.618s-8.093 3.867-8.093 8.618c0 4.764 3.626 8.618 8.093 8.618s8.092-3.854 8.092-8.618zm0-54.426c0-4.75-3.625-8.618-8.092-8.618s-8.093 3.868-8.093 8.618c0 4.764 3.626 8.617 8.093 8.617s8.092-3.853 8.092-8.617zm51.102 217.705c0-4.751-3.625-8.618-8.086-8.618-4.468 0-8.092 3.867-8.092 8.618 0 4.764 3.624 8.618 8.092 8.618 4.461 0 8.086-3.854 8.086-8.618zm0-54.426c0-4.75-3.625-8.618-8.086-8.618-4.468 0-8.092 3.868-8.092 8.618 0 4.764 3.624 8.617 8.092 8.617 4.461 0 8.086-3.853 8.086-8.617zm0-54.427c0-4.75-3.625-8.618-8.086-8.618-4.468 0-8.092 3.868-8.092 8.618 0 4.765 3.624 8.618 8.092 8.618 4.461 0 8.086-3.853 8.086-8.618zm0-54.426c0-4.75-3.625-8.618-8.086-8.618-4.468 0-8.092 3.867-8.092 8.618 0 4.764 3.624 8.618 8.092 8.618 4.461 0 8.086-3.854 8.086-8.618zm0-54.426c0-4.75-3.625-8.618-8.086-8.618-4.468 0-8.092 3.868-8.092 8.618 0 4.764 3.624 8.617 8.092 8.617 4.461 0 8.086-3.853 8.086-8.617zm51.107 217.705c0-4.751-3.625-8.618-8.086-8.618-4.467 0-8.092 3.867-8.092 8.618 0 4.764 3.625 8.618 8.092 8.618 4.461 0 8.086-3.854 8.086-8.618zm0-54.426c0-4.75-3.625-8.618-8.086-8.618-4.467 0-8.092 3.868-8.092 8.618 0 4.764 3.625 8.617 8.092 8.617 4.461 0 8.086-3.853 8.086-8.617zm0-54.427c0-4.75-3.625-8.618-8.086-8.618-4.467 0-8.092 3.868-8.092 8.618 0 4.765 3.625 8.618 8.092 8.618 4.461 0 8.086-3.853 8.086-8.618zm0-54.426c0-4.75-3.625-8.618-8.086-8.618-4.467 0-8.092 3.867-8.092 8.618 0 4.764 3.625 8.618 8.092 8.618 4.461 0 8.086-3.854 8.086-8.618zm0-54.426c0-4.75-3.625-8.618-8.086-8.618-4.467 0-8.092 3.868-8.092 8.618 0 4.764 3.625 8.617 8.092 8.617 4.461 0 8.086-3.853 8.086-8.617zm51.109 217.705c0-4.751-3.626-8.618-8.087-8.618-4.473 0-8.092 3.867-8.092 8.618 0 4.764 3.619 8.618 8.092 8.618 4.461 0 8.087-3.854 8.087-8.618zm0-54.426c0-4.75-3.626-8.618-8.087-8.618-4.473 0-8.092 3.868-8.092 8.618 0 4.764 3.619 8.617 8.092 8.617 4.461 0 8.087-3.853 8.087-8.617zm0-54.427c0-4.75-3.626-8.618-8.087-8.618-4.473 0-8.092 3.868-8.092 8.618 0 4.765 3.619 8.618 8.092 8.618 4.461 0 8.087-3.853 8.087-8.618zm0-54.426c0-4.75-3.626-8.618-8.087-8.618-4.473 0-8.092 3.867-8.092 8.618 0 4.764 3.619 8.618 8.092 8.618 4.461 0 8.087-3.854 8.087-8.618zm0-54.426c0-4.75-3.626-8.618-8.087-8.618-4.473 0-8.092 3.868-8.092 8.618 0 4.764 3.619 8.617 8.092 8.617 4.461 0 8.087-3.853 8.087-8.617zm-153.318 544.263c0-4.765-3.625-8.618-8.092-8.618s-8.093 3.854-8.093 8.618c0 4.75 3.626 8.618 8.093 8.618s8.092-3.868 8.092-8.618zm0-54.427c0-4.764-3.625-8.618-8.092-8.618s-8.093 3.854-8.093 8.618c0 4.75 3.626 8.618 8.093 8.618s8.092-3.868 8.092-8.618zm0-54.426c0-4.764-3.625-8.618-8.092-8.618s-8.093 3.854-8.093 8.618c0 4.75 3.626 8.618 8.093 8.618s8.092-3.868 8.092-8.618zm0-54.427c0-4.764-3.625-8.618-8.092-8.618s-8.093 3.854-8.093 8.618c0 4.751 3.626 8.619 8.093 8.619s8.092-3.868 8.092-8.619zm0-54.425c0-4.75-3.625-8.618-8.092-8.618s-8.093 3.868-8.093 8.618c0 4.764 3.626 8.618 8.093 8.618s8.092-3.854 8.092-8.618zm0-54.427c0-4.75-3.625-8.618-8.092-8.618s-8.093 3.868-8.093 8.618c0 4.764 3.626 8.618 8.093 8.618s8.092-3.853 8.092-8.618zm51.102 272.132c0-4.765-3.625-8.618-8.086-8.618-4.468 0-8.092 3.854-8.092 8.618 0 4.75 3.624 8.618 8.092 8.618 4.461 0 8.086-3.868 8.086-8.618zm0-54.427c0-4.764-3.625-8.618-8.086-8.618-4.468 0-8.092 3.854-8.092 8.618 0 4.75 3.624 8.618 8.092 8.618 4.461 0 8.086-3.868 8.086-8.618zm0-54.426c0-4.764-3.625-8.618-8.086-8.618-4.468 0-8.092 3.854-8.092 8.618 0 4.75 3.624 8.618 8.092 8.618 4.461 0 8.086-3.868 8.086-8.618zm0-54.427c0-4.764-3.625-8.618-8.086-8.618-4.468 0-8.092 3.854-8.092 8.618 0 4.751 3.624 8.619 8.092 8.619 4.461 0 8.086-3.868 8.086-8.619zm0-54.425c0-4.75-3.625-8.618-8.086-8.618-4.468 0-8.092 3.868-8.092 8.618 0 4.764 3.624 8.618 8.092 8.618 4.461-.001 8.086-3.854 8.086-8.618zm0-54.427c0-4.75-3.625-8.618-8.086-8.618-4.468 0-8.092 3.868-8.092 8.618 0 4.764 3.624 8.618 8.092 8.618 4.461 0 8.086-3.853 8.086-8.618zm51.107 272.132c0-4.765-3.625-8.618-8.086-8.618-4.467 0-8.092 3.854-8.092 8.618 0 4.75 3.625 8.618 8.092 8.618 4.461 0 8.086-3.868 8.086-8.618zm0-54.427c0-4.764-3.625-8.618-8.086-8.618-4.467 0-8.092 3.854-8.092 8.618 0 4.75 3.625 8.618 8.092 8.618 4.461 0 8.086-3.868 8.086-8.618zm0-54.426c0-4.764-3.625-8.618-8.086-8.618-4.467 0-8.092 3.854-8.092 8.618 0 4.75 3.625 8.618 8.092 8.618 4.461 0 8.086-3.868 8.086-8.618zm0-54.427c0-4.764-3.625-8.618-8.086-8.618-4.467 0-8.092 3.854-8.092 8.618 0 4.751 3.625 8.619 8.092 8.619 4.461 0 8.086-3.868 8.086-8.619zm0-54.425c0-4.75-3.625-8.618-8.086-8.618-4.467 0-8.092 3.868-8.092 8.618 0 4.764 3.625 8.618 8.092 8.618 4.461-.001 8.086-3.854 8.086-8.618zm0-54.427c0-4.75-3.625-8.618-8.086-8.618-4.467 0-8.092 3.868-8.092 8.618 0 4.764 3.625 8.618 8.092 8.618 4.461 0 8.086-3.853 8.086-8.618zm34.93 272.132c0 4.75 3.619 8.618 8.092 8.618 4.461 0 8.087-3.868 8.087-8.618 0-4.765-3.626-8.618-8.087-8.618-4.473 0-8.092 3.853-8.092 8.618zm16.179-54.427c0-4.764-3.626-8.618-8.087-8.618-4.473 0-8.092 3.854-8.092 8.618 0 4.75 3.619 8.618 8.092 8.618 4.461 0 8.087-3.868 8.087-8.618zm0-54.426c0-4.764-3.626-8.618-8.087-8.618-4.473 0-8.092 3.854-8.092 8.618 0 4.75 3.619 8.618 8.092 8.618 4.461 0 8.087-3.868 8.087-8.618zm0-54.427c0-4.764-3.626-8.618-8.087-8.618-4.473 0-8.092 3.854-8.092 8.618 0 4.751 3.619 8.619 8.092 8.619 4.461 0 8.087-3.868 8.087-8.619zm0-54.425c0-4.75-3.626-8.618-8.087-8.618-4.473 0-8.092 3.868-8.092 8.618 0 4.764 3.619 8.618 8.092 8.618 4.461-.001 8.087-3.854 8.087-8.618zm0-54.427c0-4.75-3.626-8.618-8.087-8.618-4.473 0-8.092 3.868-8.092 8.618 0 4.764 3.619 8.618 8.092 8.618 4.461 0 8.087-3.853 8.087-8.618z"/></g><g clip-path="url(#b)" fill="#FFF"><path d="M-68.566 700.288c0-4.751-3.625-8.618-8.092-8.618s-8.093 3.867-8.093 8.618c0 4.764 3.626 8.618 8.093 8.618s8.092-3.854 8.092-8.618zm0-54.426c0-4.75-3.625-8.618-8.092-8.618s-8.093 3.868-8.093 8.618c0 4.764 3.626 8.617 8.093 8.617s8.092-3.853 8.092-8.617zm0-54.427c0-4.75-3.625-8.618-8.092-8.618s-8.093 3.868-8.093 8.618c0 4.765 3.626 8.618 8.093 8.618s8.092-3.853 8.092-8.618zm0-54.426c0-4.75-3.625-8.618-8.092-8.618s-8.093 3.867-8.093 8.618c0 4.764 3.626 8.618 8.093 8.618s8.092-3.854 8.092-8.618zm0-54.426c0-4.75-3.625-8.618-8.092-8.618s-8.093 3.868-8.093 8.618c0 4.764 3.626 8.617 8.093 8.617s8.092-3.853 8.092-8.617zm51.101 217.705c0-4.751-3.625-8.618-8.086-8.618-4.468 0-8.092 3.867-8.092 8.618 0 4.764 3.624 8.618 8.092 8.618 4.461 0 8.086-3.854 8.086-8.618zm0-54.426c0-4.75-3.625-8.618-8.086-8.618-4.468 0-8.092 3.868-8.092 8.618 0 4.764 3.624 8.617 8.092 8.617 4.461 0 8.086-3.853 8.086-8.617zm0-54.427c0-4.75-3.625-8.618-8.086-8.618-4.468 0-8.092 3.868-8.092 8.618 0 4.765 3.624 8.618 8.092 8.618 4.461 0 8.086-3.853 8.086-8.618zm0-54.426c0-4.75-3.625-8.618-8.086-8.618-4.468 0-8.092 3.867-8.092 8.618 0 4.764 3.624 8.618 8.092 8.618 4.461 0 8.086-3.854 8.086-8.618zm0-54.426c0-4.75-3.625-8.618-8.086-8.618-4.468 0-8.092 3.868-8.092 8.618 0 4.764 3.624 8.617 8.092 8.617 4.461 0 8.086-3.853 8.086-8.617zm51.108 217.705c0-4.751-3.625-8.618-8.086-8.618-4.467 0-8.092 3.867-8.092 8.618 0 4.764 3.625 8.618 8.092 8.618 4.461 0 8.086-3.854 8.086-8.618zm0-54.426c0-4.75-3.625-8.618-8.086-8.618-4.467 0-8.092 3.868-8.092 8.618 0 4.764 3.625 8.617 8.092 8.617 4.461 0 8.086-3.853 8.086-8.617zm0-54.427c0-4.75-3.625-8.618-8.086-8.618-4.467 0-8.092 3.868-8.092 8.618 0 4.765 3.625 8.618 8.092 8.618 4.461 0 8.086-3.853 8.086-8.618zm0-54.426c0-4.75-3.625-8.618-8.086-8.618-4.467 0-8.092 3.867-8.092 8.618 0 4.764 3.625 8.618 8.092 8.618 4.461 0 8.086-3.854 8.086-8.618zm0-54.426c0-4.75-3.625-8.618-8.086-8.618-4.467 0-8.092 3.868-8.092 8.618 0 4.764 3.625 8.617 8.092 8.617 4.461 0 8.086-3.853 8.086-8.617zm51.108 217.705c0-4.751-3.626-8.618-8.087-8.618-4.473 0-8.092 3.867-8.092 8.618 0 4.764 3.619 8.618 8.092 8.618 4.461 0 8.087-3.854 8.087-8.618zm0-54.426c0-4.75-3.626-8.618-8.087-8.618-4.473 0-8.092 3.868-8.092 8.618 0 4.764 3.619 8.617 8.092 8.617 4.461 0 8.087-3.853 8.087-8.617zm0-54.427c0-4.75-3.626-8.618-8.087-8.618-4.473 0-8.092 3.868-8.092 8.618 0 4.765 3.619 8.618 8.092 8.618 4.461 0 8.087-3.853 8.087-8.618zm0-54.426c0-4.75-3.626-8.618-8.087-8.618-4.473 0-8.092 3.867-8.092 8.618 0 4.764 3.619 8.618 8.092 8.618 4.461 0 8.087-3.854 8.087-8.618zm0-54.426c0-4.75-3.626-8.618-8.087-8.618-4.473 0-8.092 3.868-8.092 8.618 0 4.764 3.619 8.617 8.092 8.617 4.461 0 8.087-3.853 8.087-8.617zm-153.317 544.262c0-4.764-3.625-8.617-8.092-8.617s-8.093 3.854-8.093 8.617c0 4.751 3.626 8.619 8.093 8.619s8.092-3.868 8.092-8.619zm0-54.426c0-4.765-3.625-8.618-8.092-8.618s-8.093 3.854-8.093 8.618c0 4.75 3.626 8.617 8.093 8.617s8.092-3.867 8.092-8.617zm0-54.425c0-4.765-3.625-8.619-8.092-8.619s-8.093 3.854-8.093 8.619c0 4.75 3.626 8.617 8.093 8.617s8.092-3.867 8.092-8.617zm0-54.428c0-4.764-3.625-8.617-8.092-8.617s-8.093 3.854-8.093 8.617c0 4.752 3.626 8.619 8.093 8.619s8.092-3.867 8.092-8.619zm0-54.425c0-4.75-3.625-8.618-8.092-8.618s-8.093 3.868-8.093 8.618c0 4.764 3.626 8.618 8.093 8.618s8.092-3.854 8.092-8.618zm0-54.427c0-4.75-3.625-8.618-8.092-8.618s-8.093 3.868-8.093 8.618c0 4.764 3.626 8.618 8.093 8.618s8.092-3.853 8.092-8.618zm51.101 272.131c0-4.764-3.625-8.617-8.086-8.617-4.468 0-8.092 3.854-8.092 8.617 0 4.751 3.624 8.619 8.092 8.619 4.461 0 8.086-3.868 8.086-8.619zm0-54.426c0-4.765-3.625-8.618-8.086-8.618-4.468 0-8.092 3.854-8.092 8.618 0 4.75 3.624 8.617 8.092 8.617 4.461.001 8.086-3.867 8.086-8.617zm0-54.425c0-4.765-3.625-8.619-8.086-8.619-4.468 0-8.092 3.854-8.092 8.619 0 4.75 3.624 8.617 8.092 8.617 4.461 0 8.086-3.867 8.086-8.617zm0-54.428c0-4.764-3.625-8.617-8.086-8.617-4.468 0-8.092 3.854-8.092 8.617 0 4.752 3.624 8.619 8.092 8.619 4.461 0 8.086-3.867 8.086-8.619zm0-54.425c0-4.75-3.625-8.618-8.086-8.618-4.468 0-8.092 3.868-8.092 8.618 0 4.764 3.624 8.618 8.092 8.618 4.461-.001 8.086-3.854 8.086-8.618zm0-54.427c0-4.75-3.625-8.618-8.086-8.618-4.468 0-8.092 3.868-8.092 8.618 0 4.764 3.624 8.618 8.092 8.618 4.461 0 8.086-3.853 8.086-8.618zm51.108 272.131c0-4.764-3.625-8.617-8.086-8.617-4.467 0-8.092 3.854-8.092 8.617 0 4.751 3.625 8.619 8.092 8.619 4.461 0 8.086-3.868 8.086-8.619zm0-54.426c0-4.765-3.625-8.618-8.086-8.618-4.467 0-8.092 3.854-8.092 8.618 0 4.75 3.625 8.617 8.092 8.617 4.461.001 8.086-3.867 8.086-8.617zm0-54.425c0-4.765-3.625-8.619-8.086-8.619-4.467 0-8.092 3.854-8.092 8.619 0 4.75 3.625 8.617 8.092 8.617 4.461 0 8.086-3.867 8.086-8.617zm0-54.428c0-4.764-3.625-8.617-8.086-8.617-4.467 0-8.092 3.854-8.092 8.617 0 4.752 3.625 8.619 8.092 8.619 4.461 0 8.086-3.867 8.086-8.619zm0-54.425c0-4.75-3.625-8.618-8.086-8.618-4.467 0-8.092 3.868-8.092 8.618 0 4.764 3.625 8.618 8.092 8.618 4.461-.001 8.086-3.854 8.086-8.618zm0-54.427c0-4.75-3.625-8.618-8.086-8.618-4.467 0-8.092 3.868-8.092 8.618 0 4.764 3.625 8.618 8.092 8.618 4.461 0 8.086-3.853 8.086-8.618zm34.929 272.131c0 4.751 3.619 8.619 8.092 8.619 4.461 0 8.087-3.868 8.087-8.619 0-4.764-3.626-8.617-8.087-8.617-4.473 0-8.092 3.854-8.092 8.617zm16.179-54.426c0-4.765-3.626-8.618-8.087-8.618-4.473 0-8.092 3.854-8.092 8.618 0 4.75 3.619 8.617 8.092 8.617 4.461.001 8.087-3.867 8.087-8.617zm0-54.425c0-4.765-3.626-8.619-8.087-8.619-4.473 0-8.092 3.854-8.092 8.619 0 4.75 3.619 8.617 8.092 8.617 4.461 0 8.087-3.867 8.087-8.617zm0-54.428c0-4.764-3.626-8.617-8.087-8.617-4.473 0-8.092 3.854-8.092 8.617 0 4.752 3.619 8.619 8.092 8.619 4.461 0 8.087-3.867 8.087-8.619zm0-54.425c0-4.75-3.626-8.618-8.087-8.618-4.473 0-8.092 3.868-8.092 8.618 0 4.764 3.619 8.618 8.092 8.618 4.461-.001 8.087-3.854 8.087-8.618zm0-54.427c0-4.75-3.626-8.618-8.087-8.618-4.473 0-8.092 3.868-8.092 8.618 0 4.764 3.619 8.618 8.092 8.618 4.461 0 8.087-3.853 8.087-8.618z"/></g><path clip-path="url(#b)" fill="#FFC400" d="M2819.244 516.914l20.43-21.762c2.604-2.774 2.604-7.258 0-10.033-2.606-2.775-6.823-2.775-9.429 0l-20.435 21.748-20.43-21.748c-2.599-2.775-6.822-2.775-9.428 0-2.599 2.774-2.599 7.272 0 10.047l20.429 21.748-20.429 21.762c-2.599 2.761-2.599 7.259 0 10.033 2.605 2.775 6.829 2.775 9.428 0l20.43-21.749 20.435 21.749c2.605 2.775 6.822 2.775 9.429 0 2.604-2.774 2.604-7.259 0-10.033l-20.43-21.762z"/><path clip-path="url(#b)" fill="#FFF" d="M1355.627 1394.714l11.05-11.347c1.41-1.438 1.41-3.784 0-5.23a3.543 3.543 0 00-5.102 0l-11.047 11.339-11.047-11.339a3.539 3.539 0 00-5.099 0c-1.408 1.446-1.408 3.792 0 5.238l11.048 11.339-11.048 11.347c-1.408 1.439-1.408 3.784 0 5.231a3.539 3.539 0 005.099 0l11.047-11.339 11.047 11.339a3.543 3.543 0 005.102 0 3.763 3.763 0 000-5.231l-11.05-11.347z"/></svg>