<svg xmlns="http://www.w3.org/2000/svg" width="1035" height="400"><linearGradient id="a" gradientUnits="userSpaceOnUse" x1="944.962" y1="523.125" x2="79.999" y2="-130.745"><stop offset=".02" stop-color="#45108a"/><stop offset=".293" stop-color="#3d065f"/><stop offset="1" stop-color="#12054e"/><stop offset="1" stop-color="#6730e3"/></linearGradient><path fill="url(#a)" d="M0-.926h1038.667v404.594H0z"/><g opacity=".5" fill="#25054D"><path d="M823.46 244.396l-45.064 26.019-51.101-29.503 45.064-26.019 51.101 29.503zm2.261.004l-53.368-30.812-47.317 27.318 53.367 30.813 47.318-27.319zm-98.617 9.358l-18.052 10.402-18.765-10.834 18.052-10.402 18.765 10.834zm2.26.004l-21.032-12.143-20.306 11.703 21.032 12.144 20.306-11.704zm21.56 13.723l-18.053 10.403-18.765-10.834 18.053-10.403 18.765 10.834zm2.26.004l-21.032-12.143-20.305 11.704 21.032 12.143 20.305-11.704zm21.559 13.724l-18.052 10.403-18.765-10.834 18.052-10.402 18.765 10.833zm2.261.005l-21.032-12.144-20.306 11.704 21.032 12.143 20.306-11.703z"/><path d="M761.842 280.34c-.997-.575-2.422-.75-3.676-.526.388-.724.084-1.547-.913-2.122-1.431-.826-3.742-.83-5.164-.01-2.599 1.5-.926 6.175-.926 6.175s8.097.966 10.694-.534c1.422-.822 1.415-2.157-.015-2.983zm-23.167-13.666c-.997-.576-2.422-.751-3.676-.527.388-.724.085-1.547-.912-2.122-1.431-.826-3.743-.83-5.165-.01-2.598 1.501-.926 6.175-.926 6.175s8.097.966 10.695-.534c1.421-.821 1.414-2.156-.016-2.982z"/><path d="M673.121 347.717l-79.106-45.673c-5.209-3.008-5.236-7.886-.059-10.875l186.267-107.541c5.177-2.989 13.627-2.974 18.836.034l79.107 45.672c5.209 3.008 5.235 7.886.059 10.875L691.957 347.75c-5.177 2.989-13.626 2.974-18.836-.033zm125.187-163.621c-4.792-2.768-12.566-2.781-17.329-.031l-186.268 107.54c-4.762 2.75-4.738 7.238.055 10.005l79.106 45.673c4.793 2.767 12.567 2.78 17.329.031l186.268-107.542c4.763-2.749 4.738-7.238-.054-10.005l-79.107-45.671z"/><path d="M841.185 223.449l-31.933-18.436 2.065-1.193 31.933 18.437zm-153.53 89.864l-31.412-18.137c-4.063-2.346-4.084-6.151-.046-8.482 4.037-2.331 10.629-2.319 14.691.027l31.413 18.136c4.063 2.346 4.084 6.151.046 8.482s-10.628 2.32-14.692-.026zm-17.892-25.941c-3.438-1.985-9.016-1.995-12.432-.022-3.417 1.973-3.399 5.192.038 7.177l31.413 18.137c3.438 1.984 9.016 1.995 12.432.022 3.417-1.973 3.399-5.192-.039-7.178l-31.412-18.136zm131.663-23.293c-.193-.111-.313-.266-.314-.436-.002-.34.474-.614 1.063-.612l8.524.015-.027-4.921c-.002-.34.474-.614 1.063-.613.588.001 1.066.277 1.068.617l.034 6.151-10.655-.02a1.522 1.522 0 01-.756-.181zm-63.361-36.581c-.193-.111-.313-.266-.314-.436l-.033-6.151 10.654.02c.589.001 1.067.277 1.069.617s-.474.614-1.063.612l-8.523-.016.026 4.922c.002.34-.474.614-1.063.613a1.521 1.521 0 01-.753-.181zm-20.288 57.697l-7.374-4.258-2.102 1.213 7.374 4.258 2.102-1.213zm2.315-1.837l7.7 4.445 2.102-1.214-7.7-4.445-2.102 1.214zm2.417 6.996l7.375 4.258 2.102-1.214-7.375-4.258-2.102 1.214zm7.018-1.548l3.295 1.902 2.102-1.214-3.295-1.902-2.102 1.214zM686.58 264.01l4.229 2.442 2.102-1.214-4.229-2.441-2.102 1.213zm11.351 9.726l-2.603-1.502-2.102 1.213 2.603 1.503 2.102-1.214zm2.355-4.24l-5.64-3.256-2.102 1.214 5.64 3.256 2.102-1.214zm12.473 7.201l-10.737-6.199-2.102 1.214 10.737 6.198 2.102-1.213zm2.121 12.425l-7.7-4.445-2.102 1.213 7.7 4.446 2.102-1.214zm.152 8.115l2.102-1.214-2.874-1.659-2.102 1.214 2.874 1.659zm15.14.714l-13.557-7.827-2.102 1.214 13.557 7.826 2.102-1.213zm-34.054-19.661l-9.11-5.26-2.102 1.214 9.109 5.259 2.103-1.213zm24.341 2.853l-5.965-3.443-2.102 1.213 5.965 3.444 2.102-1.214zm-35.187-9.115l-5.64-3.256-2.102 1.213 5.64 3.257 2.102-1.214zm-5.494-6.345l11.713 6.763 2.102-1.213-11.713-6.763-2.102 1.213zm8.562 13.716l-11.713-6.763-2.102 1.214 11.713 6.763 2.102-1.214zm20.328.537l-9.002-5.197-2.102 1.214 9.002 5.196 2.102-1.213zm3.856 13.426l-7.375-4.258-2.102 1.214 7.375 4.258 2.102-1.214zm-20.212-9.243l9.001 5.197 2.102-1.214-9.001-5.196-2.102 1.213zm13.132-.444l-7.592-4.383-2.102 1.213 7.592 4.384 2.102-1.214zm-17.471-2.061l2.604 1.503 2.102-1.213-2.603-1.503-2.103 1.213zm51.942 18.789l2.277 1.314 2.102-1.213-2.277-1.315-2.102 1.214zm-9.947-.142l7.375 4.258 2.102-1.214-7.375-4.258-2.102 1.214zm-1.976 4.459l4.393 2.536 2.102-1.214-4.393-2.536-2.102 1.214zm-11.224-6.481l9.489 5.479 2.102-1.214-9.489-5.479-2.102 1.214zm32.213-.629l-12.635-7.295-2.102 1.214 12.635 7.295 2.102-1.214zm-8.333.789l-6.928-4-2.102 1.214 6.927 3.999 2.103-1.213zm-17.773-10.261l-3.362-1.94-2.102 1.213 3.362 1.941 2.102-1.214zm-35.928-26.343l-4.081-2.355-2.102 1.213 4.08 2.355 2.103-1.213zm-25.582 10.058l10.045 5.8 2.102-1.214-10.045-5.799-2.102 1.213zm13.527-.218l-6.575-3.796-2.102 1.214 6.575 3.796 2.102-1.214zm3.005-3.864l-4.73-2.731-2.102 1.214 4.73 2.731 2.102-1.214zm2.248-4.303l-2.128-1.229-2.102 1.213 2.128 1.229 2.102-1.213zm-6.999 15.186l4.229 2.441 2.102-1.213-4.229-2.442-2.102 1.214zm167.797-45.437l10.084 5.821c.416.241 1.089.242 1.503.003.414-.238.411-.627-.005-.867l-10.084-5.822c-.416-.24-1.089-.241-1.503-.003-.414.239-.412.628.005.868zm9.054 6.416l-10.084-5.821c-.417-.24-1.09-.242-1.503-.003-.414.239-.412.628.005.868l10.083 5.821c.417.241 1.09.242 1.504.003.413-.238.411-.627-.005-.868zm-2.529 1.46l-10.083-5.821c-.417-.24-1.09-.242-1.504-.003s-.411.628.005.868l10.084 5.821c.416.24 1.089.242 1.503.003.414-.238.412-.627-.005-.868z"/></g><g opacity=".5" fill="#25054D"><path d="M686.728 209.478l-79.107-45.673c-5.209-3.007-5.235-7.886-.059-10.875L793.829 45.389c5.177-2.989 13.626-2.974 18.836.034l79.106 45.672c5.21 3.008 5.236 7.886.06 10.875L705.563 209.512c-5.176 2.988-13.626 2.973-18.835-.034zM811.914 45.856c-4.793-2.767-12.566-2.781-17.329-.031L608.317 153.366c-4.763 2.75-4.738 7.238.054 10.005l79.107 45.673c4.792 2.767 12.566 2.78 17.329.031l186.268-107.542c4.763-2.75 4.738-7.238-.055-10.005l-79.106-45.672z"/><path d="M854.79 85.21l-31.932-18.436 2.066-1.192 31.931 18.436zm-32.83 8.991l-6.898-3.983-1.967 1.135 6.899 3.983 1.966-1.135zm2.165-1.719l7.204 4.159 1.966-1.135-7.203-4.159-1.967 1.135zm10.828 1.013l3.145 1.815 1.967-1.135-3.146-1.816-1.966 1.136zm-8.567 5.532l6.899 3.983 1.966-1.135-6.898-3.983-1.967 1.135zm6.566-1.448l3.082 1.78L838 98.223l-3.082-1.78-1.966 1.136zm-40.178-23.197l3.957 2.285 1.966-1.135-3.956-2.285-1.967 1.135zm10.62 9.1l-2.436-1.406-1.966 1.135 2.436 1.406 1.966-1.135zm2.203-3.967l-5.275-3.046-1.966 1.135 5.275 3.046 1.966-1.135zm11.668 6.736l-10.044-5.799-1.967 1.135 10.045 5.799 1.966-1.135zm3.975 12.916l-9.194-5.451-1.966 1.135 9.194 5.451 1.966-1.135zm-21.493-25.999l10.957 6.327 1.967-1.135-10.958-6.326-1.966 1.134zm26.684 15.406l6.899 3.983 1.966-1.135-6.899-3.983-1.966 1.135zm.342-2.072l-8.421-4.862-1.967 1.135 8.421 4.862 1.967-1.135zm-25.076 1.239l-8.522-4.92-1.966 1.135 8.522 4.92 1.966-1.135zm22.771 2.669l-5.58-3.222-1.966 1.135 5.58 3.222 1.966-1.135zm-32.917-8.526l-5.275-3.046-1.966 1.135 5.275 3.046 1.966-1.135zm-5.14-5.937l10.958 6.327 1.966-1.135-10.957-6.326-1.967 1.134zm8.01 12.832l-10.958-6.326-1.966 1.135 10.957 6.327 1.967-1.136zm19.017.502l-8.421-4.862-1.966 1.135 8.421 4.862 1.966-1.135zm3.608 12.561l-6.899-3.983-1.966 1.135 6.899 3.983 1.966-1.135zm-12.692.181l2.638 1.523 1.967-1.135-2.639-1.523-1.966 1.135zm-6.218-8.828l8.421 4.862 1.967-1.135-8.421-4.862-1.967 1.135zm-12.349-1.891l5.275 3.046 1.966-1.135-5.275-3.046-1.966 1.135zm24.636 1.475l-7.103-4.1-1.966 1.135 7.102 4.101 1.967-1.136zm-16.345-1.927l2.435 1.406 1.966-1.135-2.435-1.406-1.966 1.135zm57.653 10.06l-1.966 1.135 4.109 2.373 1.966-1.135-4.109-2.373zm-59.045-5.625l10.045 5.799 1.966-1.135-10.044-5.799-1.967 1.135zm7.404-24.191l-6.252-3.609-1.967 1.135 6.253 3.61 1.966-1.136zm39.632 25.152l8.421 4.862 1.966-1.135-8.421-4.862-1.966 1.135zm-27.394-15.816l2.435 1.406 1.966-1.135-2.435-1.406-1.966 1.135zm38.823 25.384l-11.819-6.824-1.967 1.135 11.82 6.824 1.966-1.135zm-24.422-8.862l-3.145-1.815-1.967 1.135 3.146 1.816 1.966-1.136zM793.117 72.31l-3.816-2.204-1.967 1.135 3.817 2.204 1.966-1.135zm-23.931 9.409l9.397 5.426 1.966-1.135-9.396-5.426-1.967 1.135zm12.654-.203l-6.15-3.551-1.967 1.135 6.151 3.551 1.966-1.135zm2.812-3.616l-4.426-2.555-1.967 1.135 4.427 2.555 1.966-1.135zm2.102-4.025l-1.99-1.149-1.967 1.135 1.991 1.149 1.966-1.135zm-6.548 14.207l3.957 2.285 1.967-1.135-3.957-2.285-1.967 1.135zm62.226 25.27c.786-.454.782-1.192-.009-1.649l-5.708-3.295 2.892-1.669c1.191-.688 1.186-1.807-.014-2.499-.383-.221-1.002-.223-1.383-.002l-2.444 1.411c-.707.408-1.658.646-2.66.664l-5.606.103.026-.015c.815-.471.812-1.237-.009-1.71l-2.311-1.334c-.82-.474-2.147-.476-2.963-.005l-6.21 3.585c-.815.471-.812 1.237.009 1.711l2.311 1.333c.641.37 1.589.451 2.362.246-.412.404-.317.935.287 1.284l3.089 1.783 3.85 2.223 2.061 1.19c.767.443 2.012.49 2.815.076.391-.201.609-.468.659-.743.794.433 2.04.428 2.813-.018.536-.31.704-.751.506-1.146l.021.012c.783.452 2.061.492 2.86.056.673-.367.805-.935.4-1.384.762.228 1.72.159 2.356-.208z"/></g><g opacity=".5" fill="#25054D"><path d="M524.698 307.936l-78.976-45.597c-5.201-3.003-5.228-7.873-.059-10.857l185.961-107.365c5.169-2.984 13.604-2.968 18.806.034l78.976 45.597c5.201 3.002 5.228 7.873.06 10.856L543.503 307.97c-5.169 2.983-13.604 2.968-18.805-.034zM649.68 144.584c-4.784-2.763-12.546-2.776-17.301-.031L446.417 251.917c-4.754 2.745-4.73 7.227.054 9.989l78.976 45.597c4.785 2.762 12.546 2.776 17.301.031L728.71 200.169c4.755-2.745 4.73-7.226-.055-9.988l-78.975-45.597z"/><path d="M692.485 183.873l-31.88-18.406 2.063-1.191 31.88 18.406zm-151.557 86.154l-8.385-4.841-1.958 1.13 8.386 4.841zm-22.57-13.09l-6.124-3.537-1.958 1.131 6.125 3.536zm-1.285 4.474l-9.357-5.402-1.958 1.131 9.358 5.402zm13.813 2.759l-10.911-6.3-1.958 1.13 10.911 6.3zm-1.386 4.416l-5.253-3.033-1.958 1.131 5.253 3.032zm-10.81-6.241l-1.958 1.131 3.94 2.274 1.958-1.13zm82.238-27.068l-8.385-4.841-1.958 1.13 8.386 4.841zm-22.57-13.09l-6.124-3.536-1.958 1.13 6.125 3.536zm-1.285 4.474l-9.357-5.402-1.958 1.131 9.358 5.402zm13.813 2.759l-10.911-6.3-1.958 1.13 10.911 6.3zm-1.386 4.416l-5.253-3.033-1.958 1.131 5.253 3.032zm-10.81-6.241l-1.958 1.131 3.94 2.274 1.958-1.13zm83.238-26.318l-8.385-4.841-1.958 1.13 8.386 4.841zm-22.57-13.09l-6.124-3.536-1.958 1.13 6.124 3.536zm-1.285 4.474l-9.357-5.402-1.957 1.131 9.356 5.402zm13.813 2.759l-10.911-6.3-1.957 1.13 10.91 6.3zm-1.386 4.416l-5.254-3.033-1.957 1.131 5.253 3.032zm-10.811-6.241l-1.957 1.131 3.94 2.274 1.958-1.13zm-55.25 64.596l-2.424-1.399-1.958 1.13 2.424 1.4zm-16.91-7.502l10.911 6.3 1.958-1.131-10.911-6.298zm8.672 10.147l5.253 3.033 1.958-1.131-5.253-3.032zm-16.53-9.544l9.357 5.402 1.958-1.13-9.358-5.402zm8.2-2.666l-1.983-1.145-1.957 1.131 1.982 1.145zm2.774 9.002l3.939 2.274 1.958-1.13-3.939-2.274z"/><path d="M652.873 214.395l-52.305-30.198c-2.034-1.174-3.154-2.827-3.155-4.655 0-2.161 1.582-4.315 4.34-5.907l4.618-2.667c2.655-1.533 6.166-2.412 9.631-2.412 2.884 0 5.534.614 7.465 1.729l44.35 25.605c2.034 1.175 3.154 2.828 3.154 4.656 0 2.162-1.582 4.314-4.339 5.906l-13.759 7.943zm-36.871-44.64c-3.261 0-6.553.821-9.031 2.251l-4.618 2.667c-2.376 1.372-3.739 3.146-3.739 4.868 0 1.381.907 2.665 2.555 3.616l51.705 29.853 13.159-7.598c2.376-1.372 3.738-3.146 3.738-4.867 0-1.382-.907-2.666-2.554-3.617l-44.35-25.605c-1.751-1.011-4.189-1.568-6.865-1.568z"/><path d="M616.081 185.591c-2.927 0-5.691-.666-7.784-1.874-2.196-1.268-3.406-2.986-3.406-4.84 0-1.839 1.193-3.541 3.359-4.792 2.063-1.191 4.796-1.847 7.698-1.847 2.927 0 5.691.666 7.784 1.874 2.196 1.268 3.405 2.987 3.405 4.841 0 1.839-1.193 3.541-3.359 4.791-2.061 1.191-4.796 1.847-7.697 1.847zm-.133-12.152c-2.694 0-5.216.599-7.099 1.686-1.779 1.028-2.759 2.36-2.759 3.752 0 1.406.996 2.757 2.806 3.801 1.913 1.104 4.465 1.713 7.185 1.713 2.694 0 5.215-.599 7.098-1.686 1.779-1.027 2.759-2.359 2.76-3.752 0-1.407-.997-2.757-2.806-3.802-1.913-1.104-4.465-1.712-7.185-1.712zm-21.461 74.409l-52.305-30.198c-2.035-1.175-3.155-2.828-3.155-4.656 0-2.162 1.582-4.314 4.339-5.906l4.619-2.667c2.654-1.533 6.165-2.412 9.63-2.412 2.883 0 5.534.613 7.465 1.729l44.35 25.604c2.034 1.175 3.154 2.828 3.154 4.656 0 2.162-1.581 4.315-4.339 5.907l-13.758 7.943zm-36.871-44.641c-3.261 0-6.552.821-9.03 2.252l-4.62 2.667c-2.376 1.372-3.739 3.146-3.739 4.867 0 1.381.907 2.666 2.555 3.617l51.705 29.853 13.159-7.598c2.376-1.372 3.738-3.146 3.738-4.868 0-1.382-.907-2.666-2.554-3.617l-44.35-25.604c-1.751-1.011-4.188-1.569-6.864-1.569z"/><path d="M557.695 219.043c-2.928 0-5.692-.666-7.785-1.874-2.196-1.268-3.405-2.986-3.405-4.84 0-1.839 1.193-3.541 3.359-4.791 2.063-1.19 4.796-1.847 7.699-1.847 2.927 0 5.691.665 7.783 1.873 2.197 1.269 3.406 2.987 3.406 4.841 0 1.839-1.193 3.541-3.359 4.791-2.062 1.191-4.796 1.847-7.698 1.847zm-.132-12.151c-2.695 0-5.216.599-7.099 1.686-1.779 1.027-2.759 2.359-2.759 3.752 0 1.406.997 2.756 2.806 3.801 1.913 1.104 4.464 1.713 7.185 1.713 2.694 0 5.215-.599 7.099-1.686 1.779-1.027 2.759-2.359 2.759-3.752 0-1.406-.997-2.757-2.806-3.802-1.915-1.105-4.465-1.712-7.185-1.712zm23.472 64.582c-2.884 0-5.534-.614-7.464-1.729l-47.833-27.793 14.356-8.288c2.654-1.533 6.165-2.412 9.63-2.412 2.883 0 5.534.613 7.465 1.729l39.282 22.853c2.032 1.174 3.153 2.827 3.153 4.655-.001 2.162-1.582 4.314-4.34 5.906l-4.619 2.667c-2.655 1.533-6.165 2.412-9.63 2.412zm-52.903-29.518l46.04 26.751c1.75 1.01 4.187 1.566 6.863 1.566 3.261 0 6.553-.82 9.032-2.251l4.619-2.667c2.376-1.372 3.739-3.146 3.739-4.867 0-1.381-.907-2.666-2.555-3.617l-39.282-22.853c-1.75-1.01-4.188-1.567-6.863-1.567-3.261 0-6.552.821-9.03 2.252l-12.563 7.253z"/><path d="M549.471 248.592c-2.927 0-5.691-.665-7.783-1.873-2.197-1.269-3.406-2.987-3.406-4.841 0-1.839 1.193-3.541 3.359-4.791 2.063-1.191 4.797-1.847 7.699-1.847 2.927 0 5.691.665 7.783 1.873 2.197 1.269 3.406 2.987 3.406 4.841 0 1.839-1.193 3.541-3.359 4.791-2.063 1.191-4.796 1.847-7.699 1.847zm-.131-12.152c-2.695 0-5.216.599-7.1 1.686-1.779 1.027-2.759 2.359-2.759 3.752 0 1.406.997 2.757 2.806 3.802 1.913 1.104 4.463 1.712 7.183 1.712 2.695 0 5.216-.599 7.099-1.686 1.779-1.027 2.759-2.359 2.759-3.752 0-1.406-.997-2.757-2.806-3.802-1.911-1.104-4.462-1.712-7.182-1.712zm88.695.534c-.001 0-.001 0 0 0-2.884 0-5.535-.614-7.465-1.729l-47.833-27.793 14.356-8.288c2.654-1.533 6.165-2.412 9.63-2.412 2.884 0 5.534.613 7.465 1.729l39.282 22.853c2.032 1.174 3.153 2.827 3.153 4.655-.001 2.162-1.582 4.314-4.34 5.906l-4.619 2.667c-2.654 1.533-6.164 2.412-9.629 2.412zm-52.903-29.518l46.04 26.751c1.749 1.01 4.187 1.566 6.862 1.566 3.261 0 6.553-.82 9.031-2.251l4.619-2.667c2.376-1.372 3.739-3.146 3.739-4.867 0-1.381-.907-2.666-2.555-3.617l-39.282-22.853c-1.749-1.01-4.188-1.567-6.863-1.567-3.261 0-6.553.821-9.03 2.252l-12.561 7.253z"/><path d="M606.471 214.092c-2.927 0-5.69-.665-7.783-1.873-2.196-1.269-3.405-2.987-3.405-4.841 0-1.839 1.193-3.541 3.359-4.791 2.063-1.19 4.797-1.847 7.699-1.847 2.927 0 5.69.665 7.782 1.873 2.196 1.269 3.406 2.987 3.406 4.841 0 1.839-1.193 3.541-3.359 4.791-2.063 1.191-4.797 1.847-7.699 1.847zm-.13-12.152c-2.695 0-5.217.599-7.1 1.686-1.779 1.027-2.759 2.359-2.759 3.752 0 1.406.996 2.757 2.805 3.802 1.913 1.104 4.464 1.712 7.184 1.712 2.695 0 5.217-.599 7.1-1.686 1.779-1.027 2.759-2.359 2.759-3.752 0-1.406-.996-2.757-2.806-3.802-1.914-1.104-4.464-1.712-7.183-1.712zm-74.604 80.658L479.432 252.4c-2.035-1.175-3.155-2.828-3.155-4.656 0-2.162 1.582-4.314 4.339-5.906l4.619-2.667c2.654-1.533 6.165-2.412 9.63-2.412 2.883 0 5.534.613 7.465 1.729l44.35 25.604c2.034 1.175 3.154 2.828 3.155 4.656 0 2.162-1.582 4.315-4.338 5.907l-13.76 7.943zm-36.871-44.641c-3.261 0-6.552.821-9.03 2.252l-4.62 2.667c-2.376 1.372-3.739 3.146-3.739 4.867 0 1.381.907 2.666 2.555 3.617l51.705 29.853 13.159-7.598c2.375-1.372 3.738-3.146 3.738-4.868 0-1.382-.907-2.666-2.554-3.617l-44.35-25.604c-1.751-1.011-4.188-1.569-6.864-1.569z"/><path d="M494.945 253.793c-2.928 0-5.692-.666-7.785-1.874-2.196-1.268-3.405-2.986-3.405-4.84 0-1.839 1.193-3.541 3.359-4.791 2.063-1.19 4.796-1.847 7.699-1.847 2.927 0 5.691.665 7.783 1.873 2.197 1.269 3.406 2.987 3.406 4.841 0 1.839-1.193 3.541-3.359 4.791-2.062 1.191-4.796 1.847-7.698 1.847zm-.132-12.151c-2.695 0-5.216.599-7.099 1.686-1.779 1.027-2.759 2.359-2.759 3.752 0 1.406.997 2.756 2.806 3.801 1.913 1.104 4.464 1.713 7.185 1.713 2.694 0 5.215-.599 7.099-1.686 1.779-1.027 2.759-2.359 2.759-3.752 0-1.406-.997-2.757-2.806-3.802-1.915-1.105-4.465-1.712-7.185-1.712zm58.696-2.081c-2.656-1.533-6.948-1.541-9.587-.018s.027 2.471 2.682 4.004c2.656 1.533 4.296 3.072 6.935 1.549 2.64-1.525 2.626-4.002-.03-5.535zm-1.01 4.399c-.627.361-1.65.359-2.281-.004l-4.321-2.495c-.631-.364-.634-.955-.007-1.317.627-.361 1.65-.359 2.281.005l4.321 2.494c.63.364.633.955.007 1.317z"/><path d="M547.835 240.732c-.28-.162-.734-.163-1.013-.002-.279.161-.278.424.003.586s.735.162 1.014.001.277-.422-.004-.585zm3.707 2.141c-.281-.162-.735-.163-1.014-.002s-.278.423.003.585.735.163 1.014.002c.28-.161.278-.423-.003-.585zm8.008-28.789c-.399-.375-.616-.795-.635-1.217-.011-.255.357-.459.799-.459a7.887 7.887 0 001.725-.188c.303.103.827.145 1.112-.021.291-.168.385-.394.248-.543 1.157-.736 1.7-1.617.046-2.572-1.654-.955-3.18-.642-4.455.026-.26-.079-.651-.024-.942.144-.285.164-.213.467-.035.642a1.75 1.75 0 00-.326.996c-.001.255-.353.468-.795.461a6.674 6.674 0 01-2.106-.366c-.86-.306-1.997-.245-2.737.183l-1.284.741c-.249.145-.248.378.003.522l6.878 3.972c.25.145.655.145.904.001l1.284-.741c.74-.429.845-1.085.316-1.581zm-63.125 35.125c-.399-.375-.616-.795-.635-1.217-.011-.255.357-.459.799-.459a7.887 7.887 0 001.725-.188c.303.103.827.145 1.112-.021.291-.168.385-.394.248-.543 1.157-.736 1.7-1.617.046-2.572-1.654-.955-3.18-.642-4.455.026-.26-.079-.651-.024-.942.144-.285.164-.213.467-.035.642a1.75 1.75 0 00-.326.996c-.001.255-.353.468-.795.462a6.703 6.703 0 01-2.106-.367c-.86-.306-1.997-.245-2.737.183l-1.284.741c-.249.145-.248.378.003.522l6.878 3.972c.25.145.655.145.904.001l1.284-.741c.74-.429.845-1.085.316-1.581zm121.125-68.125c-.399-.375-.616-.795-.635-1.217-.011-.255.357-.459.799-.459a7.896 7.896 0 001.726-.188c.303.103.826.145 1.111-.021.291-.168.386-.394.248-.543 1.157-.736 1.7-1.617.046-2.572s-3.18-.642-4.454.026c-.26-.079-.65-.024-.941.144-.285.164-.213.467-.035.642a1.743 1.743 0 00-.326.996c-.001.255-.354.468-.796.461a6.674 6.674 0 01-2.106-.366c-.859-.306-1.997-.245-2.737.183l-1.284.741c-.249.145-.248.378.003.522l6.878 3.972a.997.997 0 00.904.001l1.284-.741c.74-.429.844-1.085.315-1.581z"/></g><path fill="#E5D4EF" d="M778.507 118.098l-6.738-4.249-2.009 1.057 6.738 4.25 2.009-1.058zm2.23-1.633l7.036 4.437 2.008-1.057-7.035-4.437-2.009 1.057zm10.78 1.434l3.073 1.937 2.008-1.057-3.072-1.937-2.009 1.057zm-8.776 5.194l6.738 4.25 2.009-1.059-6.738-4.249-2.009 1.058zm6.617-1.191l3.01 1.898 2.01-1.057-3.01-1.898-2.01 1.057zm-39.241-24.745l3.864 2.437 2.009-1.057-3.865-2.438-2.008 1.058zm10.255 9.507l-2.378-1.5-2.01 1.058 2.379 1.5 2.009-1.058zm2.357-3.878l-5.153-3.25-2.009 1.058 5.153 3.25 2.009-1.058zm11.395 7.186l-9.81-6.187-2.009 1.058 9.811 6.186 2.008-1.057zm1.531 11.693l-7.037-4.437-2.008 1.057 7.035 4.437 2.01-1.057zm-18.524-25.45l10.702 6.749 2.009-1.057-10.703-6.749-2.008 1.057zm26.062 16.435l6.738 4.249 2.009-1.057-6.739-4.25-2.008 1.058zm-7.693 16.605l2.01-1.057-2.627-1.656-2.008 1.058 2.625 1.655zm14.128 1.22l-12.388-7.811-2.009 1.058 12.387 7.81 2.01-1.057zm-6.012-19.883l-8.225-5.186-2.009 1.057 8.225 5.187 2.009-1.058zm-25.105.261l-8.324-5.249-2.009 1.058 8.324 5.25 2.009-1.059zm22.65 3.555l-5.45-3.437-2.01 1.059 5.45 3.437 2.01-1.059zm-32.559-9.804l-5.153-3.249-2.009 1.057 5.153 3.25 2.009-1.058zm-4.905-6.132l10.702 6.75 2.009-1.058-10.702-6.749-2.009 1.057zm7.502 13.134l-10.702-6.749-2.009 1.059 10.702 6.749 2.009-1.059zm18.984 1.244l-8.226-5.187-2.009 1.058 8.226 5.186 2.009-1.057zm3.115 12.691l-6.739-4.248-2.008 1.057 6.738 4.25 2.009-1.059zm-12.689-.313l2.576 1.625 2.009-1.058-2.577-1.625-2.008 1.058zm4.162 2.624l7.035 4.437 2.01-1.057-7.036-4.437-2.009 1.057zm-10.031-11.688l8.225 5.186 2.009-1.058-8.225-5.187-2.009 1.059zm-12.266-2.372l5.152 3.25 2.01-1.057-5.153-3.25-2.009 1.057zm24.559 2.436l-6.938-4.375-2.008 1.058 6.937 4.374 2.009-1.057zm-16.257-2.564l2.378 1.5 2.01-1.057-2.379-1.5-2.009 1.057zm57.218 12.301l-2.01 1.058 4.014 2.531 2.009-1.058-4.013-2.531zm-9.348 7.158l2.081 1.313 2.009-1.058-2.08-1.312-2.01 1.057zm-9.293-.497l6.738 4.249 2.009-1.057-6.738-4.25-2.009 1.058zm-2.009 4.097l4.012 2.53 2.009-1.057-4.013-2.531-2.008 1.058zm-10.257-6.468l8.67 5.467 2.01-1.057-8.671-5.468-2.009 1.058zm-27.874-12.213l9.81 6.187 2.009-1.058-9.81-6.186-2.009 1.057zm8.341-23.884l-6.106-3.851-2.009 1.058 6.106 3.85 2.009-1.057zm38.621 26.678l8.225 5.187 2.009-1.058-8.225-5.186-2.009 1.057zm-26.756-16.872l2.378 1.5 2.009-1.058-2.379-1.499-2.008 1.057zm37.805 26.879l-11.546-7.28-2.008 1.057 11.544 7.28 2.01-1.057zm-7.821.432l-6.329-3.991-2.009 1.057 6.33 3.992 2.008-1.058zm-16.238-10.239l-3.072-1.938-2.009 1.058 3.071 1.937 2.01-1.057zM750.54 95.099l-3.729-2.351-2.009 1.057 3.729 2.352 2.009-1.058zm-24.28 8.469l9.178 5.788 2.01-1.058-9.179-5.787-2.009 1.057zm12.651.289l-6.007-3.788-2.009 1.057 6.007 3.789 2.009-1.058zm2.951-3.503l-4.322-2.725-2.009 1.057 4.323 2.727 2.008-1.059zm2.258-3.939l-1.944-1.227-2.009 1.059 1.944 1.226 2.009-1.058zm-7.097 13.94l3.865 2.438 2.009-1.058-3.865-2.437-2.009 1.057zm99.003 69.195l10.084 5.822c.417.24 1.089.241 1.503.003.414-.239.412-.628-.005-.868l-10.083-5.822c-.417-.24-1.09-.241-1.504-.003-.414.239-.411.628.005.868zm9.054 6.417l-10.084-5.822c-.416-.24-1.089-.241-1.503-.003-.414.239-.412.628.005.868l10.084 5.822c.416.24 1.089.241 1.503.003.414-.239.411-.628-.005-.868zm-2.528 1.46l-10.084-5.822c-.417-.24-1.09-.241-1.503-.003-.414.239-.412.628.005.868l10.083 5.822c.417.24 1.09.241 1.504.002.413-.238.411-.627-.005-.867z"/></svg>