<svg xmlns="http://www.w3.org/2000/svg" xmlns:xlink="http://www.w3.org/1999/xlink" width="2758.848" height="1628.429"><image overflow="visible" width="3170" height="2552" xlink:href="E8E9189A.png" transform="matrix(-1.0067 0 0 .9996 3139.934 -229.074)"/><defs><path id="a" d="M-25.64 0h2778.313v1689.291H-25.64z"/></defs><clipPath id="b"><use xlink:href="#a" overflow="visible"/></clipPath><g clip-path="url(#b)"><path fill="#EDF0F7" d="M-25.64 0h2778.313v1688.265H-25.64z"/><defs><path id="c" d="M-25.64 0h2778.313v1688.265H-25.64z"/></defs><defs><path id="e" d="M-25.64 0h2778.313v1688.265H-25.64z"/></defs><defs><path id="g" d="M-25.64 0h2778.313v1688.265H-25.64z"/></defs><clipPath id="d"><use xlink:href="#c" overflow="visible"/></clipPath><clipPath id="f" clip-path="url(#d)"><use xlink:href="#e" overflow="visible"/></clipPath><clipPath id="h" clip-path="url(#f)"><use xlink:href="#g" overflow="visible"/></clipPath><linearGradient id="i" gradientUnits="userSpaceOnUse" x1="-505.876" y1="336.841" x2="-176.166" y2="666.551" gradientTransform="matrix(-8.1653 0 0 -1 0 1629.429)"><stop offset=".313" stop-color="#e9e9ff" stop-opacity="0"/><stop offset=".828" stop-color="#e4e4ff" stop-opacity=".75"/><stop offset="1" stop-color="#e1e1ff"/></linearGradient><path clip-path="url(#h)" fill="url(#i)" d="M2455.042 1127.736c0 180.701 147.527 327.193 329.507 327.193s329.499-146.492 329.499-327.193c0-180.707-147.52-327.199-329.499-327.199s-329.507 146.492-329.507 327.199z"/><linearGradient id="j" gradientUnits="userSpaceOnUse" x1="-326.253" y1="1036.552" x2="-181.29" y2="1181.515" gradientTransform="matrix(-8.1653 0 0 -1 0 1629.429)"><stop offset="0" stop-color="#e9e9ff" stop-opacity="0"/><stop offset=".75" stop-color="#e4e4ff" stop-opacity=".75"/><stop offset="1" stop-color="#e1e1ff"/></linearGradient><path clip-path="url(#h)" fill="url(#j)" d="M1927.258 520.395c0 79.454 64.856 143.859 144.868 143.859 80.013 0 144.877-64.405 144.877-143.859 0-79.448-64.864-143.856-144.877-143.856-80.012-.002-144.868 64.406-144.868 143.856z"/><linearGradient id="k" gradientUnits="userSpaceOnUse" x1="-453.492" y1="68.224" x2="32.564" y2="-417.832" gradientTransform="matrix(-8.1653 0 0 -1 0 1629.429)"><stop offset="0" stop-color="#e1e1ff"/><stop offset=".25" stop-color="#e4e4ff" stop-opacity=".75"/><stop offset="1" stop-color="#e9e9ff" stop-opacity="0"/></linearGradient><ellipse clip-path="url(#h)" fill="url(#k)" cx="1718.5" cy="1804.232" rx="485.755" ry="482.352"/><defs><path id="l" d="M-25.64 0h2778.313v1689.291H-25.64z"/></defs><clipPath id="m"><use xlink:href="#l" overflow="visible"/></clipPath><g clip-path="url(#m)"><linearGradient id="n" gradientUnits="userSpaceOnUse" x1="-501.615" y1="1319.543" x2="346.997" y2="470.931" gradientTransform="matrix(-8.1653 0 0 -1 0 1629.429)"><stop offset=".387" stop-color="#7638ff"/><stop offset=".944" stop-color="#5445ff"/></linearGradient><path fill="url(#n)" d="M1716.283 259.267a276.026 276.026 0 010 277.697l-480.579 826.547c-49.957 85.918-142.272 138.844-242.185 138.844H-25.64V0h1591.175l150.748 259.267z"/><defs><path id="o" d="M1716.283 259.267a276.026 276.026 0 010 277.697l-480.579 826.547c-49.957 85.918-142.272 138.844-242.185 138.844H-25.64V0h1591.175l150.748 259.267z"/></defs><defs><path id="q" d="M1716.283 259.267a276.026 276.026 0 010 277.697l-480.579 826.547c-49.957 85.918-142.272 138.844-242.185 138.844H-25.64V0h1591.175l150.748 259.267z"/></defs><defs><path id="s" d="M1716.283 259.267a276.026 276.026 0 010 277.697l-480.579 826.547c-49.957 85.918-142.272 138.844-242.185 138.844H-25.64V0h1591.175l150.748 259.267z"/></defs><clipPath id="p"><use xlink:href="#o" overflow="visible"/></clipPath><clipPath id="r" clip-path="url(#p)"><use xlink:href="#q" overflow="visible"/></clipPath><clipPath id="t" clip-path="url(#r)"><use xlink:href="#s" overflow="visible"/></clipPath><linearGradient id="u" gradientUnits="userSpaceOnUse" x1="-260.093" y1="1341.788" x2="138.803" y2="942.891" gradientTransform="matrix(-8.1653 0 0 -1 0 1629.429)"><stop offset="0" stop-color="#8c50ff"/><stop offset=".717" stop-color="#8c50ff" stop-opacity="0"/></linearGradient><path clip-path="url(#t)" fill="url(#u)" d="M96.532 487.088c0 218.625 178.482 395.857 398.646 395.857 220.172 0 398.651-177.232 398.651-395.857S715.351 91.233 495.179 91.233c-220.164-.001-398.647 177.23-398.647 395.855z"/><linearGradient id="v" gradientUnits="userSpaceOnUse" x1="-348.681" y1="1674.113" x2="-7.928" y2="1333.36" gradientTransform="matrix(-8.1653 0 0 -1 0 1629.429)"><stop offset=".283" stop-color="#8c50ff" stop-opacity="0"/><stop offset="1" stop-color="#8c50ff"/></linearGradient><path clip-path="url(#t)" fill="url(#v)" d="M1115.368 125.693c0 186.756 152.458 338.155 340.537 338.155 188.074 0 340.541-151.398 340.541-338.155 0-186.757-152.467-338.157-340.541-338.157-188.079 0-340.537 151.401-340.537 338.157z"/><linearGradient id="w" gradientUnits="userSpaceOnUse" x1="-267.591" y1="813.045" x2="16.02" y2="529.434" gradientTransform="matrix(-8.1653 0 0 -1 0 1629.429)"><stop offset="0" stop-color="#8c50ff"/><stop offset=".717" stop-color="#8c50ff" stop-opacity="0"/></linearGradient><ellipse clip-path="url(#t)" fill="url(#w)" cx="1027.068" cy="958.189" rx="283.437" ry="281.449"/></g></g></svg>