<svg xmlns="http://www.w3.org/2000/svg" xmlns:xlink="http://www.w3.org/1999/xlink" width="570" height="449.999"><path opacity=".19" fill="#29235C" d="M525.671 107.313c-2.999-21.669-22.998-36.804-44.667-33.805a39.763 39.763 0 00-6.504 1.472c-6.784 1.212-82.909 26.398-116.254-14.298-16.404-19.188-41.924-29.889-68.786-26.171-23.629 3.271-43.239 16.992-54.817 35.849l-25.647 36.709a105.607 105.607 0 01-49.364 39.648l-59.068 23.066a111.59 111.59 0 00-11.532 4.503l-.142.056.003.008c-43.986 20.103-71.541 67.278-64.569 117.643 8.512 61.49 65.26 104.438 126.75 95.926a113.092 113.092 0 0017.75-3.933l60.321-13.364a105.643 105.643 0 0192.908 24.081c6.794 6.021 14.928 14.84 16.042 16.578.009.013.055.01.078.015 20.313 25.275 53.002 39.561 87.457 34.791 52.164-7.221 88.598-55.362 81.377-107.526-.099-.712-18.444-104.67-18.444-104.67l-.077-.454c-4.138-24.852.953-50.366 14.094-71.861l16.861-26.947c5.152-7.764 7.608-17.36 6.23-27.316z"/><image overflow="visible" opacity=".2" width="2225" height="1846" xlink:href="55F64238.png" transform="matrix(.24 0 0 .24 20.344 -7.954)"/><path fill="#9629E6" d="M54.274 309.794c-1.896 20.133 12.888 37.99 33.021 39.886 2.084.197 4.143.205 6.164.056 6.36.348 80.192-6.171 101.563 37.515 10.692 20.742 31.382 35.781 56.34 38.132 21.954 2.068 42.505-6.119 56.92-20.631l30.86-27.589a97.641 97.641 0 0152.82-25.206l58.035-8.228c3.834-.326 7.613-.868 11.331-1.605l.14-.02-.001-.008c43.838-8.761 78.633-45.362 83.039-92.154 5.38-57.129-36.571-107.802-93.7-113.182a104.543 104.543 0 00-16.802-.226l-57.107-.767A97.653 97.653 0 01298.412 94.4c-4.836-6.857-10.283-16.516-10.917-18.316-.005-.014-.047-.02-.067-.031-12.915-27.047-39.298-46.831-71.31-49.846-48.464-4.564-91.452 31.024-96.016 79.488-.062.661-5.6 98.085-5.6 98.085l-.028.424c-1.546 23.238-11.537 45.113-27.917 61.667l-20.885 20.67c-6.281 5.891-10.527 14.005-11.398 23.253z"/><path fill="none" stroke="#9629E6" stroke-width="8" stroke-linecap="round" stroke-miterlimit="10" stroke-dasharray="300,200" d="M33.635 316.194c-2.053 21.797 13.954 41.131 35.751 43.185 2.257.212 4.486.221 6.674.06 6.886.376 86.823-6.681 109.961 40.617 11.576 22.457 33.977 38.74 60.998 41.285 23.769 2.238 46.022-6.625 61.628-22.337l33.411-29.871a105.702 105.702 0 0157.188-27.289l62.835-8.908c4.15-.353 8.243-.94 12.268-1.738l.151-.022v-.009c47.462-9.484 85.134-49.112 89.903-99.774 5.825-61.853-39.594-116.716-101.446-122.541a113.17 113.17 0 00-18.192-.244l-61.829-.831a105.728 105.728 0 01-84.976-44.788c-5.236-7.425-11.135-17.882-11.821-19.832-.004-.015-.05-.021-.071-.033-13.983-29.284-42.548-50.705-77.207-53.969-52.472-4.941-99.014 33.59-103.956 86.062-.068.716-6.063 106.196-6.063 106.196l-.03.459c-1.674 25.159-12.491 48.843-30.227 66.767l-22.612 22.378c-6.799 6.379-11.395 15.164-12.338 25.177z"/><image overflow="visible" opacity=".2" width="2112" height="1768" xlink:href="55F64239.png" transform="matrix(.24 0 0 .24 45.49 18.093)"/><path fill="#6730E3" d="M79.644 366.602c2.917 20.01 21.503 33.866 41.514 30.949a36.733 36.733 0 006.002-1.403c6.262-1.165 76.46-24.952 107.552 12.442 15.292 17.626 38.951 27.35 63.756 23.732 21.82-3.181 39.854-15.993 50.432-33.502l23.462-34.102a97.632 97.632 0 0145.365-36.978l54.446-21.714a103.095 103.095 0 0010.629-4.239l.132-.052-.003-.008c40.523-18.874 65.68-62.665 58.9-109.172-8.277-56.782-61.018-96.102-117.799-87.824a104.583 104.583 0 00-16.381 3.753l-55.669 12.755a97.655 97.655 0 01-86.04-21.641c-6.32-5.52-13.897-13.617-14.938-15.217-.008-.012-.05-.008-.072-.014-18.944-23.228-49.256-36.214-81.072-31.576-48.17 7.022-81.526 51.763-74.504 99.933.096.657 17.746 96.628 17.746 96.628l.073.419c3.991 22.944-.545 46.562-12.549 66.52l-15.407 25.021c-4.708 7.209-6.915 16.097-5.575 25.29z"/><image overflow="visible" opacity=".3" width="391" height="508" xlink:href="55F6423F.png" transform="matrix(.24 0 0 .24 398.775 242.684)"/><path opacity=".96" fill="#BF00DC" d="M433.988 293.977l43.086 10.022 2.422 21.869s-46.213-32.018-45.508-31.891zm-6.197 2.333l20.841 39.021-14.858 16.229c-.001-.001-6.352-55.865-5.983-55.25zm.932-15.309l22.614-9.317 8.109 9.067s-31.082.419-30.723.25z"/><path d="M490.02 166.145c.11-2.015 1.105-3.312 3.122-3.597 1.854-.262 3.727 1.396 3.681 3.266-.051 2.034-1.195 3.354-3.221 3.456-2.03.102-3.199-1.13-3.582-3.125zm11.564-78.942c2.048.113 3.397 1.094 3.568 3.146.17 2.047-.952 3.331-2.974 3.644-1.925.298-3.651-1.225-3.692-3.196-.042-2.105 1.193-3.158 3.098-3.594zm19.029 14.585c.066 2.141-.969 3.396-2.95 3.763-1.868.346-3.711-1.208-3.754-3.139-.046-2.05 1.028-3.409 3.063-3.565 2.007-.155 3.258.983 3.641 2.941zm-78.082 28.472c.009-1.758.92-3.159 3.012-3.387 2.075-.227 3.44.851 3.673 2.928.232 2.082-.897 3.365-2.937 3.707-1.817.305-3.511-1.105-3.748-3.248zm-8.641-11.858c-.12 2.017-1.073 3.401-3.175 3.536-2.09.134-3.391-1.044-3.542-3.109-.152-2.084 1.005-3.391 3.089-3.539 2.101-.149 3.244 1.07 3.628 3.112zm74.583 55.67c2 .043 3.4.888 3.669 2.979.267 2.083-.818 3.363-2.798 3.779-1.876.394-3.749-1.101-3.854-3.036-.111-2.071 1.017-3.242 2.983-3.722zm-36.962-81.747c2.194.163 3.572 1.165 3.659 3.245.086 2.048-1.064 3.379-3.168 3.48-2.094.1-3.354-1.061-3.479-3.147-.127-2.131 1.194-3.163 2.988-3.578zm-7.072 76.331c1.981.105 3.396.953 3.597 3.063.198 2.071-.834 3.347-2.895 3.649-2.006.294-3.739-1.093-3.784-3.069-.045-2.056 1.133-3.203 3.082-3.643zm-63.01-47.308c2.054.1 3.473.966 3.667 3.093.19 2.1-.877 3.387-2.979 3.614-2.152.233-3.405-.974-3.647-2.973-.256-2.099 1.047-3.231 2.959-3.734zm117.889 13.489c-1.736-.037-3.032-.989-3.265-3.098-.202-1.834 1.262-3.63 3.043-3.651 2.053-.024 3.356 1.083 3.66 3.106.269 1.785-1.254 3.454-3.438 3.643zm-49.624-71.751c1.692 0 3.045.836 3.335 2.945.277 2.018-1.07 3.699-3.075 3.775-2.083.079-3.3-1.082-3.615-3.055-.281-1.761 1.216-3.442 3.355-3.665zm66.281 50.4c.159 1.879-1.201 3.521-3.038 3.668-1.796.144-3.542-1.325-3.692-3.103-.148-1.776 1.327-3.514 3.122-3.678 1.823-.166 3.45 1.236 3.608 3.113zm-120.903-9.816c1.772-.013 3.037 1.068 3.389 3.055.316 1.788-1.185 3.542-3.053 3.648-2.077.119-3.377-.886-3.631-3.002-.232-1.942 1.056-3.488 3.295-3.701zm62.953 54.093c-1.745-.124-3.154-1.009-3.316-3.144-.162-2.12 1.019-3.432 3.048-3.618 2.081-.19 3.326 1.09 3.65 3.085.281 1.727-1.333 3.512-3.382 3.677zm-25.312 2.467c.153 1.835-1.25 3.446-3.13 3.593-1.875.147-3.523-1.233-3.654-3.059-.129-1.796 1.349-3.536 3.124-3.677 1.775-.14 3.51 1.351 3.66 3.143zm56.704-11.651c.04 2.332-.884 3.68-2.994 3.904-2.104.223-3.447-.873-3.672-2.934-.226-2.069.885-3.415 2.966-3.657 2.116-.245 3.238.976 3.7 2.687zm-27.615-70.232c-.027-2.018.861-3.396 2.975-3.63 2.122-.235 3.408.898 3.637 2.952.231 2.064-.826 3.463-2.915 3.672-2.054.205-3.33-.873-3.697-2.994zm-9.93 47.856c.12-2.068 1.155-3.301 3.247-3.464 1.861-.146 3.577 1.352 3.523 3.163-.061 2.023-1.13 3.372-3.239 3.464-2.103.092-3.219-1.129-3.531-3.163zm-39.402 18.289c2.037.116 3.353 1.116 3.448 3.228.095 2.092-1.033 3.36-3.137 3.484-2.144.126-3.34-1.112-3.474-3.154-.136-2.107 1.104-3.235 3.163-3.558zm10.317-45.918c2.044-.059 3.441.846 3.651 2.944.206 2.042-.779 3.384-2.93 3.621-2.136.235-3.444-.815-3.677-2.868s.864-3.319 2.956-3.697zm-5.104-25.743c.019-2.186 1.113-3.46 3.177-3.564 2.079-.104 3.359 1.09 3.468 3.18.109 2.104-1.055 3.349-3.15 3.466-2.132.119-3.225-1.106-3.495-3.082zm18.309 7.982c2.06-.124 3.801 1.326 3.782 3.14-.02 2.008-.966 3.425-3.136 3.533-2.112.106-3.342-1.008-3.505-3.111-.166-2.163 1.095-3.209 2.859-3.562zm-24.887 9.218c-.086 2.025-.914 3.376-3.099 3.551-2.157.173-3.403-.931-3.596-2.97-.194-2.069.935-3.386 3.025-3.57 2.096-.184 3.273.962 3.67 2.989zM415.904 165.8c.163-2.051 1.115-3.378 3.248-3.484 2.13-.107 3.412 1.111 3.52 3.121.108 2.014-1.006 3.33-3.178 3.439-2.168.11-3.205-1.105-3.59-3.076zm67.551 18.15c-.019 1.648-1.069 2.892-3.169 2.998-2.135.108-3.271-1.104-3.436-3.182-.149-1.888 1.311-3.585 3.141-3.513 1.988.079 3.343 1.039 3.464 3.697zm-17.506-41.091c-.053 1.828-1.059 3.172-3.151 3.281-2.078.108-3.313-1.077-3.507-3.159-.175-1.875 1.29-3.5 3.124-3.599 1.818-.099 3.411 1.364 3.534 3.477zm-52.047-6.251c-.005-2.261 1.122-3.521 3.158-3.619 2.041-.097 3.355 1.041 3.432 3.178.076 2.093-1.002 3.357-3.121 3.471-2.148.115-3.188-1.137-3.469-3.03zm44.678-26.47c1.805-.006 3.122.933 3.262 3.07.14 2.11-.948 3.317-3.064 3.514-2.203.205-3.397-1.07-3.556-3.035-.161-1.999.921-3.34 3.358-3.549zm-49.625-31.18c.066-2.142 1.132-3.376 3.216-3.495 2.128-.121 3.396 1.138 3.499 3.137.104 2.015-1.039 3.328-3.189 3.436-2.166.11-3.205-1.105-3.526-3.078zm78.298 58.88c.137-2.054 1.127-3.334 3.222-3.535 1.854-.177 3.572 1.286 3.567 3.115-.008 2.042-1.055 3.39-3.17 3.514-2.107.122-3.229-1.1-3.619-3.094zm-1.968-29.049c-.162-2.363 1.035-3.634 3.008-3.784 1.968-.149 3.389.912 3.54 3.083.148 2.132-.938 3.378-3.017 3.56-2.122.186-3.266-.981-3.531-2.859zm-82.035 41.995c2.446-.244 3.64.908 4.028 2.867.358 1.813-1.059 3.446-2.98 3.637-2.118.209-3.449-.77-3.689-2.86-.239-2.085.875-3.307 2.641-3.644zm114.964 10.419c-.088-2.321.95-3.592 3.033-3.749 2.07-.155 3.349.902 3.524 3.04.176 2.16-.987 3.352-3.021 3.554-2.121.212-3.243-.995-3.536-2.845zm-17.591-40.912c-.027-2.302 1.126-3.61 3.122-3.736 1.997-.126 3.403 1.026 3.508 3.144.103 2.066-.996 3.381-3.1 3.528-2.136.148-3.208-1.111-3.53-2.936zm-49.521 66.135c2.24.07 3.506 1.078 3.615 3.193.11 2.123-1.036 3.36-3.117 3.463-2.08.103-3.296-1.005-3.438-3.139-.147-2.202 1.153-3.146 2.94-3.517zm83.341-40.035c-1.558-.081-2.823-1.083-3.017-3.178-.168-1.824 1.354-3.599 3.156-3.543 1.685.053 3.338.625 3.176 2.711-.135 1.754-.102 3.928-3.315 4.01zm-101.75 31.991c.074-2.072 1.066-3.363 3.182-3.45 2.093-.087 3.288 1.013 3.415 3.142.129 2.186-1.075 3.305-3.11 3.44-2.121.142-3.22-1.083-3.487-3.132zM403.02 95.561c-.057 1.835-1.108 3.32-3.146 3.193-1.126-.07-2.591-1.084-3.156-2.092-.634-1.128 1.948-4.547 3.073-4.553 1.674-.01 3.114 1.43 3.229 3.452zm53.175-42.905c.298.364 1.203 1 1.404 1.811.463 1.878-1.113 3.698-3.081 3.771-1.967.074-3.16-1.004-3.546-2.856-.365-1.747.516-2.241 5.223-2.726zm61.992 21.799c-1.75 2.165-3.544 2.492-5.257.945-1.714-1.548-1.557-3.39.387-5.424l4.87 4.479zm-22.605-15.749l5.935 2.973c-1.348 2.094-3.021 2.452-4.734 1.519-1.604-.873-2.277-2.368-1.201-4.492zm-25.428 142.356l-6.515.517c-.145-2.119.859-3.205 2.607-3.488 2.016-.327 3.379.556 3.908 2.971zm21.7-5.65c.741-1.073 1.268-2.654 2.28-3.083 1.146-.483 2.729.067 4.123.169.024.362.05.725.073 1.087l-5.571 2.535c-.3-.236-.602-.472-.905-.708z" fill="#D8D8D8"/><g opacity=".9" fill="#FFF"><circle cx="160.124" cy="406.612" r="2.712"/><circle cx="152.461" cy="390.47" r="2.712"/><circle cx="144.798" cy="374.329" r="2.711"/><circle cx="137.135" cy="358.188" r="2.712"/><circle cx="129.472" cy="342.045" r="2.712"/><circle cx="174.166" cy="399.946" r="2.712"/><circle cx="166.503" cy="383.805" r="2.711"/><circle cx="158.84" cy="367.664" r="2.712"/><circle cx="151.177" cy="351.521" r="2.712"/><circle cx="143.514" cy="335.379" r="2.712"/><circle cx="188.208" cy="393.279" r="2.712"/><circle cx="180.545" cy="377.138" r="2.711"/><circle cx="172.882" cy="360.997" r="2.712"/><circle cx="165.219" cy="344.855" r="2.712"/><circle cx="157.556" cy="328.713" r="2.712"/><circle cx="202.25" cy="386.613" r="2.711"/><circle cx="194.586" cy="370.472" r="2.712"/><circle cx="186.924" cy="354.331" r="2.712"/><circle cx="179.26" cy="338.188" r="2.712"/><circle cx="171.597" cy="322.047" r="2.711"/><circle cx="216.292" cy="379.948" r="2.712"/><circle cx="208.628" cy="363.806" r="2.712"/><circle cx="200.965" cy="347.664" r="2.712"/><circle cx="193.302" cy="331.522" r="2.711"/><circle cx="185.639" cy="315.381" r="2.712"/></g><image overflow="visible" opacity=".3" width="356" height="356" xlink:href="55F6423A.png" transform="matrix(.24 0 0 .24 -11.302 329.944)"/><circle fill="#6730E3" cx="42.937" cy="384.184" r="22.264"/><image overflow="visible" opacity=".3" width="435" height="569" xlink:href="55F6423B.png" transform="matrix(.24 0 0 .24 130.975 67.59)"/><path opacity=".96" fill="#BF00DC" d="M210.844 167.103l-50.87-20.549 1.229-27.26s13.78 13.131 26.821 25.629c11.919 11.424 23.221 22.319 22.82 22.18zm8.041-1.67l-18.048-51.81 21.318-17.033s-2.936 69.665-3.27 68.843zm-4.079 18.578l-29.497 7.077-8.197-12.667c0 .001 38.165 5.451 37.694 5.59z"/></svg>