<svg xmlns="http://www.w3.org/2000/svg" xmlns:xlink="http://www.w3.org/1999/xlink" width="2905.798" height="1457.18" viewBox="24.099 0 2905.798 1457.18"><defs><path id="a" d="M-281.077-21h3359.01v1478.181h-3359.01z"/></defs><clipPath id="b"><use xlink:href="#a" overflow="visible"/></clipPath><path clip-path="url(#b)" fill="#EDEDED" d="M2929.896 1855.839V-12.563H37.354v1868.402"/><path clip-path="url(#b)" fill="#050B45" d="M1801.796-12.563c-154.431 216.317-250.945 523.725-250.945 864.82 0 341.114 96.515 648.522 250.945 864.839H24.099V-12.563h1777.697z"/><path clip-path="url(#b)" fill="#FFF" d="M1779.968-2.422h35.084c-154.429 216.118-250.944 523.243-250.944 864.022 0 340.801 96.516 647.926 250.944 864.043h-35.084c-154.432-216.117-250.945-576.574-250.945-864.043-.001-351.446 96.513-647.904 250.945-864.022z"/><g clip-path="url(#b)"><path fill="#FFF" d="M1072.138 1424.364c-11.218 0-16.633 7.42-20.987 13.387-4.313 5.907-6.648 8.489-10.955 8.489-4.296 0-6.641-2.582-10.947-8.489-4.355-5.967-9.77-13.387-20.99-13.387-11.206 0-16.624 7.435-20.976 13.387-4.306 5.907-6.643 8.489-10.94 8.489s-6.634-2.582-10.939-8.489c-4.354-5.967-9.771-13.387-20.978-13.387-11.216 0-16.625 7.435-20.979 13.387-4.305 5.907-6.643 8.489-10.939 8.489-4.298 0-6.626-2.582-10.932-8.489-4.344-5.952-9.761-13.387-20.969-13.387-11.209 0-16.625 7.435-20.971 13.387-4.304 5.907-6.641 8.489-10.937 8.489-3.33 0-6.023 2.45-6.023 5.478 0 3.014 2.693 5.463 6.023 5.463 11.214 0 16.621-7.422 20.967-13.389 4.307-5.893 6.643-8.489 10.94-8.489 4.288 0 6.626 2.597 10.932 8.489 4.346 5.967 9.761 13.389 20.969 13.389 11.215 0 16.625-7.422 20.979-13.389 4.305-5.893 6.641-8.489 10.939-8.489 4.296 0 6.633 2.597 10.939 8.489 4.354 5.967 9.77 13.389 20.978 13.389 11.217 0 16.634-7.422 20.979-13.389 4.306-5.893 6.643-8.489 10.937-8.489 4.307 0 6.645 2.597 10.958 8.505 4.345 5.951 9.771 13.373 20.979 13.373 11.215 0 16.631-7.422 20.987-13.373 4.313-5.908 6.648-8.505 10.954-8.505 3.327 0 6.021-2.449 6.021-5.463.001-3.028-2.693-5.476-6.019-5.476z"/></g><g clip-path="url(#b)"><path fill="#FFF" d="M436.165 471.063c-8.554 0-12.684 7.006-16.005 12.64-3.281 5.577-5.065 8.016-8.348 8.016s-5.065-2.438-8.347-8.016c-3.319-5.634-7.45-12.64-16.003-12.64s-12.678 7.021-16 12.64c-3.283 5.577-5.064 8.016-8.339 8.016-3.278 0-5.061-2.438-8.35-8.016-3.313-5.634-7.443-12.64-15.996-12.64-8.549 0-12.68 7.021-15.999 12.64-3.283 5.577-5.058 8.016-8.335 8.016-3.276 0-5.058-2.438-8.341-8.016-3.314-5.619-7.444-12.64-15.991-12.64s-12.67 7.021-15.991 12.64c-3.284 5.577-5.065 8.016-8.335 8.016-2.536 0-4.592 2.312-4.592 5.17 0 2.845 2.056 5.157 4.592 5.157 8.547 0 12.678-7.006 15.991-12.64 3.283-5.563 5.064-8.015 8.335-8.015 3.276 0 5.059 2.452 8.342 8.015 3.315 5.633 7.444 12.64 15.99 12.64 8.548 0 12.678-7.006 15.992-12.64 3.283-5.563 5.066-8.015 8.343-8.015 3.276 0 5.056 2.452 8.346 8.015 3.315 5.633 7.446 12.64 16 12.64 8.553 0 12.675-7.006 15.997-12.64 3.283-5.563 5.065-8.015 8.342-8.015 3.275 0 5.064 2.452 8.347 8.029 3.32 5.619 7.449 12.625 16.003 12.625s12.684-7.006 16.005-12.625c3.283-5.577 5.071-8.029 8.348-8.029 2.536 0 4.591-2.313 4.591-5.157-.001-2.844-2.056-5.171-4.592-5.171z"/></g><g clip-path="url(#b)"><path fill="#FFF" d="M1958.781 231.653c-6.39 0-9.473 5.233-11.953 9.44-2.451 4.166-3.782 5.987-6.236 5.987-2.449 0-3.781-1.821-6.232-5.987-2.48-4.208-5.565-9.44-11.953-9.44-6.387 0-9.467 5.244-11.949 9.44-2.45 4.166-3.781 5.987-6.229 5.987s-3.777-1.821-6.235-5.987c-2.476-4.208-5.559-9.44-11.948-9.44-6.383 0-9.468 5.244-11.948 9.44-2.451 4.166-3.775 5.987-6.225 5.987-2.447 0-3.777-1.821-6.23-5.987-2.476-4.196-5.559-9.44-11.942-9.44s-9.463 5.244-11.942 9.44c-2.453 4.166-3.783 5.987-6.226 5.987-1.895 0-3.43 1.727-3.43 3.861 0 2.125 1.535 3.852 3.43 3.852 6.383 0 9.466-5.232 11.942-9.44 2.453-4.155 3.783-5.986 6.226-5.986 2.446 0 3.777 1.832 6.229 5.986 2.476 4.208 5.561 9.44 11.943 9.44s9.468-5.232 11.943-9.44c2.452-4.155 3.783-5.986 6.229-5.986 2.448 0 3.778 1.832 6.234 5.986 2.478 4.208 5.562 9.44 11.949 9.44 6.389 0 9.468-5.232 11.947-9.44 2.454-4.155 3.783-5.986 6.23-5.986 2.446 0 3.783 1.832 6.233 5.997 2.481 4.197 5.564 9.429 11.952 9.429 6.39 0 9.475-5.232 11.955-9.429 2.45-4.166 3.787-5.997 6.234-5.997 1.893 0 3.429-1.727 3.429-3.852s-1.534-3.862-3.427-3.862z"/></g><g clip-path="url(#b)"><path fill="#FFF" d="M2314.979 1441.913c-5.711 0-8.461 3.453-10.682 6.222-2.191 2.749-3.378 3.957-5.567 3.957-2.187 0-3.374-1.208-5.57-3.957-2.214-2.769-4.969-6.222-10.677-6.222-5.705 0-8.456 3.453-10.672 6.229-2.189 2.742-3.38 3.95-5.565 3.95-2.185 0-3.375-1.208-5.568-3.957-2.21-2.769-4.966-6.222-10.673-6.222-5.702 0-8.453 3.453-10.672 6.229-2.186 2.742-3.375 3.95-5.561 3.95-2.188 0-3.377-1.208-5.563-3.95-2.21-2.775-4.971-6.229-10.672-6.229-5.703 0-8.453 3.453-10.665 6.229-2.193 2.742-3.382 3.95-5.563 3.95-1.692 0-3.064 1.14-3.064 2.541 0 1.409 1.372 2.548 3.064 2.548 5.705 0 8.457-3.459 10.667-6.228 2.191-2.749 3.38-3.95 5.562-3.95 2.187 0 3.375 1.201 5.564 3.95 2.212 2.769 4.968 6.228 10.67 6.228s8.456-3.459 10.672-6.228c2.186-2.749 3.374-3.95 5.561-3.95s3.374 1.201 5.568 3.95c2.212 2.769 4.973 6.228 10.673 6.228s8.463-3.459 10.675-6.229c2.188-2.748 3.378-3.949 5.563-3.949 2.19 0 3.379 1.201 5.575 3.949 2.21 2.776 4.969 6.229 10.672 6.229 5.705 0 8.461-3.452 10.677-6.229 2.189-2.748 3.379-3.949 5.572-3.949 1.688 0 3.06-1.14 3.06-2.549-.002-1.402-1.374-2.541-3.061-2.541z"/></g><g clip-path="url(#b)"><text transform="matrix(-.66447 -.74727 -.66447 .74727 795.726 1124.616)" fill="#050B45" font-family="'LeagueSpartan-Bold'" font-size="102.93">$</text></g><path clip-path="url(#b)" fill="#FFF" d="M309.052 1097.339v-80.312c0-6.42-2.963-12.135-7.924-15.3-4.967-3.165-10.855-3.086-15.751.212l-59.618 40.151c-4.764 3.209-7.607 8.858-7.607 15.098 0 6.241 2.844 11.878 7.607 15.087l59.618 40.162c4.896 3.299 10.784 3.377 15.745.212 4.967-3.164 7.93-8.89 7.93-15.31zm-80.449-49.902l59.617-40.15c3.163-2.136 6.966-2.192 10.172-.146 3.214 2.047 5.127 5.748 5.127 9.887v80.312c0 4.149-1.92 7.852-5.127 9.887-3.206 2.046-7.009 2.002-10.172-.135l-59.617-40.149c-3.073-2.081-4.914-5.727-4.914-9.753 0-4.038 1.841-7.684 4.914-9.753zm1130.146-665.514l59.615-40.149c3.162-2.136 6.968-2.193 10.172-.146 3.214 2.047 5.127 5.748 5.127 9.887v80.312c0 4.149-1.918 7.851-5.127 9.886-3.204 2.047-7.01 2.002-10.172-.134l-59.615-40.15c-3.074-2.081-4.915-5.727-4.915-9.752 0-4.039 1.841-7.685 4.915-9.754z"/><g clip-path="url(#b)"><path fill="#FFC400" d="M1437.648 1064.596h-60.379c-4.821 0-9.126 2.815-11.507 7.538a16.315 16.315 0 00.163 14.98l30.188 56.696c2.412 4.526 6.654 7.231 11.344 7.231 4.699 0 8.936-2.705 11.345-7.231l30.189-56.696a16.315 16.315 0 00.161-14.98c-2.379-4.722-6.677-7.538-11.504-7.538zm-37.525 76.51l-30.177-56.696a10.488 10.488 0 01-.109-9.668c1.539-3.055 4.318-4.878 7.433-4.878h60.379c3.119 0 5.897 1.823 7.432 4.878a10.515 10.515 0 01-.102 9.668l-30.188 56.696c-1.558 2.929-4.299 4.668-7.333 4.668-3.033 0-5.768-1.739-7.335-4.668z"/></g><g clip-path="url(#b)" fill="#FFF"><path d="M243.827 1531.017c0-4.751 3.433-8.604 7.663-8.604 4.229 0 7.655 3.853 7.655 8.604 0 4.764-3.426 8.618-7.655 8.618-4.23 0-7.663-3.854-7.663-8.618zm0-54.426c0-4.752 3.433-8.605 7.663-8.605 4.229 0 7.655 3.854 7.655 8.605 0 4.764-3.426 8.617-7.655 8.617-4.23 0-7.663-3.853-7.663-8.617zm0-54.427c0-4.749 3.433-8.604 7.663-8.604 4.229 0 7.655 3.854 7.655 8.604 0 4.766-3.426 8.619-7.655 8.619-4.23 0-7.663-3.854-7.663-8.619zm0-54.426c0-4.75 3.433-8.604 7.663-8.604 4.229 0 7.655 3.854 7.655 8.604 0 4.765-3.426 8.618-7.655 8.618-4.23 0-7.663-3.854-7.663-8.618zm0-54.426c0-4.752 3.433-8.604 7.663-8.604 4.229 0 7.655 3.852 7.655 8.604 0 4.765-3.426 8.617-7.655 8.617-4.23 0-7.663-3.852-7.663-8.617zm-48.391 217.705c0-4.751 3.432-8.604 7.662-8.604 4.229 0 7.656 3.853 7.656 8.604 0 4.764-3.427 8.618-7.656 8.618-4.23 0-7.662-3.854-7.662-8.618zm0-54.426c0-4.752 3.432-8.605 7.662-8.605 4.229 0 7.656 3.854 7.656 8.605 0 4.764-3.427 8.617-7.656 8.617-4.23 0-7.662-3.853-7.662-8.617zm0-54.427c0-4.749 3.432-8.604 7.662-8.604 4.229 0 7.656 3.854 7.656 8.604 0 4.766-3.427 8.619-7.656 8.619-4.23 0-7.662-3.854-7.662-8.619zm0-54.426c0-4.75 3.432-8.604 7.662-8.604 4.229 0 7.656 3.854 7.656 8.604 0 4.765-3.427 8.618-7.656 8.618-4.23 0-7.662-3.854-7.662-8.618zm0-54.426c0-4.752 3.432-8.604 7.662-8.604 4.229 0 7.656 3.852 7.656 8.604 0 4.765-3.427 8.617-7.656 8.617-4.23 0-7.662-3.852-7.662-8.617zm-48.393 217.705c0-4.751 3.434-8.604 7.664-8.604 4.23 0 7.656 3.853 7.656 8.604 0 4.764-3.426 8.618-7.656 8.618-4.229 0-7.664-3.854-7.664-8.618zm0-54.426c0-4.752 3.434-8.605 7.664-8.605 4.23 0 7.656 3.854 7.656 8.605 0 4.764-3.426 8.617-7.656 8.617-4.229 0-7.664-3.853-7.664-8.617zm0-54.427c0-4.749 3.434-8.604 7.664-8.604 4.23 0 7.656 3.854 7.656 8.604 0 4.766-3.426 8.619-7.656 8.619-4.229 0-7.664-3.854-7.664-8.619zm0-54.426c0-4.75 3.434-8.604 7.664-8.604 4.23 0 7.656 3.854 7.656 8.604 0 4.765-3.426 8.618-7.656 8.618-4.229 0-7.664-3.854-7.664-8.618zm0-54.426c0-4.752 3.434-8.604 7.664-8.604 4.23 0 7.656 3.852 7.656 8.604 0 4.765-3.426 8.617-7.656 8.617-4.229 0-7.664-3.852-7.664-8.617zm-48.391 217.705c0-4.751 3.432-8.604 7.663-8.604 4.23 0 7.656 3.853 7.656 8.604 0 4.764-3.426 8.618-7.656 8.618-4.231 0-7.663-3.854-7.663-8.618zm0-54.426c0-4.752 3.432-8.605 7.663-8.605 4.23 0 7.656 3.854 7.656 8.605 0 4.764-3.426 8.617-7.656 8.617-4.231 0-7.663-3.853-7.663-8.617zm0-54.427c0-4.749 3.432-8.604 7.663-8.604 4.23 0 7.656 3.854 7.656 8.604 0 4.766-3.426 8.619-7.656 8.619-4.231 0-7.663-3.854-7.663-8.619zm0-54.426c0-4.75 3.432-8.604 7.663-8.604 4.23 0 7.656 3.854 7.656 8.604 0 4.765-3.426 8.618-7.656 8.618-4.231 0-7.663-3.854-7.663-8.618zm0-54.426c0-4.752 3.432-8.604 7.663-8.604 4.23 0 7.656 3.852 7.656 8.604 0 4.765-3.426 8.617-7.656 8.617-4.231 0-7.663-3.852-7.663-8.617zm145.175 544.263c0-4.751 3.433-8.617 7.663-8.617 4.229 0 7.655 3.866 7.655 8.617 0 4.765-3.426 8.618-7.655 8.618-4.23 0-7.663-3.854-7.663-8.618zm0-54.426c0-4.751 3.433-8.618 7.663-8.618 4.229 0 7.655 3.867 7.655 8.618 0 4.764-3.426 8.617-7.655 8.617-4.23 0-7.663-3.853-7.663-8.617zm0-54.427c0-4.75 3.433-8.617 7.663-8.617 4.229 0 7.655 3.867 7.655 8.617 0 4.765-3.426 8.618-7.655 8.618-4.23 0-7.663-3.853-7.663-8.618zm0-54.427c0-4.75 3.433-8.618 7.663-8.618 4.229 0 7.655 3.868 7.655 8.618 0 4.765-3.426 8.618-7.655 8.618-4.23.001-7.663-3.853-7.663-8.618zm0-54.425c0-4.75 3.433-8.618 7.663-8.618 4.229 0 7.655 3.868 7.655 8.618 0 4.765-3.426 8.617-7.655 8.617-4.23 0-7.663-3.853-7.663-8.617zm0-54.427c0-4.75 3.433-8.604 7.663-8.604 4.229 0 7.655 3.854 7.655 8.604 0 4.766-3.426 8.618-7.655 8.618-4.23 0-7.663-3.853-7.663-8.618zm-48.391 272.132c0-4.751 3.432-8.617 7.662-8.617 4.229 0 7.656 3.866 7.656 8.617 0 4.765-3.427 8.618-7.656 8.618-4.23 0-7.662-3.854-7.662-8.618zm0-54.426c0-4.751 3.432-8.618 7.662-8.618 4.229 0 7.656 3.867 7.656 8.618 0 4.764-3.427 8.617-7.656 8.617-4.23 0-7.662-3.853-7.662-8.617zm0-54.427c0-4.75 3.432-8.617 7.662-8.617 4.229 0 7.656 3.867 7.656 8.617 0 4.765-3.427 8.618-7.656 8.618-4.23 0-7.662-3.853-7.662-8.618zm0-54.427c0-4.75 3.432-8.618 7.662-8.618 4.229 0 7.656 3.868 7.656 8.618 0 4.765-3.427 8.618-7.656 8.618-4.23.001-7.662-3.853-7.662-8.618zm0-54.425c0-4.75 3.432-8.618 7.662-8.618 4.229 0 7.656 3.868 7.656 8.618 0 4.765-3.427 8.617-7.656 8.617-4.23 0-7.662-3.853-7.662-8.617zm0-54.427c0-4.75 3.432-8.604 7.662-8.604 4.229 0 7.656 3.854 7.656 8.604 0 4.766-3.427 8.618-7.656 8.618-4.23 0-7.662-3.853-7.662-8.618zm-48.393 272.132c0-4.751 3.434-8.617 7.664-8.617 4.23 0 7.656 3.866 7.656 8.617 0 4.765-3.426 8.618-7.656 8.618-4.229 0-7.664-3.854-7.664-8.618zm0-54.426c0-4.751 3.434-8.618 7.664-8.618 4.23 0 7.656 3.867 7.656 8.618 0 4.764-3.426 8.617-7.656 8.617-4.229 0-7.664-3.853-7.664-8.617zm0-54.427c0-4.75 3.434-8.617 7.664-8.617 4.23 0 7.656 3.867 7.656 8.617 0 4.765-3.426 8.618-7.656 8.618-4.229 0-7.664-3.853-7.664-8.618zm0-54.427c0-4.75 3.434-8.618 7.664-8.618 4.23 0 7.656 3.868 7.656 8.618 0 4.765-3.426 8.618-7.656 8.618-4.229.001-7.664-3.853-7.664-8.618zm0-54.425c0-4.75 3.434-8.618 7.664-8.618 4.23 0 7.656 3.868 7.656 8.618 0 4.765-3.426 8.617-7.656 8.617-4.229 0-7.664-3.853-7.664-8.617zm0-54.427c0-4.75 3.434-8.604 7.664-8.604 4.23 0 7.656 3.854 7.656 8.604 0 4.766-3.426 8.618-7.656 8.618-4.229 0-7.664-3.853-7.664-8.618zm-33.071 272.132c0 4.765-3.426 8.618-7.656 8.618-4.231 0-7.663-3.854-7.663-8.618 0-4.751 3.432-8.617 7.663-8.617 4.23 0 7.656 3.866 7.656 8.617zm-15.32-54.426c0-4.751 3.432-8.618 7.663-8.618 4.23 0 7.656 3.867 7.656 8.618 0 4.764-3.426 8.617-7.656 8.617-4.231 0-7.663-3.853-7.663-8.617zm0-54.427c0-4.75 3.432-8.617 7.663-8.617 4.23 0 7.656 3.867 7.656 8.617 0 4.765-3.426 8.618-7.656 8.618-4.231 0-7.663-3.853-7.663-8.618zm0-54.427c0-4.75 3.432-8.618 7.663-8.618 4.23 0 7.656 3.868 7.656 8.618 0 4.765-3.426 8.618-7.656 8.618-4.231.001-7.663-3.853-7.663-8.618zm0-54.425c0-4.75 3.432-8.618 7.663-8.618 4.23 0 7.656 3.868 7.656 8.618 0 4.765-3.426 8.617-7.656 8.617-4.231 0-7.663-3.853-7.663-8.617zm0-54.427c0-4.75 3.432-8.604 7.663-8.604 4.23 0 7.656 3.854 7.656 8.604 0 4.766-3.426 8.618-7.656 8.618-4.231 0-7.663-3.853-7.663-8.618z"/></g><g clip-path="url(#b)" fill="#FFF"><path d="M246.197-63.712c0-4.751 3.431-8.618 7.661-8.618 4.229 0 7.664 3.867 7.664 8.618 0 4.764-3.434 8.618-7.664 8.618-4.23 0-7.661-3.854-7.661-8.618zm0-54.426c0-4.75 3.431-8.618 7.661-8.618 4.229 0 7.664 3.868 7.664 8.618 0 4.764-3.434 8.617-7.664 8.617-4.23 0-7.661-3.853-7.661-8.617zm0-54.427c0-4.75 3.431-8.618 7.661-8.618 4.229 0 7.664 3.868 7.664 8.618 0 4.765-3.434 8.618-7.664 8.618-4.23 0-7.661-3.853-7.661-8.618zm0-54.426c0-4.75 3.431-8.618 7.661-8.618 4.229 0 7.664 3.867 7.664 8.618 0 4.764-3.434 8.618-7.664 8.618-4.23 0-7.661-3.854-7.661-8.618zm0-54.426c0-4.75 3.431-8.618 7.661-8.618 4.229 0 7.664 3.868 7.664 8.618 0 4.764-3.434 8.617-7.664 8.617-4.23 0-7.661-3.853-7.661-8.617zM197.812-63.712c0-4.751 3.433-8.618 7.656-8.618 4.231 0 7.662 3.867 7.662 8.618 0 4.764-3.431 8.618-7.662 8.618-4.224 0-7.656-3.854-7.656-8.618zm0-54.426c0-4.75 3.433-8.618 7.656-8.618 4.231 0 7.662 3.868 7.662 8.618 0 4.764-3.431 8.617-7.662 8.617-4.224 0-7.656-3.853-7.656-8.617zm0-54.427c0-4.75 3.433-8.618 7.656-8.618 4.231 0 7.662 3.868 7.662 8.618 0 4.765-3.431 8.618-7.662 8.618-4.224 0-7.656-3.853-7.656-8.618zm0-54.426c0-4.75 3.433-8.618 7.656-8.618 4.231 0 7.662 3.867 7.662 8.618 0 4.764-3.431 8.618-7.662 8.618-4.224 0-7.656-3.854-7.656-8.618zm0-54.426c0-4.75 3.433-8.618 7.656-8.618 4.231 0 7.662 3.868 7.662 8.618 0 4.764-3.431 8.617-7.662 8.617-4.224 0-7.656-3.853-7.656-8.617zM149.419-63.712c0-4.751 3.433-8.618 7.658-8.618 4.228 0 7.661 3.867 7.661 8.618 0 4.764-3.433 8.618-7.661 8.618-4.224 0-7.658-3.854-7.658-8.618zm0-54.426c0-4.75 3.433-8.618 7.658-8.618 4.228 0 7.661 3.868 7.661 8.618 0 4.764-3.433 8.617-7.661 8.617-4.224 0-7.658-3.853-7.658-8.617zm0-54.427c0-4.75 3.433-8.618 7.658-8.618 4.228 0 7.661 3.868 7.661 8.618 0 4.765-3.433 8.618-7.661 8.618-4.224 0-7.658-3.853-7.658-8.618zm0-54.426c0-4.75 3.433-8.618 7.658-8.618 4.228 0 7.661 3.867 7.661 8.618 0 4.764-3.433 8.618-7.661 8.618-4.224 0-7.658-3.854-7.658-8.618zm0-54.426c0-4.75 3.433-8.618 7.658-8.618 4.228 0 7.661 3.868 7.661 8.618 0 4.764-3.433 8.617-7.661 8.617-4.224 0-7.658-3.853-7.658-8.617zM101.028-63.712c0-4.751 3.433-8.618 7.658-8.618 4.235 0 7.661 3.867 7.661 8.618 0 4.764-3.426 8.618-7.661 8.618-4.225 0-7.658-3.854-7.658-8.618zm0-54.426c0-4.75 3.433-8.618 7.658-8.618 4.235 0 7.661 3.868 7.661 8.618 0 4.764-3.426 8.617-7.661 8.617-4.225 0-7.658-3.853-7.658-8.617zm0-54.427c0-4.75 3.433-8.618 7.658-8.618 4.235 0 7.661 3.868 7.661 8.618 0 4.765-3.426 8.618-7.661 8.618-4.225 0-7.658-3.853-7.658-8.618zm0-54.426c0-4.75 3.433-8.618 7.658-8.618 4.235 0 7.661 3.867 7.661 8.618 0 4.764-3.426 8.618-7.661 8.618-4.225 0-7.658-3.854-7.658-8.618zm0-54.426c0-4.75 3.433-8.618 7.658-8.618 4.235 0 7.661 3.868 7.661 8.618 0 4.764-3.426 8.617-7.661 8.617-4.225 0-7.658-3.853-7.658-8.617zm145.169 544.263c0-4.765 3.431-8.618 7.661-8.618 4.229 0 7.664 3.854 7.664 8.618 0 4.75-3.434 8.618-7.664 8.618-4.23 0-7.661-3.868-7.661-8.618zm0-54.427c0-4.764 3.431-8.618 7.661-8.618 4.229 0 7.664 3.854 7.664 8.618 0 4.75-3.434 8.618-7.664 8.618-4.23 0-7.661-3.868-7.661-8.618zm0-54.426c0-4.764 3.431-8.618 7.661-8.618 4.229 0 7.664 3.854 7.664 8.618 0 4.75-3.434 8.618-7.664 8.618-4.23 0-7.661-3.868-7.661-8.618zm0-54.427c0-4.764 3.431-8.618 7.661-8.618 4.229 0 7.664 3.854 7.664 8.618 0 4.751-3.434 8.619-7.664 8.619-4.23 0-7.661-3.868-7.661-8.619zm0-54.425c0-4.75 3.431-8.618 7.661-8.618 4.229 0 7.664 3.868 7.664 8.618 0 4.764-3.434 8.618-7.664 8.618-4.23-.001-7.661-3.854-7.661-8.618zm0-54.427c0-4.75 3.431-8.618 7.661-8.618 4.229 0 7.664 3.868 7.664 8.618 0 4.764-3.434 8.618-7.664 8.618-4.23 0-7.661-3.853-7.661-8.618zm-48.385 272.132c0-4.765 3.433-8.618 7.656-8.618 4.231 0 7.662 3.854 7.662 8.618 0 4.75-3.431 8.618-7.662 8.618-4.224 0-7.656-3.868-7.656-8.618zm0-54.427c0-4.764 3.433-8.618 7.656-8.618 4.231 0 7.662 3.854 7.662 8.618 0 4.75-3.431 8.618-7.662 8.618-4.224 0-7.656-3.868-7.656-8.618zm0-54.426c0-4.764 3.433-8.618 7.656-8.618 4.231 0 7.662 3.854 7.662 8.618 0 4.75-3.431 8.618-7.662 8.618-4.224 0-7.656-3.868-7.656-8.618zm0-54.427c0-4.764 3.433-8.618 7.656-8.618 4.231 0 7.662 3.854 7.662 8.618 0 4.751-3.431 8.619-7.662 8.619-4.224 0-7.656-3.868-7.656-8.619zm0-54.425c0-4.75 3.433-8.618 7.656-8.618 4.231 0 7.662 3.868 7.662 8.618 0 4.764-3.431 8.618-7.662 8.618-4.224-.001-7.656-3.854-7.656-8.618zm0-54.427c0-4.75 3.433-8.618 7.656-8.618 4.231 0 7.662 3.868 7.662 8.618 0 4.764-3.431 8.618-7.662 8.618-4.224 0-7.656-3.853-7.656-8.618zm-48.393 272.132c0-4.765 3.433-8.618 7.658-8.618 4.228 0 7.661 3.854 7.661 8.618 0 4.75-3.433 8.618-7.661 8.618-4.224 0-7.658-3.868-7.658-8.618zm0-54.427c0-4.764 3.433-8.618 7.658-8.618 4.228 0 7.661 3.854 7.661 8.618 0 4.75-3.433 8.618-7.661 8.618-4.224 0-7.658-3.868-7.658-8.618zm0-54.426c0-4.764 3.433-8.618 7.658-8.618 4.228 0 7.661 3.854 7.661 8.618 0 4.75-3.433 8.618-7.661 8.618-4.224 0-7.658-3.868-7.658-8.618zm0-54.427c0-4.764 3.433-8.618 7.658-8.618 4.228 0 7.661 3.854 7.661 8.618 0 4.751-3.433 8.619-7.661 8.619-4.224 0-7.658-3.868-7.658-8.619zm0-54.425c0-4.75 3.433-8.618 7.658-8.618 4.228 0 7.661 3.868 7.661 8.618 0 4.764-3.433 8.618-7.661 8.618-4.224-.001-7.658-3.854-7.658-8.618zm0-54.427c0-4.75 3.433-8.618 7.658-8.618 4.228 0 7.661 3.868 7.661 8.618 0 4.764-3.433 8.618-7.661 8.618-4.224 0-7.658-3.853-7.658-8.618zm-33.072 272.132c0 4.75-3.426 8.618-7.661 8.618-4.225 0-7.658-3.868-7.658-8.618 0-4.765 3.433-8.618 7.658-8.618 4.235 0 7.661 3.853 7.661 8.618zm-15.319-54.427c0-4.764 3.433-8.618 7.658-8.618 4.235 0 7.661 3.854 7.661 8.618 0 4.75-3.426 8.618-7.661 8.618-4.225 0-7.658-3.868-7.658-8.618zm0-54.426c0-4.764 3.433-8.618 7.658-8.618 4.235 0 7.661 3.854 7.661 8.618 0 4.75-3.426 8.618-7.661 8.618-4.225 0-7.658-3.868-7.658-8.618zm0-54.427c0-4.764 3.433-8.618 7.658-8.618 4.235 0 7.661 3.854 7.661 8.618 0 4.751-3.426 8.619-7.661 8.619-4.225 0-7.658-3.868-7.658-8.619zm0-54.425c0-4.75 3.433-8.618 7.658-8.618 4.235 0 7.661 3.868 7.661 8.618 0 4.764-3.426 8.618-7.661 8.618-4.225-.001-7.658-3.854-7.658-8.618zm0-54.427c0-4.75 3.433-8.618 7.658-8.618 4.235 0 7.661 3.868 7.661 8.618 0 4.764-3.426 8.618-7.661 8.618-4.225 0-7.658-3.853-7.658-8.618z"/></g><g clip-path="url(#b)" fill="#FFF"><path d="M2858.402 700.288c0-4.751 3.432-8.618 7.662-8.618 4.229 0 7.661 3.867 7.661 8.618 0 4.764-3.433 8.618-7.661 8.618-4.23 0-7.662-3.854-7.662-8.618zm0-54.426c0-4.75 3.432-8.618 7.662-8.618 4.229 0 7.661 3.868 7.661 8.618 0 4.764-3.433 8.617-7.661 8.617-4.23 0-7.662-3.853-7.662-8.617zm0-54.427c0-4.75 3.432-8.618 7.662-8.618 4.229 0 7.661 3.868 7.661 8.618 0 4.765-3.433 8.618-7.661 8.618-4.23 0-7.662-3.853-7.662-8.618zm0-54.426c0-4.75 3.432-8.618 7.662-8.618 4.229 0 7.661 3.867 7.661 8.618 0 4.764-3.433 8.618-7.661 8.618-4.23 0-7.662-3.854-7.662-8.618zm0-54.426c0-4.75 3.432-8.618 7.662-8.618 4.229 0 7.661 3.868 7.661 8.618 0 4.764-3.433 8.617-7.661 8.617-4.23 0-7.662-3.853-7.662-8.617zm-48.386 217.705c0-4.751 3.434-8.618 7.657-8.618 4.229 0 7.661 3.867 7.661 8.618 0 4.764-3.433 8.618-7.661 8.618-4.224 0-7.657-3.854-7.657-8.618zm0-54.426c0-4.75 3.434-8.618 7.657-8.618 4.229 0 7.661 3.868 7.661 8.618 0 4.764-3.433 8.617-7.661 8.617-4.224 0-7.657-3.853-7.657-8.617zm0-54.427c0-4.75 3.434-8.618 7.657-8.618 4.229 0 7.661 3.868 7.661 8.618 0 4.765-3.433 8.618-7.661 8.618-4.224 0-7.657-3.853-7.657-8.618zm0-54.426c0-4.75 3.434-8.618 7.657-8.618 4.229 0 7.661 3.867 7.661 8.618 0 4.764-3.433 8.618-7.661 8.618-4.224 0-7.657-3.854-7.657-8.618zm0-54.426c0-4.75 3.434-8.618 7.657-8.618 4.229 0 7.661 3.868 7.661 8.618 0 4.764-3.433 8.617-7.661 8.617-4.224 0-7.657-3.853-7.657-8.617zm-48.391 217.705c0-4.751 3.432-8.618 7.657-8.618 4.229 0 7.661 3.867 7.661 8.618 0 4.764-3.433 8.618-7.661 8.618-4.225 0-7.657-3.854-7.657-8.618zm0-54.426c0-4.75 3.432-8.618 7.657-8.618 4.229 0 7.661 3.868 7.661 8.618 0 4.764-3.433 8.617-7.661 8.617-4.225 0-7.657-3.853-7.657-8.617zm0-54.427c0-4.75 3.432-8.618 7.657-8.618 4.229 0 7.661 3.868 7.661 8.618 0 4.765-3.433 8.618-7.661 8.618-4.225 0-7.657-3.853-7.657-8.618zm0-54.426c0-4.75 3.432-8.618 7.657-8.618 4.229 0 7.661 3.867 7.661 8.618 0 4.764-3.433 8.618-7.661 8.618-4.225 0-7.657-3.854-7.657-8.618zm0-54.426c0-4.75 3.432-8.618 7.657-8.618 4.229 0 7.661 3.868 7.661 8.618 0 4.764-3.433 8.617-7.661 8.617-4.225 0-7.657-3.853-7.657-8.617zm-48.393 217.705c0-4.751 3.434-8.618 7.658-8.618 4.235 0 7.66 3.867 7.66 8.618 0 4.764-3.425 8.618-7.66 8.618-4.224 0-7.658-3.854-7.658-8.618zm0-54.426c0-4.75 3.434-8.618 7.658-8.618 4.235 0 7.66 3.868 7.66 8.618 0 4.764-3.425 8.617-7.66 8.617-4.224 0-7.658-3.853-7.658-8.617zm0-54.427c0-4.75 3.434-8.618 7.658-8.618 4.235 0 7.66 3.868 7.66 8.618 0 4.765-3.425 8.618-7.66 8.618-4.224 0-7.658-3.853-7.658-8.618zm0-54.426c0-4.75 3.434-8.618 7.658-8.618 4.235 0 7.66 3.867 7.66 8.618 0 4.764-3.425 8.618-7.66 8.618-4.224 0-7.658-3.854-7.658-8.618zm0-54.426c0-4.75 3.434-8.618 7.658-8.618 4.235 0 7.66 3.868 7.66 8.618 0 4.764-3.425 8.617-7.66 8.617-4.224 0-7.658-3.853-7.658-8.617zm145.17 544.262c0-4.764 3.432-8.617 7.662-8.617 4.229 0 7.661 3.854 7.661 8.617 0 4.751-3.433 8.619-7.661 8.619-4.23 0-7.662-3.868-7.662-8.619zm0-54.426c0-4.765 3.432-8.618 7.662-8.618 4.229 0 7.661 3.854 7.661 8.618 0 4.75-3.433 8.617-7.661 8.617-4.23.001-7.662-3.867-7.662-8.617zm0-54.425c0-4.765 3.432-8.619 7.662-8.619 4.229 0 7.661 3.854 7.661 8.619 0 4.75-3.433 8.617-7.661 8.617-4.23 0-7.662-3.867-7.662-8.617zm0-54.428c0-4.764 3.432-8.617 7.662-8.617 4.229 0 7.661 3.854 7.661 8.617 0 4.752-3.433 8.619-7.661 8.619-4.23 0-7.662-3.867-7.662-8.619zm0-54.425c0-4.75 3.432-8.618 7.662-8.618 4.229 0 7.661 3.868 7.661 8.618 0 4.764-3.433 8.618-7.661 8.618-4.23-.001-7.662-3.854-7.662-8.618zm0-54.427c0-4.75 3.432-8.618 7.662-8.618 4.229 0 7.661 3.868 7.661 8.618 0 4.764-3.433 8.618-7.661 8.618-4.23 0-7.662-3.853-7.662-8.618zm-48.386 272.131c0-4.764 3.434-8.617 7.657-8.617 4.229 0 7.661 3.854 7.661 8.617 0 4.751-3.433 8.619-7.661 8.619-4.224 0-7.657-3.868-7.657-8.619zm0-54.426c0-4.765 3.434-8.618 7.657-8.618 4.229 0 7.661 3.854 7.661 8.618 0 4.75-3.433 8.617-7.661 8.617-4.224.001-7.657-3.867-7.657-8.617zm0-54.425c0-4.765 3.434-8.619 7.657-8.619 4.229 0 7.661 3.854 7.661 8.619 0 4.75-3.433 8.617-7.661 8.617-4.224 0-7.657-3.867-7.657-8.617zm0-54.428c0-4.764 3.434-8.617 7.657-8.617 4.229 0 7.661 3.854 7.661 8.617 0 4.752-3.433 8.619-7.661 8.619-4.224 0-7.657-3.867-7.657-8.619zm0-54.425c0-4.75 3.434-8.618 7.657-8.618 4.229 0 7.661 3.868 7.661 8.618 0 4.764-3.433 8.618-7.661 8.618-4.224-.001-7.657-3.854-7.657-8.618zm0-54.427c0-4.75 3.434-8.618 7.657-8.618 4.229 0 7.661 3.868 7.661 8.618 0 4.764-3.433 8.618-7.661 8.618-4.224 0-7.657-3.853-7.657-8.618zm-48.391 272.131c0-4.764 3.432-8.617 7.657-8.617 4.229 0 7.661 3.854 7.661 8.617 0 4.751-3.433 8.619-7.661 8.619-4.225 0-7.657-3.868-7.657-8.619zm0-54.426c0-4.765 3.432-8.618 7.657-8.618 4.229 0 7.661 3.854 7.661 8.618 0 4.75-3.433 8.617-7.661 8.617-4.225.001-7.657-3.867-7.657-8.617zm0-54.425c0-4.765 3.432-8.619 7.657-8.619 4.229 0 7.661 3.854 7.661 8.619 0 4.75-3.433 8.617-7.661 8.617-4.225 0-7.657-3.867-7.657-8.617zm0-54.428c0-4.764 3.432-8.617 7.657-8.617 4.229 0 7.661 3.854 7.661 8.617 0 4.752-3.433 8.619-7.661 8.619-4.225 0-7.657-3.867-7.657-8.619zm0-54.425c0-4.75 3.432-8.618 7.657-8.618 4.229 0 7.661 3.868 7.661 8.618 0 4.764-3.433 8.618-7.661 8.618-4.225-.001-7.657-3.854-7.657-8.618zm0-54.427c0-4.75 3.432-8.618 7.657-8.618 4.229 0 7.661 3.868 7.661 8.618 0 4.764-3.433 8.618-7.661 8.618-4.225 0-7.657-3.853-7.657-8.618zm-33.074 272.131c0 4.751-3.425 8.619-7.66 8.619-4.225 0-7.658-3.868-7.658-8.619 0-4.764 3.434-8.617 7.658-8.617 4.235 0 7.66 3.854 7.66 8.617zm-15.319-54.426c0-4.765 3.434-8.618 7.658-8.618 4.235 0 7.66 3.854 7.66 8.618 0 4.75-3.425 8.617-7.66 8.617-4.224.001-7.658-3.867-7.658-8.617zm0-54.425c0-4.765 3.434-8.619 7.658-8.619 4.235 0 7.66 3.854 7.66 8.619 0 4.75-3.425 8.617-7.66 8.617-4.224 0-7.658-3.867-7.658-8.617zm0-54.428c0-4.764 3.434-8.617 7.658-8.617 4.235 0 7.66 3.854 7.66 8.617 0 4.752-3.425 8.619-7.66 8.619-4.224 0-7.658-3.867-7.658-8.619zm0-54.425c0-4.75 3.434-8.618 7.658-8.618 4.235 0 7.66 3.868 7.66 8.618 0 4.764-3.425 8.618-7.66 8.618-4.224-.001-7.658-3.854-7.658-8.618zm0-54.427c0-4.75 3.434-8.618 7.658-8.618 4.235 0 7.66 3.868 7.66 8.618 0 4.764-3.425 8.618-7.66 8.618-4.224 0-7.658-3.853-7.658-8.618z"/></g><path clip-path="url(#b)" fill="#FFC400" d="M124.088 516.914l-19.344-21.762c-2.465-2.774-2.465-7.258 0-10.033 2.468-2.775 6.462-2.775 8.929 0l19.346 21.748 19.344-21.748c2.461-2.775 6.46-2.775 8.927 0 2.461 2.774 2.461 7.272 0 10.047l-19.343 21.748 19.343 21.762c2.461 2.761 2.461 7.259 0 10.033-2.467 2.775-6.466 2.775-8.927 0L133.02 526.96l-19.346 21.749c-2.467 2.775-6.46 2.775-8.929 0-2.465-2.774-2.465-7.259 0-10.033l19.343-21.762z"/><path clip-path="url(#b)" fill="#FFF" d="M1509.909 1394.714l-10.463-11.347c-1.334-1.438-1.334-3.784 0-5.23 1.333-1.446 3.498-1.446 4.833 0l10.456 11.339 10.462-11.339c1.335-1.446 3.495-1.446 4.826 0 1.334 1.446 1.334 3.792 0 5.238l-10.46 11.339 10.46 11.347c1.334 1.439 1.334 3.784 0 5.231-1.331 1.446-3.491 1.446-4.826 0l-10.462-11.339-10.456 11.339c-1.335 1.446-3.5 1.446-4.833 0-1.334-1.447-1.334-3.785 0-5.231l10.463-11.347z"/></svg>