<svg xmlns="http://www.w3.org/2000/svg" width="951.555" height="726.567"><g opacity=".14"><linearGradient id="a" gradientUnits="userSpaceOnUse" x1="59.227" y1="1566.093" x2="1353.591" y2="271.728" gradientTransform="matrix(.512 0 0 .512 -53.904 -208.326)"><stop offset="0" stop-color="#181742"/><stop offset=".087" stop-color="#291254"/><stop offset=".181" stop-color="#330e60"/><stop offset=".275" stop-color="#370d64"/><stop offset=".527" stop-color="#7f2260"/><stop offset=".88" stop-color="#bf00dc"/></linearGradient><path fill="url(#a)" d="M532.213-103.805h-678.182v574.522c0 10.021 43.343-124.481 51.394-114.583C-6.817 463.54 25.656 613.512 163.198 680.206c112.449 54.57 257.103 33.287 375.457 7.424 94.467-20.662 187.859-55.186 265.152-110.25 77.291-55.063 140.627-137.598 144.521-231.021 3.488-83.524-44.688-155.294-106.816-212.585C778.309 75.616 702.899 30.823 631.645-18.178c-17.98-12.374-35.826-24.871-53.004-38.235-3.891-3.093-7.916-6.187-11.809-9.28-10.466-8.167-34.619-23.387-34.619-38.112z"/></g><linearGradient id="b" gradientUnits="userSpaceOnUse" x1="170.639" y1="824.532" x2="2568.363" y2="1548.146" gradientTransform="matrix(.512 0 0 .512 -53.904 -208.326)"><stop offset=".098" stop-color="#6730e3"/><stop offset=".424" stop-color="#9629e6"/><stop offset=".88" stop-color="#bf00dc"/></linearGradient><path fill="url(#b)" d="M636.075-2.215H-36.338v474.043c0 8.293 35.694 35.514 42.403 43.682 55.553 67.934 138.884 137.104 233.753 157.521 94.334 20.293 305.144-5.57 389.413-42.814 131.102-58.033 227.58-109.633 276.691-220.379C994.889 209.378 636.075 39.855 636.075-2.215z"/><path fill="#FFF" d="M-127.854-35.13l893.687-32.42S565.224 268.774 339.388 345.121c-59.043 19.922-125.734 34.895-185.984 17.323-51.394-14.973-66.959-78.203-90.173-116.315C39.208 206.656-103.834 4.096-127.854-35.13z" opacity=".08"/></svg>