<svg height="512" viewBox="0 0 64 64" width="512" xmlns="http://www.w3.org/2000/svg"><path d="M36 26v22a4 4 0 01-4 4H22a3.822 3.822 0 01-.68-.06A3.99 3.99 0 0118 48V26a4 4 0 014-4h10a4 4 0 014 4z" fill="#5aaae7"/><path d="M36 29.11V48a4 4 0 01-4 4H22a3.822 3.822 0 01-.68-.06z" fill="#3d9ae2"/><path d="M45 51v10h14V51zM19 9.01l.01-6L15 3v12h3l6 .01h2.99l.01-6zM14 9H3l-.01 5.99H6l6 .01h3V9z" fill="#ff9811"/><path d="M61 7v9a1 1 0 01-1 1H42a1 1 0 01-1-1V7a1 1 0 011-1h3l2-3h8l2 3h3a1 1 0 011 1z" fill="#acabb1"/><path d="M58 45l3 6H43l3-6z" fill="#ff5023"/><path d="M50 55h4v6h-4z" fill="#e6e7e8"/><circle cx="51" cy="10" fill="#e6e7e8" r="3"/><path d="M31.14 46.75a1.861 1.861 0 01-.07.52L29.8 52h-5.56a1.973 1.973 0 001.81-1.46l1.16-4.3a2 2 0 013.93.51z" fill="#1e81ce"/><path d="M27 9.01h-8l.01-6z" fill="#e6e7e8"/><path d="M21 12a3 3 0 103 3.01V15a3 3 0 00-3-3z" fill="#787680"/><path d="M15 3v6H3l.01-6.01z" fill="#d1d3d4"/><path d="M9 12a2.994 2.994 0 00-3 2.99V15a3 3 0 103-3z" fill="#787680"/><path d="M22.43 51.05L20 47V36h-2v12a3.99 3.99 0 003.32 3.94A3.822 3.822 0 0022 52h1.98a1.958 1.958 0 01-1.55-.95z" fill="#3d9ae2"/><path d="M27.66 42.82a2 2 0 00-2.45 1.42l-1.16 4.3a1.981 1.981 0 01-1.92 1.47h-.02a1.96 1.96 0 01-1.68-.96L18 45v-9a6 6 0 00-6 6v12l1 4v3h12v-2l2-3v-2.21a6.216 6.216 0 01.2-1.55l.06-.24 1.81-6.73a1.861 1.861 0 00.07-.52 2 2 0 00-1.48-1.93z" fill="#ffc477"/><path d="M45 51h14v2H45z" fill="#ee8700"/><path d="M26 25h6v2h-6zm-4 0h2v2h-2z" fill="#3d9ae2"/><g fill="#ff9811"><path d="M26 38h2v2h-2zm3.121-1.122a3.074 3.074 0 00-4.242 0l-1.414-1.414a5 5 0 017.07 0z"/><path d="M31.95 34.05a7.011 7.011 0 00-9.9 0l-1.414-1.414a9.01 9.01 0 0112.728 0zM44 29h-5v-2h4.586l6.707-6.707 1.414 1.414-7 7A1 1 0 0144 29zm6.293 12.707L43.586 35H39v-2h5a1 1 0 01.707.293l7 7zM15 32h-4a1 1 0 01-1-1V21h2v9h3z"/></g></svg>