<svg height="512" viewBox="0 0 64 64" width="512" xmlns="http://www.w3.org/2000/svg"><path d="M27 35h20v26H27z" fill="#93999a"/><path d="M41 56a6.947 6.947 0 01-4.4-1.562A2.019 2.019 0 0136.061 52 8.931 8.931 0 0037 47.977 3.047 3.047 0 0140.088 45H41a7.959 7.959 0 006-2.726V35H27v26h20v-5z" fill="#656b76"/><path d="M39 51h8v8h-8z" fill="#57b7eb"/><path d="M32.725 15.017A15 15 0 0017 30l-6 12h6v4a9 9 0 0018 0 3 3 0 013-3h1a8 8 0 008-8v-4.576a15.279 15.279 0 00-14.275-15.407z" fill="#d0d8da"/><circle cx="43" cy="16" fill="#57b7eb" r="13"/><g fill="#fcbc04"><path d="M38 10v4c0 1.105 2.239 2 5 2s5-.895 5-2v-4z"/><path d="M43 16c-2.761 0-5-.895-5-2v4c0 1.105 2.239 2 5 2s5-.895 5-2v-4c0 1.105-2.239 2-5 2z"/><path d="M43 20c-2.761 0-5-.895-5-2v4c0 1.105 2.239 2 5 2s5-.895 5-2v-4c0 1.105-2.239 2-5 2z"/></g><ellipse cx="43" cy="10" fill="#f9e109" rx="5" ry="2"/><path d="M43 14c-.4 0-.794-.02-1.168-.057a2.013 2.013 0 01-1.832-2v-.356c-1.208-.365-2-.939-2-1.591v4c0 1.105 2.239 2 5 2s5-.895 5-2V12c0 1.105-2.239 2-5 2z" fill="#e59730"/><path d="M43 18c-.4 0-.794-.02-1.168-.057a2.013 2.013 0 01-1.832-2v-.356c-1.208-.365-2-.939-2-1.591v4c0 1.105 2.239 2 5 2s5-.895 5-2V16c0 1.105-2.239 2-5 2z" fill="#e59730"/><path d="M43 22c-.4 0-.794-.02-1.168-.057a2.013 2.013 0 01-1.832-2v-.356c-1.208-.365-2-.939-2-1.591v4c0 1.105 2.239 2 5 2s5-.895 5-2V20c0 1.105-2.239 2-5 2z" fill="#e59730"/><path d="M39 55.685V59h8v-3h-6a6.921 6.921 0 01-2-.315z" fill="#4891d3"/><path d="M36 40a12 12 0 01-12-12V17.311A14.988 14.988 0 0017 30l-6 12h6v4a9 9 0 0018 0 3 3 0 013-3h1a7.984 7.984 0 006.24-3z" fill="#93999a"/><circle cx="25" cy="32" fill="#57b7eb" r="3"/><path d="M24.059 29.165a2.992 2.992 0 102.046 5.619 11.927 11.927 0 01-2.046-5.619z" fill="#4891d3"/><path d="M25 29a2.986 2.986 0 00-2.554 1.446A2.965 2.965 0 0124 30a3 3 0 013 3 2.965 2.965 0 01-.446 1.554A2.992 2.992 0 0025 29z" fill="#4891d3"/><path d="M11 42h6v-2z" fill="#656b76"/><path d="M17 45h4a1 1 0 010 2h-4z" fill="#57b7eb"/><path d="M54 37H40a1 1 0 010-2h14a1 1 0 010 2zm2-2a1 1 0 01-1-1V18a1 1 0 012 0v16a1 1 0 01-1 1zm-45.45-8.945a1 1 0 01-.973-.776l-2.1-9.109a1 1 0 111.949-.449l2.1 9.109a1 1 0 01-.75 1.2.968.968 0 01-.226.025zm-.936-12.228a1 1 0 01-.589-1.808L16.8 6.364a1 1 0 011.177 1.617L10.2 13.636a1 1 0 01-.586.191zm18.911 1.832a1 1 0 01-.672-.26L19.8 8.081A1 1 0 0121.147 6.6l8.053 7.319a1 1 0 01-.673 1.74z" fill="#93999a"/><circle cx="43" cy="55" fill="#d0d8da" r="1"/><circle cx="56" cy="36" fill="#fcbc04" r="3"/><path d="M56 33a3 3 0 00-2.73 1.77 2.989 2.989 0 013.96 3.96A3 3 0 0056 33z" fill="#f9e109"/><circle cx="56" cy="16" fill="#fcbc04" r="3"/><path d="M56 13a3 3 0 00-2.73 1.77 2.989 2.989 0 013.96 3.96A3 3 0 0056 13z" fill="#f9e109"/><circle cx="38" cy="36" fill="#fcbc04" r="3"/><path d="M38 33a3 3 0 00-2.73 1.77 2.989 2.989 0 013.96 3.96A3 3 0 0038 33z" fill="#f9e109"/><circle cx="30" cy="16" fill="#fcbc04" r="3"/><path d="M30 13a3 3 0 00-2.73 1.77 2.989 2.989 0 013.96 3.96A3 3 0 0030 13z" fill="#f9e109"/><circle cx="19" cy="6" fill="#fcbc04" r="3"/><path d="M19 3a3 3 0 00-2.73 1.77 2.989 2.989 0 013.96 3.96A3 3 0 0019 3z" fill="#f9e109"/><circle cx="8" cy="14" fill="#fcbc04" r="3"/><path d="M8 11a3 3 0 00-2.73 1.77 2.989 2.989 0 013.96 3.96A3 3 0 008 11z" fill="#f9e109"/><circle cx="11" cy="27" fill="#fcbc04" r="3"/><path d="M11 24a3 3 0 00-2.73 1.77 2.989 2.989 0 013.96 3.96A3 3 0 0011 24z" fill="#f9e109"/></svg>