<svg xmlns="http://www.w3.org/2000/svg" width="168.792" height="198.13"><path fill="#D4ECFF" d="M61.906 165.237c7.041 4.064 18.458 4.064 25.499 0 7.041-4.066 7.042-10.658 0-14.723-7.041-4.066-18.457-4.066-25.499 0-7.042 4.065-7.042 10.657 0 14.723z"/><g fill="#5793CE"><path d="M35.346 136.92l.434 1.695-4.924 1.263-.434-1.696zm-2.506 2.453l.434 1.695-4.925 1.26-.433-1.695zm-2.512 2.451l.434 1.695-4.924 1.26-.434-1.695z"/><path d="M27.81 144.27l.435 1.695-4.925 1.263-.434-1.695z"/></g><path fill="#D4ECFF" d="M93.761 119.528l1.766-15.152c10.504.625 20.82 2.541 30.175 5.754l-14.248 12.773c-5.531-1.812-11.551-2.937-17.693-3.375z"/><path fill="#396CAA" d="M93.761 111.604l1.766-15.152c10.504.627 20.82 2.543 30.175 5.754l-14.248 12.773c-5.531-1.812-11.551-2.937-17.693-3.375z"/><path fill="#396CAA" d="M93.761 79.481l17.34.776.352 2.599v32.123l-13.493-5.103-4.199 1.728z"/><path fill="#173D7A" d="M125.701 70.083v32.123l-14.248 12.773V82.856z"/><path fill="#D4ECFF" d="M93.761 79.481l1.766-15.153c10.504.627 20.82 2.543 30.175 5.754l-14.248 12.773c-5.531-1.811-11.551-2.934-17.693-3.374zm-5.377 39.75c-11.572-.072-23.178 2.264-32.371 7.012l-18.587-10.73c14.796-7.953 33.844-11.762 52.723-11.428l-1.765 15.146z"/><path fill="#396CAA" d="M88.384 111.396c-11.572-.072-23.178 2.264-32.371 7.014l-18.587-10.732c14.796-7.951 33.844-11.76 52.723-11.428l-1.765 15.146z"/><path fill="#396CAA" d="M88.384 111.396v-11.09l1.764-15.145v11.088z"/><path fill="#173D7A" d="M37.426 96.587v11.09l18.587 10.732v-11.09z"/><path fill="#5793CE" d="M88.384 100.306c-11.572-.07-23.178 2.264-32.371 7.014L37.426 96.587c14.796-7.951 33.844-11.76 52.723-11.426l-1.765 15.145z"/><path fill="#D4ECFF" d="M128.592 161.149c11.365-10.641 9.071-24.768-6.908-33.994a51.315 51.315 0 00-5.698-2.813l14.233-12.76c3.526 1.422 6.897 3.029 10.044 4.846 25.123 14.504 28.42 36.83 9.918 53.398l-21.589-8.677z"/><path fill="#D3008D" d="M128.592 153.47c11.365-10.643 9.071-24.77-6.908-33.994a50.625 50.625 0 00-5.698-2.813l14.233-12.762c3.526 1.422 6.897 3.029 10.044 4.848 25.123 14.504 28.42 36.83 9.918 53.396l-21.589-8.675z"/><path fill="#D3008D" d="M115.985 96.923v19.74l12.606 4.684s16.372-8.938 16.372-9.145c0-.209-2.764-19.137-4.785-19.986s-24.193 4.707-24.193 4.707z"/><path fill="#B70083" d="M128.592 153.47v-19.741l21.589 8.676v19.741z"/><path fill="#D3008D" d="M150.181 130.022v32.123s11.268-9.498 11.775-22.102l-.026-20.621-13.112-1.896 1.363 12.496z"/><path fill="#FF2C9C" d="M128.592 133.729c11.365-10.643 9.071-24.77-6.908-33.994a50.625 50.625 0 00-5.698-2.813l14.233-12.762c3.526 1.422 6.897 3.029 10.044 4.848 25.123 14.504 28.42 36.83 9.918 53.396l-21.589-8.675z"/><path fill="#D4ECFF" d="M-206.558 171.43l7.179-3.529 3.528 7.178-7.18 3.528z"/><path fill="#FF2C9C" d="M99.7 139.601l-4.412-8.975 8.975-4.414 4.412 8.975-8.975 4.414zm-1.734-8.063l2.646 5.383 5.385-2.646-2.646-5.385-5.385 2.648z"/><path fill="#D4ECFF" d="M-365.645 95.917l7.18-3.529 3.53 7.18-7.181 3.529z"/><path fill="#FF2C9C" d="M-278.437 26.438l-4.412-8.973 8.975-4.412 4.412 8.973-8.975 4.412zm-1.734-8.061l2.646 5.385 5.385-2.648-2.646-5.385-5.385 2.648zm205.004 110.036l-4.412-8.975 8.975-4.412 4.412 8.975-8.975 4.412zm-1.734-8.062l2.646 5.385 5.385-2.646-2.646-5.385-5.385 2.646z"/><path fill="#D4ECFF" d="M-198.993 158.979c17.061 9.85 44.721 9.85 61.781 0s17.061-25.82.002-35.67c-17.061-9.85-44.721-9.85-61.781 0-17.063 9.852-17.063 25.821-.002 35.67zm16.691-26.033c7.844-4.527 20.557-4.527 28.4 0 7.842 4.527 7.842 11.869-.002 16.396-7.842 4.527-20.557 4.527-28.398 0s-7.842-11.868 0-16.396z"/><path fill="#B70083" d="M-130.767 117.474l-15.584.244c-1.154-1.502-2.791-2.908-4.922-4.139-8.568-4.947-22.045-5.33-31.381-1.154l-9.26-8.709-14.258.223a46.571 46.571 0 012.191-1.357c19.814-11.439 51.941-11.439 71.756 0 3.645 2.104 6.611 4.449 8.916 6.945l-7.458 7.947z"/><path fill="#D3008D" d="M-206.171 81.308v22.63l14.258-.222V81.087z"/><path fill="#B70083" d="M-182.653 89.794v22.631l-9.26-8.709V81.087z"/><path fill="#B70083" d="M-146.351 95.087v22.631l-20.5-16.705-15.803 11.412V89.794l14.551-7.059s20.031 6.133 21.072 6.393.68 5.959.68 5.959z"/><path fill="#B70083" d="M-130.767 94.845v22.629l-15.584.244V95.087z"/><path fill="#D3008D" d="M-123.308 86.897v22.629l-7.459 7.948V94.845z"/><path fill="#FF2C9C" d="M-130.767 94.845l-15.584.242c-1.154-1.5-2.791-2.908-4.922-4.139-8.568-4.947-22.045-5.33-31.381-1.154l-9.26-8.707-14.258.221a44.95 44.95 0 012.191-1.355c19.814-11.442 51.941-11.442 71.756 0 3.645 2.104 6.611 4.449 8.916 6.945l-7.458 7.947z"/><path fill="#5793CE" d="M-187.347 92.579v20.803l-13.488-3.232s.791-12.172 1.078-12.498 12.41-5.073 12.41-5.073z"/><path fill="#173D7A" d="M-177.138 113.382v22.629l-1.457 1.553-9.51-5.482s1.475-17.275 1.646-17.623c.175-.347 9.321-1.077 9.321-1.077z"/><path fill="#396CAA" d="M-195.501 107.538l8.154 7.67c-6.793 5.375-5.99 12.953 2.414 17.805 2.303 1.328 4.959 2.328 7.795 2.998l-8.43 8.98 7.469 7.023c-9.484-1.094-18.531-3.76-25.883-8.004-17.033-9.836-19.408-24.918-7.156-36.229l15.637-.243z"/><path fill="#396CAA" d="M-178.099 129.386v22.629l-18.492-7.141-22.242-21.219.084-24.031 23.529 18.652z"/><path fill="#D4ECFF" d="M-195.501 84.909l8.154 7.67c-6.793 5.373-5.99 12.951 2.414 17.803 2.303 1.33 4.959 2.328 7.795 3l-8.43 8.979 7.469 7.025c-9.484-1.096-18.531-3.762-25.883-8.006-17.033-9.834-19.408-24.918-7.156-36.227l15.637-.244z"/><path fill="#396CAA" d="M-178.038 144.874l7.43-7.916c6.896.42 14.051-.895 19.336-3.945 5.459-3.152 7.709-7.455 6.754-11.557l17.691-.275 6.803-7.248c5.951 10.211 1.891 21.941-12.201 30.076-10.354 5.979-24.07 8.826-37.635 8.557l-8.178-7.692z"/><path fill="#396CAA" d="M-169.86 129.937v22.628l52.484-29.084v-22.64l-7.662 3.097z"/><path fill="#173D7A" d="M-178.038 122.243v22.631l8.178 7.691v-22.628z"/><path fill="#5793CE" d="M-178.038 122.243l7.43-7.914c6.896.418 14.051-.895 19.336-3.947 5.459-3.152 7.709-7.455 6.754-11.557l17.691-.275 6.803-7.248c5.951 10.213 1.891 21.941-12.201 30.078-10.354 5.979-24.07 8.826-37.635 8.557l-8.178-7.694z"/><circle fill="#FF2C9C" cx="-187.282" cy="51.02" r="5.5"/><circle fill="#D4ECFF" cx="33.104" cy="44.504" r="4.718"/><circle fill="#D4ECFF" cx="115.985" cy="173.612" r="3.787"/><path fill="#5793CE" d="M-137.468 29.93L-163.7 14.785c-.52-.301-.988-.311-1.355-.109l.002-.018-2.545 1.471s1.127.41 1.789.654v19.102c0 1.555.943 3.36 2.109 4.034l25.072 14.475v2.242l2.57-1.48-.014-.004c.436-.266.713-.848.713-1.684V33.963c.001-1.555-.943-3.359-2.109-4.033z"/><path fill="#D4ECFF" d="M-140.06 56.557l-26.23-15.145c-1.166-.674-2.111-2.479-2.111-4.034V17.873c0-1.553.945-2.268 2.111-1.594l26.23 15.145c1.166.672 2.111 2.479 2.111 4.031v19.506c.001 1.555-.945 2.268-2.111 1.596z"/><path d="M-157.47 34.689c0 1.129-.793 1.586-1.77 1.021-.979-.564-1.77-1.936-1.77-3.064s.791-1.586 1.77-1.021c.977.564 1.77 1.936 1.77 3.064zm5.362 3.096c0 1.129-.791 1.586-1.77 1.022-.977-.565-1.77-1.936-1.77-3.065s.793-1.586 1.77-1.021c.979.564 1.77 1.935 1.77 3.064zm5.363 3.096c0 1.129-.793 1.586-1.771 1.021-.977-.564-1.77-1.936-1.77-3.064 0-1.129.793-1.586 1.77-1.022.978.565 1.771 1.936 1.771 3.065z" fill="#FFF"/><path fill="#D4ECFF" d="M-360.306 168.261l15.645-9.033 15.646 9.033-15.646 9.031zm33.209-19.43l15.645-9.033 15.644 9.033-15.644 9.031zm33.108-18.965l15.644-9.033 15.645 9.033-15.645 9.031z"/><path fill="#C13D1A" d="M-311.452 148.831v-48.172l-15.645-9.033v48.172z"/><path fill="#173D7A" d="M-311.452 100.659l15.644-9.033v48.172l-15.644 9.033z"/><path fill="#396CAA" d="M-311.452 148.831v-48.172l-15.645-9.033v48.172z"/><path fill="#173D7A" d="M-344.661 168.261v-27.098l-15.645-9.031v27.096z"/><path fill="#396CAA" d="M-344.661 141.163l15.646-9.031v27.096l-15.646 9.033z"/><path fill="#D4ECFF" d="M-360.306 132.132l15.645-9.033 15.646 9.033-15.646 9.031z"/><path fill="#D3008D" d="M-278.345 129.866V63.627l-15.644-9.031v66.237zm0-66.239l15.645-9.031v66.237l-15.645 9.033z"/><path fill="#FF2C9C" d="M-293.989 54.596l15.644-9.033 15.645 9.033-15.645 9.031z"/><path fill="#5793CE" d="M-327.097 91.626l15.645-9.031 15.644 9.031-15.644 9.033zm.391 40.75s-3.016-.787-4.248 1.615c-1.23 2.404-2.58 7.74-1.951 11.016.627 3.275 3.232 2.484 4.645 1.373 1.41-1.111 4.578-8.787 4.574-10.156s-.992-3.008-1.51-3.26c-.518-.25-1.51-.588-1.51-.588z"/><path fill="#D4ECFF" d="M-325.177 131.552l.129 2.883a1.633 1.633 0 01-.814 1.5c-.486.275-1.191.488-2.146.334-2.096-.336-2.283-.936-2.434-3.818-.149-2.884 5.265-.899 5.265-.899z"/><path fill="#5793CE" d="M-334.743 127.882s-2.131-2.275-4.455-.9c-2.322 1.375-6.314 5.166-7.531 8.271-1.219 3.104 1.408 3.826 3.193 3.639 1.787-.186 8.563-4.984 9.291-6.143.729-1.16.768-3.074.463-3.563-.303-.49-.961-1.304-.961-1.304z"/><path fill="#D4ECFF" d="M-335.362 126.007l.127 2.885a1.633 1.633 0 01-.814 1.5c-.486.275-1.191.486-2.146.334-2.096-.338-2.283-.938-2.434-3.82-.149-2.884 5.267-.899 5.267-.899z"/><path fill="#173D7A" d="M-310.53 73.071c-.824-13.403-14.514 1.973-14.514 1.973l-9.371 9.184-8.438 9.27a8.313 8.313 0 00-2.096 6.682l3.412 25.99a2.557 2.557 0 002.563 2.221 8.389 8.389 0 001.264-.111c3.045-.475 2.82-3.369 2.82-3.369l-.623-24.309 17.721-10.684c0-.001 8.086-3.444 7.262-16.847z"/><path fill="#173D7A" d="M-300.343 78.179c-.824-13.405-14.514 1.971-14.514 1.971l-9.371 9.184-8.438 9.27a8.322 8.322 0 00-2.096 6.682l3.412 25.992a2.556 2.556 0 002.563 2.219 8.63 8.63 0 001.264-.109c3.045-.475 2.82-3.369 2.82-3.369l-.623-24.311 17.721-10.682c.001-.002 8.086-3.445 7.262-16.847z"/><path fill="#5793CE" d="M-308.442 35.154c10.379 4.303 10.172 10.44 10.172 10.44s-2.033 22.492-1.34 37.516c.291 6.279-33.365 6.76-28.346-9.994 5.918-19.756 3.699-35.749 6.471-38.161 2.769-2.412 10.357-.914 13.043.199z"/><ellipse transform="rotate(14.442 -310.283 39.26)" fill="#FFC2B0" cx="-310.287" cy="39.259" rx="5.354" ry="3.94"/><path fill="#FFF" d="M-309.519 43.797c-.609 0-1.24-.078-1.875-.24-3.123-.807-5.168-3.389-4.559-5.758.303-1.176 1.193-2.113 2.51-2.643 1.262-.508 2.773-.576 4.262-.193 1.486.383 2.779 1.174 3.639 2.229.896 1.098 1.223 2.352.92 3.528-.486 1.886-2.514 3.077-4.897 3.077zm-1.558-8.088c-.709 0-1.389.123-1.996.367-1.014.408-1.695 1.109-1.918 1.971-.473 1.84 1.252 3.879 3.846 4.549 2.59.666 5.088-.287 5.563-2.125.223-.863-.037-1.805-.729-2.653-.727-.891-1.834-1.564-3.117-1.895a6.655 6.655 0 00-1.649-.214z"/><path fill="#FFC2B0" d="M-312.604 34.686s.09.416-.09 3.705c-.057 1.036 3.564 2 4.5 1.065s.563-1.909.787-5.428-5.197.658-5.197.658z"/><path fill="#EA9C92" d="M-307.407 34.027s-.893 3.262-5.287 4.514l.066-2.965 5.221-1.549z"/><circle fill="#FFC2B0" cx="-312.358" cy="27.736" r="7.989"/><path fill="#EA9C92" d="M-310.524 28.029s-4.398 1.885-7.443 1.906c-3.047.021-2.375-2.529-2.375-2.529l9.041-1.307.777 1.93z"/><path fill="#FF2C9C" d="M-318.876 28.527s3.832-1.627 7.193-.949c.789.16 1.523.582 2.031 1.207.166.205.377.391.615.445.596.135 1.572-2.338 2.73-2.395s1.932.764.982 2.285c-.951 1.52-.629 3.223-.193 3.467.438.244 5.074-3.307.984-11.408-4.09-8.104-14.479-3.738-16.094-2.098 0 0-1.703 1.484-3.086.164.002.001-1.551 11.624 4.838 9.282z"/><path fill="#FFC2B0" d="M-304.093 62.028v6.078a2.48 2.48 0 01-.809 1.831l-12.486 11.383 1.42 2.17 16.488-11.959a3.352 3.352 0 001.365-2.363l1.115-10.6-7.093 3.46z"/><path fill="#5793CE" d="M-299.149 42.555s3.787 5.695 5.199 20.691c0 0-6.471 2.092-10.143.904-3.674-1.187 4.944-21.595 4.944-21.595z"/><path fill="#396CAA" d="M-304.784 49.756s-1.484 7.938-1.568 11.668a2.381 2.381 0 001.568 2.299V49.756z"/><path fill="#5793CE" d="M-308.024 89.224l-2.76-.365-17.814-10.285c-.57-.33-1.568-.289-2.229.092l-12.623 7.285-1.668-.219v1.66c-.01.219.115.43.385.586l20.189 11.656c.57.33 1.568.287 2.227-.094l13.748-7.934c.371-.215.557-.49.545-.75v-1.632z"/><path fill="#396CAA" d="M-321.409 82.724l-1.266-.73h-13.916l-6.859 3.957-1.668-.219v1.66c-.01.219.115.43.385.586l20.189 11.656c.301.174.723.244 1.148.215l1.987-17.125z"/><path fill="#5793CE" d="M-344.378 85.829l-.74-.098v1.66c-.01.219.115.43.385.586l.355.205v-2.353z"/><path fill="#FFF" d="M-324.341 99.728c.541.205 1.314.16 1.893-.117v-2.826h-1.893v2.943z"/><path fill="#FFF" d="M-324.544 97.974l-20.189-11.656c-.572-.33-.5-.906.16-1.287l13.746-7.934c.66-.381 1.658-.422 2.229-.092l20.189 11.654c.57.33.5.906-.16 1.287l-13.748 7.934c-.659.381-1.657.424-2.227.094z"/><path fill="#D4ECFF" d="M-324.886 96.206l-16.787-9.691c-.475-.273-.416-.754.133-1.07l7.367-4.143c.547-.316 1.377-.35 1.852-.076l16.787 9.691c.475.275.416.754-.133 1.07l-7.367 4.143c-.547.316-1.377.351-1.852.076z"/><path fill="#FFC2B0" d="M-330.046 76.714l-.209 1.393a10.304 10.304 0 00.092 3.572l.248 1.227c.141.693.688 1.23 1.383 1.357a.952.952 0 001.117-.832l.332-2.977s.764.998 1.131.998-.412-2.982-1.244-4.67c-.832-1.689-2.85-.068-2.85-.068z"/><path fill="#FFC2B0" d="M-323.202 54.573l-2.166 4.289a8.387 8.387 0 00-.887 3.254l-.941 14.667-2.85-.068-1.293-16.469a6.02 6.02 0 01.072-1.523l1.479-8.352 6.586 4.202z"/><path fill="#173D7A" d="M-325.229 99.093l-1.691-2.209-17.803-10.309c-.57-.33-1.033-1.215-1.031-1.977l.016-14.574-1.023-1.336.961-.557h.002c.184-.117.428-.115.697.041l20.176 11.68c.57.332 1.031 1.217 1.031 1.979l-.018 15.871c0 .43-.146.727-.377.848l-.94.543z"/><path fill="#396CAA" d="M-337.54 90.735l-1.264-.732-6.943-12.059.008-7.92-1.023-1.336.961-.557h.002c.184-.117.428-.115.697.041l20.176 11.68c.301.176.572.506.76.891l-13.374 9.992z"/><path fill="#5793CE" d="M-346.31 69.28l-.453-.592.961-.557h.002c.184-.117.428-.115.697.041l.355.205-1.562.903z"/><path fill="#274F89" d="M-324.743 79.981c.447.367.795 1.061.842 1.701l-1.971 1.137-.945-1.641 2.074-1.197z"/><path fill="#5793CE" d="M-325.888 80.409l-20.176-11.68c-.57-.33-1.033.018-1.035.78l-.018 15.873c0 .762.461 1.646 1.033 1.977l20.174 11.682c.57.33 1.035-.02 1.035-.781l.018-15.871c.001-.763-.46-1.65-1.031-1.98z"/><path fill="#FFC2B0" d="M-315.968 83.489l-.324.67a4.476 4.476 0 01-1.686 1.869l-2.004 1.234a2 2 0 01-2.047.049c-.021-.014-.045-.027-.068-.043-.637-.398-.693-1.313-.17-1.852l2.094-2.152s-1.176.9-1.506.539c-.242-.268 1.141-1.564 2.203-1.607 1.061-.043 2.088-.877 2.088-.877l1.42 2.17z"/><path fill="#5793CE" d="M-321.278 34.924s-7.678 8.354-10.773 16.016c0 0 2.625 4.73 9.051 6.586s1.722-22.602 1.722-22.602z"/><path fill="#396CAA" d="M-324.446 57.03l1.244-12.02-2.932 11.262c.522.271 1.088.525 1.688.758z"/><path fill="#FFF" d="M-315.528 33.238l-2.063-.566s.984 1.549 2.422 1.943 1.662-.822 1.662-.822l-2.021-.555z"/><circle fill="#FFF" cx="-305.659" cy="29.936" r="1.148"/><path fill="#D4ECFF" d="M-108.188 156.554c7.041 4.064 18.457 4.064 25.5 0 7.041-4.066 7.041-10.658 0-14.723s-18.457-4.064-25.5 0c-7.041 4.066-7.041 10.656 0 14.723z"/><path fill="#FF2C9C" d="M-86.952 26.213s-.463 9.557-1.191 15.981c-.727 6.422-16.195-4.934-16.195-4.934v-7.313l17.386-3.734z"/><path fill="#173D7A" d="M-94.011 142.767a2.634 2.634 0 01-.6 1.564c-1.01 1.238-3.428 3.709-5.844 4.445-1.346.41-2.248.461-2.836.389-.59-.072-.939-.695-.74-1.256.535-1.494 2.055-4.582 5.893-6.484 3.733-1.852 4.176.09 4.127 1.342zm3.5 3.339c-1.186-.145-2.303.658-2.682 1.943-.303 1.023-.619 2.268-.777 3.41-.215 1.559.541 3.586 1.162 4.922.385.83 1.352 1.002 1.965.371.992-1.021 2.254-2.795 2.463-5.344.074-.924.119-1.684.139-2.309.053-1.52-.934-2.83-2.27-2.993z"/><path fill="#FFC2B0" d="M-87.882 126.884l-.918 19.826a1.887 1.887 0 01-3.766.02l-1.234-21.971 5.918 2.125zm-13.084-2.844l2.164 17.553a2.035 2.035 0 004.053-.353l-.928-18.381-5.289 1.181z"/><path fill="#173D7A" d="M-84.2 85.091s.523 4.344 0 9.146-2.395 27.268-2.742 32.672c0 0 .174 1.637-4.422 1.275-4.596-.359-4.227-2.176-4.227-2.176s-6.455-.061-6.658-2.682c-.203-2.623-6.611-31.311-6.611-41.625l24.66 3.39z"/><path fill="#FFC2B0" d="M-111.247 54.038l-3.162 4.898-10.871 13.129s.373 1.219 1.727 1.539c1.057.248 10.201-8.475 14.148-12.303a3.033 3.033 0 00.418-3.854l-2.26-3.409z"/><path fill="#396CAA" d="M-105.077 33.932s-5.025-.129-6.773 7.131c-1.748 7.26-3.117 16.352-1.596 17.105 4.566 2.268 7.455-.385 7.455-.385l.914-23.851z"/><path fill="#5793CE" d="M-106.581 34.24a4.117 4.117 0 012.711-.148c4.279 1.229 20.373 5.952 23.025 8.219 3.063 2.619-4.596 17.336-4.486 22.162.111 4.825.654 10.514 1.08 15.76.428 5.246 1.004 8.121-3.287 10.352-4.289 2.23-11.615 2.334-17.1-1.846-5.482-4.178-4.488-7.037-4.26-10.07s2.096-16.153 1.934-19.877c0 0-1.932-1.424-3.363-3.863-1.432-2.441 1.096-6.93 2.146-9.846 1.049-2.918-.592-6.254-.268-8.633.169-1.227.95-1.827 1.868-2.21z"/><ellipse transform="rotate(-172.703 -95.39 40.035)" fill="#FFF" cx="-95.391" cy="40.033" rx="6.095" ry="4.839"/><ellipse transform="rotate(-172.703 -95.39 40.033)" fill="#FFC2B0" cx="-95.391" cy="40.033" rx="4.357" ry="3.459"/><path fill="#FFC2B0" d="M-97.341 33.26s2.904-2.391 3.477-1.18c.57 1.211 1.041 6.403 1.041 6.403l-5.77 1.551.875-5.262c0-.001-1.154-.979.377-1.512z"/><circle fill="#FFC2B0" cx="-97.758" cy="27.061" r="8.614"/><path fill="#EA9C92" d="M-93.462 33.586c.051.27.1.561.146.857-.58 2.998-5.064 4.309-5.064 4.309l.662-3.981s-.543-.461-.389-.922c1.772-.56 4.006-1.056 4.645-.263z"/><circle fill="#FFC2B0" cx="-97.758" cy="27.061" r="8.614"/><path fill="#FFC2B0" d="M-76.536 63.522l-.963 23.049-3.371.348-2.193-20.751z"/><path fill="#5793CE" d="M-87.61 61.594c.182-.803 1.658-1.461 1.883-2.508 1.158-5.369 1.436-13.287 1.436-13.287l.941 10.814c-1.086 3.209-2.02 6.152-1.98 7.859.064 2.832.281 5.963.533 9.125v.01c-.001.001-3.929-7.091-2.813-12.013z"/><path fill="#5793CE" d="M-81.489 41.838s2.695 1.029 4.219 9.307c1.525 8.275 2.666 16.566-.053 17.635-2.719 1.069-4.99 1.874-5.789-.342-.799-2.213-1.295-12.881-1.396-16.717-.1-3.836-.247-9.125 3.019-9.883z"/><path fill="#FFC2B0" d="M-124.474 71.106s-1.459.537-2.514 1.686c-.865.943-1.34 1.742-1.719 2.307-.84 1.252-1.547 3.957-1.035 4.295.512.336 3.439-4.531 3.91-3.398.473 1.133-.004 2.178.602 2.195s2.709-4.893 4.363-6.416-3.607-.669-3.607-.669z"/><path fill="#173D7A" d="M-90.714 118.622l1.793-2.34 18.855-10.918c.605-.35 1.094-1.287 1.094-2.094l-.018-15.438 1.086-1.414-1.02-.59h-.002c-.193-.125-.453-.121-.738.043l-21.369 12.373c-.605.35-1.094 1.287-1.094 2.094l.02 16.813c0 .453.156.77.398.896l.995.575z"/><path fill="#396CAA" d="M-77.675 109.771l1.34-.775 7.354-12.773-.008-8.389 1.086-1.414-1.02-.59h-.002c-.193-.125-.453-.121-.738.043l-21.369 12.373c-.32.184-.605.533-.805.941l14.162 10.584z"/><path fill="#396CAA" d="M-68.386 87.046l.482-.627-1.02-.59h-.002c-.193-.125-.453-.121-.738.043l-.377.219 1.655.955z"/><path fill="#274F89" d="M-91.226 98.382c-.475.389-.844 1.121-.893 1.799l2.088 1.207 1-1.738-2.195-1.268z"/><path fill="#5793CE" d="M-90.015 98.833l21.369-12.371c.604-.35 1.096.02 1.096.826l.02 16.813c0 .807-.488 1.744-1.094 2.094l-21.369 12.373c-.604.35-1.096-.021-1.096-.828l-.018-16.811c-.001-.807.489-1.744 1.092-2.096z"/><path fill="#FFC2B0" d="M-77.526 86.378s.891 5.381.756 7.104c-.133 1.725-1.057 4.566-1.756 4.506s-.023-6.93-1.252-6.244c-1.23.684-1.359 1.857-1.916 1.443-.557-.416.971-6.287.564-8.834-.408-2.545 3.604 2.025 3.604 2.025z"/><path fill="#EA9C92" d="M-101.065 27.813c-4.322 1.535-5.162.6-5.203.549a8.323 8.323 0 01-.088-.793 8.575 8.575 0 01.287-2.752l11.211-1.514s-1.772 2.933-6.207 4.51z"/><path fill="#FF2C9C" d="M-106.667 18.988c1.018-.873 4.693-5.189 11.275-4.172 4.115.637 7.582 3.443 8.352 9.846.518 4.314-1.064 8.563-3.98 11.703-.158-.072-.322-.141-.469-.236-1.648-1.084-1.826-1.682-1.826-1.688l-.363-3.266c.01-.465.357-.877.82-.906.357-.021.793-.193 1.207-.734.945-1.238.508-3.164-1.383-3.238-.988-.037-1.371-.572-1.51-1.074a.775.775 0 00-1.01-.525c-2.15.779-7.453 2.457-10.863 1.49-4.365-1.237-1.268-6.329-.25-7.2z"/><path fill="#FFF" d="M-101.759 31.703l-2.635-.723s1.258 1.979 3.096 2.482c1.836.504 2.121-1.051 2.121-1.051l-2.582-.708z"/><path fill="#396CAA" d="M-82.007 93.019l2.246-1.286-.843 1.377-1.135.418z"/><path fill="#FFC2B0" d="M57.169 14.822l-.238-1.382a10.263 10.263 0 01.015-3.561l.222-1.227c.125-.693.66-1.24 1.35-1.381a.95.95 0 011.13.803l.396 2.961s.737-1.012 1.104-1.02c.367-.008-.347 2.98-1.14 4.679-.795 1.701-2.839.128-2.839.128z"/><path fill="#FFC2B0" d="M62.7 37.479l-.494-4.971a8.4 8.4 0 01-.952-3.223l-1.248-14.59-2.837.127-.94 16.436a6.058 6.058 0 00.106 1.514l1.648 8.289 4.717-3.582zm30.016-26.73l.17-1.395a10.29 10.29 0 00-.189-3.555l-.282-1.215A1.72 1.72 0 0091 3.27a.951.951 0 00-1.09.859l-.25 2.977s-.786-.975-1.153-.965c-.366.012.492 2.959 1.368 4.617.875 1.659 2.841-.009 2.841-.009z"/><path fill="#FFC2B0" d="M88.3 33.646l.25-4.988a8.378 8.378 0 00.793-3.266l.532-14.634 2.841-.01 1.743 16.367a5.996 5.996 0 01-.031 1.52l-1.241 8.357-4.887-3.346z"/><path fill="#173D7A" d="M74.005 142.044c.22.551 4.011 5.166 7.801 6.318 1.648.502 2.757.568 3.482.48.729-.086 1.18-.838.934-1.529-.652-1.836-2.521-5.66-7.272-8.016-6.429-3.187-4.945 2.747-4.945 2.747zm-1.264 1.773s1.428 3.352 1.867 6.154c.27 1.709-.67 3.928-1.441 5.4-.479.914-1.694 1.119-2.459.426-1.238-1.125-2.815-3.078-3.076-5.883-.439-4.725 0-5.549 0-5.549l5.109-.548z"/><path fill="#FF2C9C" d="M63.608 86.71s-.494 5.961 0 12.553c.495 6.594 2.266 37.426 2.595 44.842 0 0-.165 2.246 4.183 1.752s3.996-2.988 3.996-2.988 6.105-.082 6.299-3.68c.191-3.6 6.252-42.973 6.252-57.129l-23.325 4.65z"/><path fill="#B70083" d="M74.382 142.868s.758-.01 1.745-.18l1.195-47.928-2.94 48.108z"/><path fill="#5793CE" d="M86.448 28.152c.902-1.322 5.439-.459 7.682.064a1.803 1.803 0 011.387 1.574c1.891 19.959-7.918 27.042-7.918 27.042l-3.783-14.024c5.56.87 1.424-12.886 2.632-14.656zm-30.682 4.461c2.169-.77 6.581-2.137 7.626-.924 1.398 1.623-1.171 15.756 4.258 14.268l-5.001 12.842s-7.728-4.42-8.085-24.465a1.801 1.801 0 011.202-1.721z"/><path fill="#5793CE" d="M73.501 42.291c-10.631 3.51-10.877 9.622-10.877 9.622s.359 22.502-1.438 37.379c-.752 6.219 32.656 9.178 28.904-7.84-4.423-20.067-1.039-35.795-3.613-38.397-2.574-2.6-10.226-1.672-12.976-.764z"/><ellipse transform="rotate(169.801 75.032 46.505)" fill="#FFC2B0" cx="75.032" cy="46.505" rx="5.335" ry="3.926"/><path fill="#FFF" d="M74.452 50.981c-1.027 0-2.012-.215-2.859-.631-1.268-.623-2.084-1.621-2.298-2.813-.214-1.189.202-2.41 1.174-3.436.933-.984 2.274-1.676 3.78-1.948 1.502-.27 3.004-.092 4.221.508 1.268.622 2.084 1.622 2.299 2.813.432 2.398-1.791 4.814-4.955 5.383a7.641 7.641 0 01-1.362.124zm1.162-7.961c-.391 0-.789.037-1.19.11-1.3.232-2.448.82-3.237 1.652-.75.791-1.075 1.707-.918 2.582.156.873.781 1.619 1.76 2.1 1.029.504 2.311.654 3.611.42 2.626-.473 4.49-2.371 4.155-4.234-.157-.873-.782-1.619-1.761-2.1-.711-.35-1.545-.53-2.42-.53z"/><path fill="#FFC2B0" d="M77.671 42.133s-.119.406-.184 3.69c-.021 1.031-3.689 1.723-4.551.725-.86-1-.416-1.939-.381-5.454.038-3.514 5.116 1.039 5.116 1.039z"/><path fill="#EA9C92" d="M72.556 41.094s.646 3.309 4.921 4.877l.152-2.952-5.073-1.925z"/><circle fill="#FFC2B0" cx="77.94" cy="35.209" r="7.961"/><path fill="#EA9C92" d="M76.095 35.365s4.232 2.197 7.258 2.443 2.546-2.338 2.546-2.338l-8.888-1.967-.916 1.862z"/><path fill="#FF2C9C" d="M84.358 36.475s-3.688-1.898-7.078-1.473a3.5 3.5 0 00-2.107 1.049c-.181.191-.403.361-.645.396-.602.09-1.389-2.439-2.536-2.58s-1.976.617-1.144 2.197c.831 1.582.387 3.25-.066 3.461-.452.209-4.797-3.66-.135-11.41 4.661-7.748 14.662-2.646 16.146-.895 0 0 1.582 1.598 3.055.389.001 0 .686 11.666-5.49 8.866z"/><path fill="#FFF" d="M80.685 40.91l2.092-.412s-1.094 1.467-2.551 1.754c-1.459.287-1.591-.939-1.591-.939l2.05-.403z"/><path fill="#396CAA" d="M56.351 48.04c.043.049 6.465 7.232 9.865 8.268 0 0-3.422 9.434-3.906 17.874l-.002.02c.242-5.739.322-11.28.341-15.401-.001-.002-3.913-2.246-6.298-10.761zm38.521-4.614c-2.111 9.672-7.273 13.406-7.273 13.406-.006-.639-.011-4.846-.011-4.846 2.594-1.501 7.229-8.478 7.284-8.56z"/><circle fill="#FFF" cx="71.286" cy="36.696" r="1.172"/><path d="M-323.882 205.417v-7.287h1.697c.439 0 .807.045 1.104.133.295.088.533.227.711.418.18.189.305.424.381.699.074.277.111.619.111 1.023v2.627c0 .416-.037.77-.113 1.061a1.81 1.81 0 01-.375.736 1.531 1.531 0 01-.697.447c-.291.096-.646.143-1.068.143h-1.751zm1.328-.932h.379c.131 0 .246-.012.346-.035s.184-.051.25-.084a.389.389 0 00.17-.158c.045-.072.08-.141.104-.201.023-.063.041-.156.053-.279.012-.125.02-.23.021-.318.004-.088.006-.219.006-.393v-2.662c0-.172-.004-.313-.01-.418s-.02-.211-.043-.318a.636.636 0 00-.096-.248.661.661 0 00-.434-.262 2.274 2.274 0 00-.381-.029h-.365v5.405zm3.172.932l1.482-7.287h1.383l1.479 7.287h-1.236l-.293-1.691h-1.262l-.299 1.691h-1.254zm1.694-2.559h.975l-.486-2.992-.489 2.992zm3.822 2.559v-6.307h-1.221v-.98h3.729v.98h-1.182v6.307h-1.326zm2.676 0l1.482-7.287h1.383l1.477 7.287h-1.234l-.295-1.691h-1.26l-.299 1.691h-1.254zm1.693-2.559h.975l-.488-2.992-.487 2.992zm-26.732 13.358v-7.285h2.096c1.242 0 1.863.689 1.863 2.068 0 .68-.17 1.174-.51 1.488-.34.316-.818.473-1.436.473h-.688v3.256h-1.325zm1.326-4.188h.428c.375 0 .629-.074.76-.221.133-.148.197-.42.197-.816 0-.225-.008-.4-.025-.523-.018-.121-.059-.234-.123-.336s-.162-.17-.287-.209a1.932 1.932 0 00-.518-.057h-.432v2.162zm3.341 4.188v-7.285h1.67c.383 0 .713.031.988.094s.514.168.717.316c.205.148.357.35.457.602.102.254.152.564.152.932 0 .455-.068.828-.205 1.121-.135.287-.359.5-.674.631l1.012 3.59h-1.332l-.869-3.326h-.59v3.326h-1.326zm1.327-4.174h.32c.393 0 .672-.084.838-.252.164-.166.248-.451.248-.855 0-.391-.072-.67-.215-.836-.145-.17-.408-.254-.791-.254h-.4v2.197zm5.646 4.264c-.75 0-1.287-.205-1.611-.613-.326-.406-.488-1.002-.488-1.787v-2.689c0-.387.035-.721.109-1.008.072-.283.191-.527.354-.738a1.51 1.51 0 01.652-.467c.273-.104.602-.154.984-.154.748 0 1.285.199 1.611.6.326.402.49.99.49 1.768v2.689c0 .381-.037.715-.113 1.004a2.045 2.045 0 01-.355.752 1.484 1.484 0 01-.652.48 2.71 2.71 0 01-.981.163zm-.332-1.041c.092.037.203.055.332.055s.238-.018.33-.055a.59.59 0 00.217-.152.622.622 0 00.129-.24c.029-.1.051-.199.061-.299s.016-.219.016-.357v-3.309c0-.176-.01-.322-.025-.439a1.188 1.188 0 00-.104-.33.507.507 0 00-.23-.234c-.104-.051-.234-.076-.393-.076s-.289.025-.393.076a.472.472 0 00-.23.234c-.051.104-.084.213-.102.33s-.027.264-.027.439v3.309c0 .139.006.258.016.357s.031.199.063.299c.029.1.072.182.125.24a.55.55 0 00.215.152zm5.359 1.041c-.313 0-.59-.041-.83-.119-.24-.08-.439-.189-.596-.33s-.283-.314-.383-.523a2.488 2.488 0 01-.205-.67 4.795 4.795 0 01-.061-.807v-2.541c0-.316.021-.596.063-.84.041-.246.109-.473.207-.682.096-.209.223-.381.379-.516s.354-.24.594-.318c.238-.074.516-.111.832-.111.363 0 .674.047.932.143.258.098.463.24.611.426.148.189.258.408.326.658.066.25.1.543.1.877v.623h-1.277v-.619c0-.363-.02-.607-.059-.732-.076-.248-.262-.379-.559-.396h-.07c-.109 0-.209.014-.291.039-.084.025-.152.068-.205.125s-.096.119-.127.182a.9.9 0 00-.072.254 2.696 2.696 0 00-.031.289 7.496 7.496 0 00-.006.332v3.086c0 .428.053.732.16.914.105.182.297.271.572.271.096 0 .178-.01.25-.033a.666.666 0 00.18-.082.398.398 0 00.123-.146c.033-.063.059-.121.076-.176.018-.053.031-.129.041-.227a3.09 3.09 0 00.014-.246 9.02 9.02 0 00.004-.275v-.65h1.277v.598c0 .271-.02.518-.057.732a2.275 2.275 0 01-.195.611 1.44 1.44 0 01-.359.475c-.146.127-.334.225-.563.297s-.492.107-.795.107zm2.887-.09v-7.285h3.051v.936h-1.723v2.092h1.363v.936h-1.363v2.404h1.744v.918h-3.072zm5.674.09c-1.283 0-1.957-.742-2.021-2.225l1.156-.24c.029.963.305 1.443.824 1.443.203 0 .354-.061.451-.184s.146-.289.146-.498c0-.199-.035-.387-.109-.555a1.506 1.506 0 00-.254-.414 5.862 5.862 0 00-.414-.396l-.957-.832a2.69 2.69 0 01-.629-.766c-.137-.266-.207-.598-.207-.996 0-.564.166-1.004.5-1.318.332-.313.789-.473 1.367-.477.268-.004.504.027.709.098.205.068.373.16.508.277.133.115.244.26.334.432.088.174.154.352.199.539.043.186.074.393.092.621l-1.133.225a5.048 5.048 0 00-.029-.383 2.128 2.128 0 00-.068-.33.827.827 0 00-.125-.27.548.548 0 00-.508-.213c-.195.012-.346.076-.449.195-.105.119-.156.277-.156.477 0 .234.045.428.139.578.092.15.236.313.432.484l.949.826c.158.145.297.283.414.418s.229.289.336.461c.107.174.188.365.244.572.055.209.082.428.082.658 0 .531-.166.963-.502 1.293-.337.334-.776.5-1.321.5zm4.439 0c-1.283 0-1.957-.742-2.021-2.225l1.154-.24c.029.963.305 1.443.826 1.443.203 0 .354-.061.451-.184s.146-.289.146-.498c0-.199-.035-.387-.109-.555a1.506 1.506 0 00-.254-.414 5.862 5.862 0 00-.414-.396l-.957-.832a2.656 2.656 0 01-.629-.766c-.139-.266-.207-.598-.207-.996 0-.564.166-1.004.5-1.318.332-.313.787-.473 1.367-.477.268-.004.504.027.709.098.205.068.373.16.508.277.133.115.244.26.334.432.088.174.154.352.199.539.043.186.074.393.092.621l-1.133.225a5.048 5.048 0 00-.029-.383 2.128 2.128 0 00-.068-.33.827.827 0 00-.125-.27.548.548 0 00-.508-.213c-.195.012-.346.076-.449.195-.105.119-.156.277-.156.477 0 .234.045.428.139.578.092.15.236.313.432.484l.949.826c.158.145.297.283.414.418s.229.289.336.461c.107.174.188.365.244.572.055.209.082.428.082.658 0 .531-.166.963-.502 1.293-.336.334-.776.5-1.321.5zm2.639-.09v-7.285h1.311v7.285h-1.311zm2.432 0v-7.285h.914l1.785 4.127v-4.127h1.098v7.285h-.869l-1.803-4.338v4.338h-1.125zm6.711.097c-.689 0-1.184-.215-1.488-.646-.303-.432-.455-1.057-.455-1.881v-2.373c0-.418.033-.779.1-1.084.066-.301.176-.566.332-.797.154-.227.369-.4.641-.514.273-.115.607-.17 1.002-.17.721 0 1.238.174 1.553.527.313.354.469.889.469 1.605v.357h-1.27v-.379c0-.16-.004-.293-.01-.395a1.686 1.686 0 00-.053-.311.563.563 0 00-.121-.24.584.584 0 00-.217-.135.925.925 0 00-.334-.053c-.1 0-.188.014-.266.037-.076.025-.143.055-.195.092s-.098.09-.133.156c-.037.068-.064.133-.084.195s-.033.145-.045.246c-.01.1-.016.186-.02.262-.002.076-.004.174-.004.295v2.939c0 .439.055.762.162.965.109.203.314.305.619.305.158 0 .291-.029.398-.09s.191-.15.25-.271c.061-.123.104-.262.129-.418a3.95 3.95 0 00.037-.57v-.596h-.787v-.857h1.982v3.699h-.861l-.098-.738c-.218.559-.63.838-1.233.838zm140.754-10.654v-7.285h2.994v.918h-1.666v2.117h1.332v.938h-1.332v3.313h-1.328zm3.732 0v-7.285h1.309v7.285h-1.309zm2.43 0v-7.285h.914l1.783 4.125v-4.125h1.1v7.285h-.871l-1.801-4.338v4.338h-1.125zm4.926 0v-7.285h1.311v7.285h-1.311zm4.267.088c-1.283 0-1.957-.742-2.021-2.225l1.156-.24c.029.963.305 1.445.826 1.445.201 0 .352-.063.449-.186s.148-.287.148-.496a1.493 1.493 0 00-.365-.969 5.071 5.071 0 00-.414-.396l-.957-.832c-.281-.246-.49-.5-.629-.768-.137-.264-.207-.596-.207-.994 0-.566.166-1.006.5-1.318.332-.314.789-.473 1.369-.479.266-.004.502.029.707.1.205.066.373.16.508.275.133.115.244.26.334.434.088.172.156.352.199.539.045.184.074.393.092.621l-1.133.223a4.91 4.91 0 00-.029-.381 2.082 2.082 0 00-.068-.33.843.843 0 00-.125-.271.553.553 0 00-.207-.164.593.593 0 00-.301-.049c-.195.012-.346.078-.449.195-.105.119-.156.279-.156.479 0 .234.045.428.139.576.092.152.236.314.432.486l.949.826c.158.145.297.283.414.418s.229.289.336.461c.107.174.188.363.244.572.055.207.084.428.084.658 0 .531-.168.961-.504 1.293-.337.331-.776.497-1.321.497zm2.615-.088v-7.285h1.326v3.045h1.48v-3.045h1.328v7.285h-1.328v-3.297h-1.48v3.297h-1.326zm5.239 0v-7.285h3.049v.936h-1.723v2.092h1.363v.936h-1.363v2.404h1.744v.918h-3.07zm3.836 0v-7.285h1.695c.439 0 .809.043 1.104.131.297.088.533.227.713.418.178.189.305.424.379.701.074.275.113.617.113 1.021v2.627c0 .416-.039.77-.115 1.059a1.805 1.805 0 01-.375.738 1.52 1.52 0 01-.697.447c-.289.094-.646.143-1.068.143h-1.749zm1.326-.931h.379c.131 0 .248-.012.348-.035s.182-.051.25-.084a.396.396 0 00.168-.158c.047-.072.08-.141.104-.201.023-.063.041-.156.053-.279a5.331 5.331 0 00.027-.711v-2.662c0-.174-.004-.313-.01-.418s-.02-.211-.041-.318-.055-.189-.098-.248a.672.672 0 00-.432-.262 2.096 2.096 0 00-.383-.029h-.365v5.405zm-25.221 11.73v-7.285h1.67c.383 0 .713.031.988.094s.514.17.719.316c.203.148.355.35.457.604.102.252.15.563.15.928 0 .457-.066.83-.203 1.121-.137.289-.361.5-.676.635l1.012 3.588h-1.332l-.869-3.326h-.59v3.326h-1.326zm1.326-4.174h.32c.393 0 .672-.084.838-.252.166-.166.248-.451.248-.855 0-.391-.072-.67-.215-.836-.145-.17-.408-.254-.791-.254h-.4v2.197zm3.666 4.174v-7.285h3.049v.936h-1.723v2.092h1.363v.938h-1.363v2.402h1.744v.918h-3.07zm5.672.088c-1.283 0-1.957-.74-2.021-2.223l1.156-.242c.029.965.305 1.447.826 1.447.203 0 .352-.063.451-.186.098-.123.146-.287.146-.496 0-.203-.037-.389-.109-.557a1.509 1.509 0 00-.256-.414 5.76 5.76 0 00-.412-.396l-.959-.832a2.62 2.62 0 01-.627-.766c-.139-.266-.207-.598-.207-.994 0-.566.166-1.006.498-1.32.332-.313.789-.471 1.369-.477.268-.004.502.029.707.098s.375.16.508.277c.133.115.244.26.334.432.09.174.156.352.201.539.043.186.074.393.092.621l-1.135.225a6.505 6.505 0 00-.027-.383 2.453 2.453 0 00-.068-.33.892.892 0 00-.125-.27.592.592 0 00-.207-.166.597.597 0 00-.301-.047c-.197.012-.348.076-.451.195s-.156.279-.156.477c0 .236.047.428.139.578s.236.313.434.484l.949.826c.158.145.295.285.412.418.117.135.23.289.336.463.107.172.189.363.244.57.057.209.084.43.084.658 0 .531-.168.963-.504 1.293-.335.334-.776.498-1.321.498zm4.598 0a2.8 2.8 0 01-.846-.113 1.589 1.589 0 01-.59-.322 1.46 1.46 0 01-.369-.529 2.807 2.807 0 01-.193-.697 6.05 6.05 0 01-.055-.871v-4.84h1.287v4.975c0 .17.006.314.014.434.01.121.027.246.057.379a.968.968 0 00.125.318.684.684 0 00.571.275.671.671 0 00.565-.275c.051-.082.092-.188.123-.318.031-.133.049-.258.057-.375a6.72 6.72 0 00.012-.438v-4.975h1.287v4.84c0 .33-.018.619-.055.871a2.85 2.85 0 01-.193.697 1.463 1.463 0 01-.367.529 1.557 1.557 0 01-.586.322 2.823 2.823 0 01-.844.113zm3.076-.088v-7.285h1.326v6.367h1.746v.918h-3.072zm4.297 0v-6.305h-1.221v-.98h3.73v.98h-1.182v6.305h-1.327z" fill="#396CAA"/><path fill="#D4ECFF" d="M-109.409 179.454l-10.713-6.183-10.711 6.183 10.711 6.186z"/><path fill="#D3008D" d="M-120.122 179.903v-6.968l12.799-7.389v6.969zm0-6.968l-12.797-7.389v6.969l12.797 7.388z"/><path fill="#FF2C9C" d="M-107.323 165.546l-12.799-7.389-12.797 7.389 12.797 7.389z"/><path fill="#D4ECFF" d="M-271.661 179.192l-11.164-6.445-11.164 6.445 11.164 6.448z"/><path fill="#D3008D" d="M-282.825 179.659v-7.262l13.34-7.701v7.262zm0-7.262l-13.338-7.701v7.262l13.338 7.701z"/><path fill="#FF2C9C" d="M-269.485 164.696l-13.34-7.701-13.338 7.701 13.338 7.701z"/><path fill="#D4ECFF" d="M53.839 183.862l-11.164-6.445-11.164 6.445 11.164 6.448z"/><path fill="#396CAA" d="M42.675 183.167v-7.264l13.338-7.701v7.264z"/><path fill="#173D7A" d="M42.675 175.903l-13.339-7.701v7.264l13.339 7.701z"/><path fill="#5793CE" d="M56.013 168.202l-13.338-7.701-13.339 7.701 13.339 7.701z"/></svg>