<svg xmlns="http://www.w3.org/2000/svg" width="168.792" height="198.13"><path fill="#D4ECFF" d="M-518.094 160.567c7.041 4.064 18.458 4.064 25.499 0 7.042-4.066 7.042-10.658 0-14.723-7.042-4.066-18.458-4.066-25.5 0-7.04 4.065-7.04 10.657.001 14.723z"/><g fill="#5793CE"><path d="M-544.65 132.24l.435 1.694-4.924 1.263-.434-1.696z"/><path d="M-547.161 134.689l.434 1.695-4.924 1.262-.434-1.695zm-2.512 2.451l.435 1.694-4.924 1.263-.435-1.696z"/><path d="M-552.185 139.59l.435 1.695-4.925 1.262-.435-1.695z"/></g><path fill="#D4ECFF" d="M-486.24 114.858l1.766-15.152c10.504.625 20.82 2.541 30.175 5.754l-14.248 12.773c-5.531-1.812-11.55-2.937-17.693-3.375z"/><path fill="#396CAA" d="M-486.24 106.935l1.766-15.152c10.504.627 20.82 2.543 30.175 5.754l-14.248 12.773c-5.531-1.813-11.55-2.938-17.693-3.375z"/><path fill="#396CAA" d="M-486.24 74.812l17.341.775.352 2.6v32.123l-13.493-5.104-4.2 1.729z"/><path fill="#173D7A" d="M-454.299 65.413v32.123l-14.248 12.774V78.187z"/><path fill="#D4ECFF" d="M-486.24 74.812l1.766-15.153c10.504.627 20.82 2.543 30.175 5.754l-14.248 12.774c-5.531-1.813-11.55-2.936-17.693-3.375zm-5.377 39.75c-11.572-.072-23.177 2.264-32.37 7.012l-18.587-10.73c14.796-7.953 33.844-11.762 52.723-11.428l-1.766 15.146z"/><path fill="#396CAA" d="M-491.617 106.726c-11.572-.072-23.177 2.264-32.37 7.014l-18.587-10.732c14.796-7.951 33.844-11.76 52.723-11.428l-1.766 15.146z"/><path fill="#396CAA" d="M-491.617 106.726v-11.09l1.765-15.145v11.088z"/><path fill="#173D7A" d="M-542.574 91.917v11.09l18.587 10.732v-11.09z"/><path fill="#5793CE" d="M-491.617 95.636c-11.572-.07-23.177 2.264-32.37 7.014l-18.587-10.732c14.796-7.951 33.844-11.76 52.723-11.426l-1.766 15.144z"/><path fill="#D4ECFF" d="M-451.408 156.479c11.365-10.641 9.071-24.768-6.908-33.994a51.315 51.315 0 00-5.698-2.813l14.233-12.76c3.526 1.422 6.897 3.029 10.044 4.846 25.123 14.504 28.419 36.83 9.918 53.398l-21.589-8.677z"/><path fill="#D3008D" d="M-451.408 148.8c11.365-10.643 9.071-24.77-6.908-33.994a50.625 50.625 0 00-5.698-2.813l14.233-12.762c3.526 1.422 6.897 3.029 10.044 4.848 25.123 14.504 28.419 36.83 9.918 53.396l-21.589-8.675z"/><path fill="#D3008D" d="M-464.015 92.253v19.74l12.606 4.684s16.372-8.938 16.372-9.145c0-.209-2.763-19.137-4.785-19.986-2.021-.85-24.193 4.707-24.193 4.707z"/><path fill="#B70083" d="M-451.408 148.8v-19.74l21.589 8.675v19.741z"/><path fill="#D3008D" d="M-429.819 125.353v32.123s11.268-9.498 11.775-22.102l-.027-20.621-13.112-1.896 1.364 12.496z"/><path fill="#FF2C9C" d="M-451.408 129.06c11.365-10.643 9.071-24.77-6.908-33.994a50.625 50.625 0 00-5.698-2.813l14.233-12.762c3.526 1.422 6.897 3.029 10.044 4.848 25.123 14.504 28.419 36.83 9.918 53.396l-21.589-8.675z"/><path fill="#D4ECFF" d="M-206.558 171.43l7.179-3.529 3.528 7.178-7.18 3.528z"/><path fill="#FF2C9C" d="M-480.3 134.931l-4.412-8.975 8.974-4.414 4.412 8.975-8.974 4.414zm-1.734-8.063l2.646 5.383 5.385-2.646-2.647-5.385-5.384 2.648z"/><path fill="#D4ECFF" d="M27.009 94.307l7.73-3.8 3.8 7.729-7.73 3.8z"/><path fill="#FF2C9C" d="M120.906 19.498l-4.75-9.659 9.661-4.75 4.75 9.659-9.661 4.75zm-1.867-8.678l2.849 5.797 5.797-2.851-2.849-5.797-5.797 2.851zM-75.167 128.413l-4.412-8.975 8.975-4.412 4.412 8.975-8.975 4.412zm-1.734-8.062l2.646 5.385 5.385-2.646-2.646-5.385-5.385 2.646z"/><path fill="#D4ECFF" d="M-198.993 158.979c17.061 9.85 44.721 9.85 61.781 0s17.061-25.82.002-35.67c-17.061-9.85-44.721-9.85-61.781 0-17.063 9.852-17.063 25.821-.002 35.67zm16.691-26.033c7.844-4.527 20.557-4.527 28.4 0 7.842 4.527 7.842 11.869-.002 16.396-7.842 4.527-20.557 4.527-28.398 0s-7.842-11.868 0-16.396z"/><path fill="#B70083" d="M-130.767 117.474l-15.584.244c-1.154-1.502-2.791-2.908-4.922-4.139-8.568-4.947-22.045-5.33-31.381-1.154l-9.26-8.709-14.258.223a46.571 46.571 0 012.191-1.357c19.814-11.439 51.941-11.439 71.756 0 3.645 2.104 6.611 4.449 8.916 6.945l-7.458 7.947z"/><path fill="#D3008D" d="M-206.171 81.308v22.63l14.258-.222V81.087z"/><path fill="#B70083" d="M-182.653 89.794v22.631l-9.26-8.709V81.087z"/><path fill="#B70083" d="M-146.351 95.087v22.631l-20.5-16.705-15.803 11.412V89.794l14.551-7.059s20.031 6.133 21.072 6.393.68 5.959.68 5.959z"/><path fill="#B70083" d="M-130.767 94.845v22.629l-15.584.244V95.087z"/><path fill="#D3008D" d="M-123.308 86.897v22.629l-7.459 7.948V94.845z"/><path fill="#FF2C9C" d="M-130.767 94.845l-15.584.242c-1.154-1.5-2.791-2.908-4.922-4.139-8.568-4.947-22.045-5.33-31.381-1.154l-9.26-8.707-14.258.221a44.95 44.95 0 012.191-1.355c19.814-11.442 51.941-11.442 71.756 0 3.645 2.104 6.611 4.449 8.916 6.945l-7.458 7.947z"/><path fill="#5793CE" d="M-187.347 92.579v20.803l-13.488-3.232s.791-12.172 1.078-12.498 12.41-5.073 12.41-5.073z"/><path fill="#173D7A" d="M-177.138 113.382v22.629l-1.457 1.553-9.51-5.482s1.475-17.275 1.646-17.623c.175-.347 9.321-1.077 9.321-1.077z"/><path fill="#396CAA" d="M-195.501 107.538l8.154 7.67c-6.793 5.375-5.99 12.953 2.414 17.805 2.303 1.328 4.959 2.328 7.795 2.998l-8.43 8.98 7.469 7.023c-9.484-1.094-18.531-3.76-25.883-8.004-17.033-9.836-19.408-24.918-7.156-36.229l15.637-.243z"/><path fill="#396CAA" d="M-178.099 129.386v22.629l-18.492-7.141-22.242-21.219.084-24.031 23.529 18.652z"/><path fill="#D4ECFF" d="M-195.501 84.909l8.154 7.67c-6.793 5.373-5.99 12.951 2.414 17.803 2.303 1.33 4.959 2.328 7.795 3l-8.43 8.979 7.469 7.025c-9.484-1.096-18.531-3.762-25.883-8.006-17.033-9.834-19.408-24.918-7.156-36.227l15.637-.244z"/><path fill="#396CAA" d="M-178.038 144.874l7.43-7.916c6.896.42 14.051-.895 19.336-3.945 5.459-3.152 7.709-7.455 6.754-11.557l17.691-.275 6.803-7.248c5.951 10.211 1.891 21.941-12.201 30.076-10.354 5.979-24.07 8.826-37.635 8.557l-8.178-7.692z"/><path fill="#396CAA" d="M-169.86 129.937v22.628l52.484-29.084v-22.64l-7.662 3.097z"/><path fill="#173D7A" d="M-178.038 122.243v22.631l8.178 7.691v-22.628z"/><path fill="#5793CE" d="M-178.038 122.243l7.43-7.914c6.896.418 14.051-.895 19.336-3.947 5.459-3.152 7.709-7.455 6.754-11.557l17.691-.275 6.803-7.248c5.951 10.213 1.891 21.941-12.201 30.078-10.354 5.979-24.07 8.826-37.635 8.557l-8.178-7.694z"/><circle fill="#FF2C9C" cx="-187.282" cy="51.02" r="5.5"/><circle fill="#D4ECFF" cx="-546.896" cy="39.834" r="4.718"/><circle fill="#D4ECFF" cx="-464.015" cy="168.942" r="3.787"/><path fill="#5793CE" d="M-137.468 29.93L-163.7 14.785c-.52-.301-.988-.311-1.355-.109l.002-.018-2.545 1.471s1.127.41 1.789.654v19.102c0 1.555.943 3.36 2.109 4.034l25.072 14.475v2.242l2.57-1.48-.014-.004c.436-.266.713-.848.713-1.684V33.963c.001-1.555-.943-3.359-2.109-4.033z"/><path fill="#D4ECFF" d="M-140.06 56.557l-26.23-15.145c-1.166-.674-2.111-2.479-2.111-4.034V17.873c0-1.553.945-2.268 2.111-1.594l26.23 15.145c1.166.672 2.111 2.479 2.111 4.031v19.506c.001 1.555-.945 2.268-2.111 1.596z"/><path d="M-157.47 34.689c0 1.129-.793 1.586-1.77 1.021-.979-.564-1.77-1.936-1.77-3.064s.791-1.586 1.77-1.021c.977.564 1.77 1.936 1.77 3.064zm5.362 3.096c0 1.129-.791 1.586-1.77 1.022-.977-.565-1.77-1.936-1.77-3.065s.793-1.586 1.77-1.021c.979.564 1.77 1.935 1.77 3.064zm5.363 3.096c0 1.129-.793 1.586-1.771 1.021-.977-.564-1.77-1.936-1.77-3.064 0-1.129.793-1.586 1.77-1.022.978.565 1.771 1.936 1.771 3.065z" fill="#FFF"/><path fill="#D4ECFF" d="M32.771 172.176l16.842-9.725 16.844 9.725-16.844 9.722zm35.75-20.917l16.842-9.725 16.842 9.725-16.842 9.722zm35.642-20.416l16.842-9.725 16.842 9.725-16.842 9.722z"/><path fill="#C13D1A" d="M85.363 151.259V99.4l-16.842-9.724v51.858z"/><path fill="#173D7A" d="M85.363 99.4l16.842-9.724v51.858l-16.842 9.725z"/><path fill="#396CAA" d="M85.363 151.259V99.4l-16.842-9.724v51.858z"/><path fill="#173D7A" d="M49.613 172.176v-29.172l-16.842-9.722v29.169z"/><path fill="#396CAA" d="M49.613 143.004l16.844-9.722v29.169l-16.844 9.725z"/><path fill="#D4ECFF" d="M32.771 133.282l16.842-9.724 16.844 9.724-16.844 9.722z"/><path fill="#D3008D" d="M121.005 130.843V59.534l-16.842-9.722v71.306z"/><path fill="#D3008D" d="M121.005 59.534l16.842-9.722v71.306l-16.842 9.725z"/><path fill="#FF2C9C" d="M104.163 49.812l16.842-9.725 16.842 9.725-16.842 9.722z"/><path fill="#5793CE" d="M68.521 89.676l16.842-9.723 16.842 9.723L85.363 99.4zm.421 43.868s-3.246-.847-4.573 1.739c-1.325 2.589-2.777 8.333-2.101 11.858.675 3.526 3.479 2.675 5 1.479 1.519-1.196 4.929-9.459 4.925-10.934-.005-1.474-1.068-3.238-1.626-3.509-.556-.269-1.625-.633-1.625-.633z"/><path fill="#D4ECFF" d="M70.589 132.657l.139 3.104a1.759 1.759 0 01-.877 1.615c-.523.296-1.282.525-2.311.359-2.256-.362-2.458-1.008-2.62-4.111-.16-3.103 5.669-.967 5.669-.967z"/><path fill="#5793CE" d="M60.29 128.706s-2.294-2.449-4.796-.969c-2.5 1.48-6.798 5.562-8.107 8.904-1.313 3.341 1.516 4.119 3.438 3.917 1.924-.199 9.218-5.366 10.002-6.612.784-1.249.826-3.31.498-3.835-.326-.528-1.035-1.405-1.035-1.405z"/><path fill="#D4ECFF" d="M59.623 126.688l.137 3.105c.03.66-.3 1.288-.876 1.614-.524.297-1.283.523-2.312.359-2.256-.363-2.458-1.009-2.619-4.112-.16-3.102 5.67-.966 5.67-.966z"/><path fill="#173D7A" d="M86.356 69.701c-.888-14.429-15.625 2.124-15.625 2.124l-10.088 9.886-9.083 9.979a8.945 8.945 0 00-2.256 7.192l3.674 27.979a2.751 2.751 0 002.758 2.391 8.943 8.943 0 001.36-.119c3.278-.512 3.037-3.627 3.037-3.627l-.671-26.17 19.076-11.501c0 .001 8.705-3.706 7.818-18.134z"/><path fill="#173D7A" d="M97.323 75.199c-.888-14.431-15.624 2.122-15.624 2.122L71.61 87.207l-9.083 9.979a8.955 8.955 0 00-2.256 7.193l3.673 27.98a2.75 2.75 0 002.759 2.389 9.202 9.202 0 001.36-.117c3.278-.512 3.036-3.627 3.036-3.627l-.671-26.172 19.077-11.499c.001.001 8.706-3.705 7.818-18.134z"/><path fill="#5793CE" d="M88.604 28.882c11.174 4.633 10.95 11.239 10.95 11.239s-2.188 24.214-1.442 40.388c.313 6.76-35.918 7.276-30.515-10.76 6.371-21.268 3.982-38.485 6.966-41.082 2.981-2.596 11.15-.983 14.041.215z"/><ellipse transform="rotate(14.442 86.62 33.302)" fill="#FFC2B0" cx="86.618" cy="33.301" rx="5.764" ry="4.242"/><path fill="#FFF" d="M87.445 38.187a8.153 8.153 0 01-2.019-.259c-3.362-.868-5.563-3.648-4.907-6.199.325-1.266 1.284-2.275 2.701-2.845 1.358-.546 2.986-.62 4.588-.208 1.601.412 2.992 1.264 3.918 2.399.965 1.182 1.315 2.532.99 3.798-.523 2.031-2.705 3.314-5.271 3.314zm-1.677-8.708c-.764 0-1.495.132-2.149.396-1.091.439-1.825 1.194-2.064 2.122-.509 1.981 1.348 4.176 4.14 4.897 2.788.717 5.478-.309 5.988-2.288.24-.929-.04-1.942-.784-2.855-.782-.959-1.975-1.685-3.355-2.04a7.132 7.132 0 00-1.776-.232z"/><path fill="#FFC2B0" d="M84.123 28.377s.097.448-.097 3.989c-.061 1.115 3.837 2.153 4.845 1.146 1.007-1.007.605-2.055.847-5.844.242-3.788-5.595.709-5.595.709z"/><path fill="#EA9C92" d="M89.718 27.669s-.961 3.511-5.691 4.859l.071-3.192 5.62-1.667z"/><circle fill="#FFC2B0" cx="84.388" cy="20.896" r="8.6"/><path fill="#EA9C92" d="M86.362 21.212s-4.735 2.029-8.013 2.052c-3.28.023-2.557-2.723-2.557-2.723l9.732-1.407.838 2.078z"/><path fill="#FF2C9C" d="M77.372 21.748s4.125-1.752 7.743-1.022a3.79 3.79 0 012.187 1.299c.18.221.406.42.663.479.641.145 1.692-2.517 2.939-2.578 1.246-.061 2.079.822 1.058 2.46-1.024 1.636-.678 3.47-.208 3.732.471.263 5.462-3.56 1.06-12.281-4.404-8.723-15.587-4.024-17.327-2.257 0 0-1.833 1.598-3.321.177 0-.001-1.672 12.512 5.206 9.991z"/><path fill="#FFC2B0" d="M93.286 57.813v6.543c0 .749-.315 1.464-.87 1.971L78.974 78.58l1.528 2.336 17.751-12.874a3.617 3.617 0 001.47-2.544l1.2-11.412-7.637 3.727z"/><path fill="#5793CE" d="M98.608 36.85s4.076 6.131 5.597 22.274c0 0-6.966 2.252-10.919.974-3.955-1.279 5.322-23.248 5.322-23.248z"/><path fill="#396CAA" d="M92.542 44.602s-1.598 8.545-1.688 12.561a2.56 2.56 0 001.688 2.475V44.602z"/><path fill="#5793CE" d="M89.054 87.09l-2.971-.394-19.178-11.072c-.614-.355-1.688-.312-2.399.099l-13.589 7.843-1.796-.235v1.787c-.011.235.124.463.414.631L71.27 98.296c.614.355 1.688.31 2.397-.101l14.8-8.54c.399-.232.6-.528.587-.808V87.09z"/><path fill="#396CAA" d="M74.645 80.092l-1.362-.786H58.301l-7.384 4.26-1.796-.235v1.787c-.011.235.124.463.414.631L71.27 98.296c.324.188.778.264 1.236.232l2.139-18.436z"/><path fill="#5793CE" d="M49.918 83.436l-.797-.105v1.787c-.011.235.124.463.414.631l.383.221v-2.534z"/><path fill="#FFF" d="M71.488 98.397c.583.221 1.415.172 2.038-.126v-3.043h-2.038v3.169z"/><path fill="#FFF" d="M71.27 96.509L49.535 83.961c-.616-.355-.538-.976.173-1.386l14.798-8.541c.711-.41 1.785-.454 2.399-.099L88.64 86.481c.614.355.538.977-.173 1.386l-14.8 8.541c-.709.41-1.783.456-2.397.101z"/><path fill="#D4ECFF" d="M70.902 94.606L52.83 84.173c-.511-.294-.448-.812.143-1.152l7.932-4.459c.589-.341 1.482-.377 1.993-.082l18.071 10.434c.512.296.448.811-.143 1.151l-7.931 4.46c-.588.34-1.482.378-1.993.081z"/><path fill="#FFC2B0" d="M65.347 73.622l-.225 1.5a11.088 11.088 0 00.099 3.845l.267 1.321a1.86 1.86 0 001.489 1.461 1.025 1.025 0 001.202-.896l.357-3.204s.822 1.074 1.218 1.074-.443-3.211-1.34-5.027c-.895-1.819-3.067-.074-3.067-.074z"/><path fill="#FFC2B0" d="M72.714 49.787l-2.331 4.618a9.003 9.003 0 00-.955 3.503l-1.014 15.789-3.067-.074-1.392-17.729a6.524 6.524 0 01.077-1.64l1.592-8.991 7.09 4.524z"/><path fill="#173D7A" d="M70.532 97.714l-1.821-2.378-19.165-11.098c-.614-.355-1.112-1.308-1.11-2.128l.017-15.689-1.102-1.438 1.034-.6h.002c.198-.126.461-.124.751.044l21.72 12.574c.614.357 1.11 1.311 1.11 2.13l-.019 17.086c0 .463-.158.782-.406.913l-1.011.584z"/><path fill="#396CAA" d="M57.279 88.717l-1.36-.788-7.475-12.981.008-8.526-1.102-1.438 1.034-.6h.002c.198-.126.461-.124.751.044l21.72 12.574c.324.189.616.545.818.959L57.279 88.717z"/><path fill="#5793CE" d="M47.839 65.62l-.488-.638 1.034-.6h.002c.198-.126.461-.124.751.044l.383.221-1.682.973z"/><path fill="#274F89" d="M71.056 77.14c.481.396.855 1.143.906 1.832l-2.122 1.224-1.018-1.767 2.234-1.289z"/><path fill="#5793CE" d="M69.823 77.601l-21.72-12.574c-.614-.355-1.112.019-1.114.84l-.02 17.088c0 .819.496 1.772 1.112 2.127L69.8 97.657c.614.355 1.114-.021 1.114-.841l.02-17.086c0-.82-.496-1.774-1.111-2.129z"/><path fill="#FFC2B0" d="M80.502 80.916l-.349.722a4.823 4.823 0 01-1.814 2.012l-2.157 1.329c-.671.414-1.522.448-2.204.053-.022-.015-.048-.029-.073-.046-.686-.43-.746-1.414-.183-1.994l2.254-2.316s-1.266.969-1.621.58c-.261-.288 1.228-1.685 2.372-1.73 1.142-.047 2.247-.944 2.247-.944l1.528 2.334z"/><path fill="#5793CE" d="M74.785 28.634s-8.265 8.993-11.598 17.242c0 0 2.826 5.092 9.743 7.09 6.919 1.997 1.855-24.332 1.855-24.332z"/><path fill="#396CAA" d="M71.375 52.432l1.339-12.939-3.155 12.124c.561.291 1.17.565 1.816.815z"/><path fill="#FFF" d="M80.976 26.819l-2.221-.61s1.06 1.667 2.607 2.092 1.789-.885 1.789-.885l-2.175-.597z"/><circle fill="#FFF" cx="91.6" cy="23.264" r="1.236"/><path fill="#D4ECFF" d="M-108.188 156.554c7.041 4.064 18.457 4.064 25.5 0 7.041-4.066 7.041-10.658 0-14.723s-18.457-4.064-25.5 0c-7.041 4.066-7.041 10.656 0 14.723z"/><path fill="#FF2C9C" d="M-86.952 26.213s-.463 9.557-1.191 15.981c-.727 6.422-16.195-4.934-16.195-4.934v-7.313l17.386-3.734z"/><path fill="#173D7A" d="M-94.011 142.767a2.634 2.634 0 01-.6 1.564c-1.01 1.238-3.428 3.709-5.844 4.445-1.346.41-2.248.461-2.836.389-.59-.072-.939-.695-.74-1.256.535-1.494 2.055-4.582 5.893-6.484 3.733-1.852 4.176.09 4.127 1.342zm3.5 3.339c-1.186-.145-2.303.658-2.682 1.943-.303 1.023-.619 2.268-.777 3.41-.215 1.559.541 3.586 1.162 4.922.385.83 1.352 1.002 1.965.371.992-1.021 2.254-2.795 2.463-5.344.074-.924.119-1.684.139-2.309.053-1.52-.934-2.83-2.27-2.993z"/><path fill="#FFC2B0" d="M-87.882 126.884l-.918 19.826a1.887 1.887 0 01-3.766.02l-1.234-21.971 5.918 2.125zm-13.084-2.844l2.164 17.553a2.035 2.035 0 004.053-.353l-.928-18.381-5.289 1.181z"/><path fill="#173D7A" d="M-84.2 85.091s.523 4.344 0 9.146-2.395 27.268-2.742 32.672c0 0 .174 1.637-4.422 1.275-4.596-.359-4.227-2.176-4.227-2.176s-6.455-.061-6.658-2.682c-.203-2.623-6.611-31.311-6.611-41.625l24.66 3.39z"/><path fill="#FFC2B0" d="M-111.247 54.038l-3.162 4.898-10.871 13.129s.373 1.219 1.727 1.539c1.057.248 10.201-8.475 14.148-12.303a3.033 3.033 0 00.418-3.854l-2.26-3.409z"/><path fill="#396CAA" d="M-105.077 33.932s-5.025-.129-6.773 7.131c-1.748 7.26-3.117 16.352-1.596 17.105 4.566 2.268 7.455-.385 7.455-.385l.914-23.851z"/><path fill="#5793CE" d="M-106.581 34.24a4.117 4.117 0 012.711-.148c4.279 1.229 20.373 5.952 23.025 8.219 3.063 2.619-4.596 17.336-4.486 22.162.111 4.825.654 10.514 1.08 15.76.428 5.246 1.004 8.121-3.287 10.352-4.289 2.23-11.615 2.334-17.1-1.846-5.482-4.178-4.488-7.037-4.26-10.07s2.096-16.153 1.934-19.877c0 0-1.932-1.424-3.363-3.863-1.432-2.441 1.096-6.93 2.146-9.846 1.049-2.918-.592-6.254-.268-8.633.169-1.227.95-1.827 1.868-2.21z"/><ellipse transform="rotate(-172.703 -95.39 40.035)" fill="#FFF" cx="-95.391" cy="40.033" rx="6.095" ry="4.839"/><ellipse transform="rotate(-172.703 -95.39 40.033)" fill="#FFC2B0" cx="-95.391" cy="40.033" rx="4.357" ry="3.459"/><path fill="#FFC2B0" d="M-97.341 33.26s2.904-2.391 3.477-1.18c.57 1.211 1.041 6.403 1.041 6.403l-5.77 1.551.875-5.262c0-.001-1.154-.979.377-1.512z"/><circle fill="#FFC2B0" cx="-97.758" cy="27.061" r="8.614"/><path fill="#EA9C92" d="M-93.462 33.586c.051.27.1.561.146.857-.58 2.998-5.064 4.309-5.064 4.309l.662-3.981s-.543-.461-.389-.922c1.772-.56 4.006-1.056 4.645-.263z"/><circle fill="#FFC2B0" cx="-97.758" cy="27.061" r="8.614"/><path fill="#FFC2B0" d="M-76.536 63.522l-.963 23.049-3.371.348-2.193-20.751z"/><path fill="#5793CE" d="M-87.61 61.594c.182-.803 1.658-1.461 1.883-2.508 1.158-5.369 1.436-13.287 1.436-13.287l.941 10.814c-1.086 3.209-2.02 6.152-1.98 7.859.064 2.832.281 5.963.533 9.125v.01c-.001.001-3.929-7.091-2.813-12.013z"/><path fill="#5793CE" d="M-81.489 41.838s2.695 1.029 4.219 9.307c1.525 8.275 2.666 16.566-.053 17.635-2.719 1.069-4.99 1.874-5.789-.342-.799-2.213-1.295-12.881-1.396-16.717-.1-3.836-.247-9.125 3.019-9.883z"/><path fill="#FFC2B0" d="M-124.474 71.106s-1.459.537-2.514 1.686c-.865.943-1.34 1.742-1.719 2.307-.84 1.252-1.547 3.957-1.035 4.295.512.336 3.439-4.531 3.91-3.398.473 1.133-.004 2.178.602 2.195s2.709-4.893 4.363-6.416-3.607-.669-3.607-.669z"/><path fill="#173D7A" d="M-90.714 118.622l1.793-2.34 18.855-10.918c.605-.35 1.094-1.287 1.094-2.094l-.018-15.438 1.086-1.414-1.02-.59h-.002c-.193-.125-.453-.121-.738.043l-21.369 12.373c-.605.35-1.094 1.287-1.094 2.094l.02 16.813c0 .453.156.77.398.896l.995.575z"/><path fill="#396CAA" d="M-77.675 109.771l1.34-.775 7.354-12.773-.008-8.389 1.086-1.414-1.02-.59h-.002c-.193-.125-.453-.121-.738.043l-21.369 12.373c-.32.184-.605.533-.805.941l14.162 10.584z"/><path fill="#396CAA" d="M-68.386 87.046l.482-.627-1.02-.59h-.002c-.193-.125-.453-.121-.738.043l-.377.219 1.655.955z"/><path fill="#274F89" d="M-91.226 98.382c-.475.389-.844 1.121-.893 1.799l2.088 1.207 1-1.738-2.195-1.268z"/><path fill="#5793CE" d="M-90.015 98.833l21.369-12.371c.604-.35 1.096.02 1.096.826l.02 16.813c0 .807-.488 1.744-1.094 2.094l-21.369 12.373c-.604.35-1.096-.021-1.096-.828l-.018-16.811c-.001-.807.489-1.744 1.092-2.096z"/><path fill="#FFC2B0" d="M-77.526 86.378s.891 5.381.756 7.104c-.133 1.725-1.057 4.566-1.756 4.506s-.023-6.93-1.252-6.244c-1.23.684-1.359 1.857-1.916 1.443-.557-.416.971-6.287.564-8.834-.408-2.545 3.604 2.025 3.604 2.025z"/><path fill="#EA9C92" d="M-101.065 27.813c-4.322 1.535-5.162.6-5.203.549a8.323 8.323 0 01-.088-.793 8.575 8.575 0 01.287-2.752l11.211-1.514s-1.772 2.933-6.207 4.51z"/><path fill="#FF2C9C" d="M-106.667 18.988c1.018-.873 4.693-5.189 11.275-4.172 4.115.637 7.582 3.443 8.352 9.846.518 4.314-1.064 8.563-3.98 11.703-.158-.072-.322-.141-.469-.236-1.648-1.084-1.826-1.682-1.826-1.688l-.363-3.266c.01-.465.357-.877.82-.906.357-.021.793-.193 1.207-.734.945-1.238.508-3.164-1.383-3.238-.988-.037-1.371-.572-1.51-1.074a.775.775 0 00-1.01-.525c-2.15.779-7.453 2.457-10.863 1.49-4.365-1.237-1.268-6.329-.25-7.2z"/><path fill="#FFF" d="M-101.759 31.703l-2.635-.723s1.258 1.979 3.096 2.482c1.836.504 2.121-1.051 2.121-1.051l-2.582-.708z"/><path fill="#396CAA" d="M-82.007 93.019l2.246-1.286-.843 1.377-1.135.418z"/><path fill="#FFC2B0" d="M-522.832 10.152l-.238-1.382a10.24 10.24 0 01.015-3.561l.222-1.227c.125-.693.66-1.24 1.349-1.381a.95.95 0 011.13.803l.395 2.961s.738-1.012 1.104-1.02c.367-.008-.347 2.98-1.14 4.679-.792 1.701-2.837.128-2.837.128z"/><path fill="#FFC2B0" d="M-517.3 32.809l-.494-4.971a8.365 8.365 0 01-.952-3.223l-1.248-14.59-2.837.127-.94 16.436a6.011 6.011 0 00.106 1.514l1.649 8.289 4.716-3.582zm30.015-26.73l.17-1.395a10.29 10.29 0 00-.189-3.555l-.282-1.215a1.72 1.72 0 00-1.415-1.314.95.95 0 00-1.089.859l-.25 2.977s-.787-.975-1.153-.965c-.367.012.492 2.959 1.368 4.617.875 1.659 2.84-.009 2.84-.009z"/><path fill="#FFC2B0" d="M-491.7 28.977l.25-4.988a8.378 8.378 0 00.793-3.266l.532-14.634 2.84-.01 1.744 16.367a6.043 6.043 0 01-.031 1.52l-1.241 8.357-4.887-3.346z"/><path fill="#173D7A" d="M-505.995 137.374c.22.551 4.011 5.166 7.801 6.318 1.648.502 2.756.568 3.482.48.729-.086 1.179-.838.934-1.529-.652-1.836-2.522-5.66-7.273-8.016-6.428-3.187-4.944 2.747-4.944 2.747zm-1.264 1.773s1.428 3.352 1.868 6.154c.269 1.709-.67 3.928-1.442 5.4a1.577 1.577 0 01-2.458.426c-1.239-1.125-2.816-3.078-3.077-5.883-.44-4.725 0-5.549 0-5.549l5.109-.548z"/><path fill="#FF2C9C" d="M-516.391 82.04s-.495 5.961 0 12.553c.495 6.594 2.265 37.426 2.594 44.842 0 0-.165 2.246 4.183 1.752s3.997-2.988 3.997-2.988 6.105-.082 6.298-3.68c.192-3.6 6.253-42.973 6.253-57.129l-23.325 4.65z"/><path fill="#B70083" d="M-505.618 138.198s.757-.01 1.745-.18l1.195-47.928-2.94 48.108z"/><path fill="#5793CE" d="M-493.551 23.482c.902-1.322 5.439-.459 7.681.064.75.174 1.314.809 1.387 1.574 1.891 19.959-7.917 27.042-7.917 27.042l-3.783-14.024c5.559.87 1.423-12.886 2.632-14.656zm-30.683 4.461c2.169-.77 6.581-2.137 7.625-.924 1.399 1.623-1.17 15.756 4.258 14.268l-5.001 12.842s-7.728-4.42-8.084-24.465a1.803 1.803 0 011.202-1.721z"/><path fill="#5793CE" d="M-506.499 37.621c-10.631 3.51-10.877 9.622-10.877 9.622s.36 22.502-1.438 37.379c-.751 6.219 32.656 9.178 28.905-7.84-4.423-20.067-1.039-35.795-3.613-38.397-2.575-2.6-10.227-1.672-12.977-.764z"/><ellipse transform="rotate(169.801 -504.97 41.842)" fill="#FFC2B0" cx="-504.969" cy="41.835" rx="5.334" ry="3.926"/><path fill="#FFF" d="M-505.548 46.311c-1.027 0-2.012-.215-2.859-.631-1.268-.623-2.083-1.621-2.297-2.813-.214-1.189.203-2.41 1.174-3.436.932-.984 2.275-1.676 3.78-1.948 1.502-.27 3.004-.092 4.221.508 1.268.622 2.084 1.622 2.298 2.813.432 2.398-1.791 4.814-4.954 5.383a7.652 7.652 0 01-1.363.124zm1.162-7.961c-.391 0-.789.037-1.19.11-1.299.232-2.449.82-3.237 1.652-.75.791-1.075 1.707-.918 2.582.157.873.782 1.619 1.761 2.1 1.029.504 2.311.654 3.611.42 2.626-.473 4.49-2.371 4.155-4.234-.157-.873-.783-1.619-1.76-2.1-.713-.35-1.546-.53-2.422-.53z"/><path fill="#FFC2B0" d="M-502.329 37.463s-.12.406-.184 3.69c-.02 1.031-3.689 1.723-4.55.725-.861-1-.417-1.939-.381-5.454.037-3.514 5.115 1.039 5.115 1.039z"/><path fill="#EA9C92" d="M-507.444 36.424s.646 3.309 4.92 4.877l.152-2.952-5.072-1.925z"/><circle fill="#FFC2B0" cx="-502.06" cy="30.539" r="7.961"/><path fill="#EA9C92" d="M-503.905 30.695s4.232 2.197 7.257 2.443c3.025.246 2.546-2.338 2.546-2.338l-8.888-1.967-.915 1.862z"/><path fill="#FF2C9C" d="M-495.642 31.805s-3.688-1.898-7.078-1.473c-.797.1-1.556.465-2.108 1.049-.18.191-.403.361-.644.396-.602.09-1.39-2.439-2.537-2.58-1.147-.141-1.976.617-1.144 2.197.832 1.582.387 3.25-.065 3.461-.453.209-4.798-3.66-.136-11.41 4.662-7.748 14.663-2.646 16.147-.895 0 0 1.582 1.598 3.055.389.001 0 .686 11.666-5.49 8.866z"/><path fill="#FFF" d="M-499.316 36.24l2.092-.412s-1.093 1.467-2.551 1.754c-1.458.287-1.59-.939-1.59-.939l2.049-.403z"/><path fill="#396CAA" d="M-523.649 43.37c.043.049 6.464 7.232 9.866 8.268 0 0-3.422 9.434-3.906 17.874l-.002.02c.242-5.739.322-11.28.341-15.401-.002-.002-3.914-2.246-6.299-10.761zm38.521-4.614c-2.111 9.672-7.273 13.406-7.273 13.406-.006-.639-.011-4.846-.011-4.846 2.594-1.501 7.23-8.478 7.284-8.56z"/><circle fill="#FFF" cx="-508.714" cy="32.026" r="1.172"/><path d="M-323.882 205.417v-7.287h1.697c.439 0 .807.045 1.104.133.295.088.533.227.711.418.18.189.305.424.381.699.074.277.111.619.111 1.023v2.627c0 .416-.037.77-.113 1.061a1.81 1.81 0 01-.375.736 1.531 1.531 0 01-.697.447c-.291.096-.646.143-1.068.143h-1.751zm1.328-.932h.379c.131 0 .246-.012.346-.035s.184-.051.25-.084a.389.389 0 00.17-.158c.045-.072.08-.141.104-.201.023-.063.041-.156.053-.279.012-.125.02-.23.021-.318.004-.088.006-.219.006-.393v-2.662c0-.172-.004-.313-.01-.418s-.02-.211-.043-.318a.636.636 0 00-.096-.248.661.661 0 00-.434-.262 2.274 2.274 0 00-.381-.029h-.365v5.405zm3.172.932l1.482-7.287h1.383l1.479 7.287h-1.236l-.293-1.691h-1.262l-.299 1.691h-1.254zm1.694-2.559h.975l-.486-2.992-.489 2.992zm3.822 2.559v-6.307h-1.221v-.98h3.729v.98h-1.182v6.307h-1.326zm2.676 0l1.482-7.287h1.383l1.477 7.287h-1.234l-.295-1.691h-1.26l-.299 1.691h-1.254zm1.693-2.559h.975l-.488-2.992-.487 2.992zm-26.732 13.358v-7.285h2.096c1.242 0 1.863.689 1.863 2.068 0 .68-.17 1.174-.51 1.488-.34.316-.818.473-1.436.473h-.688v3.256h-1.325zm1.326-4.188h.428c.375 0 .629-.074.76-.221.133-.148.197-.42.197-.816 0-.225-.008-.4-.025-.523-.018-.121-.059-.234-.123-.336s-.162-.17-.287-.209a1.932 1.932 0 00-.518-.057h-.432v2.162zm3.341 4.188v-7.285h1.67c.383 0 .713.031.988.094s.514.168.717.316c.205.148.357.35.457.602.102.254.152.564.152.932 0 .455-.068.828-.205 1.121-.135.287-.359.5-.674.631l1.012 3.59h-1.332l-.869-3.326h-.59v3.326h-1.326zm1.327-4.174h.32c.393 0 .672-.084.838-.252.164-.166.248-.451.248-.855 0-.391-.072-.67-.215-.836-.145-.17-.408-.254-.791-.254h-.4v2.197zm5.646 4.264c-.75 0-1.287-.205-1.611-.613-.326-.406-.488-1.002-.488-1.787v-2.689c0-.387.035-.721.109-1.008.072-.283.191-.527.354-.738a1.51 1.51 0 01.652-.467c.273-.104.602-.154.984-.154.748 0 1.285.199 1.611.6.326.402.49.99.49 1.768v2.689c0 .381-.037.715-.113 1.004a2.045 2.045 0 01-.355.752 1.484 1.484 0 01-.652.48 2.71 2.71 0 01-.981.163zm-.332-1.041c.092.037.203.055.332.055s.238-.018.33-.055a.59.59 0 00.217-.152.622.622 0 00.129-.24c.029-.1.051-.199.061-.299s.016-.219.016-.357v-3.309c0-.176-.01-.322-.025-.439a1.188 1.188 0 00-.104-.33.507.507 0 00-.23-.234c-.104-.051-.234-.076-.393-.076s-.289.025-.393.076a.472.472 0 00-.23.234c-.051.104-.084.213-.102.33s-.027.264-.027.439v3.309c0 .139.006.258.016.357s.031.199.063.299c.029.1.072.182.125.24a.55.55 0 00.215.152zm5.359 1.041c-.313 0-.59-.041-.83-.119-.24-.08-.439-.189-.596-.33s-.283-.314-.383-.523a2.488 2.488 0 01-.205-.67 4.795 4.795 0 01-.061-.807v-2.541c0-.316.021-.596.063-.84.041-.246.109-.473.207-.682.096-.209.223-.381.379-.516s.354-.24.594-.318c.238-.074.516-.111.832-.111.363 0 .674.047.932.143.258.098.463.24.611.426.148.189.258.408.326.658.066.25.1.543.1.877v.623h-1.277v-.619c0-.363-.02-.607-.059-.732-.076-.248-.262-.379-.559-.396h-.07c-.109 0-.209.014-.291.039-.084.025-.152.068-.205.125s-.096.119-.127.182a.9.9 0 00-.072.254 2.696 2.696 0 00-.031.289 7.496 7.496 0 00-.006.332v3.086c0 .428.053.732.16.914.105.182.297.271.572.271.096 0 .178-.01.25-.033a.666.666 0 00.18-.082.398.398 0 00.123-.146c.033-.063.059-.121.076-.176.018-.053.031-.129.041-.227a3.09 3.09 0 00.014-.246 9.02 9.02 0 00.004-.275v-.65h1.277v.598c0 .271-.02.518-.057.732a2.275 2.275 0 01-.195.611 1.44 1.44 0 01-.359.475c-.146.127-.334.225-.563.297s-.492.107-.795.107zm2.887-.09v-7.285h3.051v.936h-1.723v2.092h1.363v.936h-1.363v2.404h1.744v.918h-3.072zm5.674.09c-1.283 0-1.957-.742-2.021-2.225l1.156-.24c.029.963.305 1.443.824 1.443.203 0 .354-.061.451-.184s.146-.289.146-.498c0-.199-.035-.387-.109-.555a1.506 1.506 0 00-.254-.414 5.862 5.862 0 00-.414-.396l-.957-.832a2.69 2.69 0 01-.629-.766c-.137-.266-.207-.598-.207-.996 0-.564.166-1.004.5-1.318.332-.313.789-.473 1.367-.477.268-.004.504.027.709.098.205.068.373.16.508.277.133.115.244.26.334.432.088.174.154.352.199.539.043.186.074.393.092.621l-1.133.225a5.048 5.048 0 00-.029-.383 2.128 2.128 0 00-.068-.33.827.827 0 00-.125-.27.548.548 0 00-.508-.213c-.195.012-.346.076-.449.195-.105.119-.156.277-.156.477 0 .234.045.428.139.578.092.15.236.313.432.484l.949.826c.158.145.297.283.414.418s.229.289.336.461c.107.174.188.365.244.572.055.209.082.428.082.658 0 .531-.166.963-.502 1.293-.337.334-.776.5-1.321.5zm4.439 0c-1.283 0-1.957-.742-2.021-2.225l1.154-.24c.029.963.305 1.443.826 1.443.203 0 .354-.061.451-.184s.146-.289.146-.498c0-.199-.035-.387-.109-.555a1.506 1.506 0 00-.254-.414 5.862 5.862 0 00-.414-.396l-.957-.832a2.656 2.656 0 01-.629-.766c-.139-.266-.207-.598-.207-.996 0-.564.166-1.004.5-1.318.332-.313.787-.473 1.367-.477.268-.004.504.027.709.098.205.068.373.16.508.277.133.115.244.26.334.432.088.174.154.352.199.539.043.186.074.393.092.621l-1.133.225a5.048 5.048 0 00-.029-.383 2.128 2.128 0 00-.068-.33.827.827 0 00-.125-.27.548.548 0 00-.508-.213c-.195.012-.346.076-.449.195-.105.119-.156.277-.156.477 0 .234.045.428.139.578.092.15.236.313.432.484l.949.826c.158.145.297.283.414.418s.229.289.336.461c.107.174.188.365.244.572.055.209.082.428.082.658 0 .531-.166.963-.502 1.293-.336.334-.776.5-1.321.5zm2.639-.09v-7.285h1.311v7.285h-1.311zm2.432 0v-7.285h.914l1.785 4.127v-4.127h1.098v7.285h-.869l-1.803-4.338v4.338h-1.125zm6.711.097c-.689 0-1.184-.215-1.488-.646-.303-.432-.455-1.057-.455-1.881v-2.373c0-.418.033-.779.1-1.084.066-.301.176-.566.332-.797.154-.227.369-.4.641-.514.273-.115.607-.17 1.002-.17.721 0 1.238.174 1.553.527.313.354.469.889.469 1.605v.357h-1.27v-.379c0-.16-.004-.293-.01-.395a1.686 1.686 0 00-.053-.311.563.563 0 00-.121-.24.584.584 0 00-.217-.135.925.925 0 00-.334-.053c-.1 0-.188.014-.266.037-.076.025-.143.055-.195.092s-.098.09-.133.156c-.037.068-.064.133-.084.195s-.033.145-.045.246c-.01.1-.016.186-.02.262-.002.076-.004.174-.004.295v2.939c0 .439.055.762.162.965.109.203.314.305.619.305.158 0 .291-.029.398-.09s.191-.15.25-.271c.061-.123.104-.262.129-.418a3.95 3.95 0 00.037-.57v-.596h-.787v-.857h1.982v3.699h-.861l-.098-.738c-.218.559-.63.838-1.233.838zm140.754-10.654v-7.285h2.994v.918h-1.666v2.117h1.332v.938h-1.332v3.313h-1.328zm3.732 0v-7.285h1.309v7.285h-1.309zm2.43 0v-7.285h.914l1.783 4.125v-4.125h1.1v7.285h-.871l-1.801-4.338v4.338h-1.125zm4.926 0v-7.285h1.311v7.285h-1.311zm4.267.088c-1.283 0-1.957-.742-2.021-2.225l1.156-.24c.029.963.305 1.445.826 1.445.201 0 .352-.063.449-.186s.148-.287.148-.496a1.493 1.493 0 00-.365-.969 5.071 5.071 0 00-.414-.396l-.957-.832c-.281-.246-.49-.5-.629-.768-.137-.264-.207-.596-.207-.994 0-.566.166-1.006.5-1.318.332-.314.789-.473 1.369-.479.266-.004.502.029.707.1.205.066.373.16.508.275.133.115.244.26.334.434.088.172.156.352.199.539.045.184.074.393.092.621l-1.133.223a4.91 4.91 0 00-.029-.381 2.082 2.082 0 00-.068-.33.843.843 0 00-.125-.271.553.553 0 00-.207-.164.593.593 0 00-.301-.049c-.195.012-.346.078-.449.195-.105.119-.156.279-.156.479 0 .234.045.428.139.576.092.152.236.314.432.486l.949.826c.158.145.297.283.414.418s.229.289.336.461c.107.174.188.363.244.572.055.207.084.428.084.658 0 .531-.168.961-.504 1.293-.337.331-.776.497-1.321.497zm2.615-.088v-7.285h1.326v3.045h1.48v-3.045h1.328v7.285h-1.328v-3.297h-1.48v3.297h-1.326zm5.239 0v-7.285h3.049v.936h-1.723v2.092h1.363v.936h-1.363v2.404h1.744v.918h-3.07zm3.836 0v-7.285h1.695c.439 0 .809.043 1.104.131.297.088.533.227.713.418.178.189.305.424.379.701.074.275.113.617.113 1.021v2.627c0 .416-.039.77-.115 1.059a1.805 1.805 0 01-.375.738 1.52 1.52 0 01-.697.447c-.289.094-.646.143-1.068.143h-1.749zm1.326-.931h.379c.131 0 .248-.012.348-.035s.182-.051.25-.084a.396.396 0 00.168-.158c.047-.072.08-.141.104-.201.023-.063.041-.156.053-.279a5.331 5.331 0 00.027-.711v-2.662c0-.174-.004-.313-.01-.418s-.02-.211-.041-.318-.055-.189-.098-.248a.672.672 0 00-.432-.262 2.096 2.096 0 00-.383-.029h-.365v5.405zm-25.221 11.73v-7.285h1.67c.383 0 .713.031.988.094s.514.17.719.316c.203.148.355.35.457.604.102.252.15.563.15.928 0 .457-.066.83-.203 1.121-.137.289-.361.5-.676.635l1.012 3.588h-1.332l-.869-3.326h-.59v3.326h-1.326zm1.326-4.174h.32c.393 0 .672-.084.838-.252.166-.166.248-.451.248-.855 0-.391-.072-.67-.215-.836-.145-.17-.408-.254-.791-.254h-.4v2.197zm3.666 4.174v-7.285h3.049v.936h-1.723v2.092h1.363v.938h-1.363v2.402h1.744v.918h-3.07zm5.672.088c-1.283 0-1.957-.74-2.021-2.223l1.156-.242c.029.965.305 1.447.826 1.447.203 0 .352-.063.451-.186.098-.123.146-.287.146-.496 0-.203-.037-.389-.109-.557a1.509 1.509 0 00-.256-.414 5.76 5.76 0 00-.412-.396l-.959-.832a2.62 2.62 0 01-.627-.766c-.139-.266-.207-.598-.207-.994 0-.566.166-1.006.498-1.32.332-.313.789-.471 1.369-.477.268-.004.502.029.707.098s.375.16.508.277c.133.115.244.26.334.432.09.174.156.352.201.539.043.186.074.393.092.621l-1.135.225a6.505 6.505 0 00-.027-.383 2.453 2.453 0 00-.068-.33.892.892 0 00-.125-.27.592.592 0 00-.207-.166.597.597 0 00-.301-.047c-.197.012-.348.076-.451.195s-.156.279-.156.477c0 .236.047.428.139.578s.236.313.434.484l.949.826c.158.145.295.285.412.418.117.135.23.289.336.463.107.172.189.363.244.57.057.209.084.43.084.658 0 .531-.168.963-.504 1.293-.335.334-.776.498-1.321.498zm4.598 0a2.8 2.8 0 01-.846-.113 1.589 1.589 0 01-.59-.322 1.46 1.46 0 01-.369-.529 2.807 2.807 0 01-.193-.697 6.05 6.05 0 01-.055-.871v-4.84h1.287v4.975c0 .17.006.314.014.434.01.121.027.246.057.379a.968.968 0 00.125.318.684.684 0 00.571.275.671.671 0 00.565-.275c.051-.082.092-.188.123-.318.031-.133.049-.258.057-.375a6.72 6.72 0 00.012-.438v-4.975h1.287v4.84c0 .33-.018.619-.055.871a2.85 2.85 0 01-.193.697 1.463 1.463 0 01-.367.529 1.557 1.557 0 01-.586.322 2.823 2.823 0 01-.844.113zm3.076-.088v-7.285h1.326v6.367h1.746v.918h-3.072zm4.297 0v-6.305h-1.221v-.98h3.73v.98h-1.182v6.305h-1.327z" fill="#396CAA"/><path fill="#D4ECFF" d="M-109.409 179.454l-10.713-6.183-10.711 6.183 10.711 6.186z"/><path fill="#D3008D" d="M-120.122 179.903v-6.968l12.799-7.389v6.969zm0-6.968l-12.797-7.389v6.969l12.797 7.388z"/><path fill="#FF2C9C" d="M-107.323 165.546l-12.799-7.389-12.797 7.389 12.797 7.389z"/><path fill="#D4ECFF" d="M128.2 183.944l-12.018-6.939-12.019 6.939 12.019 6.941z"/><path fill="#D3008D" d="M116.182 184.446v-7.817l14.36-8.29v7.817zm0-7.817l-14.359-8.29v7.817l14.359 8.29z"/><path fill="#FF2C9C" d="M130.542 168.339l-14.36-8.291-14.359 8.291 14.359 8.29z"/><path fill="#D4ECFF" d="M-526.161 179.192l-11.164-6.445-11.165 6.445 11.165 6.448z"/><path fill="#396CAA" d="M-537.325 178.497v-7.264l13.338-7.701v7.264z"/><path fill="#173D7A" d="M-537.325 171.233l-13.339-7.701v7.264l13.339 7.701z"/><path fill="#5793CE" d="M-523.987 163.532l-13.338-7.701-13.339 7.701 13.339 7.701z"/></svg>